G04 #@! TF.GenerationSoftware,KiCad,Pcbnew,(5.1.2-1)-1*
G04 #@! TF.CreationDate,2022-07-30T23:34:54+02:00*
G04 #@! TF.ProjectId,ElectronBreadBoard,456c6563-7472-46f6-9e42-72656164426f,rev?*
G04 #@! TF.SameCoordinates,Original*
G04 #@! TF.FileFunction,Copper,L1,Top*
G04 #@! TF.FilePolarity,Positive*
%FSLAX46Y46*%
G04 Gerber Fmt 4.6, Leading zero omitted, Abs format (unit mm)*
G04 Created by KiCad (PCBNEW (5.1.2-1)-1) date 2022-07-30 23:34:54*
%MOMM*%
%LPD*%
G04 APERTURE LIST*
%ADD10R,1.270000X11.000000*%
%ADD11O,1.700000X1.700000*%
%ADD12R,1.700000X1.700000*%
%ADD13C,0.400000*%
%ADD14C,0.250000*%
G04 APERTURE END LIST*
D10*
X137965000Y-171750000D03*
X135425000Y-171750000D03*
X132885000Y-171750000D03*
X130345000Y-171750000D03*
X127805000Y-171750000D03*
X125265000Y-171750000D03*
X122725000Y-171750000D03*
X120185000Y-171750000D03*
X117645000Y-171750000D03*
X115105000Y-171750000D03*
X112565000Y-171750000D03*
X110025000Y-171750000D03*
X107485000Y-171750000D03*
X104945000Y-171750000D03*
X102405000Y-171750000D03*
X99865000Y-171750000D03*
X97325000Y-171750000D03*
X94785000Y-171750000D03*
X92245000Y-171750000D03*
X89705000Y-171750000D03*
X87165000Y-171750000D03*
X84625000Y-171750000D03*
D11*
X155630000Y-145940000D03*
X155630000Y-148480000D03*
X153090000Y-145940000D03*
X153090000Y-148480000D03*
X150550000Y-145940000D03*
X150550000Y-148480000D03*
X148010000Y-145940000D03*
X148010000Y-148480000D03*
X145470000Y-145940000D03*
X145470000Y-148480000D03*
X142930000Y-145940000D03*
X142930000Y-148480000D03*
X140390000Y-145940000D03*
X140390000Y-148480000D03*
X137850000Y-145940000D03*
X137850000Y-148480000D03*
X135310000Y-145940000D03*
X135310000Y-148480000D03*
X132770000Y-145940000D03*
X132770000Y-148480000D03*
X130230000Y-145940000D03*
X130230000Y-148480000D03*
X127690000Y-145940000D03*
X127690000Y-148480000D03*
X125150000Y-145940000D03*
X125150000Y-148480000D03*
X122610000Y-145940000D03*
X122610000Y-148480000D03*
X120070000Y-145940000D03*
X120070000Y-148480000D03*
X117530000Y-145940000D03*
X117530000Y-148480000D03*
X114990000Y-145940000D03*
X114990000Y-148480000D03*
X112450000Y-145940000D03*
X112450000Y-148480000D03*
X109910000Y-145940000D03*
X109910000Y-148480000D03*
X107370000Y-145940000D03*
X107370000Y-148480000D03*
X104830000Y-145940000D03*
X104830000Y-148480000D03*
X102290000Y-145940000D03*
D12*
X102290000Y-148480000D03*
D11*
X86850000Y-139610000D03*
X84310000Y-139610000D03*
X81770000Y-139610000D03*
X79230000Y-139610000D03*
X76690000Y-139610000D03*
X74150000Y-139610000D03*
X71610000Y-139610000D03*
X69070000Y-139610000D03*
D12*
X66530000Y-139610000D03*
D11*
X86890000Y-135140000D03*
X84350000Y-135140000D03*
X81810000Y-135140000D03*
X79270000Y-135140000D03*
X76730000Y-135140000D03*
X74190000Y-135140000D03*
X71650000Y-135140000D03*
X69110000Y-135140000D03*
D12*
X66570000Y-135140000D03*
D11*
X109780000Y-56390000D03*
X109780000Y-58930000D03*
X107240000Y-56390000D03*
X107240000Y-58930000D03*
X104700000Y-56390000D03*
X104700000Y-58930000D03*
X102160000Y-56390000D03*
X102160000Y-58930000D03*
X99620000Y-56390000D03*
X99620000Y-58930000D03*
X97080000Y-56390000D03*
X97080000Y-58930000D03*
X94540000Y-56390000D03*
X94540000Y-58930000D03*
X92000000Y-56390000D03*
X92000000Y-58930000D03*
X89460000Y-56390000D03*
X89460000Y-58930000D03*
X86920000Y-56390000D03*
X86920000Y-58930000D03*
X84380000Y-56390000D03*
X84380000Y-58930000D03*
X81840000Y-56390000D03*
X81840000Y-58930000D03*
X79300000Y-56390000D03*
X79300000Y-58930000D03*
X76760000Y-56390000D03*
X76760000Y-58930000D03*
X74220000Y-56390000D03*
X74220000Y-58930000D03*
X71680000Y-56390000D03*
X71680000Y-58930000D03*
X69140000Y-56390000D03*
D12*
X69140000Y-58930000D03*
D11*
X155430000Y-74160000D03*
X152890000Y-74160000D03*
X150350000Y-74160000D03*
X147810000Y-74160000D03*
X145270000Y-74160000D03*
X142730000Y-74160000D03*
X140190000Y-74160000D03*
X137650000Y-74160000D03*
X135110000Y-74160000D03*
X132570000Y-74160000D03*
X130030000Y-74160000D03*
X127490000Y-74160000D03*
X124950000Y-74160000D03*
X122410000Y-74160000D03*
X119870000Y-74160000D03*
X117330000Y-74160000D03*
X114790000Y-74160000D03*
X112250000Y-74160000D03*
X109710000Y-74160000D03*
X107170000Y-74160000D03*
X104630000Y-74160000D03*
X102090000Y-74160000D03*
X99550000Y-74160000D03*
X97010000Y-74160000D03*
X94470000Y-74160000D03*
X91930000Y-74160000D03*
X89390000Y-74160000D03*
X86850000Y-74160000D03*
X84310000Y-74160000D03*
X81770000Y-74160000D03*
X79230000Y-74160000D03*
X76690000Y-74160000D03*
X74150000Y-74160000D03*
X71610000Y-74160000D03*
X69070000Y-74160000D03*
D12*
X66530000Y-74160000D03*
D11*
X155430000Y-89400000D03*
X152890000Y-89400000D03*
X150350000Y-89400000D03*
X147810000Y-89400000D03*
X145270000Y-89400000D03*
X142730000Y-89400000D03*
X140190000Y-89400000D03*
X137650000Y-89400000D03*
X135110000Y-89400000D03*
X132570000Y-89400000D03*
X130030000Y-89400000D03*
X127490000Y-89400000D03*
X124950000Y-89400000D03*
X122410000Y-89400000D03*
X119870000Y-89400000D03*
X117330000Y-89400000D03*
X114790000Y-89400000D03*
X112250000Y-89400000D03*
X109710000Y-89400000D03*
X107170000Y-89400000D03*
X104630000Y-89400000D03*
X102090000Y-89400000D03*
X99550000Y-89400000D03*
X97010000Y-89400000D03*
X94470000Y-89400000D03*
X91930000Y-89400000D03*
X89390000Y-89400000D03*
X86850000Y-89400000D03*
X84310000Y-89400000D03*
X81770000Y-89400000D03*
X79230000Y-89400000D03*
X76690000Y-89400000D03*
X74150000Y-89400000D03*
X71610000Y-89400000D03*
X69070000Y-89400000D03*
D12*
X66530000Y-89400000D03*
D11*
X155420000Y-76700000D03*
X152880000Y-76700000D03*
X150340000Y-76700000D03*
X147800000Y-76700000D03*
X145260000Y-76700000D03*
X142720000Y-76700000D03*
X140180000Y-76700000D03*
X137640000Y-76700000D03*
X135100000Y-76700000D03*
X132560000Y-76700000D03*
X130020000Y-76700000D03*
X127480000Y-76700000D03*
X124940000Y-76700000D03*
X122400000Y-76700000D03*
X119860000Y-76700000D03*
X117320000Y-76700000D03*
X114780000Y-76700000D03*
X112240000Y-76700000D03*
X109700000Y-76700000D03*
X107160000Y-76700000D03*
X104620000Y-76700000D03*
X102080000Y-76700000D03*
X99540000Y-76700000D03*
X97000000Y-76700000D03*
X94460000Y-76700000D03*
X91920000Y-76700000D03*
X89380000Y-76700000D03*
X86840000Y-76700000D03*
X84300000Y-76700000D03*
X81760000Y-76700000D03*
X79220000Y-76700000D03*
X76680000Y-76700000D03*
X74140000Y-76700000D03*
X71600000Y-76700000D03*
X69060000Y-76700000D03*
D12*
X66520000Y-76700000D03*
D11*
X155430000Y-91940000D03*
X152890000Y-91940000D03*
X150350000Y-91940000D03*
X147810000Y-91940000D03*
X145270000Y-91940000D03*
X142730000Y-91940000D03*
X140190000Y-91940000D03*
X137650000Y-91940000D03*
X135110000Y-91940000D03*
X132570000Y-91940000D03*
X130030000Y-91940000D03*
X127490000Y-91940000D03*
X124950000Y-91940000D03*
X122410000Y-91940000D03*
X119870000Y-91940000D03*
X117330000Y-91940000D03*
X114790000Y-91940000D03*
X112250000Y-91940000D03*
X109710000Y-91940000D03*
X107170000Y-91940000D03*
X104630000Y-91940000D03*
X102090000Y-91940000D03*
X99550000Y-91940000D03*
X97010000Y-91940000D03*
X94470000Y-91940000D03*
X91930000Y-91940000D03*
X89390000Y-91940000D03*
X86850000Y-91940000D03*
X84310000Y-91940000D03*
X81770000Y-91940000D03*
X79230000Y-91940000D03*
X76690000Y-91940000D03*
X74150000Y-91940000D03*
X71610000Y-91940000D03*
X69070000Y-91940000D03*
D12*
X66530000Y-91940000D03*
D11*
X155430000Y-79240000D03*
X152890000Y-79240000D03*
X150350000Y-79240000D03*
X147810000Y-79240000D03*
X145270000Y-79240000D03*
X142730000Y-79240000D03*
X140190000Y-79240000D03*
X137650000Y-79240000D03*
X135110000Y-79240000D03*
X132570000Y-79240000D03*
X130030000Y-79240000D03*
X127490000Y-79240000D03*
X124950000Y-79240000D03*
X122410000Y-79240000D03*
X119870000Y-79240000D03*
X117330000Y-79240000D03*
X114790000Y-79240000D03*
X112250000Y-79240000D03*
X109710000Y-79240000D03*
X107170000Y-79240000D03*
X104630000Y-79240000D03*
X102090000Y-79240000D03*
X99550000Y-79240000D03*
X97010000Y-79240000D03*
X94470000Y-79240000D03*
X91930000Y-79240000D03*
X89390000Y-79240000D03*
X86850000Y-79240000D03*
X84310000Y-79240000D03*
X81770000Y-79240000D03*
X79230000Y-79240000D03*
X76690000Y-79240000D03*
X74150000Y-79240000D03*
X71610000Y-79240000D03*
X69070000Y-79240000D03*
D12*
X66530000Y-79240000D03*
D11*
X155430000Y-94480000D03*
X152890000Y-94480000D03*
X150350000Y-94480000D03*
X147810000Y-94480000D03*
X145270000Y-94480000D03*
X142730000Y-94480000D03*
X140190000Y-94480000D03*
X137650000Y-94480000D03*
X135110000Y-94480000D03*
X132570000Y-94480000D03*
X130030000Y-94480000D03*
X127490000Y-94480000D03*
X124950000Y-94480000D03*
X122410000Y-94480000D03*
X119870000Y-94480000D03*
X117330000Y-94480000D03*
X114790000Y-94480000D03*
X112250000Y-94480000D03*
X109710000Y-94480000D03*
X107170000Y-94480000D03*
X104630000Y-94480000D03*
X102090000Y-94480000D03*
X99550000Y-94480000D03*
X97010000Y-94480000D03*
X94470000Y-94480000D03*
X91930000Y-94480000D03*
X89390000Y-94480000D03*
X86850000Y-94480000D03*
X84310000Y-94480000D03*
X81770000Y-94480000D03*
X79230000Y-94480000D03*
X76690000Y-94480000D03*
X74150000Y-94480000D03*
X71610000Y-94480000D03*
X69070000Y-94480000D03*
D12*
X66530000Y-94480000D03*
D11*
X155430000Y-81780000D03*
X152890000Y-81780000D03*
X150350000Y-81780000D03*
X147810000Y-81780000D03*
X145270000Y-81780000D03*
X142730000Y-81780000D03*
X140190000Y-81780000D03*
X137650000Y-81780000D03*
X135110000Y-81780000D03*
X132570000Y-81780000D03*
X130030000Y-81780000D03*
X127490000Y-81780000D03*
X124950000Y-81780000D03*
X122410000Y-81780000D03*
X119870000Y-81780000D03*
X117330000Y-81780000D03*
X114790000Y-81780000D03*
X112250000Y-81780000D03*
X109710000Y-81780000D03*
X107170000Y-81780000D03*
X104630000Y-81780000D03*
X102090000Y-81780000D03*
X99550000Y-81780000D03*
X97010000Y-81780000D03*
X94470000Y-81780000D03*
X91930000Y-81780000D03*
X89390000Y-81780000D03*
X86850000Y-81780000D03*
X84310000Y-81780000D03*
X81770000Y-81780000D03*
X79230000Y-81780000D03*
X76690000Y-81780000D03*
X74150000Y-81780000D03*
X71610000Y-81780000D03*
X69070000Y-81780000D03*
D12*
X66530000Y-81780000D03*
D11*
X155430000Y-97020000D03*
X152890000Y-97020000D03*
X150350000Y-97020000D03*
X147810000Y-97020000D03*
X145270000Y-97020000D03*
X142730000Y-97020000D03*
X140190000Y-97020000D03*
X137650000Y-97020000D03*
X135110000Y-97020000D03*
X132570000Y-97020000D03*
X130030000Y-97020000D03*
X127490000Y-97020000D03*
X124950000Y-97020000D03*
X122410000Y-97020000D03*
X119870000Y-97020000D03*
X117330000Y-97020000D03*
X114790000Y-97020000D03*
X112250000Y-97020000D03*
X109710000Y-97020000D03*
X107170000Y-97020000D03*
X104630000Y-97020000D03*
X102090000Y-97020000D03*
X99550000Y-97020000D03*
X97010000Y-97020000D03*
X94470000Y-97020000D03*
X91930000Y-97020000D03*
X89390000Y-97020000D03*
X86850000Y-97020000D03*
X84310000Y-97020000D03*
X81770000Y-97020000D03*
X79230000Y-97020000D03*
X76690000Y-97020000D03*
X74150000Y-97020000D03*
X71610000Y-97020000D03*
X69070000Y-97020000D03*
D12*
X66530000Y-97020000D03*
D11*
X155430000Y-84320000D03*
X152890000Y-84320000D03*
X150350000Y-84320000D03*
X147810000Y-84320000D03*
X145270000Y-84320000D03*
X142730000Y-84320000D03*
X140190000Y-84320000D03*
X137650000Y-84320000D03*
X135110000Y-84320000D03*
X132570000Y-84320000D03*
X130030000Y-84320000D03*
X127490000Y-84320000D03*
X124950000Y-84320000D03*
X122410000Y-84320000D03*
X119870000Y-84320000D03*
X117330000Y-84320000D03*
X114790000Y-84320000D03*
X112250000Y-84320000D03*
X109710000Y-84320000D03*
X107170000Y-84320000D03*
X104630000Y-84320000D03*
X102090000Y-84320000D03*
X99550000Y-84320000D03*
X97010000Y-84320000D03*
X94470000Y-84320000D03*
X91930000Y-84320000D03*
X89390000Y-84320000D03*
X86850000Y-84320000D03*
X84310000Y-84320000D03*
X81770000Y-84320000D03*
X79230000Y-84320000D03*
X76690000Y-84320000D03*
X74150000Y-84320000D03*
X71610000Y-84320000D03*
X69070000Y-84320000D03*
D12*
X66530000Y-84320000D03*
D11*
X155430000Y-99560000D03*
X152890000Y-99560000D03*
X150350000Y-99560000D03*
X147810000Y-99560000D03*
X145270000Y-99560000D03*
X142730000Y-99560000D03*
X140190000Y-99560000D03*
X137650000Y-99560000D03*
X135110000Y-99560000D03*
X132570000Y-99560000D03*
X130030000Y-99560000D03*
X127490000Y-99560000D03*
X124950000Y-99560000D03*
X122410000Y-99560000D03*
X119870000Y-99560000D03*
X117330000Y-99560000D03*
X114790000Y-99560000D03*
X112250000Y-99560000D03*
X109710000Y-99560000D03*
X107170000Y-99560000D03*
X104630000Y-99560000D03*
X102090000Y-99560000D03*
X99550000Y-99560000D03*
X97010000Y-99560000D03*
X94470000Y-99560000D03*
X91930000Y-99560000D03*
X89390000Y-99560000D03*
X86850000Y-99560000D03*
X84310000Y-99560000D03*
X81770000Y-99560000D03*
X79230000Y-99560000D03*
X76690000Y-99560000D03*
X74150000Y-99560000D03*
X71610000Y-99560000D03*
X69070000Y-99560000D03*
D12*
X66530000Y-99560000D03*
D11*
X155430000Y-104640000D03*
X152890000Y-104640000D03*
X150350000Y-104640000D03*
X147810000Y-104640000D03*
X145270000Y-104640000D03*
X142730000Y-104640000D03*
X140190000Y-104640000D03*
X137650000Y-104640000D03*
X135110000Y-104640000D03*
X132570000Y-104640000D03*
X130030000Y-104640000D03*
X127490000Y-104640000D03*
X124950000Y-104640000D03*
X122410000Y-104640000D03*
X119870000Y-104640000D03*
X117330000Y-104640000D03*
X114790000Y-104640000D03*
X112250000Y-104640000D03*
X109710000Y-104640000D03*
X107170000Y-104640000D03*
X104630000Y-104640000D03*
X102090000Y-104640000D03*
X99550000Y-104640000D03*
X97010000Y-104640000D03*
X94470000Y-104640000D03*
X91930000Y-104640000D03*
X89390000Y-104640000D03*
X86850000Y-104640000D03*
X84310000Y-104640000D03*
X81770000Y-104640000D03*
X79230000Y-104640000D03*
X76690000Y-104640000D03*
X74150000Y-104640000D03*
X71610000Y-104640000D03*
X69070000Y-104640000D03*
D12*
X66530000Y-104640000D03*
D11*
X155430000Y-119880000D03*
X152890000Y-119880000D03*
X150350000Y-119880000D03*
X147810000Y-119880000D03*
X145270000Y-119880000D03*
X142730000Y-119880000D03*
X140190000Y-119880000D03*
X137650000Y-119880000D03*
X135110000Y-119880000D03*
X132570000Y-119880000D03*
X130030000Y-119880000D03*
X127490000Y-119880000D03*
X124950000Y-119880000D03*
X122410000Y-119880000D03*
X119870000Y-119880000D03*
X117330000Y-119880000D03*
X114790000Y-119880000D03*
X112250000Y-119880000D03*
X109710000Y-119880000D03*
X107170000Y-119880000D03*
X104630000Y-119880000D03*
X102090000Y-119880000D03*
X99550000Y-119880000D03*
X97010000Y-119880000D03*
X94470000Y-119880000D03*
X91930000Y-119880000D03*
X89390000Y-119880000D03*
X86850000Y-119880000D03*
X84310000Y-119880000D03*
X81770000Y-119880000D03*
X79230000Y-119880000D03*
X76690000Y-119880000D03*
X74150000Y-119880000D03*
X71610000Y-119880000D03*
X69070000Y-119880000D03*
D12*
X66530000Y-119880000D03*
D11*
X155430000Y-107180000D03*
X152890000Y-107180000D03*
X150350000Y-107180000D03*
X147810000Y-107180000D03*
X145270000Y-107180000D03*
X142730000Y-107180000D03*
X140190000Y-107180000D03*
X137650000Y-107180000D03*
X135110000Y-107180000D03*
X132570000Y-107180000D03*
X130030000Y-107180000D03*
X127490000Y-107180000D03*
X124950000Y-107180000D03*
X122410000Y-107180000D03*
X119870000Y-107180000D03*
X117330000Y-107180000D03*
X114790000Y-107180000D03*
X112250000Y-107180000D03*
X109710000Y-107180000D03*
X107170000Y-107180000D03*
X104630000Y-107180000D03*
X102090000Y-107180000D03*
X99550000Y-107180000D03*
X97010000Y-107180000D03*
X94470000Y-107180000D03*
X91930000Y-107180000D03*
X89390000Y-107180000D03*
X86850000Y-107180000D03*
X84310000Y-107180000D03*
X81770000Y-107180000D03*
X79230000Y-107180000D03*
X76690000Y-107180000D03*
X74150000Y-107180000D03*
X71610000Y-107180000D03*
X69070000Y-107180000D03*
D12*
X66530000Y-107180000D03*
D11*
X155430000Y-122420000D03*
X152890000Y-122420000D03*
X150350000Y-122420000D03*
X147810000Y-122420000D03*
X145270000Y-122420000D03*
X142730000Y-122420000D03*
X140190000Y-122420000D03*
X137650000Y-122420000D03*
X135110000Y-122420000D03*
X132570000Y-122420000D03*
X130030000Y-122420000D03*
X127490000Y-122420000D03*
X124950000Y-122420000D03*
X122410000Y-122420000D03*
X119870000Y-122420000D03*
X117330000Y-122420000D03*
X114790000Y-122420000D03*
X112250000Y-122420000D03*
X109710000Y-122420000D03*
X107170000Y-122420000D03*
X104630000Y-122420000D03*
X102090000Y-122420000D03*
X99550000Y-122420000D03*
X97010000Y-122420000D03*
X94470000Y-122420000D03*
X91930000Y-122420000D03*
X89390000Y-122420000D03*
X86850000Y-122420000D03*
X84310000Y-122420000D03*
X81770000Y-122420000D03*
X79230000Y-122420000D03*
X76690000Y-122420000D03*
X74150000Y-122420000D03*
X71610000Y-122420000D03*
X69070000Y-122420000D03*
D12*
X66530000Y-122420000D03*
D11*
X155430000Y-109720000D03*
X152890000Y-109720000D03*
X150350000Y-109720000D03*
X147810000Y-109720000D03*
X145270000Y-109720000D03*
X142730000Y-109720000D03*
X140190000Y-109720000D03*
X137650000Y-109720000D03*
X135110000Y-109720000D03*
X132570000Y-109720000D03*
X130030000Y-109720000D03*
X127490000Y-109720000D03*
X124950000Y-109720000D03*
X122410000Y-109720000D03*
X119870000Y-109720000D03*
X117330000Y-109720000D03*
X114790000Y-109720000D03*
X112250000Y-109720000D03*
X109710000Y-109720000D03*
X107170000Y-109720000D03*
X104630000Y-109720000D03*
X102090000Y-109720000D03*
X99550000Y-109720000D03*
X97010000Y-109720000D03*
X94470000Y-109720000D03*
X91930000Y-109720000D03*
X89390000Y-109720000D03*
X86850000Y-109720000D03*
X84310000Y-109720000D03*
X81770000Y-109720000D03*
X79230000Y-109720000D03*
X76690000Y-109720000D03*
X74150000Y-109720000D03*
X71610000Y-109720000D03*
X69070000Y-109720000D03*
D12*
X66530000Y-109720000D03*
D11*
X155430000Y-124960000D03*
X152890000Y-124960000D03*
X150350000Y-124960000D03*
X147810000Y-124960000D03*
X145270000Y-124960000D03*
X142730000Y-124960000D03*
X140190000Y-124960000D03*
X137650000Y-124960000D03*
X135110000Y-124960000D03*
X132570000Y-124960000D03*
X130030000Y-124960000D03*
X127490000Y-124960000D03*
X124950000Y-124960000D03*
X122410000Y-124960000D03*
X119870000Y-124960000D03*
X117330000Y-124960000D03*
X114790000Y-124960000D03*
X112250000Y-124960000D03*
X109710000Y-124960000D03*
X107170000Y-124960000D03*
X104630000Y-124960000D03*
X102090000Y-124960000D03*
X99550000Y-124960000D03*
X97010000Y-124960000D03*
X94470000Y-124960000D03*
X91930000Y-124960000D03*
X89390000Y-124960000D03*
X86850000Y-124960000D03*
X84310000Y-124960000D03*
X81770000Y-124960000D03*
X79230000Y-124960000D03*
X76690000Y-124960000D03*
X74150000Y-124960000D03*
X71610000Y-124960000D03*
X69070000Y-124960000D03*
D12*
X66530000Y-124960000D03*
D11*
X155430000Y-112260000D03*
X152890000Y-112260000D03*
X150350000Y-112260000D03*
X147810000Y-112260000D03*
X145270000Y-112260000D03*
X142730000Y-112260000D03*
X140190000Y-112260000D03*
X137650000Y-112260000D03*
X135110000Y-112260000D03*
X132570000Y-112260000D03*
X130030000Y-112260000D03*
X127490000Y-112260000D03*
X124950000Y-112260000D03*
X122410000Y-112260000D03*
X119870000Y-112260000D03*
X117330000Y-112260000D03*
X114790000Y-112260000D03*
X112250000Y-112260000D03*
X109710000Y-112260000D03*
X107170000Y-112260000D03*
X104630000Y-112260000D03*
X102090000Y-112260000D03*
X99550000Y-112260000D03*
X97010000Y-112260000D03*
X94470000Y-112260000D03*
X91930000Y-112260000D03*
X89390000Y-112260000D03*
X86850000Y-112260000D03*
X84310000Y-112260000D03*
X81770000Y-112260000D03*
X79230000Y-112260000D03*
X76690000Y-112260000D03*
X74150000Y-112260000D03*
X71610000Y-112260000D03*
X69070000Y-112260000D03*
D12*
X66530000Y-112260000D03*
D11*
X155430000Y-127500000D03*
X152890000Y-127500000D03*
X150350000Y-127500000D03*
X147810000Y-127500000D03*
X145270000Y-127500000D03*
X142730000Y-127500000D03*
X140190000Y-127500000D03*
X137650000Y-127500000D03*
X135110000Y-127500000D03*
X132570000Y-127500000D03*
X130030000Y-127500000D03*
X127490000Y-127500000D03*
X124950000Y-127500000D03*
X122410000Y-127500000D03*
X119870000Y-127500000D03*
X117330000Y-127500000D03*
X114790000Y-127500000D03*
X112250000Y-127500000D03*
X109710000Y-127500000D03*
X107170000Y-127500000D03*
X104630000Y-127500000D03*
X102090000Y-127500000D03*
X99550000Y-127500000D03*
X97010000Y-127500000D03*
X94470000Y-127500000D03*
X91930000Y-127500000D03*
X89390000Y-127500000D03*
X86850000Y-127500000D03*
X84310000Y-127500000D03*
X81770000Y-127500000D03*
X79230000Y-127500000D03*
X76690000Y-127500000D03*
X74150000Y-127500000D03*
X71610000Y-127500000D03*
X69070000Y-127500000D03*
D12*
X66530000Y-127500000D03*
D11*
X155430000Y-114800000D03*
X152890000Y-114800000D03*
X150350000Y-114800000D03*
X147810000Y-114800000D03*
X145270000Y-114800000D03*
X142730000Y-114800000D03*
X140190000Y-114800000D03*
X137650000Y-114800000D03*
X135110000Y-114800000D03*
X132570000Y-114800000D03*
X130030000Y-114800000D03*
X127490000Y-114800000D03*
X124950000Y-114800000D03*
X122410000Y-114800000D03*
X119870000Y-114800000D03*
X117330000Y-114800000D03*
X114790000Y-114800000D03*
X112250000Y-114800000D03*
X109710000Y-114800000D03*
X107170000Y-114800000D03*
X104630000Y-114800000D03*
X102090000Y-114800000D03*
X99550000Y-114800000D03*
X97010000Y-114800000D03*
X94470000Y-114800000D03*
X91930000Y-114800000D03*
X89390000Y-114800000D03*
X86850000Y-114800000D03*
X84310000Y-114800000D03*
X81770000Y-114800000D03*
X79230000Y-114800000D03*
X76690000Y-114800000D03*
X74150000Y-114800000D03*
X71610000Y-114800000D03*
X69070000Y-114800000D03*
D12*
X66530000Y-114800000D03*
D11*
X155430000Y-130040000D03*
X152890000Y-130040000D03*
X150350000Y-130040000D03*
X147810000Y-130040000D03*
X145270000Y-130040000D03*
X142730000Y-130040000D03*
X140190000Y-130040000D03*
X137650000Y-130040000D03*
X135110000Y-130040000D03*
X132570000Y-130040000D03*
X130030000Y-130040000D03*
X127490000Y-130040000D03*
X124950000Y-130040000D03*
X122410000Y-130040000D03*
X119870000Y-130040000D03*
X117330000Y-130040000D03*
X114790000Y-130040000D03*
X112250000Y-130040000D03*
X109710000Y-130040000D03*
X107170000Y-130040000D03*
X104630000Y-130040000D03*
X102090000Y-130040000D03*
X99550000Y-130040000D03*
X97010000Y-130040000D03*
X94470000Y-130040000D03*
X91930000Y-130040000D03*
X89390000Y-130040000D03*
X86850000Y-130040000D03*
X84310000Y-130040000D03*
X81770000Y-130040000D03*
X79230000Y-130040000D03*
X76690000Y-130040000D03*
X74150000Y-130040000D03*
X71610000Y-130040000D03*
X69070000Y-130040000D03*
D12*
X66530000Y-130040000D03*
D11*
X151540000Y-67620000D03*
X151540000Y-70160000D03*
X149000000Y-67620000D03*
X149000000Y-70160000D03*
X146460000Y-67620000D03*
X146460000Y-70160000D03*
X143920000Y-67620000D03*
X143920000Y-70160000D03*
X141380000Y-67620000D03*
X141380000Y-70160000D03*
X138840000Y-67620000D03*
X138840000Y-70160000D03*
X136300000Y-67620000D03*
X136300000Y-70160000D03*
X133760000Y-67620000D03*
X133760000Y-70160000D03*
X131220000Y-67620000D03*
X131220000Y-70160000D03*
X128680000Y-67620000D03*
D12*
X128680000Y-70160000D03*
D11*
X151540000Y-56360000D03*
X151540000Y-58900000D03*
X149000000Y-56360000D03*
X149000000Y-58900000D03*
X146460000Y-56360000D03*
X146460000Y-58900000D03*
X143920000Y-56360000D03*
X143920000Y-58900000D03*
X141380000Y-56360000D03*
X141380000Y-58900000D03*
X138840000Y-56360000D03*
X138840000Y-58900000D03*
X136300000Y-56360000D03*
X136300000Y-58900000D03*
X133760000Y-56360000D03*
X133760000Y-58900000D03*
X131220000Y-56360000D03*
X131220000Y-58900000D03*
X128680000Y-56360000D03*
D12*
X128680000Y-58900000D03*
D11*
X109780000Y-67620000D03*
X109780000Y-70160000D03*
X107240000Y-67620000D03*
X107240000Y-70160000D03*
X104700000Y-67620000D03*
X104700000Y-70160000D03*
X102160000Y-67620000D03*
X102160000Y-70160000D03*
X99620000Y-67620000D03*
X99620000Y-70160000D03*
X97080000Y-67620000D03*
X97080000Y-70160000D03*
X94540000Y-67620000D03*
X94540000Y-70160000D03*
X92000000Y-67620000D03*
X92000000Y-70160000D03*
X89460000Y-67620000D03*
X89460000Y-70160000D03*
X86920000Y-67620000D03*
X86920000Y-70160000D03*
X84380000Y-67620000D03*
X84380000Y-70160000D03*
X81840000Y-67620000D03*
X81840000Y-70160000D03*
X79300000Y-67620000D03*
X79300000Y-70160000D03*
X76760000Y-67620000D03*
X76760000Y-70160000D03*
X74220000Y-67620000D03*
X74220000Y-70160000D03*
X71680000Y-67620000D03*
X71680000Y-70160000D03*
X69140000Y-67620000D03*
D12*
X69140000Y-70160000D03*
D11*
X155630000Y-135120000D03*
X155630000Y-137660000D03*
X153090000Y-135120000D03*
X153090000Y-137660000D03*
X150550000Y-135120000D03*
X150550000Y-137660000D03*
X148010000Y-135120000D03*
X148010000Y-137660000D03*
X145470000Y-135120000D03*
X145470000Y-137660000D03*
X142930000Y-135120000D03*
X142930000Y-137660000D03*
X140390000Y-135120000D03*
X140390000Y-137660000D03*
X137850000Y-135120000D03*
X137850000Y-137660000D03*
X135310000Y-135120000D03*
X135310000Y-137660000D03*
X132770000Y-135120000D03*
X132770000Y-137660000D03*
X130230000Y-135120000D03*
X130230000Y-137660000D03*
X127690000Y-135120000D03*
X127690000Y-137660000D03*
X125150000Y-135120000D03*
X125150000Y-137660000D03*
X122610000Y-135120000D03*
X122610000Y-137660000D03*
X120070000Y-135120000D03*
X120070000Y-137660000D03*
X117530000Y-135120000D03*
X117530000Y-137660000D03*
X114990000Y-135120000D03*
X114990000Y-137660000D03*
X112450000Y-135120000D03*
X112450000Y-137660000D03*
X109910000Y-135120000D03*
X109910000Y-137660000D03*
X107370000Y-135120000D03*
X107370000Y-137660000D03*
X104830000Y-135120000D03*
X104830000Y-137660000D03*
X102290000Y-135120000D03*
D12*
X102290000Y-137660000D03*
D13*
X156479999Y-145090001D02*
X155630000Y-145940000D01*
X156479999Y-135969999D02*
X156479999Y-145090001D01*
X155630000Y-135120000D02*
X156479999Y-135969999D01*
X155630000Y-147142081D02*
X155630000Y-145940000D01*
X155630000Y-149220000D02*
X155630000Y-147142081D01*
X137965000Y-166885000D02*
X155630000Y-149220000D01*
X137965000Y-171750000D02*
X137965000Y-166885000D01*
X100870001Y-57640001D02*
X100469999Y-57239999D01*
X100870001Y-66369999D02*
X100870001Y-57640001D01*
X100469999Y-57239999D02*
X99620000Y-56390000D01*
X99620000Y-67620000D02*
X100870001Y-66369999D01*
X153939999Y-145090001D02*
X153090000Y-145940000D01*
X154379999Y-144650001D02*
X153939999Y-145090001D01*
X154379999Y-136409999D02*
X154379999Y-144650001D01*
X153090000Y-135120000D02*
X154379999Y-136409999D01*
X152240001Y-149329999D02*
X153090000Y-148480000D01*
X135425000Y-166145000D02*
X152240001Y-149329999D01*
X135425000Y-171750000D02*
X135425000Y-166145000D01*
X151800001Y-144689999D02*
X151399999Y-145090001D01*
X151399999Y-145090001D02*
X150550000Y-145940000D01*
X151800001Y-136370001D02*
X151800001Y-144689999D01*
X150550000Y-135120000D02*
X151800001Y-136370001D01*
X92849999Y-57239999D02*
X92000000Y-56390000D01*
X93289999Y-57679999D02*
X92849999Y-57239999D01*
X93289999Y-66330001D02*
X93289999Y-57679999D01*
X92000000Y-67620000D02*
X93289999Y-66330001D01*
X149700001Y-149329999D02*
X150550000Y-148480000D01*
X132885000Y-166145000D02*
X149700001Y-149329999D01*
X132885000Y-171750000D02*
X132885000Y-166145000D01*
X149260001Y-144689999D02*
X148859999Y-145090001D01*
X148859999Y-145090001D02*
X148010000Y-145940000D01*
X149260001Y-136370001D02*
X149260001Y-144689999D01*
X148010000Y-135120000D02*
X149260001Y-136370001D01*
X90309999Y-57239999D02*
X89460000Y-56390000D01*
X90710001Y-57640001D02*
X90309999Y-57239999D01*
X90710001Y-66369999D02*
X90710001Y-57640001D01*
X89460000Y-67620000D02*
X90710001Y-66369999D01*
X147160001Y-149329999D02*
X148010000Y-148480000D01*
X130345000Y-166145000D02*
X147160001Y-149329999D01*
X130345000Y-171750000D02*
X130345000Y-166145000D01*
X146319999Y-145090001D02*
X145470000Y-145940000D01*
X146720001Y-136370001D02*
X146720001Y-144689999D01*
X146720001Y-144689999D02*
X146319999Y-145090001D01*
X145470000Y-135120000D02*
X146720001Y-136370001D01*
X144620001Y-149329999D02*
X145470000Y-148480000D01*
X127805000Y-166145000D02*
X144620001Y-149329999D01*
X127805000Y-171750000D02*
X127805000Y-166145000D01*
X143779999Y-145090001D02*
X142930000Y-145940000D01*
X144180001Y-144689999D02*
X143779999Y-145090001D01*
X144180001Y-136370001D02*
X144180001Y-144689999D01*
X142930000Y-135120000D02*
X144180001Y-136370001D01*
X103410001Y-57640001D02*
X103009999Y-57239999D01*
X103410001Y-66369999D02*
X103410001Y-57640001D01*
X103009999Y-57239999D02*
X102160000Y-56390000D01*
X102160000Y-67620000D02*
X103410001Y-66369999D01*
X142080001Y-149329999D02*
X142930000Y-148480000D01*
X125265000Y-166145000D02*
X142080001Y-149329999D01*
X125265000Y-171750000D02*
X125265000Y-166145000D01*
X141239999Y-145090001D02*
X140390000Y-145940000D01*
X141640001Y-136370001D02*
X141640001Y-144689999D01*
X141640001Y-144689999D02*
X141239999Y-145090001D01*
X140390000Y-135120000D02*
X141640001Y-136370001D01*
X139540001Y-149329999D02*
X140390000Y-148480000D01*
X122725000Y-166145000D02*
X139540001Y-149329999D01*
X122725000Y-171750000D02*
X122725000Y-166145000D01*
X139139999Y-144650001D02*
X138699999Y-145090001D01*
X139139999Y-136409999D02*
X139139999Y-144650001D01*
X138699999Y-145090001D02*
X137850000Y-145940000D01*
X137850000Y-135120000D02*
X139139999Y-136409999D01*
X105549999Y-57239999D02*
X104700000Y-56390000D01*
X105950001Y-57640001D02*
X105549999Y-57239999D01*
X105950001Y-66369999D02*
X105950001Y-57640001D01*
X104700000Y-67620000D02*
X105950001Y-66369999D01*
X137000001Y-149329999D02*
X137850000Y-148480000D01*
X120185000Y-166145000D02*
X137000001Y-149329999D01*
X120185000Y-171750000D02*
X120185000Y-166145000D01*
X83129999Y-57679999D02*
X82689999Y-57239999D01*
X83129999Y-66330001D02*
X83129999Y-57679999D01*
X82689999Y-57239999D02*
X81840000Y-56390000D01*
X81840000Y-67620000D02*
X83129999Y-66330001D01*
X136560001Y-144689999D02*
X136159999Y-145090001D01*
X136159999Y-145090001D02*
X135310000Y-145940000D01*
X136560001Y-136370001D02*
X136560001Y-144689999D01*
X135310000Y-135120000D02*
X136560001Y-136370001D01*
X134460001Y-149329999D02*
X135310000Y-148480000D01*
X117645000Y-166145000D02*
X134460001Y-149329999D01*
X117645000Y-171750000D02*
X117645000Y-166145000D01*
X80149999Y-57239999D02*
X79300000Y-56390000D01*
X80589999Y-57679999D02*
X80149999Y-57239999D01*
X80589999Y-66330001D02*
X80589999Y-57679999D01*
X79300000Y-67620000D02*
X80589999Y-66330001D01*
X134020001Y-144689999D02*
X133619999Y-145090001D01*
X134020001Y-136370001D02*
X134020001Y-144689999D01*
X133619999Y-145090001D02*
X132770000Y-145940000D01*
X132770000Y-135120000D02*
X134020001Y-136370001D01*
X108490001Y-57640001D02*
X108089999Y-57239999D01*
X108490001Y-66369999D02*
X108490001Y-57640001D01*
X108089999Y-57239999D02*
X107240000Y-56390000D01*
X107240000Y-67620000D02*
X108490001Y-66369999D01*
X115105000Y-166145000D02*
X131920001Y-149329999D01*
X131920001Y-149329999D02*
X132770000Y-148480000D01*
X115105000Y-171750000D02*
X115105000Y-166145000D01*
X77609999Y-57239999D02*
X76760000Y-56390000D01*
X78010001Y-57640001D02*
X77609999Y-57239999D01*
X78010001Y-66369999D02*
X78010001Y-57640001D01*
X76760000Y-67620000D02*
X78010001Y-66369999D01*
X131079999Y-145090001D02*
X130230000Y-145940000D01*
X131480001Y-144689999D02*
X131079999Y-145090001D01*
X131480001Y-136370001D02*
X131480001Y-144689999D01*
X130230000Y-135120000D02*
X131480001Y-136370001D01*
X112565000Y-166145000D02*
X130230000Y-148480000D01*
X112565000Y-171750000D02*
X112565000Y-166145000D01*
X75069999Y-57239999D02*
X74220000Y-56390000D01*
X75470001Y-57640001D02*
X75069999Y-57239999D01*
X75470001Y-66369999D02*
X75470001Y-57640001D01*
X74220000Y-67620000D02*
X75470001Y-66369999D01*
X128940001Y-144689999D02*
X128539999Y-145090001D01*
X128539999Y-145090001D02*
X127690000Y-145940000D01*
X128940001Y-136370001D02*
X128940001Y-144689999D01*
X127690000Y-135120000D02*
X128940001Y-136370001D01*
X110629999Y-57239999D02*
X109780000Y-56390000D01*
X111030001Y-66369999D02*
X111030001Y-57640001D01*
X111030001Y-57640001D02*
X110629999Y-57239999D01*
X109780000Y-67620000D02*
X111030001Y-66369999D01*
X126840001Y-149329999D02*
X127690000Y-148480000D01*
X110025000Y-166145000D02*
X126840001Y-149329999D01*
X110025000Y-171750000D02*
X110025000Y-166145000D01*
X125999999Y-145090001D02*
X125150000Y-145940000D01*
X126400001Y-144689999D02*
X125999999Y-145090001D01*
X126400001Y-137059999D02*
X126400001Y-144689999D01*
X125150000Y-135809998D02*
X126400001Y-137059999D01*
X125150000Y-135120000D02*
X125150000Y-135809998D01*
X124300001Y-149329999D02*
X125150000Y-148480000D01*
X107485000Y-166145000D02*
X124300001Y-149329999D01*
X107485000Y-171750000D02*
X107485000Y-166145000D01*
X123459999Y-145090001D02*
X122610000Y-145940000D01*
X123899999Y-144650001D02*
X123459999Y-145090001D01*
X123899999Y-136409999D02*
X123899999Y-144650001D01*
X122610000Y-135120000D02*
X123899999Y-136409999D01*
D14*
X95715001Y-66444999D02*
X95389999Y-66770001D01*
X95389999Y-66770001D02*
X94540000Y-67620000D01*
X95715001Y-57565001D02*
X95715001Y-66444999D01*
X94540000Y-56390000D02*
X95715001Y-57565001D01*
D13*
X95389999Y-57239999D02*
X94540000Y-56390000D01*
X95790001Y-57640001D02*
X95389999Y-57239999D01*
X95790001Y-66369999D02*
X95790001Y-57640001D01*
X94540000Y-67620000D02*
X95790001Y-66369999D01*
X104945000Y-166145000D02*
X121760001Y-149329999D01*
X121760001Y-149329999D02*
X122610000Y-148480000D01*
X104945000Y-171750000D02*
X104945000Y-166145000D01*
X121320001Y-144689999D02*
X120919999Y-145090001D01*
X120919999Y-145090001D02*
X120070000Y-145940000D01*
X121320001Y-136370001D02*
X121320001Y-144689999D01*
X120070000Y-135120000D02*
X121320001Y-136370001D01*
X119220001Y-149329999D02*
X120070000Y-148480000D01*
X102405000Y-166145000D02*
X119220001Y-149329999D01*
X102405000Y-171750000D02*
X102405000Y-166145000D01*
X118379999Y-145090001D02*
X117530000Y-145940000D01*
X118819999Y-144650001D02*
X118379999Y-145090001D01*
X118819999Y-136409999D02*
X118819999Y-144650001D01*
X117530000Y-135120000D02*
X118819999Y-136409999D01*
X97929999Y-57239999D02*
X97080000Y-56390000D01*
X98330001Y-57640001D02*
X97929999Y-57239999D01*
X98330001Y-66369999D02*
X98330001Y-57640001D01*
X97080000Y-67620000D02*
X98330001Y-66369999D01*
X99865000Y-166145000D02*
X116680001Y-149329999D01*
X116680001Y-149329999D02*
X117530000Y-148480000D01*
X99865000Y-171750000D02*
X99865000Y-166145000D01*
X115839999Y-145090001D02*
X114990000Y-145940000D01*
X116279999Y-136409999D02*
X116279999Y-144650001D01*
X116279999Y-144650001D02*
X115839999Y-145090001D01*
X114990000Y-135120000D02*
X116279999Y-136409999D01*
X97325000Y-166145000D02*
X97325000Y-171750000D01*
X114990000Y-148480000D02*
X97325000Y-166145000D01*
X113299999Y-145090001D02*
X112450000Y-145940000D01*
X113739999Y-144650001D02*
X113299999Y-145090001D01*
X113739999Y-136409999D02*
X113739999Y-144650001D01*
X112450000Y-135120000D02*
X113739999Y-136409999D01*
X94785000Y-166145000D02*
X94785000Y-171750000D01*
X112450000Y-148480000D02*
X94785000Y-166145000D01*
X110759999Y-145090001D02*
X109910000Y-145940000D01*
X111160001Y-144689999D02*
X110759999Y-145090001D01*
X111160001Y-136370001D02*
X111160001Y-144689999D01*
X109910000Y-135120000D02*
X111160001Y-136370001D01*
X92245000Y-166145000D02*
X92245000Y-171750000D01*
X109910000Y-148480000D02*
X92245000Y-166145000D01*
X108219999Y-145090001D02*
X107370000Y-145940000D01*
X108620001Y-144689999D02*
X108219999Y-145090001D01*
X108620001Y-136370001D02*
X108620001Y-144689999D01*
X107370000Y-135120000D02*
X108620001Y-136370001D01*
X89705000Y-166145000D02*
X89705000Y-171750000D01*
X107370000Y-148480000D02*
X89705000Y-166145000D01*
X105679999Y-145090001D02*
X104830000Y-145940000D01*
X106119999Y-144650001D02*
X105679999Y-145090001D01*
X106119999Y-136409999D02*
X106119999Y-144650001D01*
X104830000Y-135120000D02*
X106119999Y-136409999D01*
X87165000Y-166145000D02*
X87165000Y-171750000D01*
X104830000Y-148480000D02*
X87165000Y-166145000D01*
X102270000Y-135140000D02*
X102290000Y-135120000D01*
X86890000Y-135140000D02*
X102270000Y-135140000D01*
X84625000Y-165850000D02*
X84625000Y-171750000D01*
X84625000Y-164895000D02*
X84625000Y-165850000D01*
X101040000Y-148480000D02*
X84625000Y-164895000D01*
X102290000Y-148480000D02*
X101040000Y-148480000D01*
X102290000Y-137660000D02*
X102290000Y-145940000D01*
X87769999Y-57239999D02*
X86920000Y-56390000D01*
X88209999Y-57679999D02*
X87769999Y-57239999D01*
X88209999Y-66330001D02*
X88209999Y-57679999D01*
X86920000Y-67620000D02*
X88209999Y-66330001D01*
X85229999Y-57239999D02*
X84380000Y-56390000D01*
X85630001Y-57640001D02*
X85229999Y-57239999D01*
X85630001Y-66369999D02*
X85630001Y-57640001D01*
X84380000Y-67620000D02*
X85630001Y-66369999D01*
X72529999Y-57239999D02*
X71680000Y-56390000D01*
X72930001Y-57640001D02*
X72529999Y-57239999D01*
X72930001Y-66369999D02*
X72930001Y-57640001D01*
X71680000Y-67620000D02*
X72930001Y-66369999D01*
X69989999Y-57239999D02*
X69140000Y-56390000D01*
X70390001Y-66369999D02*
X70390001Y-57640001D01*
X70390001Y-57640001D02*
X69989999Y-57239999D01*
X69140000Y-67620000D02*
X70390001Y-66369999D01*
X152389999Y-66770001D02*
X151540000Y-67620000D01*
X152790001Y-66369999D02*
X152389999Y-66770001D01*
X152790001Y-57610001D02*
X152790001Y-66369999D01*
X151540000Y-56360000D02*
X152790001Y-57610001D01*
X149849999Y-57209999D02*
X149000000Y-56360000D01*
X150250001Y-57610001D02*
X149849999Y-57209999D01*
X150250001Y-66369999D02*
X150250001Y-57610001D01*
X149000000Y-67620000D02*
X150250001Y-66369999D01*
X147710001Y-57610001D02*
X147309999Y-57209999D01*
X147710001Y-66369999D02*
X147710001Y-57610001D01*
X147309999Y-57209999D02*
X146460000Y-56360000D01*
X146460000Y-67620000D02*
X147710001Y-66369999D01*
X144769999Y-57209999D02*
X143920000Y-56360000D01*
X145170001Y-57610001D02*
X144769999Y-57209999D01*
X145170001Y-66369999D02*
X145170001Y-57610001D01*
X143920000Y-67620000D02*
X145170001Y-66369999D01*
X142229999Y-57209999D02*
X141380000Y-56360000D01*
X142630001Y-57610001D02*
X142229999Y-57209999D01*
X142630001Y-66369999D02*
X142630001Y-57610001D01*
X141380000Y-67620000D02*
X142630001Y-66369999D01*
X139689999Y-57209999D02*
X138840000Y-56360000D01*
X140129999Y-57649999D02*
X139689999Y-57209999D01*
X140129999Y-66330001D02*
X140129999Y-57649999D01*
X138840000Y-67620000D02*
X140129999Y-66330001D01*
X137550001Y-66369999D02*
X137550001Y-57610001D01*
X137149999Y-57209999D02*
X136300000Y-56360000D01*
X137550001Y-57610001D02*
X137149999Y-57209999D01*
X136300000Y-67620000D02*
X137550001Y-66369999D01*
X134609999Y-57209999D02*
X133760000Y-56360000D01*
X135049999Y-57649999D02*
X134609999Y-57209999D01*
X135049999Y-66330001D02*
X135049999Y-57649999D01*
X133760000Y-67620000D02*
X135049999Y-66330001D01*
D14*
X132069999Y-66770001D02*
X131220000Y-67620000D01*
X132395001Y-66444999D02*
X132069999Y-66770001D01*
X132395001Y-57535001D02*
X132395001Y-66444999D01*
X131220000Y-56360000D02*
X132395001Y-57535001D01*
D13*
X132470001Y-57610001D02*
X131220000Y-56360000D01*
X132470001Y-66369999D02*
X132470001Y-57610001D01*
X131220000Y-67620000D02*
X132470001Y-66369999D01*
X129529999Y-57209999D02*
X128680000Y-56360000D01*
X129930001Y-57610001D02*
X129529999Y-57209999D01*
X129930001Y-66369999D02*
X129930001Y-57610001D01*
X128680000Y-67620000D02*
X129930001Y-66369999D01*
M02*
