M48
; DRILL file {KiCad (5.1.2-1)-1} date Saturday, 30 July 2022 at 23:34:59
; FORMAT={-:-/ absolute / metric / decimal}
; #@! TF.CreationDate,2022-07-30T23:34:59+02:00
; #@! TF.GenerationSoftware,Kicad,Pcbnew,(5.1.2-1)-1
; #@! TF.FileFunction,Plated,1,2,PTH
FMAT,2
METRIC
T1C1.000
%
G90
G05
T1
X66.53Y-124.96
X69.07Y-124.96
X71.61Y-124.96
X74.15Y-124.96
X76.69Y-124.96
X79.23Y-124.96
X81.77Y-124.96
X84.31Y-124.96
X86.85Y-124.96
X89.39Y-124.96
X91.93Y-124.96
X94.47Y-124.96
X97.01Y-124.96
X99.55Y-124.96
X102.09Y-124.96
X104.63Y-124.96
X107.17Y-124.96
X109.71Y-124.96
X112.25Y-124.96
X114.79Y-124.96
X117.33Y-124.96
X119.87Y-124.96
X122.41Y-124.96
X124.95Y-124.96
X127.49Y-124.96
X130.03Y-124.96
X132.57Y-124.96
X135.11Y-124.96
X137.65Y-124.96
X140.19Y-124.96
X142.73Y-124.96
X145.27Y-124.96
X147.81Y-124.96
X150.35Y-124.96
X152.89Y-124.96
X155.43Y-124.96
X66.53Y-139.61
X69.07Y-139.61
X71.61Y-139.61
X74.15Y-139.61
X76.69Y-139.61
X79.23Y-139.61
X81.77Y-139.61
X84.31Y-139.61
X86.85Y-139.61
X66.53Y-112.26
X69.07Y-112.26
X71.61Y-112.26
X74.15Y-112.26
X76.69Y-112.26
X79.23Y-112.26
X81.77Y-112.26
X84.31Y-112.26
X86.85Y-112.26
X89.39Y-112.26
X91.93Y-112.26
X94.47Y-112.26
X97.01Y-112.26
X99.55Y-112.26
X102.09Y-112.26
X104.63Y-112.26
X107.17Y-112.26
X109.71Y-112.26
X112.25Y-112.26
X114.79Y-112.26
X117.33Y-112.26
X119.87Y-112.26
X122.41Y-112.26
X124.95Y-112.26
X127.49Y-112.26
X130.03Y-112.26
X132.57Y-112.26
X135.11Y-112.26
X137.65Y-112.26
X140.19Y-112.26
X142.73Y-112.26
X145.27Y-112.26
X147.81Y-112.26
X150.35Y-112.26
X152.89Y-112.26
X155.43Y-112.26
X66.53Y-114.8
X69.07Y-114.8
X71.61Y-114.8
X74.15Y-114.8
X76.69Y-114.8
X79.23Y-114.8
X81.77Y-114.8
X84.31Y-114.8
X86.85Y-114.8
X89.39Y-114.8
X91.93Y-114.8
X94.47Y-114.8
X97.01Y-114.8
X99.55Y-114.8
X102.09Y-114.8
X104.63Y-114.8
X107.17Y-114.8
X109.71Y-114.8
X112.25Y-114.8
X114.79Y-114.8
X117.33Y-114.8
X119.87Y-114.8
X122.41Y-114.8
X124.95Y-114.8
X127.49Y-114.8
X130.03Y-114.8
X132.57Y-114.8
X135.11Y-114.8
X137.65Y-114.8
X140.19Y-114.8
X142.73Y-114.8
X145.27Y-114.8
X147.81Y-114.8
X150.35Y-114.8
X152.89Y-114.8
X155.43Y-114.8
X66.53Y-104.64
X69.07Y-104.64
X71.61Y-104.64
X74.15Y-104.64
X76.69Y-104.64
X79.23Y-104.64
X81.77Y-104.64
X84.31Y-104.64
X86.85Y-104.64
X89.39Y-104.64
X91.93Y-104.64
X94.47Y-104.64
X97.01Y-104.64
X99.55Y-104.64
X102.09Y-104.64
X104.63Y-104.64
X107.17Y-104.64
X109.71Y-104.64
X112.25Y-104.64
X114.79Y-104.64
X117.33Y-104.64
X119.87Y-104.64
X122.41Y-104.64
X124.95Y-104.64
X127.49Y-104.64
X130.03Y-104.64
X132.57Y-104.64
X135.11Y-104.64
X137.65Y-104.64
X140.19Y-104.64
X142.73Y-104.64
X145.27Y-104.64
X147.81Y-104.64
X150.35Y-104.64
X152.89Y-104.64
X155.43Y-104.64
X66.53Y-74.16
X69.07Y-74.16
X71.61Y-74.16
X74.15Y-74.16
X76.69Y-74.16
X79.23Y-74.16
X81.77Y-74.16
X84.31Y-74.16
X86.85Y-74.16
X89.39Y-74.16
X91.93Y-74.16
X94.47Y-74.16
X97.01Y-74.16
X99.55Y-74.16
X102.09Y-74.16
X104.63Y-74.16
X107.17Y-74.16
X109.71Y-74.16
X112.25Y-74.16
X114.79Y-74.16
X117.33Y-74.16
X119.87Y-74.16
X122.41Y-74.16
X124.95Y-74.16
X127.49Y-74.16
X130.03Y-74.16
X132.57Y-74.16
X135.11Y-74.16
X137.65Y-74.16
X140.19Y-74.16
X142.73Y-74.16
X145.27Y-74.16
X147.81Y-74.16
X150.35Y-74.16
X152.89Y-74.16
X155.43Y-74.16
X66.53Y-107.18
X69.07Y-107.18
X71.61Y-107.18
X74.15Y-107.18
X76.69Y-107.18
X79.23Y-107.18
X81.77Y-107.18
X84.31Y-107.18
X86.85Y-107.18
X89.39Y-107.18
X91.93Y-107.18
X94.47Y-107.18
X97.01Y-107.18
X99.55Y-107.18
X102.09Y-107.18
X104.63Y-107.18
X107.17Y-107.18
X109.71Y-107.18
X112.25Y-107.18
X114.79Y-107.18
X117.33Y-107.18
X119.87Y-107.18
X122.41Y-107.18
X124.95Y-107.18
X127.49Y-107.18
X130.03Y-107.18
X132.57Y-107.18
X135.11Y-107.18
X137.65Y-107.18
X140.19Y-107.18
X142.73Y-107.18
X145.27Y-107.18
X147.81Y-107.18
X150.35Y-107.18
X152.89Y-107.18
X155.43Y-107.18
X66.53Y-81.78
X69.07Y-81.78
X71.61Y-81.78
X74.15Y-81.78
X76.69Y-81.78
X79.23Y-81.78
X81.77Y-81.78
X84.31Y-81.78
X86.85Y-81.78
X89.39Y-81.78
X91.93Y-81.78
X94.47Y-81.78
X97.01Y-81.78
X99.55Y-81.78
X102.09Y-81.78
X104.63Y-81.78
X107.17Y-81.78
X109.71Y-81.78
X112.25Y-81.78
X114.79Y-81.78
X117.33Y-81.78
X119.87Y-81.78
X122.41Y-81.78
X124.95Y-81.78
X127.49Y-81.78
X130.03Y-81.78
X132.57Y-81.78
X135.11Y-81.78
X137.65Y-81.78
X140.19Y-81.78
X142.73Y-81.78
X145.27Y-81.78
X147.81Y-81.78
X150.35Y-81.78
X152.89Y-81.78
X155.43Y-81.78
X66.53Y-79.24
X69.07Y-79.24
X71.61Y-79.24
X74.15Y-79.24
X76.69Y-79.24
X79.23Y-79.24
X81.77Y-79.24
X84.31Y-79.24
X86.85Y-79.24
X89.39Y-79.24
X91.93Y-79.24
X94.47Y-79.24
X97.01Y-79.24
X99.55Y-79.24
X102.09Y-79.24
X104.63Y-79.24
X107.17Y-79.24
X109.71Y-79.24
X112.25Y-79.24
X114.79Y-79.24
X117.33Y-79.24
X119.87Y-79.24
X122.41Y-79.24
X124.95Y-79.24
X127.49Y-79.24
X130.03Y-79.24
X132.57Y-79.24
X135.11Y-79.24
X137.65Y-79.24
X140.19Y-79.24
X142.73Y-79.24
X145.27Y-79.24
X147.81Y-79.24
X150.35Y-79.24
X152.89Y-79.24
X155.43Y-79.24
X66.53Y-84.32
X69.07Y-84.32
X71.61Y-84.32
X74.15Y-84.32
X76.69Y-84.32
X79.23Y-84.32
X81.77Y-84.32
X84.31Y-84.32
X86.85Y-84.32
X89.39Y-84.32
X91.93Y-84.32
X94.47Y-84.32
X97.01Y-84.32
X99.55Y-84.32
X102.09Y-84.32
X104.63Y-84.32
X107.17Y-84.32
X109.71Y-84.32
X112.25Y-84.32
X114.79Y-84.32
X117.33Y-84.32
X119.87Y-84.32
X122.41Y-84.32
X124.95Y-84.32
X127.49Y-84.32
X130.03Y-84.32
X132.57Y-84.32
X135.11Y-84.32
X137.65Y-84.32
X140.19Y-84.32
X142.73Y-84.32
X145.27Y-84.32
X147.81Y-84.32
X150.35Y-84.32
X152.89Y-84.32
X155.43Y-84.32
X66.52Y-76.7
X69.06Y-76.7
X71.6Y-76.7
X74.14Y-76.7
X76.68Y-76.7
X79.22Y-76.7
X81.76Y-76.7
X84.3Y-76.7
X86.84Y-76.7
X89.38Y-76.7
X91.92Y-76.7
X94.46Y-76.7
X97.0Y-76.7
X99.54Y-76.7
X102.08Y-76.7
X104.62Y-76.7
X107.16Y-76.7
X109.7Y-76.7
X112.24Y-76.7
X114.78Y-76.7
X117.32Y-76.7
X119.86Y-76.7
X122.4Y-76.7
X124.94Y-76.7
X127.48Y-76.7
X130.02Y-76.7
X132.56Y-76.7
X135.1Y-76.7
X137.64Y-76.7
X140.18Y-76.7
X142.72Y-76.7
X145.26Y-76.7
X147.8Y-76.7
X150.34Y-76.7
X152.88Y-76.7
X155.42Y-76.7
X102.29Y-145.94
X102.29Y-148.48
X104.83Y-145.94
X104.83Y-148.48
X107.37Y-145.94
X107.37Y-148.48
X109.91Y-145.94
X109.91Y-148.48
X112.45Y-145.94
X112.45Y-148.48
X114.99Y-145.94
X114.99Y-148.48
X117.53Y-145.94
X117.53Y-148.48
X120.07Y-145.94
X120.07Y-148.48
X122.61Y-145.94
X122.61Y-148.48
X125.15Y-145.94
X125.15Y-148.48
X127.69Y-145.94
X127.69Y-148.48
X130.23Y-145.94
X130.23Y-148.48
X132.77Y-145.94
X132.77Y-148.48
X135.31Y-145.94
X135.31Y-148.48
X137.85Y-145.94
X137.85Y-148.48
X140.39Y-145.94
X140.39Y-148.48
X142.93Y-145.94
X142.93Y-148.48
X145.47Y-145.94
X145.47Y-148.48
X148.01Y-145.94
X148.01Y-148.48
X150.55Y-145.94
X150.55Y-148.48
X153.09Y-145.94
X153.09Y-148.48
X155.63Y-145.94
X155.63Y-148.48
X128.68Y-56.36
X128.68Y-58.9
X131.22Y-56.36
X131.22Y-58.9
X133.76Y-56.36
X133.76Y-58.9
X136.3Y-56.36
X136.3Y-58.9
X138.84Y-56.36
X138.84Y-58.9
X141.38Y-56.36
X141.38Y-58.9
X143.92Y-56.36
X143.92Y-58.9
X146.46Y-56.36
X146.46Y-58.9
X149.0Y-56.36
X149.0Y-58.9
X151.54Y-56.36
X151.54Y-58.9
X66.53Y-127.5
X69.07Y-127.5
X71.61Y-127.5
X74.15Y-127.5
X76.69Y-127.5
X79.23Y-127.5
X81.77Y-127.5
X84.31Y-127.5
X86.85Y-127.5
X89.39Y-127.5
X91.93Y-127.5
X94.47Y-127.5
X97.01Y-127.5
X99.55Y-127.5
X102.09Y-127.5
X104.63Y-127.5
X107.17Y-127.5
X109.71Y-127.5
X112.25Y-127.5
X114.79Y-127.5
X117.33Y-127.5
X119.87Y-127.5
X122.41Y-127.5
X124.95Y-127.5
X127.49Y-127.5
X130.03Y-127.5
X132.57Y-127.5
X135.11Y-127.5
X137.65Y-127.5
X140.19Y-127.5
X142.73Y-127.5
X145.27Y-127.5
X147.81Y-127.5
X150.35Y-127.5
X152.89Y-127.5
X155.43Y-127.5
X66.53Y-130.04
X69.07Y-130.04
X71.61Y-130.04
X74.15Y-130.04
X76.69Y-130.04
X79.23Y-130.04
X81.77Y-130.04
X84.31Y-130.04
X86.85Y-130.04
X89.39Y-130.04
X91.93Y-130.04
X94.47Y-130.04
X97.01Y-130.04
X99.55Y-130.04
X102.09Y-130.04
X104.63Y-130.04
X107.17Y-130.04
X109.71Y-130.04
X112.25Y-130.04
X114.79Y-130.04
X117.33Y-130.04
X119.87Y-130.04
X122.41Y-130.04
X124.95Y-130.04
X127.49Y-130.04
X130.03Y-130.04
X132.57Y-130.04
X135.11Y-130.04
X137.65Y-130.04
X140.19Y-130.04
X142.73Y-130.04
X145.27Y-130.04
X147.81Y-130.04
X150.35Y-130.04
X152.89Y-130.04
X155.43Y-130.04
X102.29Y-135.12
X102.29Y-137.66
X104.83Y-135.12
X104.83Y-137.66
X107.37Y-135.12
X107.37Y-137.66
X109.91Y-135.12
X109.91Y-137.66
X112.45Y-135.12
X112.45Y-137.66
X114.99Y-135.12
X114.99Y-137.66
X117.53Y-135.12
X117.53Y-137.66
X120.07Y-135.12
X120.07Y-137.66
X122.61Y-135.12
X122.61Y-137.66
X125.15Y-135.12
X125.15Y-137.66
X127.69Y-135.12
X127.69Y-137.66
X130.23Y-135.12
X130.23Y-137.66
X132.77Y-135.12
X132.77Y-137.66
X135.31Y-135.12
X135.31Y-137.66
X137.85Y-135.12
X137.85Y-137.66
X140.39Y-135.12
X140.39Y-137.66
X142.93Y-135.12
X142.93Y-137.66
X145.47Y-135.12
X145.47Y-137.66
X148.01Y-135.12
X148.01Y-137.66
X150.55Y-135.12
X150.55Y-137.66
X153.09Y-135.12
X153.09Y-137.66
X155.63Y-135.12
X155.63Y-137.66
X66.53Y-109.72
X69.07Y-109.72
X71.61Y-109.72
X74.15Y-109.72
X76.69Y-109.72
X79.23Y-109.72
X81.77Y-109.72
X84.31Y-109.72
X86.85Y-109.72
X89.39Y-109.72
X91.93Y-109.72
X94.47Y-109.72
X97.01Y-109.72
X99.55Y-109.72
X102.09Y-109.72
X104.63Y-109.72
X107.17Y-109.72
X109.71Y-109.72
X112.25Y-109.72
X114.79Y-109.72
X117.33Y-109.72
X119.87Y-109.72
X122.41Y-109.72
X124.95Y-109.72
X127.49Y-109.72
X130.03Y-109.72
X132.57Y-109.72
X135.11Y-109.72
X137.65Y-109.72
X140.19Y-109.72
X142.73Y-109.72
X145.27Y-109.72
X147.81Y-109.72
X150.35Y-109.72
X152.89Y-109.72
X155.43Y-109.72
X128.68Y-67.62
X128.68Y-70.16
X131.22Y-67.62
X131.22Y-70.16
X133.76Y-67.62
X133.76Y-70.16
X136.3Y-67.62
X136.3Y-70.16
X138.84Y-67.62
X138.84Y-70.16
X141.38Y-67.62
X141.38Y-70.16
X143.92Y-67.62
X143.92Y-70.16
X146.46Y-67.62
X146.46Y-70.16
X149.0Y-67.62
X149.0Y-70.16
X151.54Y-67.62
X151.54Y-70.16
X66.53Y-94.48
X69.07Y-94.48
X71.61Y-94.48
X74.15Y-94.48
X76.69Y-94.48
X79.23Y-94.48
X81.77Y-94.48
X84.31Y-94.48
X86.85Y-94.48
X89.39Y-94.48
X91.93Y-94.48
X94.47Y-94.48
X97.01Y-94.48
X99.55Y-94.48
X102.09Y-94.48
X104.63Y-94.48
X107.17Y-94.48
X109.71Y-94.48
X112.25Y-94.48
X114.79Y-94.48
X117.33Y-94.48
X119.87Y-94.48
X122.41Y-94.48
X124.95Y-94.48
X127.49Y-94.48
X130.03Y-94.48
X132.57Y-94.48
X135.11Y-94.48
X137.65Y-94.48
X140.19Y-94.48
X142.73Y-94.48
X145.27Y-94.48
X147.81Y-94.48
X150.35Y-94.48
X152.89Y-94.48
X155.43Y-94.48
X69.14Y-67.62
X69.14Y-70.16
X71.68Y-67.62
X71.68Y-70.16
X74.22Y-67.62
X74.22Y-70.16
X76.76Y-67.62
X76.76Y-70.16
X79.3Y-67.62
X79.3Y-70.16
X81.84Y-67.62
X81.84Y-70.16
X84.38Y-67.62
X84.38Y-70.16
X86.92Y-67.62
X86.92Y-70.16
X89.46Y-67.62
X89.46Y-70.16
X92.0Y-67.62
X92.0Y-70.16
X94.54Y-67.62
X94.54Y-70.16
X97.08Y-67.62
X97.08Y-70.16
X99.62Y-67.62
X99.62Y-70.16
X102.16Y-67.62
X102.16Y-70.16
X104.7Y-67.62
X104.7Y-70.16
X107.24Y-67.62
X107.24Y-70.16
X109.78Y-67.62
X109.78Y-70.16
X66.57Y-135.14
X69.11Y-135.14
X71.65Y-135.14
X74.19Y-135.14
X76.73Y-135.14
X79.27Y-135.14
X81.81Y-135.14
X84.35Y-135.14
X86.89Y-135.14
X66.53Y-122.42
X69.07Y-122.42
X71.61Y-122.42
X74.15Y-122.42
X76.69Y-122.42
X79.23Y-122.42
X81.77Y-122.42
X84.31Y-122.42
X86.85Y-122.42
X89.39Y-122.42
X91.93Y-122.42
X94.47Y-122.42
X97.01Y-122.42
X99.55Y-122.42
X102.09Y-122.42
X104.63Y-122.42
X107.17Y-122.42
X109.71Y-122.42
X112.25Y-122.42
X114.79Y-122.42
X117.33Y-122.42
X119.87Y-122.42
X122.41Y-122.42
X124.95Y-122.42
X127.49Y-122.42
X130.03Y-122.42
X132.57Y-122.42
X135.11Y-122.42
X137.65Y-122.42
X140.19Y-122.42
X142.73Y-122.42
X145.27Y-122.42
X147.81Y-122.42
X150.35Y-122.42
X152.89Y-122.42
X155.43Y-122.42
X66.53Y-119.88
X69.07Y-119.88
X71.61Y-119.88
X74.15Y-119.88
X76.69Y-119.88
X79.23Y-119.88
X81.77Y-119.88
X84.31Y-119.88
X86.85Y-119.88
X89.39Y-119.88
X91.93Y-119.88
X94.47Y-119.88
X97.01Y-119.88
X99.55Y-119.88
X102.09Y-119.88
X104.63Y-119.88
X107.17Y-119.88
X109.71Y-119.88
X112.25Y-119.88
X114.79Y-119.88
X117.33Y-119.88
X119.87Y-119.88
X122.41Y-119.88
X124.95Y-119.88
X127.49Y-119.88
X130.03Y-119.88
X132.57Y-119.88
X135.11Y-119.88
X137.65Y-119.88
X140.19Y-119.88
X142.73Y-119.88
X145.27Y-119.88
X147.81Y-119.88
X150.35Y-119.88
X152.89Y-119.88
X155.43Y-119.88
X66.53Y-99.56
X69.07Y-99.56
X71.61Y-99.56
X74.15Y-99.56
X76.69Y-99.56
X79.23Y-99.56
X81.77Y-99.56
X84.31Y-99.56
X86.85Y-99.56
X89.39Y-99.56
X91.93Y-99.56
X94.47Y-99.56
X97.01Y-99.56
X99.55Y-99.56
X102.09Y-99.56
X104.63Y-99.56
X107.17Y-99.56
X109.71Y-99.56
X112.25Y-99.56
X114.79Y-99.56
X117.33Y-99.56
X119.87Y-99.56
X122.41Y-99.56
X124.95Y-99.56
X127.49Y-99.56
X130.03Y-99.56
X132.57Y-99.56
X135.11Y-99.56
X137.65Y-99.56
X140.19Y-99.56
X142.73Y-99.56
X145.27Y-99.56
X147.81Y-99.56
X150.35Y-99.56
X152.89Y-99.56
X155.43Y-99.56
X69.14Y-56.39
X69.14Y-58.93
X71.68Y-56.39
X71.68Y-58.93
X74.22Y-56.39
X74.22Y-58.93
X76.76Y-56.39
X76.76Y-58.93
X79.3Y-56.39
X79.3Y-58.93
X81.84Y-56.39
X81.84Y-58.93
X84.38Y-56.39
X84.38Y-58.93
X86.92Y-56.39
X86.92Y-58.93
X89.46Y-56.39
X89.46Y-58.93
X92.0Y-56.39
X92.0Y-58.93
X94.54Y-56.39
X94.54Y-58.93
X97.08Y-56.39
X97.08Y-58.93
X99.62Y-56.39
X99.62Y-58.93
X102.16Y-56.39
X102.16Y-58.93
X104.7Y-56.39
X104.7Y-58.93
X107.24Y-56.39
X107.24Y-58.93
X109.78Y-56.39
X109.78Y-58.93
X66.53Y-97.02
X69.07Y-97.02
X71.61Y-97.02
X74.15Y-97.02
X76.69Y-97.02
X79.23Y-97.02
X81.77Y-97.02
X84.31Y-97.02
X86.85Y-97.02
X89.39Y-97.02
X91.93Y-97.02
X94.47Y-97.02
X97.01Y-97.02
X99.55Y-97.02
X102.09Y-97.02
X104.63Y-97.02
X107.17Y-97.02
X109.71Y-97.02
X112.25Y-97.02
X114.79Y-97.02
X117.33Y-97.02
X119.87Y-97.02
X122.41Y-97.02
X124.95Y-97.02
X127.49Y-97.02
X130.03Y-97.02
X132.57Y-97.02
X135.11Y-97.02
X137.65Y-97.02
X140.19Y-97.02
X142.73Y-97.02
X145.27Y-97.02
X147.81Y-97.02
X150.35Y-97.02
X152.89Y-97.02
X155.43Y-97.02
X66.53Y-91.94
X69.07Y-91.94
X71.61Y-91.94
X74.15Y-91.94
X76.69Y-91.94
X79.23Y-91.94
X81.77Y-91.94
X84.31Y-91.94
X86.85Y-91.94
X89.39Y-91.94
X91.93Y-91.94
X94.47Y-91.94
X97.01Y-91.94
X99.55Y-91.94
X102.09Y-91.94
X104.63Y-91.94
X107.17Y-91.94
X109.71Y-91.94
X112.25Y-91.94
X114.79Y-91.94
X117.33Y-91.94
X119.87Y-91.94
X122.41Y-91.94
X124.95Y-91.94
X127.49Y-91.94
X130.03Y-91.94
X132.57Y-91.94
X135.11Y-91.94
X137.65Y-91.94
X140.19Y-91.94
X142.73Y-91.94
X145.27Y-91.94
X147.81Y-91.94
X150.35Y-91.94
X152.89Y-91.94
X155.43Y-91.94
X66.53Y-89.4
X69.07Y-89.4
X71.61Y-89.4
X74.15Y-89.4
X76.69Y-89.4
X79.23Y-89.4
X81.77Y-89.4
X84.31Y-89.4
X86.85Y-89.4
X89.39Y-89.4
X91.93Y-89.4
X94.47Y-89.4
X97.01Y-89.4
X99.55Y-89.4
X102.09Y-89.4
X104.63Y-89.4
X107.17Y-89.4
X109.71Y-89.4
X112.25Y-89.4
X114.79Y-89.4
X117.33Y-89.4
X119.87Y-89.4
X122.41Y-89.4
X124.95Y-89.4
X127.49Y-89.4
X130.03Y-89.4
X132.57Y-89.4
X135.11Y-89.4
X137.65Y-89.4
X140.19Y-89.4
X142.73Y-89.4
X145.27Y-89.4
X147.81Y-89.4
X150.35Y-89.4
X152.89Y-89.4
X155.43Y-89.4
T0
M30
