G04 #@! TF.GenerationSoftware,KiCad,Pcbnew,(5.1.2-1)-1*
G04 #@! TF.CreationDate,2022-07-30T23:34:54+02:00*
G04 #@! TF.ProjectId,ElectronBreadBoard,456c6563-7472-46f6-9e42-72656164426f,rev?*
G04 #@! TF.SameCoordinates,Original*
G04 #@! TF.FileFunction,Legend,Bot*
G04 #@! TF.FilePolarity,Positive*
%FSLAX46Y46*%
G04 Gerber Fmt 4.6, Leading zero omitted, Abs format (unit mm)*
G04 Created by KiCad (PCBNEW (5.1.2-1)-1) date 2022-07-30 23:34:54*
%MOMM*%
%LPD*%
G04 APERTURE LIST*
%ADD10C,0.500000*%
%ADD11C,0.120000*%
%ADD12C,0.100000*%
%ADD13C,0.150000*%
%ADD14C,0.300000*%
%ADD15C,0.200000*%
G04 APERTURE END LIST*
D10*
X94390000Y-144895714D02*
X94390000Y-148467142D01*
X97961428Y-147038571D02*
X94390000Y-148467142D01*
X90818571Y-147038571D01*
X96532857Y-151324285D02*
X94390000Y-148467142D01*
X92247142Y-151324285D01*
X94310000Y-140537142D02*
X91929047Y-142918095D01*
X94310000Y-145299047D01*
X96690952Y-142918095D01*
X94310000Y-140537142D01*
X94310000Y-145299047D01*
D11*
X99130000Y-138350000D02*
X99130000Y-137360000D01*
X99120000Y-149150000D02*
X99120000Y-148160000D01*
D12*
G36*
X100040000Y-148640000D02*
G01*
X99150000Y-149100000D01*
X99130000Y-148170000D01*
X100040000Y-148640000D01*
G37*
X100040000Y-148640000D02*
X99150000Y-149100000D01*
X99130000Y-148170000D01*
X100040000Y-148640000D01*
G36*
X100080000Y-137860000D02*
G01*
X99190000Y-138320000D01*
X99170000Y-137390000D01*
X100080000Y-137860000D01*
G37*
X100080000Y-137860000D02*
X99190000Y-138320000D01*
X99170000Y-137390000D01*
X100080000Y-137860000D01*
D11*
X64610000Y-134960000D02*
X63620000Y-135470000D01*
X64700000Y-139400000D02*
X63710000Y-139910000D01*
X63710000Y-139910000D02*
X63710000Y-138920000D01*
D12*
G36*
X64630000Y-139400000D02*
G01*
X63740000Y-139860000D01*
X63720000Y-138930000D01*
X64630000Y-139400000D01*
G37*
X64630000Y-139400000D02*
X63740000Y-139860000D01*
X63720000Y-138930000D01*
X64630000Y-139400000D01*
D11*
X63710000Y-138920000D02*
X64700000Y-139400000D01*
X63620000Y-134480000D02*
X64610000Y-134960000D01*
D12*
G36*
X64540000Y-134960000D02*
G01*
X63650000Y-135420000D01*
X63630000Y-134490000D01*
X64540000Y-134960000D01*
G37*
X64540000Y-134960000D02*
X63650000Y-135420000D01*
X63630000Y-134490000D01*
X64540000Y-134960000D01*
D11*
X63620000Y-135470000D02*
X63620000Y-134480000D01*
X65470000Y-59510000D02*
X65470000Y-58520000D01*
X65470000Y-58520000D02*
X66460000Y-59000000D01*
X66460000Y-59000000D02*
X65470000Y-59510000D01*
D12*
G36*
X66390000Y-70170000D02*
G01*
X65500000Y-70630000D01*
X65480000Y-69700000D01*
X66390000Y-70170000D01*
G37*
X66390000Y-70170000D02*
X65500000Y-70630000D01*
X65480000Y-69700000D01*
X66390000Y-70170000D01*
D11*
X65470000Y-70680000D02*
X65470000Y-69690000D01*
X65470000Y-69690000D02*
X66460000Y-70170000D01*
D12*
G36*
X66390000Y-59000000D02*
G01*
X65500000Y-59460000D01*
X65480000Y-58530000D01*
X66390000Y-59000000D01*
G37*
X66390000Y-59000000D02*
X65500000Y-59460000D01*
X65480000Y-58530000D01*
X66390000Y-59000000D01*
D11*
X66460000Y-70170000D02*
X65470000Y-70680000D01*
X125620000Y-70230000D02*
X124630000Y-70740000D01*
X124630000Y-59570000D02*
X124630000Y-58580000D01*
X124630000Y-58580000D02*
X125620000Y-59060000D01*
X125620000Y-59060000D02*
X124630000Y-59570000D01*
D12*
G36*
X125550000Y-70230000D02*
G01*
X124660000Y-70690000D01*
X124640000Y-69760000D01*
X125550000Y-70230000D01*
G37*
X125550000Y-70230000D02*
X124660000Y-70690000D01*
X124640000Y-69760000D01*
X125550000Y-70230000D01*
D11*
X124630000Y-70740000D02*
X124630000Y-69750000D01*
X124630000Y-69750000D02*
X125620000Y-70230000D01*
D12*
G36*
X125550000Y-59060000D02*
G01*
X124660000Y-59520000D01*
X124640000Y-58590000D01*
X125550000Y-59060000D01*
G37*
X125550000Y-59060000D02*
X124660000Y-59520000D01*
X124640000Y-58590000D01*
X125550000Y-59060000D01*
D13*
X141007142Y-101624285D02*
X140412857Y-101624285D01*
X140732857Y-101990000D01*
X140595714Y-101990000D01*
X140504285Y-102035714D01*
X140458571Y-102081428D01*
X140412857Y-102172857D01*
X140412857Y-102401428D01*
X140458571Y-102492857D01*
X140504285Y-102538571D01*
X140595714Y-102584285D01*
X140870000Y-102584285D01*
X140961428Y-102538571D01*
X141007142Y-102492857D01*
X139818571Y-101624285D02*
X139727142Y-101624285D01*
X139635714Y-101670000D01*
X139590000Y-101715714D01*
X139544285Y-101807142D01*
X139498571Y-101990000D01*
X139498571Y-102218571D01*
X139544285Y-102401428D01*
X139590000Y-102492857D01*
X139635714Y-102538571D01*
X139727142Y-102584285D01*
X139818571Y-102584285D01*
X139910000Y-102538571D01*
X139955714Y-102492857D01*
X140001428Y-102401428D01*
X140047142Y-102218571D01*
X140047142Y-101990000D01*
X140001428Y-101807142D01*
X139955714Y-101715714D01*
X139910000Y-101670000D01*
X139818571Y-101624285D01*
X138401428Y-101715714D02*
X138355714Y-101670000D01*
X138264285Y-101624285D01*
X138035714Y-101624285D01*
X137944285Y-101670000D01*
X137898571Y-101715714D01*
X137852857Y-101807142D01*
X137852857Y-101898571D01*
X137898571Y-102035714D01*
X138447142Y-102584285D01*
X137852857Y-102584285D01*
X137395714Y-102584285D02*
X137212857Y-102584285D01*
X137121428Y-102538571D01*
X137075714Y-102492857D01*
X136984285Y-102355714D01*
X136938571Y-102172857D01*
X136938571Y-101807142D01*
X136984285Y-101715714D01*
X137030000Y-101670000D01*
X137121428Y-101624285D01*
X137304285Y-101624285D01*
X137395714Y-101670000D01*
X137441428Y-101715714D01*
X137487142Y-101807142D01*
X137487142Y-102035714D01*
X137441428Y-102127142D01*
X137395714Y-102172857D01*
X137304285Y-102218571D01*
X137121428Y-102218571D01*
X137030000Y-102172857D01*
X136984285Y-102127142D01*
X136938571Y-102035714D01*
X135841428Y-101715714D02*
X135795714Y-101670000D01*
X135704285Y-101624285D01*
X135475714Y-101624285D01*
X135384285Y-101670000D01*
X135338571Y-101715714D01*
X135292857Y-101807142D01*
X135292857Y-101898571D01*
X135338571Y-102035714D01*
X135887142Y-102584285D01*
X135292857Y-102584285D01*
X134744285Y-102035714D02*
X134835714Y-101990000D01*
X134881428Y-101944285D01*
X134927142Y-101852857D01*
X134927142Y-101807142D01*
X134881428Y-101715714D01*
X134835714Y-101670000D01*
X134744285Y-101624285D01*
X134561428Y-101624285D01*
X134470000Y-101670000D01*
X134424285Y-101715714D01*
X134378571Y-101807142D01*
X134378571Y-101852857D01*
X134424285Y-101944285D01*
X134470000Y-101990000D01*
X134561428Y-102035714D01*
X134744285Y-102035714D01*
X134835714Y-102081428D01*
X134881428Y-102127142D01*
X134927142Y-102218571D01*
X134927142Y-102401428D01*
X134881428Y-102492857D01*
X134835714Y-102538571D01*
X134744285Y-102584285D01*
X134561428Y-102584285D01*
X134470000Y-102538571D01*
X134424285Y-102492857D01*
X134378571Y-102401428D01*
X134378571Y-102218571D01*
X134424285Y-102127142D01*
X134470000Y-102081428D01*
X134561428Y-102035714D01*
X133281428Y-101715714D02*
X133235714Y-101670000D01*
X133144285Y-101624285D01*
X132915714Y-101624285D01*
X132824285Y-101670000D01*
X132778571Y-101715714D01*
X132732857Y-101807142D01*
X132732857Y-101898571D01*
X132778571Y-102035714D01*
X133327142Y-102584285D01*
X132732857Y-102584285D01*
X132412857Y-101624285D02*
X131772857Y-101624285D01*
X132184285Y-102584285D01*
X130721428Y-101715714D02*
X130675714Y-101670000D01*
X130584285Y-101624285D01*
X130355714Y-101624285D01*
X130264285Y-101670000D01*
X130218571Y-101715714D01*
X130172857Y-101807142D01*
X130172857Y-101898571D01*
X130218571Y-102035714D01*
X130767142Y-102584285D01*
X130172857Y-102584285D01*
X129350000Y-101624285D02*
X129532857Y-101624285D01*
X129624285Y-101670000D01*
X129670000Y-101715714D01*
X129761428Y-101852857D01*
X129807142Y-102035714D01*
X129807142Y-102401428D01*
X129761428Y-102492857D01*
X129715714Y-102538571D01*
X129624285Y-102584285D01*
X129441428Y-102584285D01*
X129350000Y-102538571D01*
X129304285Y-102492857D01*
X129258571Y-102401428D01*
X129258571Y-102172857D01*
X129304285Y-102081428D01*
X129350000Y-102035714D01*
X129441428Y-101990000D01*
X129624285Y-101990000D01*
X129715714Y-102035714D01*
X129761428Y-102081428D01*
X129807142Y-102172857D01*
X128161428Y-101715714D02*
X128115714Y-101670000D01*
X128024285Y-101624285D01*
X127795714Y-101624285D01*
X127704285Y-101670000D01*
X127658571Y-101715714D01*
X127612857Y-101807142D01*
X127612857Y-101898571D01*
X127658571Y-102035714D01*
X128207142Y-102584285D01*
X127612857Y-102584285D01*
X126744285Y-101624285D02*
X127201428Y-101624285D01*
X127247142Y-102081428D01*
X127201428Y-102035714D01*
X127110000Y-101990000D01*
X126881428Y-101990000D01*
X126790000Y-102035714D01*
X126744285Y-102081428D01*
X126698571Y-102172857D01*
X126698571Y-102401428D01*
X126744285Y-102492857D01*
X126790000Y-102538571D01*
X126881428Y-102584285D01*
X127110000Y-102584285D01*
X127201428Y-102538571D01*
X127247142Y-102492857D01*
X125601428Y-101715714D02*
X125555714Y-101670000D01*
X125464285Y-101624285D01*
X125235714Y-101624285D01*
X125144285Y-101670000D01*
X125098571Y-101715714D01*
X125052857Y-101807142D01*
X125052857Y-101898571D01*
X125098571Y-102035714D01*
X125647142Y-102584285D01*
X125052857Y-102584285D01*
X124230000Y-101944285D02*
X124230000Y-102584285D01*
X124458571Y-101578571D02*
X124687142Y-102264285D01*
X124092857Y-102264285D01*
X123041428Y-101715714D02*
X122995714Y-101670000D01*
X122904285Y-101624285D01*
X122675714Y-101624285D01*
X122584285Y-101670000D01*
X122538571Y-101715714D01*
X122492857Y-101807142D01*
X122492857Y-101898571D01*
X122538571Y-102035714D01*
X123087142Y-102584285D01*
X122492857Y-102584285D01*
X122172857Y-101624285D02*
X121578571Y-101624285D01*
X121898571Y-101990000D01*
X121761428Y-101990000D01*
X121670000Y-102035714D01*
X121624285Y-102081428D01*
X121578571Y-102172857D01*
X121578571Y-102401428D01*
X121624285Y-102492857D01*
X121670000Y-102538571D01*
X121761428Y-102584285D01*
X122035714Y-102584285D01*
X122127142Y-102538571D01*
X122172857Y-102492857D01*
X120481428Y-101715714D02*
X120435714Y-101670000D01*
X120344285Y-101624285D01*
X120115714Y-101624285D01*
X120024285Y-101670000D01*
X119978571Y-101715714D01*
X119932857Y-101807142D01*
X119932857Y-101898571D01*
X119978571Y-102035714D01*
X120527142Y-102584285D01*
X119932857Y-102584285D01*
X119567142Y-101715714D02*
X119521428Y-101670000D01*
X119430000Y-101624285D01*
X119201428Y-101624285D01*
X119110000Y-101670000D01*
X119064285Y-101715714D01*
X119018571Y-101807142D01*
X119018571Y-101898571D01*
X119064285Y-102035714D01*
X119612857Y-102584285D01*
X119018571Y-102584285D01*
X117921428Y-101715714D02*
X117875714Y-101670000D01*
X117784285Y-101624285D01*
X117555714Y-101624285D01*
X117464285Y-101670000D01*
X117418571Y-101715714D01*
X117372857Y-101807142D01*
X117372857Y-101898571D01*
X117418571Y-102035714D01*
X117967142Y-102584285D01*
X117372857Y-102584285D01*
X116458571Y-102584285D02*
X117007142Y-102584285D01*
X116732857Y-102584285D02*
X116732857Y-101624285D01*
X116824285Y-101761428D01*
X116915714Y-101852857D01*
X117007142Y-101898571D01*
X156227142Y-101624285D02*
X155632857Y-101624285D01*
X155952857Y-101990000D01*
X155815714Y-101990000D01*
X155724285Y-102035714D01*
X155678571Y-102081428D01*
X155632857Y-102172857D01*
X155632857Y-102401428D01*
X155678571Y-102492857D01*
X155724285Y-102538571D01*
X155815714Y-102584285D01*
X156090000Y-102584285D01*
X156181428Y-102538571D01*
X156227142Y-102492857D01*
X154810000Y-101624285D02*
X154992857Y-101624285D01*
X155084285Y-101670000D01*
X155130000Y-101715714D01*
X155221428Y-101852857D01*
X155267142Y-102035714D01*
X155267142Y-102401428D01*
X155221428Y-102492857D01*
X155175714Y-102538571D01*
X155084285Y-102584285D01*
X154901428Y-102584285D01*
X154810000Y-102538571D01*
X154764285Y-102492857D01*
X154718571Y-102401428D01*
X154718571Y-102172857D01*
X154764285Y-102081428D01*
X154810000Y-102035714D01*
X154901428Y-101990000D01*
X155084285Y-101990000D01*
X155175714Y-102035714D01*
X155221428Y-102081428D01*
X155267142Y-102172857D01*
X153667142Y-101624285D02*
X153072857Y-101624285D01*
X153392857Y-101990000D01*
X153255714Y-101990000D01*
X153164285Y-102035714D01*
X153118571Y-102081428D01*
X153072857Y-102172857D01*
X153072857Y-102401428D01*
X153118571Y-102492857D01*
X153164285Y-102538571D01*
X153255714Y-102584285D01*
X153530000Y-102584285D01*
X153621428Y-102538571D01*
X153667142Y-102492857D01*
X152204285Y-101624285D02*
X152661428Y-101624285D01*
X152707142Y-102081428D01*
X152661428Y-102035714D01*
X152570000Y-101990000D01*
X152341428Y-101990000D01*
X152250000Y-102035714D01*
X152204285Y-102081428D01*
X152158571Y-102172857D01*
X152158571Y-102401428D01*
X152204285Y-102492857D01*
X152250000Y-102538571D01*
X152341428Y-102584285D01*
X152570000Y-102584285D01*
X152661428Y-102538571D01*
X152707142Y-102492857D01*
X151107142Y-101624285D02*
X150512857Y-101624285D01*
X150832857Y-101990000D01*
X150695714Y-101990000D01*
X150604285Y-102035714D01*
X150558571Y-102081428D01*
X150512857Y-102172857D01*
X150512857Y-102401428D01*
X150558571Y-102492857D01*
X150604285Y-102538571D01*
X150695714Y-102584285D01*
X150970000Y-102584285D01*
X151061428Y-102538571D01*
X151107142Y-102492857D01*
X149690000Y-101944285D02*
X149690000Y-102584285D01*
X149918571Y-101578571D02*
X150147142Y-102264285D01*
X149552857Y-102264285D01*
X148547142Y-101624285D02*
X147952857Y-101624285D01*
X148272857Y-101990000D01*
X148135714Y-101990000D01*
X148044285Y-102035714D01*
X147998571Y-102081428D01*
X147952857Y-102172857D01*
X147952857Y-102401428D01*
X147998571Y-102492857D01*
X148044285Y-102538571D01*
X148135714Y-102584285D01*
X148410000Y-102584285D01*
X148501428Y-102538571D01*
X148547142Y-102492857D01*
X147632857Y-101624285D02*
X147038571Y-101624285D01*
X147358571Y-101990000D01*
X147221428Y-101990000D01*
X147130000Y-102035714D01*
X147084285Y-102081428D01*
X147038571Y-102172857D01*
X147038571Y-102401428D01*
X147084285Y-102492857D01*
X147130000Y-102538571D01*
X147221428Y-102584285D01*
X147495714Y-102584285D01*
X147587142Y-102538571D01*
X147632857Y-102492857D01*
X145987142Y-101624285D02*
X145392857Y-101624285D01*
X145712857Y-101990000D01*
X145575714Y-101990000D01*
X145484285Y-102035714D01*
X145438571Y-102081428D01*
X145392857Y-102172857D01*
X145392857Y-102401428D01*
X145438571Y-102492857D01*
X145484285Y-102538571D01*
X145575714Y-102584285D01*
X145850000Y-102584285D01*
X145941428Y-102538571D01*
X145987142Y-102492857D01*
X145027142Y-101715714D02*
X144981428Y-101670000D01*
X144890000Y-101624285D01*
X144661428Y-101624285D01*
X144570000Y-101670000D01*
X144524285Y-101715714D01*
X144478571Y-101807142D01*
X144478571Y-101898571D01*
X144524285Y-102035714D01*
X145072857Y-102584285D01*
X144478571Y-102584285D01*
X143427142Y-101624285D02*
X142832857Y-101624285D01*
X143152857Y-101990000D01*
X143015714Y-101990000D01*
X142924285Y-102035714D01*
X142878571Y-102081428D01*
X142832857Y-102172857D01*
X142832857Y-102401428D01*
X142878571Y-102492857D01*
X142924285Y-102538571D01*
X143015714Y-102584285D01*
X143290000Y-102584285D01*
X143381428Y-102538571D01*
X143427142Y-102492857D01*
X141918571Y-102584285D02*
X142467142Y-102584285D01*
X142192857Y-102584285D02*
X142192857Y-101624285D01*
X142284285Y-101761428D01*
X142375714Y-101852857D01*
X142467142Y-101898571D01*
X115301428Y-101655714D02*
X115255714Y-101610000D01*
X115164285Y-101564285D01*
X114935714Y-101564285D01*
X114844285Y-101610000D01*
X114798571Y-101655714D01*
X114752857Y-101747142D01*
X114752857Y-101838571D01*
X114798571Y-101975714D01*
X115347142Y-102524285D01*
X114752857Y-102524285D01*
X114158571Y-101564285D02*
X114067142Y-101564285D01*
X113975714Y-101610000D01*
X113930000Y-101655714D01*
X113884285Y-101747142D01*
X113838571Y-101930000D01*
X113838571Y-102158571D01*
X113884285Y-102341428D01*
X113930000Y-102432857D01*
X113975714Y-102478571D01*
X114067142Y-102524285D01*
X114158571Y-102524285D01*
X114250000Y-102478571D01*
X114295714Y-102432857D01*
X114341428Y-102341428D01*
X114387142Y-102158571D01*
X114387142Y-101930000D01*
X114341428Y-101747142D01*
X114295714Y-101655714D01*
X114250000Y-101610000D01*
X114158571Y-101564285D01*
X112192857Y-102524285D02*
X112741428Y-102524285D01*
X112467142Y-102524285D02*
X112467142Y-101564285D01*
X112558571Y-101701428D01*
X112650000Y-101792857D01*
X112741428Y-101838571D01*
X111735714Y-102524285D02*
X111552857Y-102524285D01*
X111461428Y-102478571D01*
X111415714Y-102432857D01*
X111324285Y-102295714D01*
X111278571Y-102112857D01*
X111278571Y-101747142D01*
X111324285Y-101655714D01*
X111370000Y-101610000D01*
X111461428Y-101564285D01*
X111644285Y-101564285D01*
X111735714Y-101610000D01*
X111781428Y-101655714D01*
X111827142Y-101747142D01*
X111827142Y-101975714D01*
X111781428Y-102067142D01*
X111735714Y-102112857D01*
X111644285Y-102158571D01*
X111461428Y-102158571D01*
X111370000Y-102112857D01*
X111324285Y-102067142D01*
X111278571Y-101975714D01*
X109632857Y-102524285D02*
X110181428Y-102524285D01*
X109907142Y-102524285D02*
X109907142Y-101564285D01*
X109998571Y-101701428D01*
X110090000Y-101792857D01*
X110181428Y-101838571D01*
X109084285Y-101975714D02*
X109175714Y-101930000D01*
X109221428Y-101884285D01*
X109267142Y-101792857D01*
X109267142Y-101747142D01*
X109221428Y-101655714D01*
X109175714Y-101610000D01*
X109084285Y-101564285D01*
X108901428Y-101564285D01*
X108810000Y-101610000D01*
X108764285Y-101655714D01*
X108718571Y-101747142D01*
X108718571Y-101792857D01*
X108764285Y-101884285D01*
X108810000Y-101930000D01*
X108901428Y-101975714D01*
X109084285Y-101975714D01*
X109175714Y-102021428D01*
X109221428Y-102067142D01*
X109267142Y-102158571D01*
X109267142Y-102341428D01*
X109221428Y-102432857D01*
X109175714Y-102478571D01*
X109084285Y-102524285D01*
X108901428Y-102524285D01*
X108810000Y-102478571D01*
X108764285Y-102432857D01*
X108718571Y-102341428D01*
X108718571Y-102158571D01*
X108764285Y-102067142D01*
X108810000Y-102021428D01*
X108901428Y-101975714D01*
X107072857Y-102524285D02*
X107621428Y-102524285D01*
X107347142Y-102524285D02*
X107347142Y-101564285D01*
X107438571Y-101701428D01*
X107530000Y-101792857D01*
X107621428Y-101838571D01*
X106752857Y-101564285D02*
X106112857Y-101564285D01*
X106524285Y-102524285D01*
X104512857Y-102524285D02*
X105061428Y-102524285D01*
X104787142Y-102524285D02*
X104787142Y-101564285D01*
X104878571Y-101701428D01*
X104970000Y-101792857D01*
X105061428Y-101838571D01*
X103690000Y-101564285D02*
X103872857Y-101564285D01*
X103964285Y-101610000D01*
X104010000Y-101655714D01*
X104101428Y-101792857D01*
X104147142Y-101975714D01*
X104147142Y-102341428D01*
X104101428Y-102432857D01*
X104055714Y-102478571D01*
X103964285Y-102524285D01*
X103781428Y-102524285D01*
X103690000Y-102478571D01*
X103644285Y-102432857D01*
X103598571Y-102341428D01*
X103598571Y-102112857D01*
X103644285Y-102021428D01*
X103690000Y-101975714D01*
X103781428Y-101930000D01*
X103964285Y-101930000D01*
X104055714Y-101975714D01*
X104101428Y-102021428D01*
X104147142Y-102112857D01*
X101952857Y-102524285D02*
X102501428Y-102524285D01*
X102227142Y-102524285D02*
X102227142Y-101564285D01*
X102318571Y-101701428D01*
X102410000Y-101792857D01*
X102501428Y-101838571D01*
X101084285Y-101564285D02*
X101541428Y-101564285D01*
X101587142Y-102021428D01*
X101541428Y-101975714D01*
X101450000Y-101930000D01*
X101221428Y-101930000D01*
X101130000Y-101975714D01*
X101084285Y-102021428D01*
X101038571Y-102112857D01*
X101038571Y-102341428D01*
X101084285Y-102432857D01*
X101130000Y-102478571D01*
X101221428Y-102524285D01*
X101450000Y-102524285D01*
X101541428Y-102478571D01*
X101587142Y-102432857D01*
X99392857Y-102524285D02*
X99941428Y-102524285D01*
X99667142Y-102524285D02*
X99667142Y-101564285D01*
X99758571Y-101701428D01*
X99850000Y-101792857D01*
X99941428Y-101838571D01*
X98570000Y-101884285D02*
X98570000Y-102524285D01*
X98798571Y-101518571D02*
X99027142Y-102204285D01*
X98432857Y-102204285D01*
X96832857Y-102524285D02*
X97381428Y-102524285D01*
X97107142Y-102524285D02*
X97107142Y-101564285D01*
X97198571Y-101701428D01*
X97290000Y-101792857D01*
X97381428Y-101838571D01*
X96512857Y-101564285D02*
X95918571Y-101564285D01*
X96238571Y-101930000D01*
X96101428Y-101930000D01*
X96010000Y-101975714D01*
X95964285Y-102021428D01*
X95918571Y-102112857D01*
X95918571Y-102341428D01*
X95964285Y-102432857D01*
X96010000Y-102478571D01*
X96101428Y-102524285D01*
X96375714Y-102524285D01*
X96467142Y-102478571D01*
X96512857Y-102432857D01*
X94272857Y-102524285D02*
X94821428Y-102524285D01*
X94547142Y-102524285D02*
X94547142Y-101564285D01*
X94638571Y-101701428D01*
X94730000Y-101792857D01*
X94821428Y-101838571D01*
X93907142Y-101655714D02*
X93861428Y-101610000D01*
X93770000Y-101564285D01*
X93541428Y-101564285D01*
X93450000Y-101610000D01*
X93404285Y-101655714D01*
X93358571Y-101747142D01*
X93358571Y-101838571D01*
X93404285Y-101975714D01*
X93952857Y-102524285D01*
X93358571Y-102524285D01*
X91712857Y-102524285D02*
X92261428Y-102524285D01*
X91987142Y-102524285D02*
X91987142Y-101564285D01*
X92078571Y-101701428D01*
X92170000Y-101792857D01*
X92261428Y-101838571D01*
X90798571Y-102524285D02*
X91347142Y-102524285D01*
X91072857Y-102524285D02*
X91072857Y-101564285D01*
X91164285Y-101701428D01*
X91255714Y-101792857D01*
X91347142Y-101838571D01*
X88981428Y-102611428D02*
X89564285Y-102611428D01*
X89272857Y-102611428D02*
X89272857Y-101591428D01*
X89370000Y-101737142D01*
X89467142Y-101834285D01*
X89564285Y-101882857D01*
X88350000Y-101591428D02*
X88252857Y-101591428D01*
X88155714Y-101640000D01*
X88107142Y-101688571D01*
X88058571Y-101785714D01*
X88010000Y-101980000D01*
X88010000Y-102222857D01*
X88058571Y-102417142D01*
X88107142Y-102514285D01*
X88155714Y-102562857D01*
X88252857Y-102611428D01*
X88350000Y-102611428D01*
X88447142Y-102562857D01*
X88495714Y-102514285D01*
X88544285Y-102417142D01*
X88592857Y-102222857D01*
X88592857Y-101980000D01*
X88544285Y-101785714D01*
X88495714Y-101688571D01*
X88447142Y-101640000D01*
X88350000Y-101591428D01*
X86747142Y-102611428D02*
X86552857Y-102611428D01*
X86455714Y-102562857D01*
X86407142Y-102514285D01*
X86310000Y-102368571D01*
X86261428Y-102174285D01*
X86261428Y-101785714D01*
X86310000Y-101688571D01*
X86358571Y-101640000D01*
X86455714Y-101591428D01*
X86650000Y-101591428D01*
X86747142Y-101640000D01*
X86795714Y-101688571D01*
X86844285Y-101785714D01*
X86844285Y-102028571D01*
X86795714Y-102125714D01*
X86747142Y-102174285D01*
X86650000Y-102222857D01*
X86455714Y-102222857D01*
X86358571Y-102174285D01*
X86310000Y-102125714D01*
X86261428Y-102028571D01*
X84124285Y-102028571D02*
X84221428Y-101980000D01*
X84270000Y-101931428D01*
X84318571Y-101834285D01*
X84318571Y-101785714D01*
X84270000Y-101688571D01*
X84221428Y-101640000D01*
X84124285Y-101591428D01*
X83930000Y-101591428D01*
X83832857Y-101640000D01*
X83784285Y-101688571D01*
X83735714Y-101785714D01*
X83735714Y-101834285D01*
X83784285Y-101931428D01*
X83832857Y-101980000D01*
X83930000Y-102028571D01*
X84124285Y-102028571D01*
X84221428Y-102077142D01*
X84270000Y-102125714D01*
X84318571Y-102222857D01*
X84318571Y-102417142D01*
X84270000Y-102514285D01*
X84221428Y-102562857D01*
X84124285Y-102611428D01*
X83930000Y-102611428D01*
X83832857Y-102562857D01*
X83784285Y-102514285D01*
X83735714Y-102417142D01*
X83735714Y-102222857D01*
X83784285Y-102125714D01*
X83832857Y-102077142D01*
X83930000Y-102028571D01*
X81841428Y-101591428D02*
X81161428Y-101591428D01*
X81598571Y-102611428D01*
X78781428Y-101591428D02*
X78975714Y-101591428D01*
X79072857Y-101640000D01*
X79121428Y-101688571D01*
X79218571Y-101834285D01*
X79267142Y-102028571D01*
X79267142Y-102417142D01*
X79218571Y-102514285D01*
X79170000Y-102562857D01*
X79072857Y-102611428D01*
X78878571Y-102611428D01*
X78781428Y-102562857D01*
X78732857Y-102514285D01*
X78684285Y-102417142D01*
X78684285Y-102174285D01*
X78732857Y-102077142D01*
X78781428Y-102028571D01*
X78878571Y-101980000D01*
X79072857Y-101980000D01*
X79170000Y-102028571D01*
X79218571Y-102077142D01*
X79267142Y-102174285D01*
X76207142Y-101591428D02*
X76692857Y-101591428D01*
X76741428Y-102077142D01*
X76692857Y-102028571D01*
X76595714Y-101980000D01*
X76352857Y-101980000D01*
X76255714Y-102028571D01*
X76207142Y-102077142D01*
X76158571Y-102174285D01*
X76158571Y-102417142D01*
X76207142Y-102514285D01*
X76255714Y-102562857D01*
X76352857Y-102611428D01*
X76595714Y-102611428D01*
X76692857Y-102562857D01*
X76741428Y-102514285D01*
X73730000Y-101931428D02*
X73730000Y-102611428D01*
X73972857Y-101542857D02*
X74215714Y-102271428D01*
X73584285Y-102271428D01*
X71738571Y-101591428D02*
X71107142Y-101591428D01*
X71447142Y-101980000D01*
X71301428Y-101980000D01*
X71204285Y-102028571D01*
X71155714Y-102077142D01*
X71107142Y-102174285D01*
X71107142Y-102417142D01*
X71155714Y-102514285D01*
X71204285Y-102562857D01*
X71301428Y-102611428D01*
X71592857Y-102611428D01*
X71690000Y-102562857D01*
X71738571Y-102514285D01*
X69164285Y-101688571D02*
X69115714Y-101640000D01*
X69018571Y-101591428D01*
X68775714Y-101591428D01*
X68678571Y-101640000D01*
X68630000Y-101688571D01*
X68581428Y-101785714D01*
X68581428Y-101882857D01*
X68630000Y-102028571D01*
X69212857Y-102611428D01*
X68581428Y-102611428D01*
X66055714Y-102611428D02*
X66638571Y-102611428D01*
X66347142Y-102611428D02*
X66347142Y-101591428D01*
X66444285Y-101737142D01*
X66541428Y-101834285D01*
X66638571Y-101882857D01*
X140927142Y-116894285D02*
X140332857Y-116894285D01*
X140652857Y-117260000D01*
X140515714Y-117260000D01*
X140424285Y-117305714D01*
X140378571Y-117351428D01*
X140332857Y-117442857D01*
X140332857Y-117671428D01*
X140378571Y-117762857D01*
X140424285Y-117808571D01*
X140515714Y-117854285D01*
X140790000Y-117854285D01*
X140881428Y-117808571D01*
X140927142Y-117762857D01*
X139738571Y-116894285D02*
X139647142Y-116894285D01*
X139555714Y-116940000D01*
X139510000Y-116985714D01*
X139464285Y-117077142D01*
X139418571Y-117260000D01*
X139418571Y-117488571D01*
X139464285Y-117671428D01*
X139510000Y-117762857D01*
X139555714Y-117808571D01*
X139647142Y-117854285D01*
X139738571Y-117854285D01*
X139830000Y-117808571D01*
X139875714Y-117762857D01*
X139921428Y-117671428D01*
X139967142Y-117488571D01*
X139967142Y-117260000D01*
X139921428Y-117077142D01*
X139875714Y-116985714D01*
X139830000Y-116940000D01*
X139738571Y-116894285D01*
X138321428Y-116985714D02*
X138275714Y-116940000D01*
X138184285Y-116894285D01*
X137955714Y-116894285D01*
X137864285Y-116940000D01*
X137818571Y-116985714D01*
X137772857Y-117077142D01*
X137772857Y-117168571D01*
X137818571Y-117305714D01*
X138367142Y-117854285D01*
X137772857Y-117854285D01*
X137315714Y-117854285D02*
X137132857Y-117854285D01*
X137041428Y-117808571D01*
X136995714Y-117762857D01*
X136904285Y-117625714D01*
X136858571Y-117442857D01*
X136858571Y-117077142D01*
X136904285Y-116985714D01*
X136950000Y-116940000D01*
X137041428Y-116894285D01*
X137224285Y-116894285D01*
X137315714Y-116940000D01*
X137361428Y-116985714D01*
X137407142Y-117077142D01*
X137407142Y-117305714D01*
X137361428Y-117397142D01*
X137315714Y-117442857D01*
X137224285Y-117488571D01*
X137041428Y-117488571D01*
X136950000Y-117442857D01*
X136904285Y-117397142D01*
X136858571Y-117305714D01*
X135761428Y-116985714D02*
X135715714Y-116940000D01*
X135624285Y-116894285D01*
X135395714Y-116894285D01*
X135304285Y-116940000D01*
X135258571Y-116985714D01*
X135212857Y-117077142D01*
X135212857Y-117168571D01*
X135258571Y-117305714D01*
X135807142Y-117854285D01*
X135212857Y-117854285D01*
X134664285Y-117305714D02*
X134755714Y-117260000D01*
X134801428Y-117214285D01*
X134847142Y-117122857D01*
X134847142Y-117077142D01*
X134801428Y-116985714D01*
X134755714Y-116940000D01*
X134664285Y-116894285D01*
X134481428Y-116894285D01*
X134390000Y-116940000D01*
X134344285Y-116985714D01*
X134298571Y-117077142D01*
X134298571Y-117122857D01*
X134344285Y-117214285D01*
X134390000Y-117260000D01*
X134481428Y-117305714D01*
X134664285Y-117305714D01*
X134755714Y-117351428D01*
X134801428Y-117397142D01*
X134847142Y-117488571D01*
X134847142Y-117671428D01*
X134801428Y-117762857D01*
X134755714Y-117808571D01*
X134664285Y-117854285D01*
X134481428Y-117854285D01*
X134390000Y-117808571D01*
X134344285Y-117762857D01*
X134298571Y-117671428D01*
X134298571Y-117488571D01*
X134344285Y-117397142D01*
X134390000Y-117351428D01*
X134481428Y-117305714D01*
X133201428Y-116985714D02*
X133155714Y-116940000D01*
X133064285Y-116894285D01*
X132835714Y-116894285D01*
X132744285Y-116940000D01*
X132698571Y-116985714D01*
X132652857Y-117077142D01*
X132652857Y-117168571D01*
X132698571Y-117305714D01*
X133247142Y-117854285D01*
X132652857Y-117854285D01*
X132332857Y-116894285D02*
X131692857Y-116894285D01*
X132104285Y-117854285D01*
X130641428Y-116985714D02*
X130595714Y-116940000D01*
X130504285Y-116894285D01*
X130275714Y-116894285D01*
X130184285Y-116940000D01*
X130138571Y-116985714D01*
X130092857Y-117077142D01*
X130092857Y-117168571D01*
X130138571Y-117305714D01*
X130687142Y-117854285D01*
X130092857Y-117854285D01*
X129270000Y-116894285D02*
X129452857Y-116894285D01*
X129544285Y-116940000D01*
X129590000Y-116985714D01*
X129681428Y-117122857D01*
X129727142Y-117305714D01*
X129727142Y-117671428D01*
X129681428Y-117762857D01*
X129635714Y-117808571D01*
X129544285Y-117854285D01*
X129361428Y-117854285D01*
X129270000Y-117808571D01*
X129224285Y-117762857D01*
X129178571Y-117671428D01*
X129178571Y-117442857D01*
X129224285Y-117351428D01*
X129270000Y-117305714D01*
X129361428Y-117260000D01*
X129544285Y-117260000D01*
X129635714Y-117305714D01*
X129681428Y-117351428D01*
X129727142Y-117442857D01*
X128081428Y-116985714D02*
X128035714Y-116940000D01*
X127944285Y-116894285D01*
X127715714Y-116894285D01*
X127624285Y-116940000D01*
X127578571Y-116985714D01*
X127532857Y-117077142D01*
X127532857Y-117168571D01*
X127578571Y-117305714D01*
X128127142Y-117854285D01*
X127532857Y-117854285D01*
X126664285Y-116894285D02*
X127121428Y-116894285D01*
X127167142Y-117351428D01*
X127121428Y-117305714D01*
X127030000Y-117260000D01*
X126801428Y-117260000D01*
X126710000Y-117305714D01*
X126664285Y-117351428D01*
X126618571Y-117442857D01*
X126618571Y-117671428D01*
X126664285Y-117762857D01*
X126710000Y-117808571D01*
X126801428Y-117854285D01*
X127030000Y-117854285D01*
X127121428Y-117808571D01*
X127167142Y-117762857D01*
X125521428Y-116985714D02*
X125475714Y-116940000D01*
X125384285Y-116894285D01*
X125155714Y-116894285D01*
X125064285Y-116940000D01*
X125018571Y-116985714D01*
X124972857Y-117077142D01*
X124972857Y-117168571D01*
X125018571Y-117305714D01*
X125567142Y-117854285D01*
X124972857Y-117854285D01*
X124150000Y-117214285D02*
X124150000Y-117854285D01*
X124378571Y-116848571D02*
X124607142Y-117534285D01*
X124012857Y-117534285D01*
X122961428Y-116985714D02*
X122915714Y-116940000D01*
X122824285Y-116894285D01*
X122595714Y-116894285D01*
X122504285Y-116940000D01*
X122458571Y-116985714D01*
X122412857Y-117077142D01*
X122412857Y-117168571D01*
X122458571Y-117305714D01*
X123007142Y-117854285D01*
X122412857Y-117854285D01*
X122092857Y-116894285D02*
X121498571Y-116894285D01*
X121818571Y-117260000D01*
X121681428Y-117260000D01*
X121590000Y-117305714D01*
X121544285Y-117351428D01*
X121498571Y-117442857D01*
X121498571Y-117671428D01*
X121544285Y-117762857D01*
X121590000Y-117808571D01*
X121681428Y-117854285D01*
X121955714Y-117854285D01*
X122047142Y-117808571D01*
X122092857Y-117762857D01*
X120401428Y-116985714D02*
X120355714Y-116940000D01*
X120264285Y-116894285D01*
X120035714Y-116894285D01*
X119944285Y-116940000D01*
X119898571Y-116985714D01*
X119852857Y-117077142D01*
X119852857Y-117168571D01*
X119898571Y-117305714D01*
X120447142Y-117854285D01*
X119852857Y-117854285D01*
X119487142Y-116985714D02*
X119441428Y-116940000D01*
X119350000Y-116894285D01*
X119121428Y-116894285D01*
X119030000Y-116940000D01*
X118984285Y-116985714D01*
X118938571Y-117077142D01*
X118938571Y-117168571D01*
X118984285Y-117305714D01*
X119532857Y-117854285D01*
X118938571Y-117854285D01*
X117841428Y-116985714D02*
X117795714Y-116940000D01*
X117704285Y-116894285D01*
X117475714Y-116894285D01*
X117384285Y-116940000D01*
X117338571Y-116985714D01*
X117292857Y-117077142D01*
X117292857Y-117168571D01*
X117338571Y-117305714D01*
X117887142Y-117854285D01*
X117292857Y-117854285D01*
X116378571Y-117854285D02*
X116927142Y-117854285D01*
X116652857Y-117854285D02*
X116652857Y-116894285D01*
X116744285Y-117031428D01*
X116835714Y-117122857D01*
X116927142Y-117168571D01*
X156147142Y-116894285D02*
X155552857Y-116894285D01*
X155872857Y-117260000D01*
X155735714Y-117260000D01*
X155644285Y-117305714D01*
X155598571Y-117351428D01*
X155552857Y-117442857D01*
X155552857Y-117671428D01*
X155598571Y-117762857D01*
X155644285Y-117808571D01*
X155735714Y-117854285D01*
X156010000Y-117854285D01*
X156101428Y-117808571D01*
X156147142Y-117762857D01*
X154730000Y-116894285D02*
X154912857Y-116894285D01*
X155004285Y-116940000D01*
X155050000Y-116985714D01*
X155141428Y-117122857D01*
X155187142Y-117305714D01*
X155187142Y-117671428D01*
X155141428Y-117762857D01*
X155095714Y-117808571D01*
X155004285Y-117854285D01*
X154821428Y-117854285D01*
X154730000Y-117808571D01*
X154684285Y-117762857D01*
X154638571Y-117671428D01*
X154638571Y-117442857D01*
X154684285Y-117351428D01*
X154730000Y-117305714D01*
X154821428Y-117260000D01*
X155004285Y-117260000D01*
X155095714Y-117305714D01*
X155141428Y-117351428D01*
X155187142Y-117442857D01*
X153587142Y-116894285D02*
X152992857Y-116894285D01*
X153312857Y-117260000D01*
X153175714Y-117260000D01*
X153084285Y-117305714D01*
X153038571Y-117351428D01*
X152992857Y-117442857D01*
X152992857Y-117671428D01*
X153038571Y-117762857D01*
X153084285Y-117808571D01*
X153175714Y-117854285D01*
X153450000Y-117854285D01*
X153541428Y-117808571D01*
X153587142Y-117762857D01*
X152124285Y-116894285D02*
X152581428Y-116894285D01*
X152627142Y-117351428D01*
X152581428Y-117305714D01*
X152490000Y-117260000D01*
X152261428Y-117260000D01*
X152170000Y-117305714D01*
X152124285Y-117351428D01*
X152078571Y-117442857D01*
X152078571Y-117671428D01*
X152124285Y-117762857D01*
X152170000Y-117808571D01*
X152261428Y-117854285D01*
X152490000Y-117854285D01*
X152581428Y-117808571D01*
X152627142Y-117762857D01*
X151027142Y-116894285D02*
X150432857Y-116894285D01*
X150752857Y-117260000D01*
X150615714Y-117260000D01*
X150524285Y-117305714D01*
X150478571Y-117351428D01*
X150432857Y-117442857D01*
X150432857Y-117671428D01*
X150478571Y-117762857D01*
X150524285Y-117808571D01*
X150615714Y-117854285D01*
X150890000Y-117854285D01*
X150981428Y-117808571D01*
X151027142Y-117762857D01*
X149610000Y-117214285D02*
X149610000Y-117854285D01*
X149838571Y-116848571D02*
X150067142Y-117534285D01*
X149472857Y-117534285D01*
X148467142Y-116894285D02*
X147872857Y-116894285D01*
X148192857Y-117260000D01*
X148055714Y-117260000D01*
X147964285Y-117305714D01*
X147918571Y-117351428D01*
X147872857Y-117442857D01*
X147872857Y-117671428D01*
X147918571Y-117762857D01*
X147964285Y-117808571D01*
X148055714Y-117854285D01*
X148330000Y-117854285D01*
X148421428Y-117808571D01*
X148467142Y-117762857D01*
X147552857Y-116894285D02*
X146958571Y-116894285D01*
X147278571Y-117260000D01*
X147141428Y-117260000D01*
X147050000Y-117305714D01*
X147004285Y-117351428D01*
X146958571Y-117442857D01*
X146958571Y-117671428D01*
X147004285Y-117762857D01*
X147050000Y-117808571D01*
X147141428Y-117854285D01*
X147415714Y-117854285D01*
X147507142Y-117808571D01*
X147552857Y-117762857D01*
X145907142Y-116894285D02*
X145312857Y-116894285D01*
X145632857Y-117260000D01*
X145495714Y-117260000D01*
X145404285Y-117305714D01*
X145358571Y-117351428D01*
X145312857Y-117442857D01*
X145312857Y-117671428D01*
X145358571Y-117762857D01*
X145404285Y-117808571D01*
X145495714Y-117854285D01*
X145770000Y-117854285D01*
X145861428Y-117808571D01*
X145907142Y-117762857D01*
X144947142Y-116985714D02*
X144901428Y-116940000D01*
X144810000Y-116894285D01*
X144581428Y-116894285D01*
X144490000Y-116940000D01*
X144444285Y-116985714D01*
X144398571Y-117077142D01*
X144398571Y-117168571D01*
X144444285Y-117305714D01*
X144992857Y-117854285D01*
X144398571Y-117854285D01*
X143347142Y-116894285D02*
X142752857Y-116894285D01*
X143072857Y-117260000D01*
X142935714Y-117260000D01*
X142844285Y-117305714D01*
X142798571Y-117351428D01*
X142752857Y-117442857D01*
X142752857Y-117671428D01*
X142798571Y-117762857D01*
X142844285Y-117808571D01*
X142935714Y-117854285D01*
X143210000Y-117854285D01*
X143301428Y-117808571D01*
X143347142Y-117762857D01*
X141838571Y-117854285D02*
X142387142Y-117854285D01*
X142112857Y-117854285D02*
X142112857Y-116894285D01*
X142204285Y-117031428D01*
X142295714Y-117122857D01*
X142387142Y-117168571D01*
X115221428Y-116925714D02*
X115175714Y-116880000D01*
X115084285Y-116834285D01*
X114855714Y-116834285D01*
X114764285Y-116880000D01*
X114718571Y-116925714D01*
X114672857Y-117017142D01*
X114672857Y-117108571D01*
X114718571Y-117245714D01*
X115267142Y-117794285D01*
X114672857Y-117794285D01*
X114078571Y-116834285D02*
X113987142Y-116834285D01*
X113895714Y-116880000D01*
X113850000Y-116925714D01*
X113804285Y-117017142D01*
X113758571Y-117200000D01*
X113758571Y-117428571D01*
X113804285Y-117611428D01*
X113850000Y-117702857D01*
X113895714Y-117748571D01*
X113987142Y-117794285D01*
X114078571Y-117794285D01*
X114170000Y-117748571D01*
X114215714Y-117702857D01*
X114261428Y-117611428D01*
X114307142Y-117428571D01*
X114307142Y-117200000D01*
X114261428Y-117017142D01*
X114215714Y-116925714D01*
X114170000Y-116880000D01*
X114078571Y-116834285D01*
X112112857Y-117794285D02*
X112661428Y-117794285D01*
X112387142Y-117794285D02*
X112387142Y-116834285D01*
X112478571Y-116971428D01*
X112570000Y-117062857D01*
X112661428Y-117108571D01*
X111655714Y-117794285D02*
X111472857Y-117794285D01*
X111381428Y-117748571D01*
X111335714Y-117702857D01*
X111244285Y-117565714D01*
X111198571Y-117382857D01*
X111198571Y-117017142D01*
X111244285Y-116925714D01*
X111290000Y-116880000D01*
X111381428Y-116834285D01*
X111564285Y-116834285D01*
X111655714Y-116880000D01*
X111701428Y-116925714D01*
X111747142Y-117017142D01*
X111747142Y-117245714D01*
X111701428Y-117337142D01*
X111655714Y-117382857D01*
X111564285Y-117428571D01*
X111381428Y-117428571D01*
X111290000Y-117382857D01*
X111244285Y-117337142D01*
X111198571Y-117245714D01*
X109552857Y-117794285D02*
X110101428Y-117794285D01*
X109827142Y-117794285D02*
X109827142Y-116834285D01*
X109918571Y-116971428D01*
X110010000Y-117062857D01*
X110101428Y-117108571D01*
X109004285Y-117245714D02*
X109095714Y-117200000D01*
X109141428Y-117154285D01*
X109187142Y-117062857D01*
X109187142Y-117017142D01*
X109141428Y-116925714D01*
X109095714Y-116880000D01*
X109004285Y-116834285D01*
X108821428Y-116834285D01*
X108730000Y-116880000D01*
X108684285Y-116925714D01*
X108638571Y-117017142D01*
X108638571Y-117062857D01*
X108684285Y-117154285D01*
X108730000Y-117200000D01*
X108821428Y-117245714D01*
X109004285Y-117245714D01*
X109095714Y-117291428D01*
X109141428Y-117337142D01*
X109187142Y-117428571D01*
X109187142Y-117611428D01*
X109141428Y-117702857D01*
X109095714Y-117748571D01*
X109004285Y-117794285D01*
X108821428Y-117794285D01*
X108730000Y-117748571D01*
X108684285Y-117702857D01*
X108638571Y-117611428D01*
X108638571Y-117428571D01*
X108684285Y-117337142D01*
X108730000Y-117291428D01*
X108821428Y-117245714D01*
X106992857Y-117794285D02*
X107541428Y-117794285D01*
X107267142Y-117794285D02*
X107267142Y-116834285D01*
X107358571Y-116971428D01*
X107450000Y-117062857D01*
X107541428Y-117108571D01*
X106672857Y-116834285D02*
X106032857Y-116834285D01*
X106444285Y-117794285D01*
X104432857Y-117794285D02*
X104981428Y-117794285D01*
X104707142Y-117794285D02*
X104707142Y-116834285D01*
X104798571Y-116971428D01*
X104890000Y-117062857D01*
X104981428Y-117108571D01*
X103610000Y-116834285D02*
X103792857Y-116834285D01*
X103884285Y-116880000D01*
X103930000Y-116925714D01*
X104021428Y-117062857D01*
X104067142Y-117245714D01*
X104067142Y-117611428D01*
X104021428Y-117702857D01*
X103975714Y-117748571D01*
X103884285Y-117794285D01*
X103701428Y-117794285D01*
X103610000Y-117748571D01*
X103564285Y-117702857D01*
X103518571Y-117611428D01*
X103518571Y-117382857D01*
X103564285Y-117291428D01*
X103610000Y-117245714D01*
X103701428Y-117200000D01*
X103884285Y-117200000D01*
X103975714Y-117245714D01*
X104021428Y-117291428D01*
X104067142Y-117382857D01*
X101872857Y-117794285D02*
X102421428Y-117794285D01*
X102147142Y-117794285D02*
X102147142Y-116834285D01*
X102238571Y-116971428D01*
X102330000Y-117062857D01*
X102421428Y-117108571D01*
X101004285Y-116834285D02*
X101461428Y-116834285D01*
X101507142Y-117291428D01*
X101461428Y-117245714D01*
X101370000Y-117200000D01*
X101141428Y-117200000D01*
X101050000Y-117245714D01*
X101004285Y-117291428D01*
X100958571Y-117382857D01*
X100958571Y-117611428D01*
X101004285Y-117702857D01*
X101050000Y-117748571D01*
X101141428Y-117794285D01*
X101370000Y-117794285D01*
X101461428Y-117748571D01*
X101507142Y-117702857D01*
X99312857Y-117794285D02*
X99861428Y-117794285D01*
X99587142Y-117794285D02*
X99587142Y-116834285D01*
X99678571Y-116971428D01*
X99770000Y-117062857D01*
X99861428Y-117108571D01*
X98490000Y-117154285D02*
X98490000Y-117794285D01*
X98718571Y-116788571D02*
X98947142Y-117474285D01*
X98352857Y-117474285D01*
X96752857Y-117794285D02*
X97301428Y-117794285D01*
X97027142Y-117794285D02*
X97027142Y-116834285D01*
X97118571Y-116971428D01*
X97210000Y-117062857D01*
X97301428Y-117108571D01*
X96432857Y-116834285D02*
X95838571Y-116834285D01*
X96158571Y-117200000D01*
X96021428Y-117200000D01*
X95930000Y-117245714D01*
X95884285Y-117291428D01*
X95838571Y-117382857D01*
X95838571Y-117611428D01*
X95884285Y-117702857D01*
X95930000Y-117748571D01*
X96021428Y-117794285D01*
X96295714Y-117794285D01*
X96387142Y-117748571D01*
X96432857Y-117702857D01*
X94192857Y-117794285D02*
X94741428Y-117794285D01*
X94467142Y-117794285D02*
X94467142Y-116834285D01*
X94558571Y-116971428D01*
X94650000Y-117062857D01*
X94741428Y-117108571D01*
X93827142Y-116925714D02*
X93781428Y-116880000D01*
X93690000Y-116834285D01*
X93461428Y-116834285D01*
X93370000Y-116880000D01*
X93324285Y-116925714D01*
X93278571Y-117017142D01*
X93278571Y-117108571D01*
X93324285Y-117245714D01*
X93872857Y-117794285D01*
X93278571Y-117794285D01*
X91632857Y-117794285D02*
X92181428Y-117794285D01*
X91907142Y-117794285D02*
X91907142Y-116834285D01*
X91998571Y-116971428D01*
X92090000Y-117062857D01*
X92181428Y-117108571D01*
X90718571Y-117794285D02*
X91267142Y-117794285D01*
X90992857Y-117794285D02*
X90992857Y-116834285D01*
X91084285Y-116971428D01*
X91175714Y-117062857D01*
X91267142Y-117108571D01*
X88901428Y-117881428D02*
X89484285Y-117881428D01*
X89192857Y-117881428D02*
X89192857Y-116861428D01*
X89290000Y-117007142D01*
X89387142Y-117104285D01*
X89484285Y-117152857D01*
X88270000Y-116861428D02*
X88172857Y-116861428D01*
X88075714Y-116910000D01*
X88027142Y-116958571D01*
X87978571Y-117055714D01*
X87930000Y-117250000D01*
X87930000Y-117492857D01*
X87978571Y-117687142D01*
X88027142Y-117784285D01*
X88075714Y-117832857D01*
X88172857Y-117881428D01*
X88270000Y-117881428D01*
X88367142Y-117832857D01*
X88415714Y-117784285D01*
X88464285Y-117687142D01*
X88512857Y-117492857D01*
X88512857Y-117250000D01*
X88464285Y-117055714D01*
X88415714Y-116958571D01*
X88367142Y-116910000D01*
X88270000Y-116861428D01*
X86667142Y-117881428D02*
X86472857Y-117881428D01*
X86375714Y-117832857D01*
X86327142Y-117784285D01*
X86230000Y-117638571D01*
X86181428Y-117444285D01*
X86181428Y-117055714D01*
X86230000Y-116958571D01*
X86278571Y-116910000D01*
X86375714Y-116861428D01*
X86570000Y-116861428D01*
X86667142Y-116910000D01*
X86715714Y-116958571D01*
X86764285Y-117055714D01*
X86764285Y-117298571D01*
X86715714Y-117395714D01*
X86667142Y-117444285D01*
X86570000Y-117492857D01*
X86375714Y-117492857D01*
X86278571Y-117444285D01*
X86230000Y-117395714D01*
X86181428Y-117298571D01*
X84044285Y-117298571D02*
X84141428Y-117250000D01*
X84190000Y-117201428D01*
X84238571Y-117104285D01*
X84238571Y-117055714D01*
X84190000Y-116958571D01*
X84141428Y-116910000D01*
X84044285Y-116861428D01*
X83850000Y-116861428D01*
X83752857Y-116910000D01*
X83704285Y-116958571D01*
X83655714Y-117055714D01*
X83655714Y-117104285D01*
X83704285Y-117201428D01*
X83752857Y-117250000D01*
X83850000Y-117298571D01*
X84044285Y-117298571D01*
X84141428Y-117347142D01*
X84190000Y-117395714D01*
X84238571Y-117492857D01*
X84238571Y-117687142D01*
X84190000Y-117784285D01*
X84141428Y-117832857D01*
X84044285Y-117881428D01*
X83850000Y-117881428D01*
X83752857Y-117832857D01*
X83704285Y-117784285D01*
X83655714Y-117687142D01*
X83655714Y-117492857D01*
X83704285Y-117395714D01*
X83752857Y-117347142D01*
X83850000Y-117298571D01*
X81761428Y-116861428D02*
X81081428Y-116861428D01*
X81518571Y-117881428D01*
X78701428Y-116861428D02*
X78895714Y-116861428D01*
X78992857Y-116910000D01*
X79041428Y-116958571D01*
X79138571Y-117104285D01*
X79187142Y-117298571D01*
X79187142Y-117687142D01*
X79138571Y-117784285D01*
X79090000Y-117832857D01*
X78992857Y-117881428D01*
X78798571Y-117881428D01*
X78701428Y-117832857D01*
X78652857Y-117784285D01*
X78604285Y-117687142D01*
X78604285Y-117444285D01*
X78652857Y-117347142D01*
X78701428Y-117298571D01*
X78798571Y-117250000D01*
X78992857Y-117250000D01*
X79090000Y-117298571D01*
X79138571Y-117347142D01*
X79187142Y-117444285D01*
X76127142Y-116861428D02*
X76612857Y-116861428D01*
X76661428Y-117347142D01*
X76612857Y-117298571D01*
X76515714Y-117250000D01*
X76272857Y-117250000D01*
X76175714Y-117298571D01*
X76127142Y-117347142D01*
X76078571Y-117444285D01*
X76078571Y-117687142D01*
X76127142Y-117784285D01*
X76175714Y-117832857D01*
X76272857Y-117881428D01*
X76515714Y-117881428D01*
X76612857Y-117832857D01*
X76661428Y-117784285D01*
X73650000Y-117201428D02*
X73650000Y-117881428D01*
X73892857Y-116812857D02*
X74135714Y-117541428D01*
X73504285Y-117541428D01*
X71658571Y-116861428D02*
X71027142Y-116861428D01*
X71367142Y-117250000D01*
X71221428Y-117250000D01*
X71124285Y-117298571D01*
X71075714Y-117347142D01*
X71027142Y-117444285D01*
X71027142Y-117687142D01*
X71075714Y-117784285D01*
X71124285Y-117832857D01*
X71221428Y-117881428D01*
X71512857Y-117881428D01*
X71610000Y-117832857D01*
X71658571Y-117784285D01*
X69084285Y-116958571D02*
X69035714Y-116910000D01*
X68938571Y-116861428D01*
X68695714Y-116861428D01*
X68598571Y-116910000D01*
X68550000Y-116958571D01*
X68501428Y-117055714D01*
X68501428Y-117152857D01*
X68550000Y-117298571D01*
X69132857Y-117881428D01*
X68501428Y-117881428D01*
X65975714Y-117881428D02*
X66558571Y-117881428D01*
X66267142Y-117881428D02*
X66267142Y-116861428D01*
X66364285Y-117007142D01*
X66461428Y-117104285D01*
X66558571Y-117152857D01*
D14*
X155308571Y-57190000D02*
X156522857Y-57190000D01*
X156665714Y-57261428D01*
X156737142Y-57332857D01*
X156808571Y-57475714D01*
X156808571Y-57761428D01*
X156737142Y-57904285D01*
X156665714Y-57975714D01*
X156522857Y-58047142D01*
X155308571Y-58047142D01*
X156737142Y-58690000D02*
X156808571Y-58904285D01*
X156808571Y-59261428D01*
X156737142Y-59404285D01*
X156665714Y-59475714D01*
X156522857Y-59547142D01*
X156380000Y-59547142D01*
X156237142Y-59475714D01*
X156165714Y-59404285D01*
X156094285Y-59261428D01*
X156022857Y-58975714D01*
X155951428Y-58832857D01*
X155880000Y-58761428D01*
X155737142Y-58690000D01*
X155594285Y-58690000D01*
X155451428Y-58761428D01*
X155380000Y-58832857D01*
X155308571Y-58975714D01*
X155308571Y-59332857D01*
X155380000Y-59547142D01*
X156022857Y-60190000D02*
X156022857Y-60690000D01*
X156808571Y-60904285D02*
X156808571Y-60190000D01*
X155308571Y-60190000D01*
X155308571Y-60904285D01*
X156808571Y-62404285D02*
X156094285Y-61904285D01*
X156808571Y-61547142D02*
X155308571Y-61547142D01*
X155308571Y-62118571D01*
X155380000Y-62261428D01*
X155451428Y-62332857D01*
X155594285Y-62404285D01*
X155808571Y-62404285D01*
X155951428Y-62332857D01*
X156022857Y-62261428D01*
X156094285Y-62118571D01*
X156094285Y-61547142D01*
X156808571Y-64190000D02*
X155308571Y-64190000D01*
X155308571Y-64761428D01*
X155380000Y-64904285D01*
X155451428Y-64975714D01*
X155594285Y-65047142D01*
X155808571Y-65047142D01*
X155951428Y-64975714D01*
X156022857Y-64904285D01*
X156094285Y-64761428D01*
X156094285Y-64190000D01*
X155308571Y-65975714D02*
X155308571Y-66261428D01*
X155380000Y-66404285D01*
X155522857Y-66547142D01*
X155808571Y-66618571D01*
X156308571Y-66618571D01*
X156594285Y-66547142D01*
X156737142Y-66404285D01*
X156808571Y-66261428D01*
X156808571Y-65975714D01*
X156737142Y-65832857D01*
X156594285Y-65690000D01*
X156308571Y-65618571D01*
X155808571Y-65618571D01*
X155522857Y-65690000D01*
X155380000Y-65832857D01*
X155308571Y-65975714D01*
X156808571Y-68118571D02*
X156094285Y-67618571D01*
X156808571Y-67261428D02*
X155308571Y-67261428D01*
X155308571Y-67832857D01*
X155380000Y-67975714D01*
X155451428Y-68047142D01*
X155594285Y-68118571D01*
X155808571Y-68118571D01*
X155951428Y-68047142D01*
X156022857Y-67975714D01*
X156094285Y-67832857D01*
X156094285Y-67261428D01*
X155308571Y-68547142D02*
X155308571Y-69404285D01*
X156808571Y-68975714D02*
X155308571Y-68975714D01*
X114768571Y-57988571D02*
X114768571Y-57131428D01*
X114768571Y-57560000D02*
X113268571Y-57560000D01*
X113482857Y-57417142D01*
X113625714Y-57274285D01*
X113697142Y-57131428D01*
X114768571Y-59774285D02*
X113268571Y-59774285D01*
X114340000Y-60274285D01*
X113268571Y-60774285D01*
X114768571Y-60774285D01*
X114768571Y-61488571D02*
X113268571Y-61488571D01*
X113982857Y-61488571D02*
X113982857Y-62345714D01*
X114768571Y-62345714D02*
X113268571Y-62345714D01*
X113268571Y-62917142D02*
X113268571Y-63917142D01*
X114768571Y-62917142D01*
X114768571Y-63917142D01*
X113982857Y-66131428D02*
X114054285Y-66345714D01*
X114125714Y-66417142D01*
X114268571Y-66488571D01*
X114482857Y-66488571D01*
X114625714Y-66417142D01*
X114697142Y-66345714D01*
X114768571Y-66202857D01*
X114768571Y-65631428D01*
X113268571Y-65631428D01*
X113268571Y-66131428D01*
X113340000Y-66274285D01*
X113411428Y-66345714D01*
X113554285Y-66417142D01*
X113697142Y-66417142D01*
X113840000Y-66345714D01*
X113911428Y-66274285D01*
X113982857Y-66131428D01*
X113982857Y-65631428D01*
X113268571Y-67131428D02*
X114482857Y-67131428D01*
X114625714Y-67202857D01*
X114697142Y-67274285D01*
X114768571Y-67417142D01*
X114768571Y-67702857D01*
X114697142Y-67845714D01*
X114625714Y-67917142D01*
X114482857Y-67988571D01*
X113268571Y-67988571D01*
X114697142Y-68631428D02*
X114768571Y-68845714D01*
X114768571Y-69202857D01*
X114697142Y-69345714D01*
X114625714Y-69417142D01*
X114482857Y-69488571D01*
X114340000Y-69488571D01*
X114197142Y-69417142D01*
X114125714Y-69345714D01*
X114054285Y-69202857D01*
X113982857Y-68917142D01*
X113911428Y-68774285D01*
X113840000Y-68702857D01*
X113697142Y-68631428D01*
X113554285Y-68631428D01*
X113411428Y-68702857D01*
X113340000Y-68774285D01*
X113268571Y-68917142D01*
X113268571Y-69274285D01*
X113340000Y-69488571D01*
D13*
X141337142Y-86354285D02*
X140742857Y-86354285D01*
X141062857Y-86720000D01*
X140925714Y-86720000D01*
X140834285Y-86765714D01*
X140788571Y-86811428D01*
X140742857Y-86902857D01*
X140742857Y-87131428D01*
X140788571Y-87222857D01*
X140834285Y-87268571D01*
X140925714Y-87314285D01*
X141200000Y-87314285D01*
X141291428Y-87268571D01*
X141337142Y-87222857D01*
X140148571Y-86354285D02*
X140057142Y-86354285D01*
X139965714Y-86400000D01*
X139920000Y-86445714D01*
X139874285Y-86537142D01*
X139828571Y-86720000D01*
X139828571Y-86948571D01*
X139874285Y-87131428D01*
X139920000Y-87222857D01*
X139965714Y-87268571D01*
X140057142Y-87314285D01*
X140148571Y-87314285D01*
X140240000Y-87268571D01*
X140285714Y-87222857D01*
X140331428Y-87131428D01*
X140377142Y-86948571D01*
X140377142Y-86720000D01*
X140331428Y-86537142D01*
X140285714Y-86445714D01*
X140240000Y-86400000D01*
X140148571Y-86354285D01*
X138731428Y-86445714D02*
X138685714Y-86400000D01*
X138594285Y-86354285D01*
X138365714Y-86354285D01*
X138274285Y-86400000D01*
X138228571Y-86445714D01*
X138182857Y-86537142D01*
X138182857Y-86628571D01*
X138228571Y-86765714D01*
X138777142Y-87314285D01*
X138182857Y-87314285D01*
X137725714Y-87314285D02*
X137542857Y-87314285D01*
X137451428Y-87268571D01*
X137405714Y-87222857D01*
X137314285Y-87085714D01*
X137268571Y-86902857D01*
X137268571Y-86537142D01*
X137314285Y-86445714D01*
X137360000Y-86400000D01*
X137451428Y-86354285D01*
X137634285Y-86354285D01*
X137725714Y-86400000D01*
X137771428Y-86445714D01*
X137817142Y-86537142D01*
X137817142Y-86765714D01*
X137771428Y-86857142D01*
X137725714Y-86902857D01*
X137634285Y-86948571D01*
X137451428Y-86948571D01*
X137360000Y-86902857D01*
X137314285Y-86857142D01*
X137268571Y-86765714D01*
X136171428Y-86445714D02*
X136125714Y-86400000D01*
X136034285Y-86354285D01*
X135805714Y-86354285D01*
X135714285Y-86400000D01*
X135668571Y-86445714D01*
X135622857Y-86537142D01*
X135622857Y-86628571D01*
X135668571Y-86765714D01*
X136217142Y-87314285D01*
X135622857Y-87314285D01*
X135074285Y-86765714D02*
X135165714Y-86720000D01*
X135211428Y-86674285D01*
X135257142Y-86582857D01*
X135257142Y-86537142D01*
X135211428Y-86445714D01*
X135165714Y-86400000D01*
X135074285Y-86354285D01*
X134891428Y-86354285D01*
X134800000Y-86400000D01*
X134754285Y-86445714D01*
X134708571Y-86537142D01*
X134708571Y-86582857D01*
X134754285Y-86674285D01*
X134800000Y-86720000D01*
X134891428Y-86765714D01*
X135074285Y-86765714D01*
X135165714Y-86811428D01*
X135211428Y-86857142D01*
X135257142Y-86948571D01*
X135257142Y-87131428D01*
X135211428Y-87222857D01*
X135165714Y-87268571D01*
X135074285Y-87314285D01*
X134891428Y-87314285D01*
X134800000Y-87268571D01*
X134754285Y-87222857D01*
X134708571Y-87131428D01*
X134708571Y-86948571D01*
X134754285Y-86857142D01*
X134800000Y-86811428D01*
X134891428Y-86765714D01*
X133611428Y-86445714D02*
X133565714Y-86400000D01*
X133474285Y-86354285D01*
X133245714Y-86354285D01*
X133154285Y-86400000D01*
X133108571Y-86445714D01*
X133062857Y-86537142D01*
X133062857Y-86628571D01*
X133108571Y-86765714D01*
X133657142Y-87314285D01*
X133062857Y-87314285D01*
X132742857Y-86354285D02*
X132102857Y-86354285D01*
X132514285Y-87314285D01*
X131051428Y-86445714D02*
X131005714Y-86400000D01*
X130914285Y-86354285D01*
X130685714Y-86354285D01*
X130594285Y-86400000D01*
X130548571Y-86445714D01*
X130502857Y-86537142D01*
X130502857Y-86628571D01*
X130548571Y-86765714D01*
X131097142Y-87314285D01*
X130502857Y-87314285D01*
X129680000Y-86354285D02*
X129862857Y-86354285D01*
X129954285Y-86400000D01*
X130000000Y-86445714D01*
X130091428Y-86582857D01*
X130137142Y-86765714D01*
X130137142Y-87131428D01*
X130091428Y-87222857D01*
X130045714Y-87268571D01*
X129954285Y-87314285D01*
X129771428Y-87314285D01*
X129680000Y-87268571D01*
X129634285Y-87222857D01*
X129588571Y-87131428D01*
X129588571Y-86902857D01*
X129634285Y-86811428D01*
X129680000Y-86765714D01*
X129771428Y-86720000D01*
X129954285Y-86720000D01*
X130045714Y-86765714D01*
X130091428Y-86811428D01*
X130137142Y-86902857D01*
X128491428Y-86445714D02*
X128445714Y-86400000D01*
X128354285Y-86354285D01*
X128125714Y-86354285D01*
X128034285Y-86400000D01*
X127988571Y-86445714D01*
X127942857Y-86537142D01*
X127942857Y-86628571D01*
X127988571Y-86765714D01*
X128537142Y-87314285D01*
X127942857Y-87314285D01*
X127074285Y-86354285D02*
X127531428Y-86354285D01*
X127577142Y-86811428D01*
X127531428Y-86765714D01*
X127440000Y-86720000D01*
X127211428Y-86720000D01*
X127120000Y-86765714D01*
X127074285Y-86811428D01*
X127028571Y-86902857D01*
X127028571Y-87131428D01*
X127074285Y-87222857D01*
X127120000Y-87268571D01*
X127211428Y-87314285D01*
X127440000Y-87314285D01*
X127531428Y-87268571D01*
X127577142Y-87222857D01*
X125931428Y-86445714D02*
X125885714Y-86400000D01*
X125794285Y-86354285D01*
X125565714Y-86354285D01*
X125474285Y-86400000D01*
X125428571Y-86445714D01*
X125382857Y-86537142D01*
X125382857Y-86628571D01*
X125428571Y-86765714D01*
X125977142Y-87314285D01*
X125382857Y-87314285D01*
X124560000Y-86674285D02*
X124560000Y-87314285D01*
X124788571Y-86308571D02*
X125017142Y-86994285D01*
X124422857Y-86994285D01*
X123371428Y-86445714D02*
X123325714Y-86400000D01*
X123234285Y-86354285D01*
X123005714Y-86354285D01*
X122914285Y-86400000D01*
X122868571Y-86445714D01*
X122822857Y-86537142D01*
X122822857Y-86628571D01*
X122868571Y-86765714D01*
X123417142Y-87314285D01*
X122822857Y-87314285D01*
X122502857Y-86354285D02*
X121908571Y-86354285D01*
X122228571Y-86720000D01*
X122091428Y-86720000D01*
X122000000Y-86765714D01*
X121954285Y-86811428D01*
X121908571Y-86902857D01*
X121908571Y-87131428D01*
X121954285Y-87222857D01*
X122000000Y-87268571D01*
X122091428Y-87314285D01*
X122365714Y-87314285D01*
X122457142Y-87268571D01*
X122502857Y-87222857D01*
X120811428Y-86445714D02*
X120765714Y-86400000D01*
X120674285Y-86354285D01*
X120445714Y-86354285D01*
X120354285Y-86400000D01*
X120308571Y-86445714D01*
X120262857Y-86537142D01*
X120262857Y-86628571D01*
X120308571Y-86765714D01*
X120857142Y-87314285D01*
X120262857Y-87314285D01*
X119897142Y-86445714D02*
X119851428Y-86400000D01*
X119760000Y-86354285D01*
X119531428Y-86354285D01*
X119440000Y-86400000D01*
X119394285Y-86445714D01*
X119348571Y-86537142D01*
X119348571Y-86628571D01*
X119394285Y-86765714D01*
X119942857Y-87314285D01*
X119348571Y-87314285D01*
X118251428Y-86445714D02*
X118205714Y-86400000D01*
X118114285Y-86354285D01*
X117885714Y-86354285D01*
X117794285Y-86400000D01*
X117748571Y-86445714D01*
X117702857Y-86537142D01*
X117702857Y-86628571D01*
X117748571Y-86765714D01*
X118297142Y-87314285D01*
X117702857Y-87314285D01*
X116788571Y-87314285D02*
X117337142Y-87314285D01*
X117062857Y-87314285D02*
X117062857Y-86354285D01*
X117154285Y-86491428D01*
X117245714Y-86582857D01*
X117337142Y-86628571D01*
X156557142Y-86354285D02*
X155962857Y-86354285D01*
X156282857Y-86720000D01*
X156145714Y-86720000D01*
X156054285Y-86765714D01*
X156008571Y-86811428D01*
X155962857Y-86902857D01*
X155962857Y-87131428D01*
X156008571Y-87222857D01*
X156054285Y-87268571D01*
X156145714Y-87314285D01*
X156420000Y-87314285D01*
X156511428Y-87268571D01*
X156557142Y-87222857D01*
X155140000Y-86354285D02*
X155322857Y-86354285D01*
X155414285Y-86400000D01*
X155460000Y-86445714D01*
X155551428Y-86582857D01*
X155597142Y-86765714D01*
X155597142Y-87131428D01*
X155551428Y-87222857D01*
X155505714Y-87268571D01*
X155414285Y-87314285D01*
X155231428Y-87314285D01*
X155140000Y-87268571D01*
X155094285Y-87222857D01*
X155048571Y-87131428D01*
X155048571Y-86902857D01*
X155094285Y-86811428D01*
X155140000Y-86765714D01*
X155231428Y-86720000D01*
X155414285Y-86720000D01*
X155505714Y-86765714D01*
X155551428Y-86811428D01*
X155597142Y-86902857D01*
X153997142Y-86354285D02*
X153402857Y-86354285D01*
X153722857Y-86720000D01*
X153585714Y-86720000D01*
X153494285Y-86765714D01*
X153448571Y-86811428D01*
X153402857Y-86902857D01*
X153402857Y-87131428D01*
X153448571Y-87222857D01*
X153494285Y-87268571D01*
X153585714Y-87314285D01*
X153860000Y-87314285D01*
X153951428Y-87268571D01*
X153997142Y-87222857D01*
X152534285Y-86354285D02*
X152991428Y-86354285D01*
X153037142Y-86811428D01*
X152991428Y-86765714D01*
X152900000Y-86720000D01*
X152671428Y-86720000D01*
X152580000Y-86765714D01*
X152534285Y-86811428D01*
X152488571Y-86902857D01*
X152488571Y-87131428D01*
X152534285Y-87222857D01*
X152580000Y-87268571D01*
X152671428Y-87314285D01*
X152900000Y-87314285D01*
X152991428Y-87268571D01*
X153037142Y-87222857D01*
X151437142Y-86354285D02*
X150842857Y-86354285D01*
X151162857Y-86720000D01*
X151025714Y-86720000D01*
X150934285Y-86765714D01*
X150888571Y-86811428D01*
X150842857Y-86902857D01*
X150842857Y-87131428D01*
X150888571Y-87222857D01*
X150934285Y-87268571D01*
X151025714Y-87314285D01*
X151300000Y-87314285D01*
X151391428Y-87268571D01*
X151437142Y-87222857D01*
X150020000Y-86674285D02*
X150020000Y-87314285D01*
X150248571Y-86308571D02*
X150477142Y-86994285D01*
X149882857Y-86994285D01*
X148877142Y-86354285D02*
X148282857Y-86354285D01*
X148602857Y-86720000D01*
X148465714Y-86720000D01*
X148374285Y-86765714D01*
X148328571Y-86811428D01*
X148282857Y-86902857D01*
X148282857Y-87131428D01*
X148328571Y-87222857D01*
X148374285Y-87268571D01*
X148465714Y-87314285D01*
X148740000Y-87314285D01*
X148831428Y-87268571D01*
X148877142Y-87222857D01*
X147962857Y-86354285D02*
X147368571Y-86354285D01*
X147688571Y-86720000D01*
X147551428Y-86720000D01*
X147460000Y-86765714D01*
X147414285Y-86811428D01*
X147368571Y-86902857D01*
X147368571Y-87131428D01*
X147414285Y-87222857D01*
X147460000Y-87268571D01*
X147551428Y-87314285D01*
X147825714Y-87314285D01*
X147917142Y-87268571D01*
X147962857Y-87222857D01*
X146317142Y-86354285D02*
X145722857Y-86354285D01*
X146042857Y-86720000D01*
X145905714Y-86720000D01*
X145814285Y-86765714D01*
X145768571Y-86811428D01*
X145722857Y-86902857D01*
X145722857Y-87131428D01*
X145768571Y-87222857D01*
X145814285Y-87268571D01*
X145905714Y-87314285D01*
X146180000Y-87314285D01*
X146271428Y-87268571D01*
X146317142Y-87222857D01*
X145357142Y-86445714D02*
X145311428Y-86400000D01*
X145220000Y-86354285D01*
X144991428Y-86354285D01*
X144900000Y-86400000D01*
X144854285Y-86445714D01*
X144808571Y-86537142D01*
X144808571Y-86628571D01*
X144854285Y-86765714D01*
X145402857Y-87314285D01*
X144808571Y-87314285D01*
X143757142Y-86354285D02*
X143162857Y-86354285D01*
X143482857Y-86720000D01*
X143345714Y-86720000D01*
X143254285Y-86765714D01*
X143208571Y-86811428D01*
X143162857Y-86902857D01*
X143162857Y-87131428D01*
X143208571Y-87222857D01*
X143254285Y-87268571D01*
X143345714Y-87314285D01*
X143620000Y-87314285D01*
X143711428Y-87268571D01*
X143757142Y-87222857D01*
X142248571Y-87314285D02*
X142797142Y-87314285D01*
X142522857Y-87314285D02*
X142522857Y-86354285D01*
X142614285Y-86491428D01*
X142705714Y-86582857D01*
X142797142Y-86628571D01*
X115631428Y-86385714D02*
X115585714Y-86340000D01*
X115494285Y-86294285D01*
X115265714Y-86294285D01*
X115174285Y-86340000D01*
X115128571Y-86385714D01*
X115082857Y-86477142D01*
X115082857Y-86568571D01*
X115128571Y-86705714D01*
X115677142Y-87254285D01*
X115082857Y-87254285D01*
X114488571Y-86294285D02*
X114397142Y-86294285D01*
X114305714Y-86340000D01*
X114260000Y-86385714D01*
X114214285Y-86477142D01*
X114168571Y-86660000D01*
X114168571Y-86888571D01*
X114214285Y-87071428D01*
X114260000Y-87162857D01*
X114305714Y-87208571D01*
X114397142Y-87254285D01*
X114488571Y-87254285D01*
X114580000Y-87208571D01*
X114625714Y-87162857D01*
X114671428Y-87071428D01*
X114717142Y-86888571D01*
X114717142Y-86660000D01*
X114671428Y-86477142D01*
X114625714Y-86385714D01*
X114580000Y-86340000D01*
X114488571Y-86294285D01*
X112522857Y-87254285D02*
X113071428Y-87254285D01*
X112797142Y-87254285D02*
X112797142Y-86294285D01*
X112888571Y-86431428D01*
X112980000Y-86522857D01*
X113071428Y-86568571D01*
X112065714Y-87254285D02*
X111882857Y-87254285D01*
X111791428Y-87208571D01*
X111745714Y-87162857D01*
X111654285Y-87025714D01*
X111608571Y-86842857D01*
X111608571Y-86477142D01*
X111654285Y-86385714D01*
X111700000Y-86340000D01*
X111791428Y-86294285D01*
X111974285Y-86294285D01*
X112065714Y-86340000D01*
X112111428Y-86385714D01*
X112157142Y-86477142D01*
X112157142Y-86705714D01*
X112111428Y-86797142D01*
X112065714Y-86842857D01*
X111974285Y-86888571D01*
X111791428Y-86888571D01*
X111700000Y-86842857D01*
X111654285Y-86797142D01*
X111608571Y-86705714D01*
X109962857Y-87254285D02*
X110511428Y-87254285D01*
X110237142Y-87254285D02*
X110237142Y-86294285D01*
X110328571Y-86431428D01*
X110420000Y-86522857D01*
X110511428Y-86568571D01*
X109414285Y-86705714D02*
X109505714Y-86660000D01*
X109551428Y-86614285D01*
X109597142Y-86522857D01*
X109597142Y-86477142D01*
X109551428Y-86385714D01*
X109505714Y-86340000D01*
X109414285Y-86294285D01*
X109231428Y-86294285D01*
X109140000Y-86340000D01*
X109094285Y-86385714D01*
X109048571Y-86477142D01*
X109048571Y-86522857D01*
X109094285Y-86614285D01*
X109140000Y-86660000D01*
X109231428Y-86705714D01*
X109414285Y-86705714D01*
X109505714Y-86751428D01*
X109551428Y-86797142D01*
X109597142Y-86888571D01*
X109597142Y-87071428D01*
X109551428Y-87162857D01*
X109505714Y-87208571D01*
X109414285Y-87254285D01*
X109231428Y-87254285D01*
X109140000Y-87208571D01*
X109094285Y-87162857D01*
X109048571Y-87071428D01*
X109048571Y-86888571D01*
X109094285Y-86797142D01*
X109140000Y-86751428D01*
X109231428Y-86705714D01*
X107402857Y-87254285D02*
X107951428Y-87254285D01*
X107677142Y-87254285D02*
X107677142Y-86294285D01*
X107768571Y-86431428D01*
X107860000Y-86522857D01*
X107951428Y-86568571D01*
X107082857Y-86294285D02*
X106442857Y-86294285D01*
X106854285Y-87254285D01*
X104842857Y-87254285D02*
X105391428Y-87254285D01*
X105117142Y-87254285D02*
X105117142Y-86294285D01*
X105208571Y-86431428D01*
X105300000Y-86522857D01*
X105391428Y-86568571D01*
X104020000Y-86294285D02*
X104202857Y-86294285D01*
X104294285Y-86340000D01*
X104340000Y-86385714D01*
X104431428Y-86522857D01*
X104477142Y-86705714D01*
X104477142Y-87071428D01*
X104431428Y-87162857D01*
X104385714Y-87208571D01*
X104294285Y-87254285D01*
X104111428Y-87254285D01*
X104020000Y-87208571D01*
X103974285Y-87162857D01*
X103928571Y-87071428D01*
X103928571Y-86842857D01*
X103974285Y-86751428D01*
X104020000Y-86705714D01*
X104111428Y-86660000D01*
X104294285Y-86660000D01*
X104385714Y-86705714D01*
X104431428Y-86751428D01*
X104477142Y-86842857D01*
X102282857Y-87254285D02*
X102831428Y-87254285D01*
X102557142Y-87254285D02*
X102557142Y-86294285D01*
X102648571Y-86431428D01*
X102740000Y-86522857D01*
X102831428Y-86568571D01*
X101414285Y-86294285D02*
X101871428Y-86294285D01*
X101917142Y-86751428D01*
X101871428Y-86705714D01*
X101780000Y-86660000D01*
X101551428Y-86660000D01*
X101460000Y-86705714D01*
X101414285Y-86751428D01*
X101368571Y-86842857D01*
X101368571Y-87071428D01*
X101414285Y-87162857D01*
X101460000Y-87208571D01*
X101551428Y-87254285D01*
X101780000Y-87254285D01*
X101871428Y-87208571D01*
X101917142Y-87162857D01*
X99722857Y-87254285D02*
X100271428Y-87254285D01*
X99997142Y-87254285D02*
X99997142Y-86294285D01*
X100088571Y-86431428D01*
X100180000Y-86522857D01*
X100271428Y-86568571D01*
X98900000Y-86614285D02*
X98900000Y-87254285D01*
X99128571Y-86248571D02*
X99357142Y-86934285D01*
X98762857Y-86934285D01*
X97162857Y-87254285D02*
X97711428Y-87254285D01*
X97437142Y-87254285D02*
X97437142Y-86294285D01*
X97528571Y-86431428D01*
X97620000Y-86522857D01*
X97711428Y-86568571D01*
X96842857Y-86294285D02*
X96248571Y-86294285D01*
X96568571Y-86660000D01*
X96431428Y-86660000D01*
X96340000Y-86705714D01*
X96294285Y-86751428D01*
X96248571Y-86842857D01*
X96248571Y-87071428D01*
X96294285Y-87162857D01*
X96340000Y-87208571D01*
X96431428Y-87254285D01*
X96705714Y-87254285D01*
X96797142Y-87208571D01*
X96842857Y-87162857D01*
X94602857Y-87254285D02*
X95151428Y-87254285D01*
X94877142Y-87254285D02*
X94877142Y-86294285D01*
X94968571Y-86431428D01*
X95060000Y-86522857D01*
X95151428Y-86568571D01*
X94237142Y-86385714D02*
X94191428Y-86340000D01*
X94100000Y-86294285D01*
X93871428Y-86294285D01*
X93780000Y-86340000D01*
X93734285Y-86385714D01*
X93688571Y-86477142D01*
X93688571Y-86568571D01*
X93734285Y-86705714D01*
X94282857Y-87254285D01*
X93688571Y-87254285D01*
X92042857Y-87254285D02*
X92591428Y-87254285D01*
X92317142Y-87254285D02*
X92317142Y-86294285D01*
X92408571Y-86431428D01*
X92500000Y-86522857D01*
X92591428Y-86568571D01*
X91128571Y-87254285D02*
X91677142Y-87254285D01*
X91402857Y-87254285D02*
X91402857Y-86294285D01*
X91494285Y-86431428D01*
X91585714Y-86522857D01*
X91677142Y-86568571D01*
X89311428Y-87341428D02*
X89894285Y-87341428D01*
X89602857Y-87341428D02*
X89602857Y-86321428D01*
X89700000Y-86467142D01*
X89797142Y-86564285D01*
X89894285Y-86612857D01*
X88680000Y-86321428D02*
X88582857Y-86321428D01*
X88485714Y-86370000D01*
X88437142Y-86418571D01*
X88388571Y-86515714D01*
X88340000Y-86710000D01*
X88340000Y-86952857D01*
X88388571Y-87147142D01*
X88437142Y-87244285D01*
X88485714Y-87292857D01*
X88582857Y-87341428D01*
X88680000Y-87341428D01*
X88777142Y-87292857D01*
X88825714Y-87244285D01*
X88874285Y-87147142D01*
X88922857Y-86952857D01*
X88922857Y-86710000D01*
X88874285Y-86515714D01*
X88825714Y-86418571D01*
X88777142Y-86370000D01*
X88680000Y-86321428D01*
X87077142Y-87341428D02*
X86882857Y-87341428D01*
X86785714Y-87292857D01*
X86737142Y-87244285D01*
X86640000Y-87098571D01*
X86591428Y-86904285D01*
X86591428Y-86515714D01*
X86640000Y-86418571D01*
X86688571Y-86370000D01*
X86785714Y-86321428D01*
X86980000Y-86321428D01*
X87077142Y-86370000D01*
X87125714Y-86418571D01*
X87174285Y-86515714D01*
X87174285Y-86758571D01*
X87125714Y-86855714D01*
X87077142Y-86904285D01*
X86980000Y-86952857D01*
X86785714Y-86952857D01*
X86688571Y-86904285D01*
X86640000Y-86855714D01*
X86591428Y-86758571D01*
X84454285Y-86758571D02*
X84551428Y-86710000D01*
X84600000Y-86661428D01*
X84648571Y-86564285D01*
X84648571Y-86515714D01*
X84600000Y-86418571D01*
X84551428Y-86370000D01*
X84454285Y-86321428D01*
X84260000Y-86321428D01*
X84162857Y-86370000D01*
X84114285Y-86418571D01*
X84065714Y-86515714D01*
X84065714Y-86564285D01*
X84114285Y-86661428D01*
X84162857Y-86710000D01*
X84260000Y-86758571D01*
X84454285Y-86758571D01*
X84551428Y-86807142D01*
X84600000Y-86855714D01*
X84648571Y-86952857D01*
X84648571Y-87147142D01*
X84600000Y-87244285D01*
X84551428Y-87292857D01*
X84454285Y-87341428D01*
X84260000Y-87341428D01*
X84162857Y-87292857D01*
X84114285Y-87244285D01*
X84065714Y-87147142D01*
X84065714Y-86952857D01*
X84114285Y-86855714D01*
X84162857Y-86807142D01*
X84260000Y-86758571D01*
X82171428Y-86321428D02*
X81491428Y-86321428D01*
X81928571Y-87341428D01*
X79111428Y-86321428D02*
X79305714Y-86321428D01*
X79402857Y-86370000D01*
X79451428Y-86418571D01*
X79548571Y-86564285D01*
X79597142Y-86758571D01*
X79597142Y-87147142D01*
X79548571Y-87244285D01*
X79500000Y-87292857D01*
X79402857Y-87341428D01*
X79208571Y-87341428D01*
X79111428Y-87292857D01*
X79062857Y-87244285D01*
X79014285Y-87147142D01*
X79014285Y-86904285D01*
X79062857Y-86807142D01*
X79111428Y-86758571D01*
X79208571Y-86710000D01*
X79402857Y-86710000D01*
X79500000Y-86758571D01*
X79548571Y-86807142D01*
X79597142Y-86904285D01*
X76537142Y-86321428D02*
X77022857Y-86321428D01*
X77071428Y-86807142D01*
X77022857Y-86758571D01*
X76925714Y-86710000D01*
X76682857Y-86710000D01*
X76585714Y-86758571D01*
X76537142Y-86807142D01*
X76488571Y-86904285D01*
X76488571Y-87147142D01*
X76537142Y-87244285D01*
X76585714Y-87292857D01*
X76682857Y-87341428D01*
X76925714Y-87341428D01*
X77022857Y-87292857D01*
X77071428Y-87244285D01*
X74060000Y-86661428D02*
X74060000Y-87341428D01*
X74302857Y-86272857D02*
X74545714Y-87001428D01*
X73914285Y-87001428D01*
X72068571Y-86321428D02*
X71437142Y-86321428D01*
X71777142Y-86710000D01*
X71631428Y-86710000D01*
X71534285Y-86758571D01*
X71485714Y-86807142D01*
X71437142Y-86904285D01*
X71437142Y-87147142D01*
X71485714Y-87244285D01*
X71534285Y-87292857D01*
X71631428Y-87341428D01*
X71922857Y-87341428D01*
X72020000Y-87292857D01*
X72068571Y-87244285D01*
X69494285Y-86418571D02*
X69445714Y-86370000D01*
X69348571Y-86321428D01*
X69105714Y-86321428D01*
X69008571Y-86370000D01*
X68960000Y-86418571D01*
X68911428Y-86515714D01*
X68911428Y-86612857D01*
X68960000Y-86758571D01*
X69542857Y-87341428D01*
X68911428Y-87341428D01*
X66385714Y-87341428D02*
X66968571Y-87341428D01*
X66677142Y-87341428D02*
X66677142Y-86321428D01*
X66774285Y-86467142D01*
X66871428Y-86564285D01*
X66968571Y-86612857D01*
D14*
X158902857Y-120648571D02*
X158902857Y-119148571D01*
X158331428Y-119148571D01*
X158188571Y-119220000D01*
X158117142Y-119291428D01*
X158045714Y-119434285D01*
X158045714Y-119648571D01*
X158117142Y-119791428D01*
X158188571Y-119862857D01*
X158331428Y-119934285D01*
X158902857Y-119934285D01*
X157938571Y-123341428D02*
X158081428Y-123270000D01*
X158224285Y-123127142D01*
X158438571Y-122912857D01*
X158581428Y-122841428D01*
X158724285Y-122841428D01*
X158652857Y-123198571D02*
X158795714Y-123127142D01*
X158938571Y-122984285D01*
X159010000Y-122698571D01*
X159010000Y-122198571D01*
X158938571Y-121912857D01*
X158795714Y-121770000D01*
X158652857Y-121698571D01*
X158367142Y-121698571D01*
X158224285Y-121770000D01*
X158081428Y-121912857D01*
X158010000Y-122198571D01*
X158010000Y-122698571D01*
X158081428Y-122984285D01*
X158224285Y-123127142D01*
X158367142Y-123198571D01*
X158652857Y-123198571D01*
X158045714Y-125748571D02*
X158545714Y-125034285D01*
X158902857Y-125748571D02*
X158902857Y-124248571D01*
X158331428Y-124248571D01*
X158188571Y-124320000D01*
X158117142Y-124391428D01*
X158045714Y-124534285D01*
X158045714Y-124748571D01*
X158117142Y-124891428D01*
X158188571Y-124962857D01*
X158331428Y-125034285D01*
X158902857Y-125034285D01*
X158938571Y-128227142D02*
X158724285Y-128298571D01*
X158367142Y-128298571D01*
X158224285Y-128227142D01*
X158152857Y-128155714D01*
X158081428Y-128012857D01*
X158081428Y-127870000D01*
X158152857Y-127727142D01*
X158224285Y-127655714D01*
X158367142Y-127584285D01*
X158652857Y-127512857D01*
X158795714Y-127441428D01*
X158867142Y-127370000D01*
X158938571Y-127227142D01*
X158938571Y-127084285D01*
X158867142Y-126941428D01*
X158795714Y-126870000D01*
X158652857Y-126798571D01*
X158295714Y-126798571D01*
X158081428Y-126870000D01*
X158938571Y-129348571D02*
X158081428Y-129348571D01*
X158510000Y-130848571D02*
X158510000Y-129348571D01*
X158787142Y-74260000D02*
X158072857Y-74260000D01*
X158930000Y-74688571D02*
X158430000Y-73188571D01*
X157930000Y-74688571D01*
X158322857Y-76452857D02*
X158108571Y-76524285D01*
X158037142Y-76595714D01*
X157965714Y-76738571D01*
X157965714Y-76952857D01*
X158037142Y-77095714D01*
X158108571Y-77167142D01*
X158251428Y-77238571D01*
X158822857Y-77238571D01*
X158822857Y-75738571D01*
X158322857Y-75738571D01*
X158180000Y-75810000D01*
X158108571Y-75881428D01*
X158037142Y-76024285D01*
X158037142Y-76167142D01*
X158108571Y-76310000D01*
X158180000Y-76381428D01*
X158322857Y-76452857D01*
X158822857Y-76452857D01*
X157965714Y-79645714D02*
X158037142Y-79717142D01*
X158251428Y-79788571D01*
X158394285Y-79788571D01*
X158608571Y-79717142D01*
X158751428Y-79574285D01*
X158822857Y-79431428D01*
X158894285Y-79145714D01*
X158894285Y-78931428D01*
X158822857Y-78645714D01*
X158751428Y-78502857D01*
X158608571Y-78360000D01*
X158394285Y-78288571D01*
X158251428Y-78288571D01*
X158037142Y-78360000D01*
X157965714Y-78431428D01*
X158822857Y-82338571D02*
X158822857Y-80838571D01*
X158465714Y-80838571D01*
X158251428Y-80910000D01*
X158108571Y-81052857D01*
X158037142Y-81195714D01*
X157965714Y-81481428D01*
X157965714Y-81695714D01*
X158037142Y-81981428D01*
X158108571Y-82124285D01*
X158251428Y-82267142D01*
X158465714Y-82338571D01*
X158822857Y-82338571D01*
X158751428Y-84102857D02*
X158251428Y-84102857D01*
X158037142Y-84888571D02*
X158751428Y-84888571D01*
X158751428Y-83388571D01*
X158037142Y-83388571D01*
X158902857Y-105358571D02*
X158902857Y-103858571D01*
X158045714Y-105358571D02*
X158688571Y-104501428D01*
X158045714Y-103858571D02*
X158902857Y-104715714D01*
X158045714Y-107908571D02*
X158760000Y-107908571D01*
X158760000Y-106408571D01*
X159010000Y-110458571D02*
X159010000Y-108958571D01*
X158510000Y-110030000D01*
X158010000Y-108958571D01*
X158010000Y-110458571D01*
X158938571Y-113008571D02*
X158938571Y-111508571D01*
X158081428Y-113008571D01*
X158081428Y-111508571D01*
X158652857Y-114058571D02*
X158367142Y-114058571D01*
X158224285Y-114130000D01*
X158081428Y-114272857D01*
X158010000Y-114558571D01*
X158010000Y-115058571D01*
X158081428Y-115344285D01*
X158224285Y-115487142D01*
X158367142Y-115558571D01*
X158652857Y-115558571D01*
X158795714Y-115487142D01*
X158938571Y-115344285D01*
X159010000Y-115058571D01*
X159010000Y-114558571D01*
X158938571Y-114272857D01*
X158795714Y-114130000D01*
X158652857Y-114058571D01*
X158215714Y-89332857D02*
X158715714Y-89332857D01*
X158715714Y-90118571D02*
X158715714Y-88618571D01*
X158001428Y-88618571D01*
X158037142Y-91240000D02*
X158180000Y-91168571D01*
X158394285Y-91168571D01*
X158608571Y-91240000D01*
X158751428Y-91382857D01*
X158822857Y-91525714D01*
X158894285Y-91811428D01*
X158894285Y-92025714D01*
X158822857Y-92311428D01*
X158751428Y-92454285D01*
X158608571Y-92597142D01*
X158394285Y-92668571D01*
X158251428Y-92668571D01*
X158037142Y-92597142D01*
X157965714Y-92525714D01*
X157965714Y-92025714D01*
X158251428Y-92025714D01*
X158858571Y-95218571D02*
X158858571Y-93718571D01*
X158858571Y-94432857D02*
X158001428Y-94432857D01*
X158001428Y-95218571D02*
X158001428Y-93718571D01*
X158430000Y-97768571D02*
X158430000Y-96268571D01*
X158215714Y-98818571D02*
X158215714Y-99890000D01*
X158287142Y-100104285D01*
X158430000Y-100247142D01*
X158644285Y-100318571D01*
X158787142Y-100318571D01*
X64182857Y-120738571D02*
X64182857Y-119238571D01*
X63611428Y-119238571D01*
X63468571Y-119310000D01*
X63397142Y-119381428D01*
X63325714Y-119524285D01*
X63325714Y-119738571D01*
X63397142Y-119881428D01*
X63468571Y-119952857D01*
X63611428Y-120024285D01*
X64182857Y-120024285D01*
X63218571Y-123431428D02*
X63361428Y-123360000D01*
X63504285Y-123217142D01*
X63718571Y-123002857D01*
X63861428Y-122931428D01*
X64004285Y-122931428D01*
X63932857Y-123288571D02*
X64075714Y-123217142D01*
X64218571Y-123074285D01*
X64290000Y-122788571D01*
X64290000Y-122288571D01*
X64218571Y-122002857D01*
X64075714Y-121860000D01*
X63932857Y-121788571D01*
X63647142Y-121788571D01*
X63504285Y-121860000D01*
X63361428Y-122002857D01*
X63290000Y-122288571D01*
X63290000Y-122788571D01*
X63361428Y-123074285D01*
X63504285Y-123217142D01*
X63647142Y-123288571D01*
X63932857Y-123288571D01*
X63325714Y-125838571D02*
X63825714Y-125124285D01*
X64182857Y-125838571D02*
X64182857Y-124338571D01*
X63611428Y-124338571D01*
X63468571Y-124410000D01*
X63397142Y-124481428D01*
X63325714Y-124624285D01*
X63325714Y-124838571D01*
X63397142Y-124981428D01*
X63468571Y-125052857D01*
X63611428Y-125124285D01*
X64182857Y-125124285D01*
X64218571Y-128317142D02*
X64004285Y-128388571D01*
X63647142Y-128388571D01*
X63504285Y-128317142D01*
X63432857Y-128245714D01*
X63361428Y-128102857D01*
X63361428Y-127960000D01*
X63432857Y-127817142D01*
X63504285Y-127745714D01*
X63647142Y-127674285D01*
X63932857Y-127602857D01*
X64075714Y-127531428D01*
X64147142Y-127460000D01*
X64218571Y-127317142D01*
X64218571Y-127174285D01*
X64147142Y-127031428D01*
X64075714Y-126960000D01*
X63932857Y-126888571D01*
X63575714Y-126888571D01*
X63361428Y-126960000D01*
X64218571Y-129438571D02*
X63361428Y-129438571D01*
X63790000Y-130938571D02*
X63790000Y-129438571D01*
X63495714Y-89422857D02*
X63995714Y-89422857D01*
X63995714Y-90208571D02*
X63995714Y-88708571D01*
X63281428Y-88708571D01*
X63317142Y-91330000D02*
X63460000Y-91258571D01*
X63674285Y-91258571D01*
X63888571Y-91330000D01*
X64031428Y-91472857D01*
X64102857Y-91615714D01*
X64174285Y-91901428D01*
X64174285Y-92115714D01*
X64102857Y-92401428D01*
X64031428Y-92544285D01*
X63888571Y-92687142D01*
X63674285Y-92758571D01*
X63531428Y-92758571D01*
X63317142Y-92687142D01*
X63245714Y-92615714D01*
X63245714Y-92115714D01*
X63531428Y-92115714D01*
X64138571Y-95308571D02*
X64138571Y-93808571D01*
X64138571Y-94522857D02*
X63281428Y-94522857D01*
X63281428Y-95308571D02*
X63281428Y-93808571D01*
X63710000Y-97858571D02*
X63710000Y-96358571D01*
X63495714Y-98908571D02*
X63495714Y-99980000D01*
X63567142Y-100194285D01*
X63710000Y-100337142D01*
X63924285Y-100408571D01*
X64067142Y-100408571D01*
X64182857Y-105448571D02*
X64182857Y-103948571D01*
X63325714Y-105448571D02*
X63968571Y-104591428D01*
X63325714Y-103948571D02*
X64182857Y-104805714D01*
X63325714Y-107998571D02*
X64040000Y-107998571D01*
X64040000Y-106498571D01*
X64290000Y-110548571D02*
X64290000Y-109048571D01*
X63790000Y-110120000D01*
X63290000Y-109048571D01*
X63290000Y-110548571D01*
X64218571Y-113098571D02*
X64218571Y-111598571D01*
X63361428Y-113098571D01*
X63361428Y-111598571D01*
X63932857Y-114148571D02*
X63647142Y-114148571D01*
X63504285Y-114220000D01*
X63361428Y-114362857D01*
X63290000Y-114648571D01*
X63290000Y-115148571D01*
X63361428Y-115434285D01*
X63504285Y-115577142D01*
X63647142Y-115648571D01*
X63932857Y-115648571D01*
X64075714Y-115577142D01*
X64218571Y-115434285D01*
X64290000Y-115148571D01*
X64290000Y-114648571D01*
X64218571Y-114362857D01*
X64075714Y-114220000D01*
X63932857Y-114148571D01*
X64067142Y-74350000D02*
X63352857Y-74350000D01*
X64210000Y-74778571D02*
X63710000Y-73278571D01*
X63210000Y-74778571D01*
X63602857Y-76542857D02*
X63388571Y-76614285D01*
X63317142Y-76685714D01*
X63245714Y-76828571D01*
X63245714Y-77042857D01*
X63317142Y-77185714D01*
X63388571Y-77257142D01*
X63531428Y-77328571D01*
X64102857Y-77328571D01*
X64102857Y-75828571D01*
X63602857Y-75828571D01*
X63460000Y-75900000D01*
X63388571Y-75971428D01*
X63317142Y-76114285D01*
X63317142Y-76257142D01*
X63388571Y-76400000D01*
X63460000Y-76471428D01*
X63602857Y-76542857D01*
X64102857Y-76542857D01*
X63245714Y-79735714D02*
X63317142Y-79807142D01*
X63531428Y-79878571D01*
X63674285Y-79878571D01*
X63888571Y-79807142D01*
X64031428Y-79664285D01*
X64102857Y-79521428D01*
X64174285Y-79235714D01*
X64174285Y-79021428D01*
X64102857Y-78735714D01*
X64031428Y-78592857D01*
X63888571Y-78450000D01*
X63674285Y-78378571D01*
X63531428Y-78378571D01*
X63317142Y-78450000D01*
X63245714Y-78521428D01*
X64102857Y-82428571D02*
X64102857Y-80928571D01*
X63745714Y-80928571D01*
X63531428Y-81000000D01*
X63388571Y-81142857D01*
X63317142Y-81285714D01*
X63245714Y-81571428D01*
X63245714Y-81785714D01*
X63317142Y-82071428D01*
X63388571Y-82214285D01*
X63531428Y-82357142D01*
X63745714Y-82428571D01*
X64102857Y-82428571D01*
X64031428Y-84192857D02*
X63531428Y-84192857D01*
X63317142Y-84978571D02*
X64031428Y-84978571D01*
X64031428Y-83478571D01*
X63317142Y-83478571D01*
D13*
X109916666Y-64655714D02*
X109916666Y-65131904D01*
X110202380Y-64560476D02*
X109202380Y-64893809D01*
X110202380Y-65227142D01*
X109202380Y-65465238D02*
X109202380Y-66131904D01*
X110202380Y-65703333D01*
X107316666Y-64675714D02*
X107316666Y-65151904D01*
X107602380Y-64580476D02*
X106602380Y-64913809D01*
X107602380Y-65247142D01*
X106602380Y-66056666D02*
X106602380Y-65580476D01*
X107078571Y-65532857D01*
X107030952Y-65580476D01*
X106983333Y-65675714D01*
X106983333Y-65913809D01*
X107030952Y-66009047D01*
X107078571Y-66056666D01*
X107173809Y-66104285D01*
X107411904Y-66104285D01*
X107507142Y-66056666D01*
X107554761Y-66009047D01*
X107602380Y-65913809D01*
X107602380Y-65675714D01*
X107554761Y-65580476D01*
X107507142Y-65532857D01*
X104896666Y-64675714D02*
X104896666Y-65151904D01*
X105182380Y-64580476D02*
X104182380Y-64913809D01*
X105182380Y-65247142D01*
X104182380Y-65485238D02*
X104182380Y-66104285D01*
X104563333Y-65770952D01*
X104563333Y-65913809D01*
X104610952Y-66009047D01*
X104658571Y-66056666D01*
X104753809Y-66104285D01*
X104991904Y-66104285D01*
X105087142Y-66056666D01*
X105134761Y-66009047D01*
X105182380Y-65913809D01*
X105182380Y-65628095D01*
X105134761Y-65532857D01*
X105087142Y-65485238D01*
X102376666Y-64675714D02*
X102376666Y-65151904D01*
X102662380Y-64580476D02*
X101662380Y-64913809D01*
X102662380Y-65247142D01*
X102662380Y-66104285D02*
X102662380Y-65532857D01*
X102662380Y-65818571D02*
X101662380Y-65818571D01*
X101805238Y-65723333D01*
X101900476Y-65628095D01*
X101948095Y-65532857D01*
X99110000Y-64048095D02*
X99062380Y-63952857D01*
X99062380Y-63810000D01*
X99110000Y-63667142D01*
X99205238Y-63571904D01*
X99300476Y-63524285D01*
X99490952Y-63476666D01*
X99633809Y-63476666D01*
X99824285Y-63524285D01*
X99919523Y-63571904D01*
X100014761Y-63667142D01*
X100062380Y-63810000D01*
X100062380Y-63905238D01*
X100014761Y-64048095D01*
X99967142Y-64095714D01*
X99633809Y-64095714D01*
X99633809Y-63905238D01*
X100062380Y-64524285D02*
X99062380Y-64524285D01*
X100062380Y-65095714D01*
X99062380Y-65095714D01*
X100062380Y-65571904D02*
X99062380Y-65571904D01*
X99062380Y-65810000D01*
X99110000Y-65952857D01*
X99205238Y-66048095D01*
X99300476Y-66095714D01*
X99490952Y-66143333D01*
X99633809Y-66143333D01*
X99824285Y-66095714D01*
X99919523Y-66048095D01*
X100014761Y-65952857D01*
X100062380Y-65810000D01*
X100062380Y-65571904D01*
X97482380Y-64631904D02*
X96482380Y-64631904D01*
X96482380Y-64870000D01*
X96530000Y-65012857D01*
X96625238Y-65108095D01*
X96720476Y-65155714D01*
X96910952Y-65203333D01*
X97053809Y-65203333D01*
X97244285Y-65155714D01*
X97339523Y-65108095D01*
X97434761Y-65012857D01*
X97482380Y-64870000D01*
X97482380Y-64631904D01*
X96482380Y-66060476D02*
X96482380Y-65870000D01*
X96530000Y-65774761D01*
X96577619Y-65727142D01*
X96720476Y-65631904D01*
X96910952Y-65584285D01*
X97291904Y-65584285D01*
X97387142Y-65631904D01*
X97434761Y-65679523D01*
X97482380Y-65774761D01*
X97482380Y-65965238D01*
X97434761Y-66060476D01*
X97387142Y-66108095D01*
X97291904Y-66155714D01*
X97053809Y-66155714D01*
X96958571Y-66108095D01*
X96910952Y-66060476D01*
X96863333Y-65965238D01*
X96863333Y-65774761D01*
X96910952Y-65679523D01*
X96958571Y-65631904D01*
X97053809Y-65584285D01*
X94992380Y-64601904D02*
X93992380Y-64601904D01*
X93992380Y-64840000D01*
X94040000Y-64982857D01*
X94135238Y-65078095D01*
X94230476Y-65125714D01*
X94420952Y-65173333D01*
X94563809Y-65173333D01*
X94754285Y-65125714D01*
X94849523Y-65078095D01*
X94944761Y-64982857D01*
X94992380Y-64840000D01*
X94992380Y-64601904D01*
X94325714Y-66030476D02*
X94992380Y-66030476D01*
X93944761Y-65792380D02*
X94659047Y-65554285D01*
X94659047Y-66173333D01*
X92472380Y-64571904D02*
X91472380Y-64571904D01*
X91472380Y-64810000D01*
X91520000Y-64952857D01*
X91615238Y-65048095D01*
X91710476Y-65095714D01*
X91900952Y-65143333D01*
X92043809Y-65143333D01*
X92234285Y-65095714D01*
X92329523Y-65048095D01*
X92424761Y-64952857D01*
X92472380Y-64810000D01*
X92472380Y-64571904D01*
X91567619Y-65524285D02*
X91520000Y-65571904D01*
X91472380Y-65667142D01*
X91472380Y-65905238D01*
X91520000Y-66000476D01*
X91567619Y-66048095D01*
X91662857Y-66095714D01*
X91758095Y-66095714D01*
X91900952Y-66048095D01*
X92472380Y-65476666D01*
X92472380Y-66095714D01*
X89892380Y-64551904D02*
X88892380Y-64551904D01*
X88892380Y-64790000D01*
X88940000Y-64932857D01*
X89035238Y-65028095D01*
X89130476Y-65075714D01*
X89320952Y-65123333D01*
X89463809Y-65123333D01*
X89654285Y-65075714D01*
X89749523Y-65028095D01*
X89844761Y-64932857D01*
X89892380Y-64790000D01*
X89892380Y-64551904D01*
X88892380Y-65742380D02*
X88892380Y-65837619D01*
X88940000Y-65932857D01*
X88987619Y-65980476D01*
X89082857Y-66028095D01*
X89273333Y-66075714D01*
X89511428Y-66075714D01*
X89701904Y-66028095D01*
X89797142Y-65980476D01*
X89844761Y-65932857D01*
X89892380Y-65837619D01*
X89892380Y-65742380D01*
X89844761Y-65647142D01*
X89797142Y-65599523D01*
X89701904Y-65551904D01*
X89511428Y-65504285D01*
X89273333Y-65504285D01*
X89082857Y-65551904D01*
X88987619Y-65599523D01*
X88940000Y-65647142D01*
X88892380Y-65742380D01*
X87324761Y-61187619D02*
X87372380Y-61330476D01*
X87372380Y-61568571D01*
X87324761Y-61663809D01*
X87277142Y-61711428D01*
X87181904Y-61759047D01*
X87086666Y-61759047D01*
X86991428Y-61711428D01*
X86943809Y-61663809D01*
X86896190Y-61568571D01*
X86848571Y-61378095D01*
X86800952Y-61282857D01*
X86753333Y-61235238D01*
X86658095Y-61187619D01*
X86562857Y-61187619D01*
X86467619Y-61235238D01*
X86420000Y-61282857D01*
X86372380Y-61378095D01*
X86372380Y-61616190D01*
X86420000Y-61759047D01*
X87372380Y-62187619D02*
X86372380Y-62187619D01*
X87372380Y-62759047D01*
X86372380Y-62759047D01*
X87372380Y-63235238D02*
X86372380Y-63235238D01*
X86372380Y-63473333D01*
X86420000Y-63616190D01*
X86515238Y-63711428D01*
X86610476Y-63759047D01*
X86800952Y-63806666D01*
X86943809Y-63806666D01*
X87134285Y-63759047D01*
X87229523Y-63711428D01*
X87324761Y-63616190D01*
X87372380Y-63473333D01*
X87372380Y-63235238D01*
X87372380Y-64997142D02*
X86372380Y-64997142D01*
X87372380Y-65473333D02*
X86372380Y-65473333D01*
X87372380Y-66044761D01*
X86372380Y-66044761D01*
X84882380Y-64342380D02*
X84406190Y-64009047D01*
X84882380Y-63770952D02*
X83882380Y-63770952D01*
X83882380Y-64151904D01*
X83930000Y-64247142D01*
X83977619Y-64294761D01*
X84072857Y-64342380D01*
X84215714Y-64342380D01*
X84310952Y-64294761D01*
X84358571Y-64247142D01*
X84406190Y-64151904D01*
X84406190Y-63770952D01*
X84834761Y-64723333D02*
X84882380Y-64866190D01*
X84882380Y-65104285D01*
X84834761Y-65199523D01*
X84787142Y-65247142D01*
X84691904Y-65294761D01*
X84596666Y-65294761D01*
X84501428Y-65247142D01*
X84453809Y-65199523D01*
X84406190Y-65104285D01*
X84358571Y-64913809D01*
X84310952Y-64818571D01*
X84263333Y-64770952D01*
X84168095Y-64723333D01*
X84072857Y-64723333D01*
X83977619Y-64770952D01*
X83930000Y-64818571D01*
X83882380Y-64913809D01*
X83882380Y-65151904D01*
X83930000Y-65294761D01*
X83882380Y-65580476D02*
X83882380Y-66151904D01*
X84882380Y-65866190D02*
X83882380Y-65866190D01*
X82262380Y-62629523D02*
X81262380Y-62629523D01*
X81262380Y-63010476D01*
X81310000Y-63105714D01*
X81357619Y-63153333D01*
X81452857Y-63200952D01*
X81595714Y-63200952D01*
X81690952Y-63153333D01*
X81738571Y-63105714D01*
X81786190Y-63010476D01*
X81786190Y-62629523D01*
X81310000Y-64153333D02*
X81262380Y-64058095D01*
X81262380Y-63915238D01*
X81310000Y-63772380D01*
X81405238Y-63677142D01*
X81500476Y-63629523D01*
X81690952Y-63581904D01*
X81833809Y-63581904D01*
X82024285Y-63629523D01*
X82119523Y-63677142D01*
X82214761Y-63772380D01*
X82262380Y-63915238D01*
X82262380Y-64010476D01*
X82214761Y-64153333D01*
X82167142Y-64200952D01*
X81833809Y-64200952D01*
X81833809Y-64010476D01*
X81738571Y-64962857D02*
X81738571Y-64629523D01*
X82262380Y-64629523D02*
X81262380Y-64629523D01*
X81262380Y-65105714D01*
X82262380Y-65486666D02*
X81262380Y-65486666D01*
X81262380Y-65724761D01*
X81310000Y-65867619D01*
X81405238Y-65962857D01*
X81500476Y-66010476D01*
X81690952Y-66058095D01*
X81833809Y-66058095D01*
X82024285Y-66010476D01*
X82119523Y-65962857D01*
X82214761Y-65867619D01*
X82262380Y-65724761D01*
X82262380Y-65486666D01*
X79832380Y-62699523D02*
X78832380Y-62699523D01*
X78832380Y-63080476D01*
X78880000Y-63175714D01*
X78927619Y-63223333D01*
X79022857Y-63270952D01*
X79165714Y-63270952D01*
X79260952Y-63223333D01*
X79308571Y-63175714D01*
X79356190Y-63080476D01*
X79356190Y-62699523D01*
X78880000Y-64223333D02*
X78832380Y-64128095D01*
X78832380Y-63985238D01*
X78880000Y-63842380D01*
X78975238Y-63747142D01*
X79070476Y-63699523D01*
X79260952Y-63651904D01*
X79403809Y-63651904D01*
X79594285Y-63699523D01*
X79689523Y-63747142D01*
X79784761Y-63842380D01*
X79832380Y-63985238D01*
X79832380Y-64080476D01*
X79784761Y-64223333D01*
X79737142Y-64270952D01*
X79403809Y-64270952D01*
X79403809Y-64080476D01*
X79308571Y-65032857D02*
X79308571Y-64699523D01*
X79832380Y-64699523D02*
X78832380Y-64699523D01*
X78832380Y-65175714D01*
X79737142Y-66128095D02*
X79784761Y-66080476D01*
X79832380Y-65937619D01*
X79832380Y-65842380D01*
X79784761Y-65699523D01*
X79689523Y-65604285D01*
X79594285Y-65556666D01*
X79403809Y-65509047D01*
X79260952Y-65509047D01*
X79070476Y-65556666D01*
X78975238Y-65604285D01*
X78880000Y-65699523D01*
X78832380Y-65842380D01*
X78832380Y-65937619D01*
X78880000Y-66080476D01*
X78927619Y-66128095D01*
X77172380Y-64016190D02*
X76172380Y-64016190D01*
X77172380Y-65063809D02*
X76696190Y-64730476D01*
X77172380Y-64492380D02*
X76172380Y-64492380D01*
X76172380Y-64873333D01*
X76220000Y-64968571D01*
X76267619Y-65016190D01*
X76362857Y-65063809D01*
X76505714Y-65063809D01*
X76600952Y-65016190D01*
X76648571Y-64968571D01*
X76696190Y-64873333D01*
X76696190Y-64492380D01*
X77267619Y-66159047D02*
X77220000Y-66063809D01*
X77124761Y-65968571D01*
X76981904Y-65825714D01*
X76934285Y-65730476D01*
X76934285Y-65635238D01*
X77172380Y-65682857D02*
X77124761Y-65587619D01*
X77029523Y-65492380D01*
X76839047Y-65444761D01*
X76505714Y-65444761D01*
X76315238Y-65492380D01*
X76220000Y-65587619D01*
X76172380Y-65682857D01*
X76172380Y-65873333D01*
X76220000Y-65968571D01*
X76315238Y-66063809D01*
X76505714Y-66111428D01*
X76839047Y-66111428D01*
X77029523Y-66063809D01*
X77124761Y-65968571D01*
X77172380Y-65873333D01*
X77172380Y-65682857D01*
X74662380Y-63794761D02*
X73662380Y-63794761D01*
X74662380Y-64366190D01*
X73662380Y-64366190D01*
X74662380Y-64842380D02*
X73662380Y-64842380D01*
X74376666Y-65175714D01*
X73662380Y-65509047D01*
X74662380Y-65509047D01*
X74662380Y-65985238D02*
X73662380Y-65985238D01*
X72192380Y-62041904D02*
X72192380Y-61470476D01*
X72192380Y-61756190D02*
X71192380Y-61756190D01*
X71335238Y-61660952D01*
X71430476Y-61565714D01*
X71478095Y-61470476D01*
X72192380Y-62470476D02*
X71192380Y-62470476D01*
X71906666Y-62803809D01*
X71192380Y-63137142D01*
X72192380Y-63137142D01*
X72192380Y-63613333D02*
X71192380Y-63613333D01*
X71668571Y-63613333D02*
X71668571Y-64184761D01*
X72192380Y-64184761D02*
X71192380Y-64184761D01*
X71192380Y-64565714D02*
X71192380Y-65232380D01*
X72192380Y-64565714D01*
X72192380Y-65232380D01*
X71668571Y-65613333D02*
X71668571Y-65946666D01*
X72192380Y-66089523D02*
X72192380Y-65613333D01*
X71192380Y-65613333D01*
X71192380Y-66089523D01*
X69612380Y-63794285D02*
X69136190Y-63460952D01*
X69612380Y-63222857D02*
X68612380Y-63222857D01*
X68612380Y-63603809D01*
X68660000Y-63699047D01*
X68707619Y-63746666D01*
X68802857Y-63794285D01*
X68945714Y-63794285D01*
X69040952Y-63746666D01*
X69088571Y-63699047D01*
X69136190Y-63603809D01*
X69136190Y-63222857D01*
X68564761Y-64937142D02*
X69850476Y-64080000D01*
X68612380Y-65175238D02*
X69612380Y-65413333D01*
X68898095Y-65603809D01*
X69612380Y-65794285D01*
X68612380Y-66032380D01*
X109850000Y-71527142D02*
X109850000Y-71955714D01*
X110107142Y-71441428D02*
X109207142Y-71741428D01*
X110107142Y-72041428D01*
X109207142Y-72727142D02*
X109207142Y-72555714D01*
X109250000Y-72470000D01*
X109292857Y-72427142D01*
X109421428Y-72341428D01*
X109592857Y-72298571D01*
X109935714Y-72298571D01*
X110021428Y-72341428D01*
X110064285Y-72384285D01*
X110107142Y-72470000D01*
X110107142Y-72641428D01*
X110064285Y-72727142D01*
X110021428Y-72770000D01*
X109935714Y-72812857D01*
X109721428Y-72812857D01*
X109635714Y-72770000D01*
X109592857Y-72727142D01*
X109550000Y-72641428D01*
X109550000Y-72470000D01*
X109592857Y-72384285D01*
X109635714Y-72341428D01*
X109721428Y-72298571D01*
X107400000Y-71527142D02*
X107400000Y-71955714D01*
X107657142Y-71441428D02*
X106757142Y-71741428D01*
X107657142Y-72041428D01*
X107057142Y-72727142D02*
X107657142Y-72727142D01*
X106714285Y-72512857D02*
X107357142Y-72298571D01*
X107357142Y-72855714D01*
X104830000Y-71617142D02*
X104830000Y-72045714D01*
X105087142Y-71531428D02*
X104187142Y-71831428D01*
X105087142Y-72131428D01*
X105087142Y-72902857D02*
X105087142Y-72388571D01*
X105087142Y-72645714D02*
X104187142Y-72645714D01*
X104315714Y-72560000D01*
X104401428Y-72474285D01*
X104444285Y-72388571D01*
X102310000Y-71527142D02*
X102310000Y-71955714D01*
X102567142Y-71441428D02*
X101667142Y-71741428D01*
X102567142Y-72041428D01*
X101667142Y-72512857D02*
X101667142Y-72598571D01*
X101710000Y-72684285D01*
X101752857Y-72727142D01*
X101838571Y-72770000D01*
X102010000Y-72812857D01*
X102224285Y-72812857D01*
X102395714Y-72770000D01*
X102481428Y-72727142D01*
X102524285Y-72684285D01*
X102567142Y-72598571D01*
X102567142Y-72512857D01*
X102524285Y-72427142D01*
X102481428Y-72384285D01*
X102395714Y-72341428D01*
X102224285Y-72298571D01*
X102010000Y-72298571D01*
X101838571Y-72341428D01*
X101752857Y-72384285D01*
X101710000Y-72427142D01*
X101667142Y-72512857D01*
X100067142Y-71465714D02*
X99167142Y-71465714D01*
X99167142Y-71680000D01*
X99210000Y-71808571D01*
X99295714Y-71894285D01*
X99381428Y-71937142D01*
X99552857Y-71980000D01*
X99681428Y-71980000D01*
X99852857Y-71937142D01*
X99938571Y-71894285D01*
X100024285Y-71808571D01*
X100067142Y-71680000D01*
X100067142Y-71465714D01*
X99167142Y-72280000D02*
X99167142Y-72880000D01*
X100067142Y-72494285D01*
X97487142Y-71485714D02*
X96587142Y-71485714D01*
X96587142Y-71700000D01*
X96630000Y-71828571D01*
X96715714Y-71914285D01*
X96801428Y-71957142D01*
X96972857Y-72000000D01*
X97101428Y-72000000D01*
X97272857Y-71957142D01*
X97358571Y-71914285D01*
X97444285Y-71828571D01*
X97487142Y-71700000D01*
X97487142Y-71485714D01*
X96587142Y-72814285D02*
X96587142Y-72385714D01*
X97015714Y-72342857D01*
X96972857Y-72385714D01*
X96930000Y-72471428D01*
X96930000Y-72685714D01*
X96972857Y-72771428D01*
X97015714Y-72814285D01*
X97101428Y-72857142D01*
X97315714Y-72857142D01*
X97401428Y-72814285D01*
X97444285Y-72771428D01*
X97487142Y-72685714D01*
X97487142Y-72471428D01*
X97444285Y-72385714D01*
X97401428Y-72342857D01*
X94937142Y-71485714D02*
X94037142Y-71485714D01*
X94037142Y-71700000D01*
X94080000Y-71828571D01*
X94165714Y-71914285D01*
X94251428Y-71957142D01*
X94422857Y-72000000D01*
X94551428Y-72000000D01*
X94722857Y-71957142D01*
X94808571Y-71914285D01*
X94894285Y-71828571D01*
X94937142Y-71700000D01*
X94937142Y-71485714D01*
X94037142Y-72300000D02*
X94037142Y-72857142D01*
X94380000Y-72557142D01*
X94380000Y-72685714D01*
X94422857Y-72771428D01*
X94465714Y-72814285D01*
X94551428Y-72857142D01*
X94765714Y-72857142D01*
X94851428Y-72814285D01*
X94894285Y-72771428D01*
X94937142Y-72685714D01*
X94937142Y-72428571D01*
X94894285Y-72342857D01*
X94851428Y-72300000D01*
X92407142Y-71475714D02*
X91507142Y-71475714D01*
X91507142Y-71690000D01*
X91550000Y-71818571D01*
X91635714Y-71904285D01*
X91721428Y-71947142D01*
X91892857Y-71990000D01*
X92021428Y-71990000D01*
X92192857Y-71947142D01*
X92278571Y-71904285D01*
X92364285Y-71818571D01*
X92407142Y-71690000D01*
X92407142Y-71475714D01*
X92407142Y-72847142D02*
X92407142Y-72332857D01*
X92407142Y-72590000D02*
X91507142Y-72590000D01*
X91635714Y-72504285D01*
X91721428Y-72418571D01*
X91764285Y-72332857D01*
X144442380Y-63361904D02*
X143442380Y-63361904D01*
X143442380Y-63742857D01*
X143490000Y-63838095D01*
X143537619Y-63885714D01*
X143632857Y-63933333D01*
X143775714Y-63933333D01*
X143870952Y-63885714D01*
X143918571Y-63838095D01*
X143966190Y-63742857D01*
X143966190Y-63361904D01*
X143918571Y-64695238D02*
X143966190Y-64838095D01*
X144013809Y-64885714D01*
X144109047Y-64933333D01*
X144251904Y-64933333D01*
X144347142Y-64885714D01*
X144394761Y-64838095D01*
X144442380Y-64742857D01*
X144442380Y-64361904D01*
X143442380Y-64361904D01*
X143442380Y-64695238D01*
X143490000Y-64790476D01*
X143537619Y-64838095D01*
X143632857Y-64885714D01*
X143728095Y-64885714D01*
X143823333Y-64838095D01*
X143870952Y-64790476D01*
X143918571Y-64695238D01*
X143918571Y-64361904D01*
X143775714Y-65790476D02*
X144442380Y-65790476D01*
X143394761Y-65552380D02*
X144109047Y-65314285D01*
X144109047Y-65933333D01*
X141862380Y-63361904D02*
X140862380Y-63361904D01*
X140862380Y-63742857D01*
X140910000Y-63838095D01*
X140957619Y-63885714D01*
X141052857Y-63933333D01*
X141195714Y-63933333D01*
X141290952Y-63885714D01*
X141338571Y-63838095D01*
X141386190Y-63742857D01*
X141386190Y-63361904D01*
X141338571Y-64695238D02*
X141386190Y-64838095D01*
X141433809Y-64885714D01*
X141529047Y-64933333D01*
X141671904Y-64933333D01*
X141767142Y-64885714D01*
X141814761Y-64838095D01*
X141862380Y-64742857D01*
X141862380Y-64361904D01*
X140862380Y-64361904D01*
X140862380Y-64695238D01*
X140910000Y-64790476D01*
X140957619Y-64838095D01*
X141052857Y-64885714D01*
X141148095Y-64885714D01*
X141243333Y-64838095D01*
X141290952Y-64790476D01*
X141338571Y-64695238D01*
X141338571Y-64361904D01*
X140862380Y-65266666D02*
X140862380Y-65885714D01*
X141243333Y-65552380D01*
X141243333Y-65695238D01*
X141290952Y-65790476D01*
X141338571Y-65838095D01*
X141433809Y-65885714D01*
X141671904Y-65885714D01*
X141767142Y-65838095D01*
X141814761Y-65790476D01*
X141862380Y-65695238D01*
X141862380Y-65409523D01*
X141814761Y-65314285D01*
X141767142Y-65266666D01*
X139372380Y-63311904D02*
X138372380Y-63311904D01*
X138372380Y-63692857D01*
X138420000Y-63788095D01*
X138467619Y-63835714D01*
X138562857Y-63883333D01*
X138705714Y-63883333D01*
X138800952Y-63835714D01*
X138848571Y-63788095D01*
X138896190Y-63692857D01*
X138896190Y-63311904D01*
X138848571Y-64645238D02*
X138896190Y-64788095D01*
X138943809Y-64835714D01*
X139039047Y-64883333D01*
X139181904Y-64883333D01*
X139277142Y-64835714D01*
X139324761Y-64788095D01*
X139372380Y-64692857D01*
X139372380Y-64311904D01*
X138372380Y-64311904D01*
X138372380Y-64645238D01*
X138420000Y-64740476D01*
X138467619Y-64788095D01*
X138562857Y-64835714D01*
X138658095Y-64835714D01*
X138753333Y-64788095D01*
X138800952Y-64740476D01*
X138848571Y-64645238D01*
X138848571Y-64311904D01*
X138467619Y-65264285D02*
X138420000Y-65311904D01*
X138372380Y-65407142D01*
X138372380Y-65645238D01*
X138420000Y-65740476D01*
X138467619Y-65788095D01*
X138562857Y-65835714D01*
X138658095Y-65835714D01*
X138800952Y-65788095D01*
X139372380Y-65216666D01*
X139372380Y-65835714D01*
X149512380Y-63361904D02*
X148512380Y-63361904D01*
X148512380Y-63742857D01*
X148560000Y-63838095D01*
X148607619Y-63885714D01*
X148702857Y-63933333D01*
X148845714Y-63933333D01*
X148940952Y-63885714D01*
X148988571Y-63838095D01*
X149036190Y-63742857D01*
X149036190Y-63361904D01*
X148988571Y-64695238D02*
X149036190Y-64838095D01*
X149083809Y-64885714D01*
X149179047Y-64933333D01*
X149321904Y-64933333D01*
X149417142Y-64885714D01*
X149464761Y-64838095D01*
X149512380Y-64742857D01*
X149512380Y-64361904D01*
X148512380Y-64361904D01*
X148512380Y-64695238D01*
X148560000Y-64790476D01*
X148607619Y-64838095D01*
X148702857Y-64885714D01*
X148798095Y-64885714D01*
X148893333Y-64838095D01*
X148940952Y-64790476D01*
X148988571Y-64695238D01*
X148988571Y-64361904D01*
X148512380Y-65790476D02*
X148512380Y-65600000D01*
X148560000Y-65504761D01*
X148607619Y-65457142D01*
X148750476Y-65361904D01*
X148940952Y-65314285D01*
X149321904Y-65314285D01*
X149417142Y-65361904D01*
X149464761Y-65409523D01*
X149512380Y-65504761D01*
X149512380Y-65695238D01*
X149464761Y-65790476D01*
X149417142Y-65838095D01*
X149321904Y-65885714D01*
X149083809Y-65885714D01*
X148988571Y-65838095D01*
X148940952Y-65790476D01*
X148893333Y-65695238D01*
X148893333Y-65504761D01*
X148940952Y-65409523D01*
X148988571Y-65361904D01*
X149083809Y-65314285D01*
X136792380Y-63261904D02*
X135792380Y-63261904D01*
X135792380Y-63642857D01*
X135840000Y-63738095D01*
X135887619Y-63785714D01*
X135982857Y-63833333D01*
X136125714Y-63833333D01*
X136220952Y-63785714D01*
X136268571Y-63738095D01*
X136316190Y-63642857D01*
X136316190Y-63261904D01*
X136268571Y-64595238D02*
X136316190Y-64738095D01*
X136363809Y-64785714D01*
X136459047Y-64833333D01*
X136601904Y-64833333D01*
X136697142Y-64785714D01*
X136744761Y-64738095D01*
X136792380Y-64642857D01*
X136792380Y-64261904D01*
X135792380Y-64261904D01*
X135792380Y-64595238D01*
X135840000Y-64690476D01*
X135887619Y-64738095D01*
X135982857Y-64785714D01*
X136078095Y-64785714D01*
X136173333Y-64738095D01*
X136220952Y-64690476D01*
X136268571Y-64595238D01*
X136268571Y-64261904D01*
X136792380Y-65785714D02*
X136792380Y-65214285D01*
X136792380Y-65500000D02*
X135792380Y-65500000D01*
X135935238Y-65404761D01*
X136030476Y-65309523D01*
X136078095Y-65214285D01*
X152002380Y-63311904D02*
X151002380Y-63311904D01*
X151002380Y-63692857D01*
X151050000Y-63788095D01*
X151097619Y-63835714D01*
X151192857Y-63883333D01*
X151335714Y-63883333D01*
X151430952Y-63835714D01*
X151478571Y-63788095D01*
X151526190Y-63692857D01*
X151526190Y-63311904D01*
X151478571Y-64645238D02*
X151526190Y-64788095D01*
X151573809Y-64835714D01*
X151669047Y-64883333D01*
X151811904Y-64883333D01*
X151907142Y-64835714D01*
X151954761Y-64788095D01*
X152002380Y-64692857D01*
X152002380Y-64311904D01*
X151002380Y-64311904D01*
X151002380Y-64645238D01*
X151050000Y-64740476D01*
X151097619Y-64788095D01*
X151192857Y-64835714D01*
X151288095Y-64835714D01*
X151383333Y-64788095D01*
X151430952Y-64740476D01*
X151478571Y-64645238D01*
X151478571Y-64311904D01*
X151002380Y-65216666D02*
X151002380Y-65883333D01*
X152002380Y-65454761D01*
X146932380Y-63311904D02*
X145932380Y-63311904D01*
X145932380Y-63692857D01*
X145980000Y-63788095D01*
X146027619Y-63835714D01*
X146122857Y-63883333D01*
X146265714Y-63883333D01*
X146360952Y-63835714D01*
X146408571Y-63788095D01*
X146456190Y-63692857D01*
X146456190Y-63311904D01*
X146408571Y-64645238D02*
X146456190Y-64788095D01*
X146503809Y-64835714D01*
X146599047Y-64883333D01*
X146741904Y-64883333D01*
X146837142Y-64835714D01*
X146884761Y-64788095D01*
X146932380Y-64692857D01*
X146932380Y-64311904D01*
X145932380Y-64311904D01*
X145932380Y-64645238D01*
X145980000Y-64740476D01*
X146027619Y-64788095D01*
X146122857Y-64835714D01*
X146218095Y-64835714D01*
X146313333Y-64788095D01*
X146360952Y-64740476D01*
X146408571Y-64645238D01*
X146408571Y-64311904D01*
X145932380Y-65788095D02*
X145932380Y-65311904D01*
X146408571Y-65264285D01*
X146360952Y-65311904D01*
X146313333Y-65407142D01*
X146313333Y-65645238D01*
X146360952Y-65740476D01*
X146408571Y-65788095D01*
X146503809Y-65835714D01*
X146741904Y-65835714D01*
X146837142Y-65788095D01*
X146884761Y-65740476D01*
X146932380Y-65645238D01*
X146932380Y-65407142D01*
X146884761Y-65311904D01*
X146837142Y-65264285D01*
X134252380Y-63261904D02*
X133252380Y-63261904D01*
X133252380Y-63642857D01*
X133300000Y-63738095D01*
X133347619Y-63785714D01*
X133442857Y-63833333D01*
X133585714Y-63833333D01*
X133680952Y-63785714D01*
X133728571Y-63738095D01*
X133776190Y-63642857D01*
X133776190Y-63261904D01*
X133728571Y-64595238D02*
X133776190Y-64738095D01*
X133823809Y-64785714D01*
X133919047Y-64833333D01*
X134061904Y-64833333D01*
X134157142Y-64785714D01*
X134204761Y-64738095D01*
X134252380Y-64642857D01*
X134252380Y-64261904D01*
X133252380Y-64261904D01*
X133252380Y-64595238D01*
X133300000Y-64690476D01*
X133347619Y-64738095D01*
X133442857Y-64785714D01*
X133538095Y-64785714D01*
X133633333Y-64738095D01*
X133680952Y-64690476D01*
X133728571Y-64595238D01*
X133728571Y-64261904D01*
X133252380Y-65452380D02*
X133252380Y-65547619D01*
X133300000Y-65642857D01*
X133347619Y-65690476D01*
X133442857Y-65738095D01*
X133633333Y-65785714D01*
X133871428Y-65785714D01*
X134061904Y-65738095D01*
X134157142Y-65690476D01*
X134204761Y-65642857D01*
X134252380Y-65547619D01*
X134252380Y-65452380D01*
X134204761Y-65357142D01*
X134157142Y-65309523D01*
X134061904Y-65261904D01*
X133871428Y-65214285D01*
X133633333Y-65214285D01*
X133442857Y-65261904D01*
X133347619Y-65309523D01*
X133300000Y-65357142D01*
X133252380Y-65452380D01*
X128947142Y-63693333D02*
X128994761Y-63645714D01*
X129042380Y-63502857D01*
X129042380Y-63407619D01*
X128994761Y-63264761D01*
X128899523Y-63169523D01*
X128804285Y-63121904D01*
X128613809Y-63074285D01*
X128470952Y-63074285D01*
X128280476Y-63121904D01*
X128185238Y-63169523D01*
X128090000Y-63264761D01*
X128042380Y-63407619D01*
X128042380Y-63502857D01*
X128090000Y-63645714D01*
X128137619Y-63693333D01*
X128518571Y-64455238D02*
X128566190Y-64598095D01*
X128613809Y-64645714D01*
X128709047Y-64693333D01*
X128851904Y-64693333D01*
X128947142Y-64645714D01*
X128994761Y-64598095D01*
X129042380Y-64502857D01*
X129042380Y-64121904D01*
X128042380Y-64121904D01*
X128042380Y-64455238D01*
X128090000Y-64550476D01*
X128137619Y-64598095D01*
X128232857Y-64645714D01*
X128328095Y-64645714D01*
X128423333Y-64598095D01*
X128470952Y-64550476D01*
X128518571Y-64455238D01*
X128518571Y-64121904D01*
X129042380Y-65645714D02*
X129042380Y-65074285D01*
X129042380Y-65360000D02*
X128042380Y-65360000D01*
X128185238Y-65264761D01*
X128280476Y-65169523D01*
X128328095Y-65074285D01*
X131627142Y-63793333D02*
X131674761Y-63745714D01*
X131722380Y-63602857D01*
X131722380Y-63507619D01*
X131674761Y-63364761D01*
X131579523Y-63269523D01*
X131484285Y-63221904D01*
X131293809Y-63174285D01*
X131150952Y-63174285D01*
X130960476Y-63221904D01*
X130865238Y-63269523D01*
X130770000Y-63364761D01*
X130722380Y-63507619D01*
X130722380Y-63602857D01*
X130770000Y-63745714D01*
X130817619Y-63793333D01*
X131198571Y-64555238D02*
X131246190Y-64698095D01*
X131293809Y-64745714D01*
X131389047Y-64793333D01*
X131531904Y-64793333D01*
X131627142Y-64745714D01*
X131674761Y-64698095D01*
X131722380Y-64602857D01*
X131722380Y-64221904D01*
X130722380Y-64221904D01*
X130722380Y-64555238D01*
X130770000Y-64650476D01*
X130817619Y-64698095D01*
X130912857Y-64745714D01*
X131008095Y-64745714D01*
X131103333Y-64698095D01*
X131150952Y-64650476D01*
X131198571Y-64555238D01*
X131198571Y-64221904D01*
X130817619Y-65174285D02*
X130770000Y-65221904D01*
X130722380Y-65317142D01*
X130722380Y-65555238D01*
X130770000Y-65650476D01*
X130817619Y-65698095D01*
X130912857Y-65745714D01*
X131008095Y-65745714D01*
X131150952Y-65698095D01*
X131722380Y-65126666D01*
X131722380Y-65745714D01*
D11*
X138140000Y-156570000D02*
X137930000Y-156780000D01*
D13*
X98516666Y-139897142D02*
X98564285Y-139944761D01*
X98707142Y-139992380D01*
X98802380Y-139992380D01*
X98945238Y-139944761D01*
X99040476Y-139849523D01*
X99088095Y-139754285D01*
X99135714Y-139563809D01*
X99135714Y-139420952D01*
X99088095Y-139230476D01*
X99040476Y-139135238D01*
X98945238Y-139040000D01*
X98802380Y-138992380D01*
X98707142Y-138992380D01*
X98564285Y-139040000D01*
X98516666Y-139087619D01*
X98135714Y-139706666D02*
X97659523Y-139706666D01*
X98230952Y-139992380D02*
X97897619Y-138992380D01*
X97564285Y-139992380D01*
X97373809Y-138992380D02*
X96802380Y-138992380D01*
X97088095Y-139992380D02*
X97088095Y-138992380D01*
X96469047Y-139992380D02*
X96469047Y-138992380D01*
X96469047Y-139468571D02*
X95897619Y-139468571D01*
X95897619Y-139992380D02*
X95897619Y-138992380D01*
X95230952Y-138992380D02*
X95040476Y-138992380D01*
X94945238Y-139040000D01*
X94850000Y-139135238D01*
X94802380Y-139325714D01*
X94802380Y-139659047D01*
X94850000Y-139849523D01*
X94945238Y-139944761D01*
X95040476Y-139992380D01*
X95230952Y-139992380D01*
X95326190Y-139944761D01*
X95421428Y-139849523D01*
X95469047Y-139659047D01*
X95469047Y-139325714D01*
X95421428Y-139135238D01*
X95326190Y-139040000D01*
X95230952Y-138992380D01*
X94373809Y-139992380D02*
X94373809Y-138992380D01*
X94135714Y-138992380D01*
X93992857Y-139040000D01*
X93897619Y-139135238D01*
X93850000Y-139230476D01*
X93802380Y-139420952D01*
X93802380Y-139563809D01*
X93850000Y-139754285D01*
X93897619Y-139849523D01*
X93992857Y-139944761D01*
X94135714Y-139992380D01*
X94373809Y-139992380D01*
X93373809Y-139468571D02*
X93040476Y-139468571D01*
X92897619Y-139992380D02*
X93373809Y-139992380D01*
X93373809Y-138992380D01*
X92897619Y-138992380D01*
X91421428Y-140373333D02*
X91469047Y-140325714D01*
X91564285Y-140182857D01*
X91611904Y-140087619D01*
X91659523Y-139944761D01*
X91707142Y-139706666D01*
X91707142Y-139516190D01*
X91659523Y-139278095D01*
X91611904Y-139135238D01*
X91564285Y-139040000D01*
X91469047Y-138897142D01*
X91421428Y-138849523D01*
X91040476Y-139611428D02*
X90278571Y-139611428D01*
X89897619Y-140373333D02*
X89850000Y-140325714D01*
X89754761Y-140182857D01*
X89707142Y-140087619D01*
X89659523Y-139944761D01*
X89611904Y-139706666D01*
X89611904Y-139516190D01*
X89659523Y-139278095D01*
X89707142Y-139135238D01*
X89754761Y-139040000D01*
X89850000Y-138897142D01*
X89897619Y-138849523D01*
X97204761Y-135376666D02*
X96728571Y-135376666D01*
X97300000Y-135662380D02*
X96966666Y-134662380D01*
X96633333Y-135662380D01*
X96300000Y-135662380D02*
X96300000Y-134662380D01*
X95728571Y-135662380D01*
X95728571Y-134662380D01*
X95061904Y-134662380D02*
X94871428Y-134662380D01*
X94776190Y-134710000D01*
X94680952Y-134805238D01*
X94633333Y-134995714D01*
X94633333Y-135329047D01*
X94680952Y-135519523D01*
X94776190Y-135614761D01*
X94871428Y-135662380D01*
X95061904Y-135662380D01*
X95157142Y-135614761D01*
X95252380Y-135519523D01*
X95300000Y-135329047D01*
X95300000Y-134995714D01*
X95252380Y-134805238D01*
X95157142Y-134710000D01*
X95061904Y-134662380D01*
X94204761Y-135662380D02*
X94204761Y-134662380D01*
X93966666Y-134662380D01*
X93823809Y-134710000D01*
X93728571Y-134805238D01*
X93680952Y-134900476D01*
X93633333Y-135090952D01*
X93633333Y-135233809D01*
X93680952Y-135424285D01*
X93728571Y-135519523D01*
X93823809Y-135614761D01*
X93966666Y-135662380D01*
X94204761Y-135662380D01*
X93204761Y-135138571D02*
X92871428Y-135138571D01*
X92728571Y-135662380D02*
X93204761Y-135662380D01*
X93204761Y-134662380D01*
X92728571Y-134662380D01*
X91252380Y-136043333D02*
X91300000Y-135995714D01*
X91395238Y-135852857D01*
X91442857Y-135757619D01*
X91490476Y-135614761D01*
X91538095Y-135376666D01*
X91538095Y-135186190D01*
X91490476Y-134948095D01*
X91442857Y-134805238D01*
X91395238Y-134710000D01*
X91300000Y-134567142D01*
X91252380Y-134519523D01*
X90871428Y-135281428D02*
X90109523Y-135281428D01*
X90490476Y-135662380D02*
X90490476Y-134900476D01*
X89728571Y-136043333D02*
X89680952Y-135995714D01*
X89585714Y-135852857D01*
X89538095Y-135757619D01*
X89490476Y-135614761D01*
X89442857Y-135376666D01*
X89442857Y-135186190D01*
X89490476Y-134948095D01*
X89538095Y-134805238D01*
X89585714Y-134710000D01*
X89680952Y-134567142D01*
X89728571Y-134519523D01*
X90728571Y-145702380D02*
X90728571Y-144702380D01*
X90490476Y-144702380D01*
X90347619Y-144750000D01*
X90252380Y-144845238D01*
X90204761Y-144940476D01*
X90157142Y-145130952D01*
X90157142Y-145273809D01*
X90204761Y-145464285D01*
X90252380Y-145559523D01*
X90347619Y-145654761D01*
X90490476Y-145702380D01*
X90728571Y-145702380D01*
X89204761Y-145702380D02*
X89776190Y-145702380D01*
X89490476Y-145702380D02*
X89490476Y-144702380D01*
X89585714Y-144845238D01*
X89680952Y-144940476D01*
X89776190Y-144988095D01*
X88776190Y-145607142D02*
X88728571Y-145654761D01*
X88776190Y-145702380D01*
X88823809Y-145654761D01*
X88776190Y-145607142D01*
X88776190Y-145702380D01*
X88300000Y-145607142D02*
X88252380Y-145654761D01*
X88300000Y-145702380D01*
X88347619Y-145654761D01*
X88300000Y-145607142D01*
X88300000Y-145702380D01*
X87823809Y-145607142D02*
X87776190Y-145654761D01*
X87823809Y-145702380D01*
X87871428Y-145654761D01*
X87823809Y-145607142D01*
X87823809Y-145702380D01*
X87204761Y-145130952D02*
X87300000Y-145083333D01*
X87347619Y-145035714D01*
X87395238Y-144940476D01*
X87395238Y-144892857D01*
X87347619Y-144797619D01*
X87300000Y-144750000D01*
X87204761Y-144702380D01*
X87014285Y-144702380D01*
X86919047Y-144750000D01*
X86871428Y-144797619D01*
X86823809Y-144892857D01*
X86823809Y-144940476D01*
X86871428Y-145035714D01*
X86919047Y-145083333D01*
X87014285Y-145130952D01*
X87204761Y-145130952D01*
X87300000Y-145178571D01*
X87347619Y-145226190D01*
X87395238Y-145321428D01*
X87395238Y-145511904D01*
X87347619Y-145607142D01*
X87300000Y-145654761D01*
X87204761Y-145702380D01*
X87014285Y-145702380D01*
X86919047Y-145654761D01*
X86871428Y-145607142D01*
X86823809Y-145511904D01*
X86823809Y-145321428D01*
X86871428Y-145226190D01*
X86919047Y-145178571D01*
X87014285Y-145130952D01*
X90217142Y-152812380D02*
X90550476Y-152336190D01*
X90788571Y-152812380D02*
X90788571Y-151812380D01*
X90407619Y-151812380D01*
X90312380Y-151860000D01*
X90264761Y-151907619D01*
X90217142Y-152002857D01*
X90217142Y-152145714D01*
X90264761Y-152240952D01*
X90312380Y-152288571D01*
X90407619Y-152336190D01*
X90788571Y-152336190D01*
X89264761Y-152812380D02*
X89836190Y-152812380D01*
X89550476Y-152812380D02*
X89550476Y-151812380D01*
X89645714Y-151955238D01*
X89740952Y-152050476D01*
X89836190Y-152098095D01*
X88836190Y-152717142D02*
X88788571Y-152764761D01*
X88836190Y-152812380D01*
X88883809Y-152764761D01*
X88836190Y-152717142D01*
X88836190Y-152812380D01*
X88360000Y-152717142D02*
X88312380Y-152764761D01*
X88360000Y-152812380D01*
X88407619Y-152764761D01*
X88360000Y-152717142D01*
X88360000Y-152812380D01*
X87883809Y-152717142D02*
X87836190Y-152764761D01*
X87883809Y-152812380D01*
X87931428Y-152764761D01*
X87883809Y-152717142D01*
X87883809Y-152812380D01*
X87264761Y-152240952D02*
X87360000Y-152193333D01*
X87407619Y-152145714D01*
X87455238Y-152050476D01*
X87455238Y-152002857D01*
X87407619Y-151907619D01*
X87360000Y-151860000D01*
X87264761Y-151812380D01*
X87074285Y-151812380D01*
X86979047Y-151860000D01*
X86931428Y-151907619D01*
X86883809Y-152002857D01*
X86883809Y-152050476D01*
X86931428Y-152145714D01*
X86979047Y-152193333D01*
X87074285Y-152240952D01*
X87264761Y-152240952D01*
X87360000Y-152288571D01*
X87407619Y-152336190D01*
X87455238Y-152431428D01*
X87455238Y-152621904D01*
X87407619Y-152717142D01*
X87360000Y-152764761D01*
X87264761Y-152812380D01*
X87074285Y-152812380D01*
X86979047Y-152764761D01*
X86931428Y-152717142D01*
X86883809Y-152621904D01*
X86883809Y-152431428D01*
X86931428Y-152336190D01*
X86979047Y-152288571D01*
X87074285Y-152240952D01*
X140682380Y-140091904D02*
X140206190Y-139758571D01*
X140682380Y-139520476D02*
X139682380Y-139520476D01*
X139682380Y-139901428D01*
X139730000Y-139996666D01*
X139777619Y-140044285D01*
X139872857Y-140091904D01*
X140015714Y-140091904D01*
X140110952Y-140044285D01*
X140158571Y-139996666D01*
X140206190Y-139901428D01*
X140206190Y-139520476D01*
X139682380Y-140710952D02*
X139682380Y-140901428D01*
X139730000Y-140996666D01*
X139825238Y-141091904D01*
X140015714Y-141139523D01*
X140349047Y-141139523D01*
X140539523Y-141091904D01*
X140634761Y-140996666D01*
X140682380Y-140901428D01*
X140682380Y-140710952D01*
X140634761Y-140615714D01*
X140539523Y-140520476D01*
X140349047Y-140472857D01*
X140015714Y-140472857D01*
X139825238Y-140520476D01*
X139730000Y-140615714D01*
X139682380Y-140710952D01*
X140682380Y-141568095D02*
X139682380Y-141568095D01*
X140396666Y-141901428D01*
X139682380Y-142234761D01*
X140682380Y-142234761D01*
X140777619Y-143377619D02*
X140730000Y-143282380D01*
X140634761Y-143187142D01*
X140491904Y-143044285D01*
X140444285Y-142949047D01*
X140444285Y-142853809D01*
X140682380Y-142901428D02*
X140634761Y-142806190D01*
X140539523Y-142710952D01*
X140349047Y-142663333D01*
X140015714Y-142663333D01*
X139825238Y-142710952D01*
X139730000Y-142806190D01*
X139682380Y-142901428D01*
X139682380Y-143091904D01*
X139730000Y-143187142D01*
X139825238Y-143282380D01*
X140015714Y-143330000D01*
X140349047Y-143330000D01*
X140539523Y-143282380D01*
X140634761Y-143187142D01*
X140682380Y-143091904D01*
X140682380Y-142901428D01*
X140396666Y-143710952D02*
X140396666Y-144187142D01*
X140682380Y-143615714D02*
X139682380Y-143949047D01*
X140682380Y-144282380D01*
X145872380Y-140027142D02*
X145396190Y-139693809D01*
X145872380Y-139455714D02*
X144872380Y-139455714D01*
X144872380Y-139836666D01*
X144920000Y-139931904D01*
X144967619Y-139979523D01*
X145062857Y-140027142D01*
X145205714Y-140027142D01*
X145300952Y-139979523D01*
X145348571Y-139931904D01*
X145396190Y-139836666D01*
X145396190Y-139455714D01*
X144872380Y-140646190D02*
X144872380Y-140836666D01*
X144920000Y-140931904D01*
X145015238Y-141027142D01*
X145205714Y-141074761D01*
X145539047Y-141074761D01*
X145729523Y-141027142D01*
X145824761Y-140931904D01*
X145872380Y-140836666D01*
X145872380Y-140646190D01*
X145824761Y-140550952D01*
X145729523Y-140455714D01*
X145539047Y-140408095D01*
X145205714Y-140408095D01*
X145015238Y-140455714D01*
X144920000Y-140550952D01*
X144872380Y-140646190D01*
X145872380Y-141503333D02*
X144872380Y-141503333D01*
X145586666Y-141836666D01*
X144872380Y-142170000D01*
X145872380Y-142170000D01*
X145824761Y-142598571D02*
X145872380Y-142741428D01*
X145872380Y-142979523D01*
X145824761Y-143074761D01*
X145777142Y-143122380D01*
X145681904Y-143170000D01*
X145586666Y-143170000D01*
X145491428Y-143122380D01*
X145443809Y-143074761D01*
X145396190Y-142979523D01*
X145348571Y-142789047D01*
X145300952Y-142693809D01*
X145253333Y-142646190D01*
X145158095Y-142598571D01*
X145062857Y-142598571D01*
X144967619Y-142646190D01*
X144920000Y-142693809D01*
X144872380Y-142789047D01*
X144872380Y-143027142D01*
X144920000Y-143170000D01*
X144872380Y-143455714D02*
X144872380Y-144027142D01*
X145872380Y-143741428D02*
X144872380Y-143741428D01*
X145348571Y-144693809D02*
X145396190Y-144836666D01*
X145443809Y-144884285D01*
X145539047Y-144931904D01*
X145681904Y-144931904D01*
X145777142Y-144884285D01*
X145824761Y-144836666D01*
X145872380Y-144741428D01*
X145872380Y-144360476D01*
X144872380Y-144360476D01*
X144872380Y-144693809D01*
X144920000Y-144789047D01*
X144967619Y-144836666D01*
X145062857Y-144884285D01*
X145158095Y-144884285D01*
X145253333Y-144836666D01*
X145300952Y-144789047D01*
X145348571Y-144693809D01*
X145348571Y-144360476D01*
X119592380Y-140279761D02*
X120592380Y-139517857D01*
X120592380Y-139803571D02*
X120544761Y-139708333D01*
X120449523Y-139613095D01*
X120259047Y-139565476D01*
X119925714Y-139565476D01*
X119735238Y-139613095D01*
X119640000Y-139708333D01*
X119592380Y-139803571D01*
X119592380Y-139994047D01*
X119640000Y-140089285D01*
X119735238Y-140184523D01*
X119925714Y-140232142D01*
X120259047Y-140232142D01*
X120449523Y-140184523D01*
X120544761Y-140089285D01*
X120592380Y-139994047D01*
X120592380Y-139803571D01*
X119592380Y-140851190D02*
X119592380Y-140946428D01*
X119640000Y-141041666D01*
X119687619Y-141089285D01*
X119782857Y-141136904D01*
X119973333Y-141184523D01*
X120211428Y-141184523D01*
X120401904Y-141136904D01*
X120497142Y-141089285D01*
X120544761Y-141041666D01*
X120592380Y-140946428D01*
X120592380Y-140851190D01*
X120544761Y-140755952D01*
X120497142Y-140708333D01*
X120401904Y-140660714D01*
X120211428Y-140613095D01*
X119973333Y-140613095D01*
X119782857Y-140660714D01*
X119687619Y-140708333D01*
X119640000Y-140755952D01*
X119592380Y-140851190D01*
X128292380Y-140055952D02*
X127816190Y-139722619D01*
X128292380Y-139484523D02*
X127292380Y-139484523D01*
X127292380Y-139865476D01*
X127340000Y-139960714D01*
X127387619Y-140008333D01*
X127482857Y-140055952D01*
X127625714Y-140055952D01*
X127720952Y-140008333D01*
X127768571Y-139960714D01*
X127816190Y-139865476D01*
X127816190Y-139484523D01*
X128292380Y-140484523D02*
X127292380Y-140484523D01*
X127292380Y-140722619D01*
X127340000Y-140865476D01*
X127435238Y-140960714D01*
X127530476Y-141008333D01*
X127720952Y-141055952D01*
X127863809Y-141055952D01*
X128054285Y-141008333D01*
X128149523Y-140960714D01*
X128244761Y-140865476D01*
X128292380Y-140722619D01*
X128292380Y-140484523D01*
X127816190Y-141675000D02*
X128292380Y-141675000D01*
X127292380Y-141341666D02*
X127816190Y-141675000D01*
X127292380Y-142008333D01*
X138392380Y-139434523D02*
X137392380Y-139434523D01*
X137392380Y-139815476D01*
X137440000Y-139910714D01*
X137487619Y-139958333D01*
X137582857Y-140005952D01*
X137725714Y-140005952D01*
X137820952Y-139958333D01*
X137868571Y-139910714D01*
X137916190Y-139815476D01*
X137916190Y-139434523D01*
X137440000Y-140958333D02*
X137392380Y-140863095D01*
X137392380Y-140720238D01*
X137440000Y-140577380D01*
X137535238Y-140482142D01*
X137630476Y-140434523D01*
X137820952Y-140386904D01*
X137963809Y-140386904D01*
X138154285Y-140434523D01*
X138249523Y-140482142D01*
X138344761Y-140577380D01*
X138392380Y-140720238D01*
X138392380Y-140815476D01*
X138344761Y-140958333D01*
X138297142Y-141005952D01*
X137963809Y-141005952D01*
X137963809Y-140815476D01*
X137868571Y-141767857D02*
X137868571Y-141434523D01*
X138392380Y-141434523D02*
X137392380Y-141434523D01*
X137392380Y-141910714D01*
X138392380Y-142291666D02*
X137392380Y-142291666D01*
X137392380Y-142529761D01*
X137440000Y-142672619D01*
X137535238Y-142767857D01*
X137630476Y-142815476D01*
X137820952Y-142863095D01*
X137963809Y-142863095D01*
X138154285Y-142815476D01*
X138249523Y-142767857D01*
X138344761Y-142672619D01*
X138392380Y-142529761D01*
X138392380Y-142291666D01*
X124900714Y-139505952D02*
X125567380Y-139505952D01*
X124995952Y-139505952D02*
X124948333Y-139553571D01*
X124900714Y-139648809D01*
X124900714Y-139791666D01*
X124948333Y-139886904D01*
X125043571Y-139934523D01*
X125567380Y-139934523D01*
X125472142Y-140410714D02*
X125519761Y-140458333D01*
X125567380Y-140410714D01*
X125519761Y-140363095D01*
X125472142Y-140410714D01*
X125567380Y-140410714D01*
X125519761Y-141315476D02*
X125567380Y-141220238D01*
X125567380Y-141029761D01*
X125519761Y-140934523D01*
X125472142Y-140886904D01*
X125376904Y-140839285D01*
X125091190Y-140839285D01*
X124995952Y-140886904D01*
X124948333Y-140934523D01*
X124900714Y-141029761D01*
X124900714Y-141220238D01*
X124948333Y-141315476D01*
X125472142Y-141744047D02*
X125519761Y-141791666D01*
X125567380Y-141744047D01*
X125519761Y-141696428D01*
X125472142Y-141744047D01*
X125567380Y-141744047D01*
X133292380Y-139526190D02*
X132292380Y-139526190D01*
X133292380Y-140573809D02*
X132816190Y-140240476D01*
X133292380Y-140002380D02*
X132292380Y-140002380D01*
X132292380Y-140383333D01*
X132340000Y-140478571D01*
X132387619Y-140526190D01*
X132482857Y-140573809D01*
X132625714Y-140573809D01*
X132720952Y-140526190D01*
X132768571Y-140478571D01*
X132816190Y-140383333D01*
X132816190Y-140002380D01*
X133387619Y-141669047D02*
X133340000Y-141573809D01*
X133244761Y-141478571D01*
X133101904Y-141335714D01*
X133054285Y-141240476D01*
X133054285Y-141145238D01*
X133292380Y-141192857D02*
X133244761Y-141097619D01*
X133149523Y-141002380D01*
X132959047Y-140954761D01*
X132625714Y-140954761D01*
X132435238Y-141002380D01*
X132340000Y-141097619D01*
X132292380Y-141192857D01*
X132292380Y-141383333D01*
X132340000Y-141478571D01*
X132435238Y-141573809D01*
X132625714Y-141621428D01*
X132959047Y-141621428D01*
X133149523Y-141573809D01*
X133244761Y-141478571D01*
X133292380Y-141383333D01*
X133292380Y-141192857D01*
X135867380Y-139509523D02*
X134867380Y-139509523D01*
X134867380Y-139890476D01*
X134915000Y-139985714D01*
X134962619Y-140033333D01*
X135057857Y-140080952D01*
X135200714Y-140080952D01*
X135295952Y-140033333D01*
X135343571Y-139985714D01*
X135391190Y-139890476D01*
X135391190Y-139509523D01*
X134915000Y-141033333D02*
X134867380Y-140938095D01*
X134867380Y-140795238D01*
X134915000Y-140652380D01*
X135010238Y-140557142D01*
X135105476Y-140509523D01*
X135295952Y-140461904D01*
X135438809Y-140461904D01*
X135629285Y-140509523D01*
X135724523Y-140557142D01*
X135819761Y-140652380D01*
X135867380Y-140795238D01*
X135867380Y-140890476D01*
X135819761Y-141033333D01*
X135772142Y-141080952D01*
X135438809Y-141080952D01*
X135438809Y-140890476D01*
X135343571Y-141842857D02*
X135343571Y-141509523D01*
X135867380Y-141509523D02*
X134867380Y-141509523D01*
X134867380Y-141985714D01*
X135772142Y-142938095D02*
X135819761Y-142890476D01*
X135867380Y-142747619D01*
X135867380Y-142652380D01*
X135819761Y-142509523D01*
X135724523Y-142414285D01*
X135629285Y-142366666D01*
X135438809Y-142319047D01*
X135295952Y-142319047D01*
X135105476Y-142366666D01*
X135010238Y-142414285D01*
X134915000Y-142509523D01*
X134867380Y-142652380D01*
X134867380Y-142747619D01*
X134915000Y-142890476D01*
X134962619Y-142938095D01*
X143282380Y-139967142D02*
X143282380Y-139395714D01*
X143282380Y-139681428D02*
X142282380Y-139681428D01*
X142425238Y-139586190D01*
X142520476Y-139490952D01*
X142568095Y-139395714D01*
X142282380Y-140824285D02*
X142282380Y-140633809D01*
X142330000Y-140538571D01*
X142377619Y-140490952D01*
X142520476Y-140395714D01*
X142710952Y-140348095D01*
X143091904Y-140348095D01*
X143187142Y-140395714D01*
X143234761Y-140443333D01*
X143282380Y-140538571D01*
X143282380Y-140729047D01*
X143234761Y-140824285D01*
X143187142Y-140871904D01*
X143091904Y-140919523D01*
X142853809Y-140919523D01*
X142758571Y-140871904D01*
X142710952Y-140824285D01*
X142663333Y-140729047D01*
X142663333Y-140538571D01*
X142710952Y-140443333D01*
X142758571Y-140395714D01*
X142853809Y-140348095D01*
X143282380Y-142110000D02*
X142282380Y-142110000D01*
X142996666Y-142443333D01*
X142282380Y-142776666D01*
X143282380Y-142776666D01*
X143282380Y-143252857D02*
X142282380Y-143252857D01*
X142758571Y-143252857D02*
X142758571Y-143824285D01*
X143282380Y-143824285D02*
X142282380Y-143824285D01*
X142282380Y-144205238D02*
X142282380Y-144871904D01*
X143282380Y-144205238D01*
X143282380Y-144871904D01*
X148304761Y-139460952D02*
X148352380Y-139603809D01*
X148352380Y-139841904D01*
X148304761Y-139937142D01*
X148257142Y-139984761D01*
X148161904Y-140032380D01*
X148066666Y-140032380D01*
X147971428Y-139984761D01*
X147923809Y-139937142D01*
X147876190Y-139841904D01*
X147828571Y-139651428D01*
X147780952Y-139556190D01*
X147733333Y-139508571D01*
X147638095Y-139460952D01*
X147542857Y-139460952D01*
X147447619Y-139508571D01*
X147400000Y-139556190D01*
X147352380Y-139651428D01*
X147352380Y-139889523D01*
X147400000Y-140032380D01*
X148352380Y-140460952D02*
X147352380Y-140460952D01*
X148352380Y-141032380D01*
X147352380Y-141032380D01*
X148352380Y-141508571D02*
X147352380Y-141508571D01*
X147352380Y-141746666D01*
X147400000Y-141889523D01*
X147495238Y-141984761D01*
X147590476Y-142032380D01*
X147780952Y-142080000D01*
X147923809Y-142080000D01*
X148114285Y-142032380D01*
X148209523Y-141984761D01*
X148304761Y-141889523D01*
X148352380Y-141746666D01*
X148352380Y-141508571D01*
X147352380Y-143460952D02*
X147352380Y-143651428D01*
X147400000Y-143746666D01*
X147495238Y-143841904D01*
X147685714Y-143889523D01*
X148019047Y-143889523D01*
X148209523Y-143841904D01*
X148304761Y-143746666D01*
X148352380Y-143651428D01*
X148352380Y-143460952D01*
X148304761Y-143365714D01*
X148209523Y-143270476D01*
X148019047Y-143222857D01*
X147685714Y-143222857D01*
X147495238Y-143270476D01*
X147400000Y-143365714D01*
X147352380Y-143460952D01*
X147352380Y-144318095D02*
X148161904Y-144318095D01*
X148257142Y-144365714D01*
X148304761Y-144413333D01*
X148352380Y-144508571D01*
X148352380Y-144699047D01*
X148304761Y-144794285D01*
X148257142Y-144841904D01*
X148161904Y-144889523D01*
X147352380Y-144889523D01*
X147352380Y-145222857D02*
X147352380Y-145794285D01*
X148352380Y-145508571D02*
X147352380Y-145508571D01*
X124777142Y-131448571D02*
X124777142Y-131620000D01*
X124820000Y-131705714D01*
X124905714Y-131791428D01*
X125077142Y-131834285D01*
X125377142Y-131834285D01*
X125548571Y-131791428D01*
X125634285Y-131705714D01*
X125677142Y-131620000D01*
X125677142Y-131448571D01*
X125634285Y-131362857D01*
X125548571Y-131277142D01*
X125377142Y-131234285D01*
X125077142Y-131234285D01*
X124905714Y-131277142D01*
X124820000Y-131362857D01*
X124777142Y-131448571D01*
X125205714Y-132220000D02*
X125205714Y-132520000D01*
X125677142Y-132648571D02*
X125677142Y-132220000D01*
X124777142Y-132220000D01*
X124777142Y-132648571D01*
X124862857Y-132991428D02*
X124820000Y-133034285D01*
X124777142Y-133120000D01*
X124777142Y-133334285D01*
X124820000Y-133420000D01*
X124862857Y-133462857D01*
X124948571Y-133505714D01*
X125034285Y-133505714D01*
X125162857Y-133462857D01*
X125677142Y-132948571D01*
X125677142Y-133505714D01*
X123287380Y-131866904D02*
X122287380Y-131866904D01*
X122287380Y-132105000D01*
X122335000Y-132247857D01*
X122430238Y-132343095D01*
X122525476Y-132390714D01*
X122715952Y-132438333D01*
X122858809Y-132438333D01*
X123049285Y-132390714D01*
X123144523Y-132343095D01*
X123239761Y-132247857D01*
X123287380Y-132105000D01*
X123287380Y-131866904D01*
X122620714Y-133295476D02*
X123287380Y-133295476D01*
X122239761Y-133057380D02*
X122954047Y-132819285D01*
X122954047Y-133438333D01*
X153324761Y-139427619D02*
X153372380Y-139570476D01*
X153372380Y-139808571D01*
X153324761Y-139903809D01*
X153277142Y-139951428D01*
X153181904Y-139999047D01*
X153086666Y-139999047D01*
X152991428Y-139951428D01*
X152943809Y-139903809D01*
X152896190Y-139808571D01*
X152848571Y-139618095D01*
X152800952Y-139522857D01*
X152753333Y-139475238D01*
X152658095Y-139427619D01*
X152562857Y-139427619D01*
X152467619Y-139475238D01*
X152420000Y-139522857D01*
X152372380Y-139618095D01*
X152372380Y-139856190D01*
X152420000Y-139999047D01*
X153372380Y-140427619D02*
X152372380Y-140427619D01*
X153372380Y-140999047D01*
X152372380Y-140999047D01*
X153372380Y-141475238D02*
X152372380Y-141475238D01*
X152372380Y-141713333D01*
X152420000Y-141856190D01*
X152515238Y-141951428D01*
X152610476Y-141999047D01*
X152800952Y-142046666D01*
X152943809Y-142046666D01*
X153134285Y-141999047D01*
X153229523Y-141951428D01*
X153324761Y-141856190D01*
X153372380Y-141713333D01*
X153372380Y-141475238D01*
X153372380Y-143237142D02*
X152372380Y-143237142D01*
X153372380Y-143713333D02*
X152372380Y-143713333D01*
X153372380Y-144284761D01*
X152372380Y-144284761D01*
X110240000Y-131398571D02*
X110240000Y-131827142D01*
X110497142Y-131312857D02*
X109597142Y-131612857D01*
X110497142Y-131912857D01*
X110497142Y-132684285D02*
X110497142Y-132170000D01*
X110497142Y-132427142D02*
X109597142Y-132427142D01*
X109725714Y-132341428D01*
X109811428Y-132255714D01*
X109854285Y-132170000D01*
X110497142Y-133541428D02*
X110497142Y-133027142D01*
X110497142Y-133284285D02*
X109597142Y-133284285D01*
X109725714Y-133198571D01*
X109811428Y-133112857D01*
X109854285Y-133027142D01*
X120737380Y-131891904D02*
X119737380Y-131891904D01*
X119737380Y-132130000D01*
X119785000Y-132272857D01*
X119880238Y-132368095D01*
X119975476Y-132415714D01*
X120165952Y-132463333D01*
X120308809Y-132463333D01*
X120499285Y-132415714D01*
X120594523Y-132368095D01*
X120689761Y-132272857D01*
X120737380Y-132130000D01*
X120737380Y-131891904D01*
X119737380Y-133368095D02*
X119737380Y-132891904D01*
X120213571Y-132844285D01*
X120165952Y-132891904D01*
X120118333Y-132987142D01*
X120118333Y-133225238D01*
X120165952Y-133320476D01*
X120213571Y-133368095D01*
X120308809Y-133415714D01*
X120546904Y-133415714D01*
X120642142Y-133368095D01*
X120689761Y-133320476D01*
X120737380Y-133225238D01*
X120737380Y-132987142D01*
X120689761Y-132891904D01*
X120642142Y-132844285D01*
X105050000Y-131268571D02*
X105050000Y-131697142D01*
X105307142Y-131182857D02*
X104407142Y-131482857D01*
X105307142Y-131782857D01*
X105307142Y-132554285D02*
X105307142Y-132040000D01*
X105307142Y-132297142D02*
X104407142Y-132297142D01*
X104535714Y-132211428D01*
X104621428Y-132125714D01*
X104664285Y-132040000D01*
X104407142Y-133111428D02*
X104407142Y-133197142D01*
X104450000Y-133282857D01*
X104492857Y-133325714D01*
X104578571Y-133368571D01*
X104750000Y-133411428D01*
X104964285Y-133411428D01*
X105135714Y-133368571D01*
X105221428Y-133325714D01*
X105264285Y-133282857D01*
X105307142Y-133197142D01*
X105307142Y-133111428D01*
X105264285Y-133025714D01*
X105221428Y-132982857D01*
X105135714Y-132940000D01*
X104964285Y-132897142D01*
X104750000Y-132897142D01*
X104578571Y-132940000D01*
X104492857Y-132982857D01*
X104450000Y-133025714D01*
X104407142Y-133111428D01*
X107937380Y-131841904D02*
X106937380Y-131841904D01*
X106937380Y-132080000D01*
X106985000Y-132222857D01*
X107080238Y-132318095D01*
X107175476Y-132365714D01*
X107365952Y-132413333D01*
X107508809Y-132413333D01*
X107699285Y-132365714D01*
X107794523Y-132318095D01*
X107889761Y-132222857D01*
X107937380Y-132080000D01*
X107937380Y-131841904D01*
X106937380Y-132746666D02*
X106937380Y-133365714D01*
X107318333Y-133032380D01*
X107318333Y-133175238D01*
X107365952Y-133270476D01*
X107413571Y-133318095D01*
X107508809Y-133365714D01*
X107746904Y-133365714D01*
X107842142Y-133318095D01*
X107889761Y-133270476D01*
X107937380Y-133175238D01*
X107937380Y-132889523D01*
X107889761Y-132794285D01*
X107842142Y-132746666D01*
X112801666Y-131790714D02*
X112801666Y-132266904D01*
X113087380Y-131695476D02*
X112087380Y-132028809D01*
X113087380Y-132362142D01*
X113087380Y-132743095D02*
X113087380Y-132933571D01*
X113039761Y-133028809D01*
X112992142Y-133076428D01*
X112849285Y-133171666D01*
X112658809Y-133219285D01*
X112277857Y-133219285D01*
X112182619Y-133171666D01*
X112135000Y-133124047D01*
X112087380Y-133028809D01*
X112087380Y-132838333D01*
X112135000Y-132743095D01*
X112182619Y-132695476D01*
X112277857Y-132647857D01*
X112515952Y-132647857D01*
X112611190Y-132695476D01*
X112658809Y-132743095D01*
X112706428Y-132838333D01*
X112706428Y-133028809D01*
X112658809Y-133124047D01*
X112611190Y-133171666D01*
X112515952Y-133219285D01*
X115687380Y-131841904D02*
X114687380Y-131841904D01*
X114687380Y-132080000D01*
X114735000Y-132222857D01*
X114830238Y-132318095D01*
X114925476Y-132365714D01*
X115115952Y-132413333D01*
X115258809Y-132413333D01*
X115449285Y-132365714D01*
X115544523Y-132318095D01*
X115639761Y-132222857D01*
X115687380Y-132080000D01*
X115687380Y-131841904D01*
X114687380Y-132746666D02*
X114687380Y-133413333D01*
X115687380Y-132984761D01*
X101862380Y-130621666D02*
X102862380Y-130955000D01*
X101862380Y-131288333D01*
X102767142Y-132193095D02*
X102814761Y-132145476D01*
X102862380Y-132002619D01*
X102862380Y-131907380D01*
X102814761Y-131764523D01*
X102719523Y-131669285D01*
X102624285Y-131621666D01*
X102433809Y-131574047D01*
X102290952Y-131574047D01*
X102100476Y-131621666D01*
X102005238Y-131669285D01*
X101910000Y-131764523D01*
X101862380Y-131907380D01*
X101862380Y-132002619D01*
X101910000Y-132145476D01*
X101957619Y-132193095D01*
X102767142Y-133193095D02*
X102814761Y-133145476D01*
X102862380Y-133002619D01*
X102862380Y-132907380D01*
X102814761Y-132764523D01*
X102719523Y-132669285D01*
X102624285Y-132621666D01*
X102433809Y-132574047D01*
X102290952Y-132574047D01*
X102100476Y-132621666D01*
X102005238Y-132669285D01*
X101910000Y-132764523D01*
X101862380Y-132907380D01*
X101862380Y-133002619D01*
X101910000Y-133145476D01*
X101957619Y-133193095D01*
X130767380Y-139579761D02*
X129767380Y-139579761D01*
X130767380Y-140151190D01*
X129767380Y-140151190D01*
X130767380Y-140627380D02*
X129767380Y-140627380D01*
X130481666Y-140960714D01*
X129767380Y-141294047D01*
X130767380Y-141294047D01*
X130767380Y-141770238D02*
X129767380Y-141770238D01*
X118212380Y-131866904D02*
X117212380Y-131866904D01*
X117212380Y-132105000D01*
X117260000Y-132247857D01*
X117355238Y-132343095D01*
X117450476Y-132390714D01*
X117640952Y-132438333D01*
X117783809Y-132438333D01*
X117974285Y-132390714D01*
X118069523Y-132343095D01*
X118164761Y-132247857D01*
X118212380Y-132105000D01*
X118212380Y-131866904D01*
X117212380Y-133295476D02*
X117212380Y-133105000D01*
X117260000Y-133009761D01*
X117307619Y-132962142D01*
X117450476Y-132866904D01*
X117640952Y-132819285D01*
X118021904Y-132819285D01*
X118117142Y-132866904D01*
X118164761Y-132914523D01*
X118212380Y-133009761D01*
X118212380Y-133200238D01*
X118164761Y-133295476D01*
X118117142Y-133343095D01*
X118021904Y-133390714D01*
X117783809Y-133390714D01*
X117688571Y-133343095D01*
X117640952Y-133295476D01*
X117593333Y-133200238D01*
X117593333Y-133009761D01*
X117640952Y-132914523D01*
X117688571Y-132866904D01*
X117783809Y-132819285D01*
X155190000Y-139963095D02*
X155142380Y-139867857D01*
X155142380Y-139725000D01*
X155190000Y-139582142D01*
X155285238Y-139486904D01*
X155380476Y-139439285D01*
X155570952Y-139391666D01*
X155713809Y-139391666D01*
X155904285Y-139439285D01*
X155999523Y-139486904D01*
X156094761Y-139582142D01*
X156142380Y-139725000D01*
X156142380Y-139820238D01*
X156094761Y-139963095D01*
X156047142Y-140010714D01*
X155713809Y-140010714D01*
X155713809Y-139820238D01*
X156142380Y-140439285D02*
X155142380Y-140439285D01*
X156142380Y-141010714D01*
X155142380Y-141010714D01*
X156142380Y-141486904D02*
X155142380Y-141486904D01*
X155142380Y-141725000D01*
X155190000Y-141867857D01*
X155285238Y-141963095D01*
X155380476Y-142010714D01*
X155570952Y-142058333D01*
X155713809Y-142058333D01*
X155904285Y-142010714D01*
X155999523Y-141963095D01*
X156094761Y-141867857D01*
X156142380Y-141725000D01*
X156142380Y-141486904D01*
X101767380Y-139291666D02*
X102767380Y-139625000D01*
X101767380Y-139958333D01*
X102672142Y-140863095D02*
X102719761Y-140815476D01*
X102767380Y-140672619D01*
X102767380Y-140577380D01*
X102719761Y-140434523D01*
X102624523Y-140339285D01*
X102529285Y-140291666D01*
X102338809Y-140244047D01*
X102195952Y-140244047D01*
X102005476Y-140291666D01*
X101910238Y-140339285D01*
X101815000Y-140434523D01*
X101767380Y-140577380D01*
X101767380Y-140672619D01*
X101815000Y-140815476D01*
X101862619Y-140863095D01*
X102672142Y-141863095D02*
X102719761Y-141815476D01*
X102767380Y-141672619D01*
X102767380Y-141577380D01*
X102719761Y-141434523D01*
X102624523Y-141339285D01*
X102529285Y-141291666D01*
X102338809Y-141244047D01*
X102195952Y-141244047D01*
X102005476Y-141291666D01*
X101910238Y-141339285D01*
X101815000Y-141434523D01*
X101767380Y-141577380D01*
X101767380Y-141672619D01*
X101815000Y-141815476D01*
X101862619Y-141863095D01*
X105222380Y-139948095D02*
X104746190Y-139614761D01*
X105222380Y-139376666D02*
X104222380Y-139376666D01*
X104222380Y-139757619D01*
X104270000Y-139852857D01*
X104317619Y-139900476D01*
X104412857Y-139948095D01*
X104555714Y-139948095D01*
X104650952Y-139900476D01*
X104698571Y-139852857D01*
X104746190Y-139757619D01*
X104746190Y-139376666D01*
X104222380Y-140567142D02*
X104222380Y-140757619D01*
X104270000Y-140852857D01*
X104365238Y-140948095D01*
X104555714Y-140995714D01*
X104889047Y-140995714D01*
X105079523Y-140948095D01*
X105174761Y-140852857D01*
X105222380Y-140757619D01*
X105222380Y-140567142D01*
X105174761Y-140471904D01*
X105079523Y-140376666D01*
X104889047Y-140329047D01*
X104555714Y-140329047D01*
X104365238Y-140376666D01*
X104270000Y-140471904D01*
X104222380Y-140567142D01*
X105222380Y-141424285D02*
X104222380Y-141424285D01*
X104936666Y-141757619D01*
X104222380Y-142090952D01*
X105222380Y-142090952D01*
X104222380Y-142757619D02*
X104222380Y-142948095D01*
X104270000Y-143043333D01*
X104365238Y-143138571D01*
X104555714Y-143186190D01*
X104889047Y-143186190D01*
X105079523Y-143138571D01*
X105174761Y-143043333D01*
X105222380Y-142948095D01*
X105222380Y-142757619D01*
X105174761Y-142662380D01*
X105079523Y-142567142D01*
X104889047Y-142519523D01*
X104555714Y-142519523D01*
X104365238Y-142567142D01*
X104270000Y-142662380D01*
X104222380Y-142757619D01*
X104698571Y-143614761D02*
X104698571Y-143948095D01*
X105222380Y-144090952D02*
X105222380Y-143614761D01*
X104222380Y-143614761D01*
X104222380Y-144090952D01*
X107812380Y-140532380D02*
X107336190Y-140199047D01*
X107812380Y-139960952D02*
X106812380Y-139960952D01*
X106812380Y-140341904D01*
X106860000Y-140437142D01*
X106907619Y-140484761D01*
X107002857Y-140532380D01*
X107145714Y-140532380D01*
X107240952Y-140484761D01*
X107288571Y-140437142D01*
X107336190Y-140341904D01*
X107336190Y-139960952D01*
X107764761Y-140913333D02*
X107812380Y-141056190D01*
X107812380Y-141294285D01*
X107764761Y-141389523D01*
X107717142Y-141437142D01*
X107621904Y-141484761D01*
X107526666Y-141484761D01*
X107431428Y-141437142D01*
X107383809Y-141389523D01*
X107336190Y-141294285D01*
X107288571Y-141103809D01*
X107240952Y-141008571D01*
X107193333Y-140960952D01*
X107098095Y-140913333D01*
X107002857Y-140913333D01*
X106907619Y-140960952D01*
X106860000Y-141008571D01*
X106812380Y-141103809D01*
X106812380Y-141341904D01*
X106860000Y-141484761D01*
X106812380Y-141770476D02*
X106812380Y-142341904D01*
X107812380Y-142056190D02*
X106812380Y-142056190D01*
X110492380Y-140164285D02*
X110016190Y-139830952D01*
X110492380Y-139592857D02*
X109492380Y-139592857D01*
X109492380Y-139973809D01*
X109540000Y-140069047D01*
X109587619Y-140116666D01*
X109682857Y-140164285D01*
X109825714Y-140164285D01*
X109920952Y-140116666D01*
X109968571Y-140069047D01*
X110016190Y-139973809D01*
X110016190Y-139592857D01*
X109444761Y-141307142D02*
X110730476Y-140450000D01*
X109492380Y-141545238D02*
X110492380Y-141783333D01*
X109778095Y-141973809D01*
X110492380Y-142164285D01*
X109492380Y-142402380D01*
X112706666Y-139660714D02*
X112706666Y-140136904D01*
X112992380Y-139565476D02*
X111992380Y-139898809D01*
X112992380Y-140232142D01*
X112420952Y-140708333D02*
X112373333Y-140613095D01*
X112325714Y-140565476D01*
X112230476Y-140517857D01*
X112182857Y-140517857D01*
X112087619Y-140565476D01*
X112040000Y-140613095D01*
X111992380Y-140708333D01*
X111992380Y-140898809D01*
X112040000Y-140994047D01*
X112087619Y-141041666D01*
X112182857Y-141089285D01*
X112230476Y-141089285D01*
X112325714Y-141041666D01*
X112373333Y-140994047D01*
X112420952Y-140898809D01*
X112420952Y-140708333D01*
X112468571Y-140613095D01*
X112516190Y-140565476D01*
X112611428Y-140517857D01*
X112801904Y-140517857D01*
X112897142Y-140565476D01*
X112944761Y-140613095D01*
X112992380Y-140708333D01*
X112992380Y-140898809D01*
X112944761Y-140994047D01*
X112897142Y-141041666D01*
X112801904Y-141089285D01*
X112611428Y-141089285D01*
X112516190Y-141041666D01*
X112468571Y-140994047D01*
X112420952Y-140898809D01*
X115281666Y-139584523D02*
X115281666Y-140060714D01*
X115567380Y-139489285D02*
X114567380Y-139822619D01*
X115567380Y-140155952D01*
X115567380Y-141013095D02*
X115567380Y-140441666D01*
X115567380Y-140727380D02*
X114567380Y-140727380D01*
X114710238Y-140632142D01*
X114805476Y-140536904D01*
X114853095Y-140441666D01*
X114567380Y-141346428D02*
X114567380Y-141965476D01*
X114948333Y-141632142D01*
X114948333Y-141775000D01*
X114995952Y-141870238D01*
X115043571Y-141917857D01*
X115138809Y-141965476D01*
X115376904Y-141965476D01*
X115472142Y-141917857D01*
X115519761Y-141870238D01*
X115567380Y-141775000D01*
X115567380Y-141489285D01*
X115519761Y-141394047D01*
X115472142Y-141346428D01*
X117881666Y-139584523D02*
X117881666Y-140060714D01*
X118167380Y-139489285D02*
X117167380Y-139822619D01*
X118167380Y-140155952D01*
X118167380Y-141013095D02*
X118167380Y-140441666D01*
X118167380Y-140727380D02*
X117167380Y-140727380D01*
X117310238Y-140632142D01*
X117405476Y-140536904D01*
X117453095Y-140441666D01*
X117262619Y-141394047D02*
X117215000Y-141441666D01*
X117167380Y-141536904D01*
X117167380Y-141775000D01*
X117215000Y-141870238D01*
X117262619Y-141917857D01*
X117357857Y-141965476D01*
X117453095Y-141965476D01*
X117595952Y-141917857D01*
X118167380Y-141346428D01*
X118167380Y-141965476D01*
X122811428Y-139564285D02*
X122811428Y-140326190D01*
X122192380Y-141278571D02*
X122192380Y-140802380D01*
X122668571Y-140754761D01*
X122620952Y-140802380D01*
X122573333Y-140897619D01*
X122573333Y-141135714D01*
X122620952Y-141230952D01*
X122668571Y-141278571D01*
X122763809Y-141326190D01*
X123001904Y-141326190D01*
X123097142Y-141278571D01*
X123144761Y-141230952D01*
X123192380Y-141135714D01*
X123192380Y-140897619D01*
X123144761Y-140802380D01*
X123097142Y-140754761D01*
X122192380Y-141611904D02*
X123192380Y-141945238D01*
X122192380Y-142278571D01*
X150511428Y-139250000D02*
X150511428Y-140011904D01*
X150892380Y-139630952D02*
X150130476Y-139630952D01*
X149892380Y-140964285D02*
X149892380Y-140488095D01*
X150368571Y-140440476D01*
X150320952Y-140488095D01*
X150273333Y-140583333D01*
X150273333Y-140821428D01*
X150320952Y-140916666D01*
X150368571Y-140964285D01*
X150463809Y-141011904D01*
X150701904Y-141011904D01*
X150797142Y-140964285D01*
X150844761Y-140916666D01*
X150892380Y-140821428D01*
X150892380Y-140583333D01*
X150844761Y-140488095D01*
X150797142Y-140440476D01*
X149844761Y-142916666D02*
X151130476Y-142059523D01*
X150225714Y-144440476D02*
X150892380Y-144440476D01*
X149844761Y-144202380D02*
X150559047Y-143964285D01*
X150559047Y-144583333D01*
X150892380Y-144964285D02*
X149892380Y-144964285D01*
X150511428Y-145059523D02*
X150892380Y-145345238D01*
X150225714Y-145345238D02*
X150606666Y-144964285D01*
X149892380Y-145678571D02*
X149892380Y-146345238D01*
X150892380Y-145916666D01*
X128026666Y-131815714D02*
X128026666Y-132291904D01*
X128312380Y-131720476D02*
X127312380Y-132053809D01*
X128312380Y-132387142D01*
X127312380Y-132625238D02*
X127312380Y-133291904D01*
X128312380Y-132863333D01*
X130576666Y-131865714D02*
X130576666Y-132341904D01*
X130862380Y-131770476D02*
X129862380Y-132103809D01*
X130862380Y-132437142D01*
X129862380Y-133199047D02*
X129862380Y-133008571D01*
X129910000Y-132913333D01*
X129957619Y-132865714D01*
X130100476Y-132770476D01*
X130290952Y-132722857D01*
X130671904Y-132722857D01*
X130767142Y-132770476D01*
X130814761Y-132818095D01*
X130862380Y-132913333D01*
X130862380Y-133103809D01*
X130814761Y-133199047D01*
X130767142Y-133246666D01*
X130671904Y-133294285D01*
X130433809Y-133294285D01*
X130338571Y-133246666D01*
X130290952Y-133199047D01*
X130243333Y-133103809D01*
X130243333Y-132913333D01*
X130290952Y-132818095D01*
X130338571Y-132770476D01*
X130433809Y-132722857D01*
X133101666Y-131865714D02*
X133101666Y-132341904D01*
X133387380Y-131770476D02*
X132387380Y-132103809D01*
X133387380Y-132437142D01*
X132387380Y-133246666D02*
X132387380Y-132770476D01*
X132863571Y-132722857D01*
X132815952Y-132770476D01*
X132768333Y-132865714D01*
X132768333Y-133103809D01*
X132815952Y-133199047D01*
X132863571Y-133246666D01*
X132958809Y-133294285D01*
X133196904Y-133294285D01*
X133292142Y-133246666D01*
X133339761Y-133199047D01*
X133387380Y-133103809D01*
X133387380Y-132865714D01*
X133339761Y-132770476D01*
X133292142Y-132722857D01*
X135701666Y-131865714D02*
X135701666Y-132341904D01*
X135987380Y-131770476D02*
X134987380Y-132103809D01*
X135987380Y-132437142D01*
X135320714Y-133199047D02*
X135987380Y-133199047D01*
X134939761Y-132960952D02*
X135654047Y-132722857D01*
X135654047Y-133341904D01*
X153712380Y-131841904D02*
X152712380Y-131841904D01*
X152712380Y-132080000D01*
X152760000Y-132222857D01*
X152855238Y-132318095D01*
X152950476Y-132365714D01*
X153140952Y-132413333D01*
X153283809Y-132413333D01*
X153474285Y-132365714D01*
X153569523Y-132318095D01*
X153664761Y-132222857D01*
X153712380Y-132080000D01*
X153712380Y-131841904D01*
X153712380Y-133365714D02*
X153712380Y-132794285D01*
X153712380Y-133080000D02*
X152712380Y-133080000D01*
X152855238Y-132984761D01*
X152950476Y-132889523D01*
X152998095Y-132794285D01*
X155310000Y-131243095D02*
X155262380Y-131147857D01*
X155262380Y-131005000D01*
X155310000Y-130862142D01*
X155405238Y-130766904D01*
X155500476Y-130719285D01*
X155690952Y-130671666D01*
X155833809Y-130671666D01*
X156024285Y-130719285D01*
X156119523Y-130766904D01*
X156214761Y-130862142D01*
X156262380Y-131005000D01*
X156262380Y-131100238D01*
X156214761Y-131243095D01*
X156167142Y-131290714D01*
X155833809Y-131290714D01*
X155833809Y-131100238D01*
X156262380Y-131719285D02*
X155262380Y-131719285D01*
X156262380Y-132290714D01*
X155262380Y-132290714D01*
X156262380Y-132766904D02*
X155262380Y-132766904D01*
X155262380Y-133005000D01*
X155310000Y-133147857D01*
X155405238Y-133243095D01*
X155500476Y-133290714D01*
X155690952Y-133338333D01*
X155833809Y-133338333D01*
X156024285Y-133290714D01*
X156119523Y-133243095D01*
X156214761Y-133147857D01*
X156262380Y-133005000D01*
X156262380Y-132766904D01*
X151237380Y-131841904D02*
X150237380Y-131841904D01*
X150237380Y-132080000D01*
X150285000Y-132222857D01*
X150380238Y-132318095D01*
X150475476Y-132365714D01*
X150665952Y-132413333D01*
X150808809Y-132413333D01*
X150999285Y-132365714D01*
X151094523Y-132318095D01*
X151189761Y-132222857D01*
X151237380Y-132080000D01*
X151237380Y-131841904D01*
X150332619Y-132794285D02*
X150285000Y-132841904D01*
X150237380Y-132937142D01*
X150237380Y-133175238D01*
X150285000Y-133270476D01*
X150332619Y-133318095D01*
X150427857Y-133365714D01*
X150523095Y-133365714D01*
X150665952Y-133318095D01*
X151237380Y-132746666D01*
X151237380Y-133365714D01*
X148712380Y-131841904D02*
X147712380Y-131841904D01*
X147712380Y-132080000D01*
X147760000Y-132222857D01*
X147855238Y-132318095D01*
X147950476Y-132365714D01*
X148140952Y-132413333D01*
X148283809Y-132413333D01*
X148474285Y-132365714D01*
X148569523Y-132318095D01*
X148664761Y-132222857D01*
X148712380Y-132080000D01*
X148712380Y-131841904D01*
X147712380Y-133032380D02*
X147712380Y-133127619D01*
X147760000Y-133222857D01*
X147807619Y-133270476D01*
X147902857Y-133318095D01*
X148093333Y-133365714D01*
X148331428Y-133365714D01*
X148521904Y-133318095D01*
X148617142Y-133270476D01*
X148664761Y-133222857D01*
X148712380Y-133127619D01*
X148712380Y-133032380D01*
X148664761Y-132937142D01*
X148617142Y-132889523D01*
X148521904Y-132841904D01*
X148331428Y-132794285D01*
X148093333Y-132794285D01*
X147902857Y-132841904D01*
X147807619Y-132889523D01*
X147760000Y-132937142D01*
X147712380Y-133032380D01*
X143326666Y-131840714D02*
X143326666Y-132316904D01*
X143612380Y-131745476D02*
X142612380Y-132078809D01*
X143612380Y-132412142D01*
X143612380Y-133269285D02*
X143612380Y-132697857D01*
X143612380Y-132983571D02*
X142612380Y-132983571D01*
X142755238Y-132888333D01*
X142850476Y-132793095D01*
X142898095Y-132697857D01*
X140701666Y-131840714D02*
X140701666Y-132316904D01*
X140987380Y-131745476D02*
X139987380Y-132078809D01*
X140987380Y-132412142D01*
X140082619Y-132697857D02*
X140035000Y-132745476D01*
X139987380Y-132840714D01*
X139987380Y-133078809D01*
X140035000Y-133174047D01*
X140082619Y-133221666D01*
X140177857Y-133269285D01*
X140273095Y-133269285D01*
X140415952Y-133221666D01*
X140987380Y-132650238D01*
X140987380Y-133269285D01*
X138201666Y-131840714D02*
X138201666Y-132316904D01*
X138487380Y-131745476D02*
X137487380Y-132078809D01*
X138487380Y-132412142D01*
X137487380Y-132650238D02*
X137487380Y-133269285D01*
X137868333Y-132935952D01*
X137868333Y-133078809D01*
X137915952Y-133174047D01*
X137963571Y-133221666D01*
X138058809Y-133269285D01*
X138296904Y-133269285D01*
X138392142Y-133221666D01*
X138439761Y-133174047D01*
X138487380Y-133078809D01*
X138487380Y-132793095D01*
X138439761Y-132697857D01*
X138392142Y-132650238D01*
X145826666Y-131815714D02*
X145826666Y-132291904D01*
X146112380Y-131720476D02*
X145112380Y-132053809D01*
X146112380Y-132387142D01*
X145112380Y-132910952D02*
X145112380Y-133006190D01*
X145160000Y-133101428D01*
X145207619Y-133149047D01*
X145302857Y-133196666D01*
X145493333Y-133244285D01*
X145731428Y-133244285D01*
X145921904Y-133196666D01*
X146017142Y-133149047D01*
X146064761Y-133101428D01*
X146112380Y-133006190D01*
X146112380Y-132910952D01*
X146064761Y-132815714D01*
X146017142Y-132768095D01*
X145921904Y-132720476D01*
X145731428Y-132672857D01*
X145493333Y-132672857D01*
X145302857Y-132720476D01*
X145207619Y-132768095D01*
X145160000Y-132815714D01*
X145112380Y-132910952D01*
D11*
X83510000Y-153002064D02*
X83510000Y-151797936D01*
X85330000Y-153002064D02*
X85330000Y-151797936D01*
X80970000Y-153002064D02*
X80970000Y-151797936D01*
X82790000Y-153002064D02*
X82790000Y-151797936D01*
X78430000Y-153002064D02*
X78430000Y-151797936D01*
X80250000Y-153002064D02*
X80250000Y-151797936D01*
X75830000Y-153002064D02*
X75830000Y-151797936D01*
X77650000Y-153002064D02*
X77650000Y-151797936D01*
X73320000Y-153002064D02*
X73320000Y-151797936D01*
X75140000Y-153002064D02*
X75140000Y-151797936D01*
X70780000Y-153002064D02*
X70780000Y-151797936D01*
X72600000Y-153002064D02*
X72600000Y-151797936D01*
X68240000Y-153002064D02*
X68240000Y-151797936D01*
X70060000Y-153002064D02*
X70060000Y-151797936D01*
X65740000Y-153002064D02*
X65740000Y-151797936D01*
X67560000Y-153002064D02*
X67560000Y-151797936D01*
X85555000Y-142780000D02*
X85555000Y-146840000D01*
X83285000Y-142780000D02*
X85555000Y-142780000D01*
X83285000Y-146840000D02*
X83285000Y-142780000D01*
X82985000Y-142780000D02*
X82985000Y-146840000D01*
X80715000Y-142780000D02*
X82985000Y-142780000D01*
X80715000Y-146840000D02*
X80715000Y-142780000D01*
X80455000Y-142780000D02*
X80455000Y-146840000D01*
X78185000Y-142780000D02*
X80455000Y-142780000D01*
X78185000Y-146840000D02*
X78185000Y-142780000D01*
X77885000Y-142780000D02*
X77885000Y-146840000D01*
X75615000Y-142780000D02*
X77885000Y-142780000D01*
X75615000Y-146840000D02*
X75615000Y-142780000D01*
X75375000Y-142780000D02*
X75375000Y-146840000D01*
X73105000Y-142780000D02*
X75375000Y-142780000D01*
X73105000Y-146840000D02*
X73105000Y-142780000D01*
X72865000Y-142780000D02*
X72865000Y-146840000D01*
X70595000Y-142780000D02*
X72865000Y-142780000D01*
X70595000Y-146840000D02*
X70595000Y-142780000D01*
X70325000Y-142780000D02*
X70325000Y-146840000D01*
X68055000Y-142780000D02*
X70325000Y-142780000D01*
X68055000Y-146840000D02*
X68055000Y-142780000D01*
X67755000Y-142760000D02*
X67755000Y-146820000D01*
X65485000Y-142760000D02*
X67755000Y-142760000D01*
X65485000Y-146820000D02*
X65485000Y-142760000D01*
D13*
X138441190Y-164202380D02*
X138345952Y-164202380D01*
X138250714Y-164250000D01*
X138203095Y-164297619D01*
X138155476Y-164392857D01*
X138107857Y-164583333D01*
X138107857Y-164821428D01*
X138155476Y-165011904D01*
X138203095Y-165107142D01*
X138250714Y-165154761D01*
X138345952Y-165202380D01*
X138441190Y-165202380D01*
X138536428Y-165154761D01*
X138584047Y-165107142D01*
X138631666Y-165011904D01*
X138679285Y-164821428D01*
X138679285Y-164583333D01*
X138631666Y-164392857D01*
X138584047Y-164297619D01*
X138536428Y-164250000D01*
X138441190Y-164202380D01*
X137822142Y-164202380D02*
X137488809Y-165202380D01*
X137155476Y-164202380D01*
X84815476Y-164202380D02*
X85291666Y-164202380D01*
X85339285Y-164678571D01*
X85291666Y-164630952D01*
X85196428Y-164583333D01*
X84958333Y-164583333D01*
X84863095Y-164630952D01*
X84815476Y-164678571D01*
X84767857Y-164773809D01*
X84767857Y-165011904D01*
X84815476Y-165107142D01*
X84863095Y-165154761D01*
X84958333Y-165202380D01*
X85196428Y-165202380D01*
X85291666Y-165154761D01*
X85339285Y-165107142D01*
X84482142Y-164202380D02*
X84148809Y-165202380D01*
X83815476Y-164202380D01*
D15*
X151098000Y-163105047D02*
X151098000Y-155105047D01*
X150336095Y-160057428D02*
X148050380Y-163105047D01*
X148050380Y-157771714D02*
X151098000Y-160819333D01*
X141574190Y-162724095D02*
X142336095Y-163105047D01*
X143859904Y-163105047D01*
X144621809Y-162724095D01*
X145002761Y-161962190D01*
X145002761Y-158914571D01*
X144621809Y-158152666D01*
X143859904Y-157771714D01*
X142336095Y-157771714D01*
X141574190Y-158152666D01*
X141193238Y-158914571D01*
X141193238Y-159676476D01*
X145002761Y-160438380D01*
X138526571Y-157771714D02*
X136621809Y-163105047D01*
X134717047Y-157771714D02*
X136621809Y-163105047D01*
X137383714Y-165009809D01*
X137764666Y-165390761D01*
X138526571Y-165771714D01*
X131669428Y-163105047D02*
X131669428Y-155105047D01*
X131669428Y-158152666D02*
X130907523Y-157771714D01*
X129383714Y-157771714D01*
X128621809Y-158152666D01*
X128240857Y-158533619D01*
X127859904Y-159295523D01*
X127859904Y-161581238D01*
X128240857Y-162343142D01*
X128621809Y-162724095D01*
X129383714Y-163105047D01*
X130907523Y-163105047D01*
X131669428Y-162724095D01*
X123288476Y-163105047D02*
X124050380Y-162724095D01*
X124431333Y-162343142D01*
X124812285Y-161581238D01*
X124812285Y-159295523D01*
X124431333Y-158533619D01*
X124050380Y-158152666D01*
X123288476Y-157771714D01*
X122145619Y-157771714D01*
X121383714Y-158152666D01*
X121002761Y-158533619D01*
X120621809Y-159295523D01*
X120621809Y-161581238D01*
X121002761Y-162343142D01*
X121383714Y-162724095D01*
X122145619Y-163105047D01*
X123288476Y-163105047D01*
X113764666Y-163105047D02*
X113764666Y-158914571D01*
X114145619Y-158152666D01*
X114907523Y-157771714D01*
X116431333Y-157771714D01*
X117193238Y-158152666D01*
X113764666Y-162724095D02*
X114526571Y-163105047D01*
X116431333Y-163105047D01*
X117193238Y-162724095D01*
X117574190Y-161962190D01*
X117574190Y-161200285D01*
X117193238Y-160438380D01*
X116431333Y-160057428D01*
X114526571Y-160057428D01*
X113764666Y-159676476D01*
X109955142Y-163105047D02*
X109955142Y-157771714D01*
X109955142Y-159295523D02*
X109574190Y-158533619D01*
X109193238Y-158152666D01*
X108431333Y-157771714D01*
X107669428Y-157771714D01*
X101574190Y-163105047D02*
X101574190Y-155105047D01*
X101574190Y-162724095D02*
X102336095Y-163105047D01*
X103859904Y-163105047D01*
X104621809Y-162724095D01*
X105002761Y-162343142D01*
X105383714Y-161581238D01*
X105383714Y-159295523D01*
X105002761Y-158533619D01*
X104621809Y-158152666D01*
X103859904Y-157771714D01*
X102336095Y-157771714D01*
X101574190Y-158152666D01*
X92050380Y-162724095D02*
X91288476Y-163105047D01*
X89764666Y-163105047D01*
X89002761Y-162724095D01*
X88621809Y-161962190D01*
X88621809Y-161581238D01*
X89002761Y-160819333D01*
X89764666Y-160438380D01*
X90907523Y-160438380D01*
X91669428Y-160057428D01*
X92050380Y-159295523D01*
X92050380Y-158914571D01*
X91669428Y-158152666D01*
X90907523Y-157771714D01*
X89764666Y-157771714D01*
X89002761Y-158152666D01*
X85193238Y-163105047D02*
X85193238Y-157771714D01*
X85193238Y-155105047D02*
X85574190Y-155486000D01*
X85193238Y-155866952D01*
X84812285Y-155486000D01*
X85193238Y-155105047D01*
X85193238Y-155866952D01*
X77955142Y-163105047D02*
X77955142Y-155105047D01*
X77955142Y-162724095D02*
X78717047Y-163105047D01*
X80240857Y-163105047D01*
X81002761Y-162724095D01*
X81383714Y-162343142D01*
X81764666Y-161581238D01*
X81764666Y-159295523D01*
X81383714Y-158533619D01*
X81002761Y-158152666D01*
X80240857Y-157771714D01*
X78717047Y-157771714D01*
X77955142Y-158152666D01*
X71097999Y-162724095D02*
X71859904Y-163105047D01*
X73383714Y-163105047D01*
X74145619Y-162724095D01*
X74526571Y-161962190D01*
X74526571Y-158914571D01*
X74145619Y-158152666D01*
X73383714Y-157771714D01*
X71859904Y-157771714D01*
X71097999Y-158152666D01*
X70717047Y-158914571D01*
X70717047Y-159676476D01*
X74526571Y-160438380D01*
M02*
