G04 #@! TF.GenerationSoftware,KiCad,Pcbnew,(5.1.2-1)-1*
G04 #@! TF.CreationDate,2022-07-30T23:34:54+02:00*
G04 #@! TF.ProjectId,ElectronBreadBoard,456c6563-7472-46f6-9e42-72656164426f,rev?*
G04 #@! TF.SameCoordinates,Original*
G04 #@! TF.FileFunction,Legend,Top*
G04 #@! TF.FilePolarity,Positive*
%FSLAX46Y46*%
G04 Gerber Fmt 4.6, Leading zero omitted, Abs format (unit mm)*
G04 Created by KiCad (PCBNEW (5.1.2-1)-1) date 2022-07-30 23:34:54*
%MOMM*%
%LPD*%
G04 APERTURE LIST*
%ADD10C,0.250000*%
%ADD11C,0.120000*%
%ADD12C,0.100000*%
%ADD13C,0.150000*%
%ADD14C,0.300000*%
%ADD15C,0.500000*%
%ADD16C,0.200000*%
G04 APERTURE END LIST*
D10*
X65590119Y-158740476D02*
X65590119Y-157490476D01*
X65590119Y-157966666D02*
X65709166Y-157907142D01*
X65947261Y-157907142D01*
X66066309Y-157966666D01*
X66125833Y-158026190D01*
X66185357Y-158145238D01*
X66185357Y-158502380D01*
X66125833Y-158621428D01*
X66066309Y-158680952D01*
X65947261Y-158740476D01*
X65709166Y-158740476D01*
X65590119Y-158680952D01*
X66899642Y-158740476D02*
X66780595Y-158680952D01*
X66721071Y-158621428D01*
X66661547Y-158502380D01*
X66661547Y-158145238D01*
X66721071Y-158026190D01*
X66780595Y-157966666D01*
X66899642Y-157907142D01*
X67078214Y-157907142D01*
X67197261Y-157966666D01*
X67256785Y-158026190D01*
X67316309Y-158145238D01*
X67316309Y-158502380D01*
X67256785Y-158621428D01*
X67197261Y-158680952D01*
X67078214Y-158740476D01*
X66899642Y-158740476D01*
X68387738Y-158740476D02*
X68387738Y-158085714D01*
X68328214Y-157966666D01*
X68209166Y-157907142D01*
X67971071Y-157907142D01*
X67852023Y-157966666D01*
X68387738Y-158680952D02*
X68268690Y-158740476D01*
X67971071Y-158740476D01*
X67852023Y-158680952D01*
X67792500Y-158561904D01*
X67792500Y-158442857D01*
X67852023Y-158323809D01*
X67971071Y-158264285D01*
X68268690Y-158264285D01*
X68387738Y-158204761D01*
X68982976Y-158740476D02*
X68982976Y-157907142D01*
X68982976Y-158145238D02*
X69042500Y-158026190D01*
X69102023Y-157966666D01*
X69221071Y-157907142D01*
X69340119Y-157907142D01*
X70292500Y-158740476D02*
X70292500Y-157490476D01*
X70292500Y-158680952D02*
X70173452Y-158740476D01*
X69935357Y-158740476D01*
X69816309Y-158680952D01*
X69756785Y-158621428D01*
X69697261Y-158502380D01*
X69697261Y-158145238D01*
X69756785Y-158026190D01*
X69816309Y-157966666D01*
X69935357Y-157907142D01*
X70173452Y-157907142D01*
X70292500Y-157966666D01*
X71721071Y-157907142D02*
X72018690Y-158740476D01*
X72316309Y-157907142D01*
X73268690Y-158680952D02*
X73149642Y-158740476D01*
X72911547Y-158740476D01*
X72792500Y-158680952D01*
X72732976Y-158561904D01*
X72732976Y-158085714D01*
X72792500Y-157966666D01*
X72911547Y-157907142D01*
X73149642Y-157907142D01*
X73268690Y-157966666D01*
X73328214Y-158085714D01*
X73328214Y-158204761D01*
X72732976Y-158323809D01*
X73863928Y-158740476D02*
X73863928Y-157907142D01*
X73863928Y-158145238D02*
X73923452Y-158026190D01*
X73982976Y-157966666D01*
X74102023Y-157907142D01*
X74221071Y-157907142D01*
X74578214Y-158680952D02*
X74697261Y-158740476D01*
X74935357Y-158740476D01*
X75054404Y-158680952D01*
X75113928Y-158561904D01*
X75113928Y-158502380D01*
X75054404Y-158383333D01*
X74935357Y-158323809D01*
X74756785Y-158323809D01*
X74637738Y-158264285D01*
X74578214Y-158145238D01*
X74578214Y-158085714D01*
X74637738Y-157966666D01*
X74756785Y-157907142D01*
X74935357Y-157907142D01*
X75054404Y-157966666D01*
X75649642Y-158740476D02*
X75649642Y-157907142D01*
X75649642Y-157490476D02*
X75590119Y-157550000D01*
X75649642Y-157609523D01*
X75709166Y-157550000D01*
X75649642Y-157490476D01*
X75649642Y-157609523D01*
X76423452Y-158740476D02*
X76304404Y-158680952D01*
X76244880Y-158621428D01*
X76185357Y-158502380D01*
X76185357Y-158145238D01*
X76244880Y-158026190D01*
X76304404Y-157966666D01*
X76423452Y-157907142D01*
X76602023Y-157907142D01*
X76721071Y-157966666D01*
X76780595Y-158026190D01*
X76840119Y-158145238D01*
X76840119Y-158502380D01*
X76780595Y-158621428D01*
X76721071Y-158680952D01*
X76602023Y-158740476D01*
X76423452Y-158740476D01*
X77375833Y-157907142D02*
X77375833Y-158740476D01*
X77375833Y-158026190D02*
X77435357Y-157966666D01*
X77554404Y-157907142D01*
X77732976Y-157907142D01*
X77852023Y-157966666D01*
X77911547Y-158085714D01*
X77911547Y-158740476D01*
X79399642Y-157609523D02*
X79459166Y-157550000D01*
X79578214Y-157490476D01*
X79875833Y-157490476D01*
X79994880Y-157550000D01*
X80054404Y-157609523D01*
X80113928Y-157728571D01*
X80113928Y-157847619D01*
X80054404Y-158026190D01*
X79340119Y-158740476D01*
X80113928Y-158740476D01*
X80887738Y-157490476D02*
X81006785Y-157490476D01*
X81125833Y-157550000D01*
X81185357Y-157609523D01*
X81244880Y-157728571D01*
X81304404Y-157966666D01*
X81304404Y-158264285D01*
X81244880Y-158502380D01*
X81185357Y-158621428D01*
X81125833Y-158680952D01*
X81006785Y-158740476D01*
X80887738Y-158740476D01*
X80768690Y-158680952D01*
X80709166Y-158621428D01*
X80649642Y-158502380D01*
X80590119Y-158264285D01*
X80590119Y-157966666D01*
X80649642Y-157728571D01*
X80709166Y-157609523D01*
X80768690Y-157550000D01*
X80887738Y-157490476D01*
X81780595Y-157609523D02*
X81840119Y-157550000D01*
X81959166Y-157490476D01*
X82256785Y-157490476D01*
X82375833Y-157550000D01*
X82435357Y-157609523D01*
X82494880Y-157728571D01*
X82494880Y-157847619D01*
X82435357Y-158026190D01*
X81721071Y-158740476D01*
X82494880Y-158740476D01*
X82971071Y-157609523D02*
X83030595Y-157550000D01*
X83149642Y-157490476D01*
X83447261Y-157490476D01*
X83566309Y-157550000D01*
X83625833Y-157609523D01*
X83685357Y-157728571D01*
X83685357Y-157847619D01*
X83625833Y-158026190D01*
X82911547Y-158740476D01*
X83685357Y-158740476D01*
X84459166Y-157490476D02*
X84578214Y-157490476D01*
X84697261Y-157550000D01*
X84756785Y-157609523D01*
X84816309Y-157728571D01*
X84875833Y-157966666D01*
X84875833Y-158264285D01*
X84816309Y-158502380D01*
X84756785Y-158621428D01*
X84697261Y-158680952D01*
X84578214Y-158740476D01*
X84459166Y-158740476D01*
X84340119Y-158680952D01*
X84280595Y-158621428D01*
X84221071Y-158502380D01*
X84161547Y-158264285D01*
X84161547Y-157966666D01*
X84221071Y-157728571D01*
X84280595Y-157609523D01*
X84340119Y-157550000D01*
X84459166Y-157490476D01*
X85292500Y-157490476D02*
X86125833Y-157490476D01*
X85590119Y-158740476D01*
X86482976Y-157490476D02*
X87256785Y-157490476D01*
X86840119Y-157966666D01*
X87018690Y-157966666D01*
X87137738Y-158026190D01*
X87197261Y-158085714D01*
X87256785Y-158204761D01*
X87256785Y-158502380D01*
X87197261Y-158621428D01*
X87137738Y-158680952D01*
X87018690Y-158740476D01*
X86661547Y-158740476D01*
X86542500Y-158680952D01*
X86482976Y-158621428D01*
X88030595Y-157490476D02*
X88149642Y-157490476D01*
X88268690Y-157550000D01*
X88328214Y-157609523D01*
X88387738Y-157728571D01*
X88447261Y-157966666D01*
X88447261Y-158264285D01*
X88387738Y-158502380D01*
X88328214Y-158621428D01*
X88268690Y-158680952D01*
X88149642Y-158740476D01*
X88030595Y-158740476D01*
X87911547Y-158680952D01*
X87852023Y-158621428D01*
X87792500Y-158502380D01*
X87732976Y-158264285D01*
X87732976Y-157966666D01*
X87792500Y-157728571D01*
X87852023Y-157609523D01*
X87911547Y-157550000D01*
X88030595Y-157490476D01*
X65947261Y-161341666D02*
X65887738Y-161282142D01*
X65768690Y-161103571D01*
X65709166Y-160984523D01*
X65649642Y-160805952D01*
X65590119Y-160508333D01*
X65590119Y-160270238D01*
X65649642Y-159972619D01*
X65709166Y-159794047D01*
X65768690Y-159675000D01*
X65887738Y-159496428D01*
X65947261Y-159436904D01*
X66959166Y-160805952D02*
X66840119Y-160865476D01*
X66602023Y-160865476D01*
X66482976Y-160805952D01*
X66423452Y-160746428D01*
X66363928Y-160627380D01*
X66363928Y-160270238D01*
X66423452Y-160151190D01*
X66482976Y-160091666D01*
X66602023Y-160032142D01*
X66840119Y-160032142D01*
X66959166Y-160091666D01*
X67375833Y-161341666D02*
X67435357Y-161282142D01*
X67554404Y-161103571D01*
X67613928Y-160984523D01*
X67673452Y-160805952D01*
X67732976Y-160508333D01*
X67732976Y-160270238D01*
X67673452Y-159972619D01*
X67613928Y-159794047D01*
X67554404Y-159675000D01*
X67435357Y-159496428D01*
X67375833Y-159436904D01*
X69221071Y-159734523D02*
X69280595Y-159675000D01*
X69399642Y-159615476D01*
X69697261Y-159615476D01*
X69816309Y-159675000D01*
X69875833Y-159734523D01*
X69935357Y-159853571D01*
X69935357Y-159972619D01*
X69875833Y-160151190D01*
X69161547Y-160865476D01*
X69935357Y-160865476D01*
X70709166Y-159615476D02*
X70828214Y-159615476D01*
X70947261Y-159675000D01*
X71006785Y-159734523D01*
X71066309Y-159853571D01*
X71125833Y-160091666D01*
X71125833Y-160389285D01*
X71066309Y-160627380D01*
X71006785Y-160746428D01*
X70947261Y-160805952D01*
X70828214Y-160865476D01*
X70709166Y-160865476D01*
X70590119Y-160805952D01*
X70530595Y-160746428D01*
X70471071Y-160627380D01*
X70411547Y-160389285D01*
X70411547Y-160091666D01*
X70471071Y-159853571D01*
X70530595Y-159734523D01*
X70590119Y-159675000D01*
X70709166Y-159615476D01*
X71602023Y-159734523D02*
X71661547Y-159675000D01*
X71780595Y-159615476D01*
X72078214Y-159615476D01*
X72197261Y-159675000D01*
X72256785Y-159734523D01*
X72316309Y-159853571D01*
X72316309Y-159972619D01*
X72256785Y-160151190D01*
X71542500Y-160865476D01*
X72316309Y-160865476D01*
X72792500Y-159734523D02*
X72852023Y-159675000D01*
X72971071Y-159615476D01*
X73268690Y-159615476D01*
X73387738Y-159675000D01*
X73447261Y-159734523D01*
X73506785Y-159853571D01*
X73506785Y-159972619D01*
X73447261Y-160151190D01*
X72732976Y-160865476D01*
X73506785Y-160865476D01*
X75709166Y-160865476D02*
X75292500Y-160270238D01*
X74994880Y-160865476D02*
X74994880Y-159615476D01*
X75471071Y-159615476D01*
X75590119Y-159675000D01*
X75649642Y-159734523D01*
X75709166Y-159853571D01*
X75709166Y-160032142D01*
X75649642Y-160151190D01*
X75590119Y-160210714D01*
X75471071Y-160270238D01*
X74994880Y-160270238D01*
X76423452Y-160865476D02*
X76304404Y-160805952D01*
X76244880Y-160746428D01*
X76185357Y-160627380D01*
X76185357Y-160270238D01*
X76244880Y-160151190D01*
X76304404Y-160091666D01*
X76423452Y-160032142D01*
X76602023Y-160032142D01*
X76721071Y-160091666D01*
X76780595Y-160151190D01*
X76840119Y-160270238D01*
X76840119Y-160627380D01*
X76780595Y-160746428D01*
X76721071Y-160805952D01*
X76602023Y-160865476D01*
X76423452Y-160865476D01*
X77554404Y-160865476D02*
X77435357Y-160805952D01*
X77375833Y-160686904D01*
X77375833Y-159615476D01*
X78566309Y-160865476D02*
X78566309Y-160210714D01*
X78506785Y-160091666D01*
X78387738Y-160032142D01*
X78149642Y-160032142D01*
X78030595Y-160091666D01*
X78566309Y-160805952D02*
X78447261Y-160865476D01*
X78149642Y-160865476D01*
X78030595Y-160805952D01*
X77971071Y-160686904D01*
X77971071Y-160567857D01*
X78030595Y-160448809D01*
X78149642Y-160389285D01*
X78447261Y-160389285D01*
X78566309Y-160329761D01*
X79161547Y-160032142D02*
X79161547Y-160865476D01*
X79161547Y-160151190D02*
X79221071Y-160091666D01*
X79340119Y-160032142D01*
X79518690Y-160032142D01*
X79637738Y-160091666D01*
X79697261Y-160210714D01*
X79697261Y-160865476D01*
X80828214Y-160865476D02*
X80828214Y-159615476D01*
X80828214Y-160805952D02*
X80709166Y-160865476D01*
X80471071Y-160865476D01*
X80352023Y-160805952D01*
X80292500Y-160746428D01*
X80232976Y-160627380D01*
X80232976Y-160270238D01*
X80292500Y-160151190D01*
X80352023Y-160091666D01*
X80471071Y-160032142D01*
X80709166Y-160032142D01*
X80828214Y-160091666D01*
X82971071Y-160865476D02*
X82375833Y-160865476D01*
X82375833Y-159615476D01*
X83863928Y-160805952D02*
X83744880Y-160865476D01*
X83506785Y-160865476D01*
X83387738Y-160805952D01*
X83328214Y-160686904D01*
X83328214Y-160210714D01*
X83387738Y-160091666D01*
X83506785Y-160032142D01*
X83744880Y-160032142D01*
X83863928Y-160091666D01*
X83923452Y-160210714D01*
X83923452Y-160329761D01*
X83328214Y-160448809D01*
X84994880Y-160032142D02*
X84994880Y-160865476D01*
X84459166Y-160032142D02*
X84459166Y-160686904D01*
X84518690Y-160805952D01*
X84637738Y-160865476D01*
X84816309Y-160865476D01*
X84935357Y-160805952D01*
X84994880Y-160746428D01*
X85590119Y-160865476D02*
X85590119Y-160032142D01*
X85590119Y-160270238D02*
X85649642Y-160151190D01*
X85709166Y-160091666D01*
X85828214Y-160032142D01*
X85947261Y-160032142D01*
X86304404Y-160805952D02*
X86423452Y-160865476D01*
X86661547Y-160865476D01*
X86780595Y-160805952D01*
X86840119Y-160686904D01*
X86840119Y-160627380D01*
X86780595Y-160508333D01*
X86661547Y-160448809D01*
X86482976Y-160448809D01*
X86363928Y-160389285D01*
X86304404Y-160270238D01*
X86304404Y-160210714D01*
X86363928Y-160091666D01*
X86482976Y-160032142D01*
X86661547Y-160032142D01*
X86780595Y-160091666D01*
X65590119Y-162990476D02*
X65590119Y-162157142D01*
X65590119Y-162395238D02*
X65649642Y-162276190D01*
X65709166Y-162216666D01*
X65828214Y-162157142D01*
X65947261Y-162157142D01*
X66840119Y-162930952D02*
X66721071Y-162990476D01*
X66482976Y-162990476D01*
X66363928Y-162930952D01*
X66304404Y-162811904D01*
X66304404Y-162335714D01*
X66363928Y-162216666D01*
X66482976Y-162157142D01*
X66721071Y-162157142D01*
X66840119Y-162216666D01*
X66899642Y-162335714D01*
X66899642Y-162454761D01*
X66304404Y-162573809D01*
X67316309Y-162157142D02*
X67613928Y-162990476D01*
X67911547Y-162157142D01*
X68387738Y-162990476D02*
X68387738Y-162157142D01*
X68387738Y-161740476D02*
X68328214Y-161800000D01*
X68387738Y-161859523D01*
X68447261Y-161800000D01*
X68387738Y-161740476D01*
X68387738Y-161859523D01*
X68923452Y-162930952D02*
X69042500Y-162990476D01*
X69280595Y-162990476D01*
X69399642Y-162930952D01*
X69459166Y-162811904D01*
X69459166Y-162752380D01*
X69399642Y-162633333D01*
X69280595Y-162573809D01*
X69102023Y-162573809D01*
X68982976Y-162514285D01*
X68923452Y-162395238D01*
X68923452Y-162335714D01*
X68982976Y-162216666D01*
X69102023Y-162157142D01*
X69280595Y-162157142D01*
X69399642Y-162216666D01*
X69994880Y-162990476D02*
X69994880Y-162157142D01*
X69994880Y-161740476D02*
X69935357Y-161800000D01*
X69994880Y-161859523D01*
X70054404Y-161800000D01*
X69994880Y-161740476D01*
X69994880Y-161859523D01*
X70768690Y-162990476D02*
X70649642Y-162930952D01*
X70590119Y-162871428D01*
X70530595Y-162752380D01*
X70530595Y-162395238D01*
X70590119Y-162276190D01*
X70649642Y-162216666D01*
X70768690Y-162157142D01*
X70947261Y-162157142D01*
X71066309Y-162216666D01*
X71125833Y-162276190D01*
X71185357Y-162395238D01*
X71185357Y-162752380D01*
X71125833Y-162871428D01*
X71066309Y-162930952D01*
X70947261Y-162990476D01*
X70768690Y-162990476D01*
X71721071Y-162157142D02*
X71721071Y-162990476D01*
X71721071Y-162276190D02*
X71780595Y-162216666D01*
X71899642Y-162157142D01*
X72078214Y-162157142D01*
X72197261Y-162216666D01*
X72256785Y-162335714D01*
X72256785Y-162990476D01*
X74459166Y-162990476D02*
X73744880Y-162990476D01*
X74102023Y-162990476D02*
X74102023Y-161740476D01*
X73982976Y-161919047D01*
X73863928Y-162038095D01*
X73744880Y-162097619D01*
D11*
X124630000Y-69760000D02*
X124630000Y-70750000D01*
X124630000Y-70750000D02*
X125620000Y-70270000D01*
X125620000Y-70270000D02*
X124630000Y-69760000D01*
D12*
G36*
X125550000Y-59100000D02*
G01*
X124640000Y-59570000D01*
X124660000Y-58640000D01*
X125550000Y-59100000D01*
G37*
X125550000Y-59100000D02*
X124640000Y-59570000D01*
X124660000Y-58640000D01*
X125550000Y-59100000D01*
D11*
X124630000Y-58590000D02*
X124630000Y-59580000D01*
X124630000Y-59580000D02*
X125620000Y-59100000D01*
D12*
G36*
X125550000Y-70270000D02*
G01*
X124640000Y-70740000D01*
X124660000Y-69810000D01*
X125550000Y-70270000D01*
G37*
X125550000Y-70270000D02*
X124640000Y-70740000D01*
X124660000Y-69810000D01*
X125550000Y-70270000D01*
D11*
X125620000Y-59100000D02*
X124630000Y-58590000D01*
X65470000Y-58510000D02*
X65470000Y-59500000D01*
X65470000Y-59500000D02*
X66460000Y-59020000D01*
X66460000Y-59020000D02*
X65470000Y-58510000D01*
D12*
G36*
X66390000Y-59020000D02*
G01*
X65480000Y-59490000D01*
X65500000Y-58560000D01*
X66390000Y-59020000D01*
G37*
X66390000Y-59020000D02*
X65480000Y-59490000D01*
X65500000Y-58560000D01*
X66390000Y-59020000D01*
D11*
X64700000Y-139430000D02*
X63710000Y-138920000D01*
X63700000Y-138920000D02*
X63700000Y-139910000D01*
D12*
G36*
X64630000Y-139430000D02*
G01*
X63720000Y-139900000D01*
X63740000Y-138970000D01*
X64630000Y-139430000D01*
G37*
X64630000Y-139430000D02*
X63720000Y-139900000D01*
X63740000Y-138970000D01*
X64630000Y-139430000D01*
D11*
X63710000Y-139910000D02*
X64700000Y-139430000D01*
X63630000Y-134470000D02*
X63630000Y-135460000D01*
X63630000Y-135460000D02*
X64620000Y-134980000D01*
X64620000Y-134980000D02*
X63630000Y-134470000D01*
D12*
G36*
X64550000Y-134980000D02*
G01*
X63640000Y-135450000D01*
X63660000Y-134520000D01*
X64550000Y-134980000D01*
G37*
X64550000Y-134980000D02*
X63640000Y-135450000D01*
X63660000Y-134520000D01*
X64550000Y-134980000D01*
D11*
X99130000Y-137370000D02*
X99130000Y-138360000D01*
X99130000Y-138360000D02*
X100120000Y-137880000D01*
X100120000Y-137880000D02*
X99130000Y-137370000D01*
D12*
G36*
X100050000Y-137880000D02*
G01*
X99140000Y-138350000D01*
X99160000Y-137420000D01*
X100050000Y-137880000D01*
G37*
X100050000Y-137880000D02*
X99140000Y-138350000D01*
X99160000Y-137420000D01*
X100050000Y-137880000D01*
D11*
X99140000Y-148170000D02*
X99140000Y-149160000D01*
X99140000Y-149160000D02*
X100130000Y-148680000D01*
X100130000Y-148680000D02*
X99140000Y-148170000D01*
D12*
G36*
X100090000Y-148660000D02*
G01*
X99180000Y-149130000D01*
X99200000Y-148200000D01*
X100090000Y-148660000D01*
G37*
X100090000Y-148660000D02*
X99180000Y-149130000D01*
X99200000Y-148200000D01*
X100090000Y-148660000D01*
G36*
X66390000Y-70190000D02*
G01*
X65480000Y-70660000D01*
X65500000Y-69730000D01*
X66390000Y-70190000D01*
G37*
X66390000Y-70190000D02*
X65480000Y-70660000D01*
X65500000Y-69730000D01*
X66390000Y-70190000D01*
D11*
X66460000Y-70190000D02*
X65470000Y-69680000D01*
X65470000Y-70670000D02*
X66460000Y-70190000D01*
X65470000Y-69680000D02*
X65470000Y-70670000D01*
D13*
X87402857Y-153032380D02*
X87069523Y-152556190D01*
X86831428Y-153032380D02*
X86831428Y-152032380D01*
X87212380Y-152032380D01*
X87307619Y-152080000D01*
X87355238Y-152127619D01*
X87402857Y-152222857D01*
X87402857Y-152365714D01*
X87355238Y-152460952D01*
X87307619Y-152508571D01*
X87212380Y-152556190D01*
X86831428Y-152556190D01*
X88355238Y-153032380D02*
X87783809Y-153032380D01*
X88069523Y-153032380D02*
X88069523Y-152032380D01*
X87974285Y-152175238D01*
X87879047Y-152270476D01*
X87783809Y-152318095D01*
X88783809Y-152937142D02*
X88831428Y-152984761D01*
X88783809Y-153032380D01*
X88736190Y-152984761D01*
X88783809Y-152937142D01*
X88783809Y-153032380D01*
X89260000Y-152937142D02*
X89307619Y-152984761D01*
X89260000Y-153032380D01*
X89212380Y-152984761D01*
X89260000Y-152937142D01*
X89260000Y-153032380D01*
X89736190Y-152937142D02*
X89783809Y-152984761D01*
X89736190Y-153032380D01*
X89688571Y-152984761D01*
X89736190Y-152937142D01*
X89736190Y-153032380D01*
X90355238Y-152460952D02*
X90260000Y-152413333D01*
X90212380Y-152365714D01*
X90164761Y-152270476D01*
X90164761Y-152222857D01*
X90212380Y-152127619D01*
X90260000Y-152080000D01*
X90355238Y-152032380D01*
X90545714Y-152032380D01*
X90640952Y-152080000D01*
X90688571Y-152127619D01*
X90736190Y-152222857D01*
X90736190Y-152270476D01*
X90688571Y-152365714D01*
X90640952Y-152413333D01*
X90545714Y-152460952D01*
X90355238Y-152460952D01*
X90260000Y-152508571D01*
X90212380Y-152556190D01*
X90164761Y-152651428D01*
X90164761Y-152841904D01*
X90212380Y-152937142D01*
X90260000Y-152984761D01*
X90355238Y-153032380D01*
X90545714Y-153032380D01*
X90640952Y-152984761D01*
X90688571Y-152937142D01*
X90736190Y-152841904D01*
X90736190Y-152651428D01*
X90688571Y-152556190D01*
X90640952Y-152508571D01*
X90545714Y-152460952D01*
X86871428Y-145702380D02*
X86871428Y-144702380D01*
X87109523Y-144702380D01*
X87252380Y-144750000D01*
X87347619Y-144845238D01*
X87395238Y-144940476D01*
X87442857Y-145130952D01*
X87442857Y-145273809D01*
X87395238Y-145464285D01*
X87347619Y-145559523D01*
X87252380Y-145654761D01*
X87109523Y-145702380D01*
X86871428Y-145702380D01*
X88395238Y-145702380D02*
X87823809Y-145702380D01*
X88109523Y-145702380D02*
X88109523Y-144702380D01*
X88014285Y-144845238D01*
X87919047Y-144940476D01*
X87823809Y-144988095D01*
X88823809Y-145607142D02*
X88871428Y-145654761D01*
X88823809Y-145702380D01*
X88776190Y-145654761D01*
X88823809Y-145607142D01*
X88823809Y-145702380D01*
X89300000Y-145607142D02*
X89347619Y-145654761D01*
X89300000Y-145702380D01*
X89252380Y-145654761D01*
X89300000Y-145607142D01*
X89300000Y-145702380D01*
X89776190Y-145607142D02*
X89823809Y-145654761D01*
X89776190Y-145702380D01*
X89728571Y-145654761D01*
X89776190Y-145607142D01*
X89776190Y-145702380D01*
X90395238Y-145130952D02*
X90300000Y-145083333D01*
X90252380Y-145035714D01*
X90204761Y-144940476D01*
X90204761Y-144892857D01*
X90252380Y-144797619D01*
X90300000Y-144750000D01*
X90395238Y-144702380D01*
X90585714Y-144702380D01*
X90680952Y-144750000D01*
X90728571Y-144797619D01*
X90776190Y-144892857D01*
X90776190Y-144940476D01*
X90728571Y-145035714D01*
X90680952Y-145083333D01*
X90585714Y-145130952D01*
X90395238Y-145130952D01*
X90300000Y-145178571D01*
X90252380Y-145226190D01*
X90204761Y-145321428D01*
X90204761Y-145511904D01*
X90252380Y-145607142D01*
X90300000Y-145654761D01*
X90395238Y-145702380D01*
X90585714Y-145702380D01*
X90680952Y-145654761D01*
X90728571Y-145607142D01*
X90776190Y-145511904D01*
X90776190Y-145321428D01*
X90728571Y-145226190D01*
X90680952Y-145178571D01*
X90585714Y-145130952D01*
X90093333Y-139837142D02*
X90045714Y-139884761D01*
X89902857Y-139932380D01*
X89807619Y-139932380D01*
X89664761Y-139884761D01*
X89569523Y-139789523D01*
X89521904Y-139694285D01*
X89474285Y-139503809D01*
X89474285Y-139360952D01*
X89521904Y-139170476D01*
X89569523Y-139075238D01*
X89664761Y-138980000D01*
X89807619Y-138932380D01*
X89902857Y-138932380D01*
X90045714Y-138980000D01*
X90093333Y-139027619D01*
X90474285Y-139646666D02*
X90950476Y-139646666D01*
X90379047Y-139932380D02*
X90712380Y-138932380D01*
X91045714Y-139932380D01*
X91236190Y-138932380D02*
X91807619Y-138932380D01*
X91521904Y-139932380D02*
X91521904Y-138932380D01*
X92140952Y-139932380D02*
X92140952Y-138932380D01*
X92140952Y-139408571D02*
X92712380Y-139408571D01*
X92712380Y-139932380D02*
X92712380Y-138932380D01*
X93379047Y-138932380D02*
X93569523Y-138932380D01*
X93664761Y-138980000D01*
X93760000Y-139075238D01*
X93807619Y-139265714D01*
X93807619Y-139599047D01*
X93760000Y-139789523D01*
X93664761Y-139884761D01*
X93569523Y-139932380D01*
X93379047Y-139932380D01*
X93283809Y-139884761D01*
X93188571Y-139789523D01*
X93140952Y-139599047D01*
X93140952Y-139265714D01*
X93188571Y-139075238D01*
X93283809Y-138980000D01*
X93379047Y-138932380D01*
X94236190Y-139932380D02*
X94236190Y-138932380D01*
X94474285Y-138932380D01*
X94617142Y-138980000D01*
X94712380Y-139075238D01*
X94760000Y-139170476D01*
X94807619Y-139360952D01*
X94807619Y-139503809D01*
X94760000Y-139694285D01*
X94712380Y-139789523D01*
X94617142Y-139884761D01*
X94474285Y-139932380D01*
X94236190Y-139932380D01*
X95236190Y-139408571D02*
X95569523Y-139408571D01*
X95712380Y-139932380D02*
X95236190Y-139932380D01*
X95236190Y-138932380D01*
X95712380Y-138932380D01*
X97188571Y-140313333D02*
X97140952Y-140265714D01*
X97045714Y-140122857D01*
X96998095Y-140027619D01*
X96950476Y-139884761D01*
X96902857Y-139646666D01*
X96902857Y-139456190D01*
X96950476Y-139218095D01*
X96998095Y-139075238D01*
X97045714Y-138980000D01*
X97140952Y-138837142D01*
X97188571Y-138789523D01*
X97569523Y-139551428D02*
X98331428Y-139551428D01*
X98712380Y-140313333D02*
X98760000Y-140265714D01*
X98855238Y-140122857D01*
X98902857Y-140027619D01*
X98950476Y-139884761D01*
X98998095Y-139646666D01*
X98998095Y-139456190D01*
X98950476Y-139218095D01*
X98902857Y-139075238D01*
X98855238Y-138980000D01*
X98760000Y-138837142D01*
X98712380Y-138789523D01*
X89535238Y-135346666D02*
X90011428Y-135346666D01*
X89440000Y-135632380D02*
X89773333Y-134632380D01*
X90106666Y-135632380D01*
X90440000Y-135632380D02*
X90440000Y-134632380D01*
X91011428Y-135632380D01*
X91011428Y-134632380D01*
X91678095Y-134632380D02*
X91868571Y-134632380D01*
X91963809Y-134680000D01*
X92059047Y-134775238D01*
X92106666Y-134965714D01*
X92106666Y-135299047D01*
X92059047Y-135489523D01*
X91963809Y-135584761D01*
X91868571Y-135632380D01*
X91678095Y-135632380D01*
X91582857Y-135584761D01*
X91487619Y-135489523D01*
X91440000Y-135299047D01*
X91440000Y-134965714D01*
X91487619Y-134775238D01*
X91582857Y-134680000D01*
X91678095Y-134632380D01*
X92535238Y-135632380D02*
X92535238Y-134632380D01*
X92773333Y-134632380D01*
X92916190Y-134680000D01*
X93011428Y-134775238D01*
X93059047Y-134870476D01*
X93106666Y-135060952D01*
X93106666Y-135203809D01*
X93059047Y-135394285D01*
X93011428Y-135489523D01*
X92916190Y-135584761D01*
X92773333Y-135632380D01*
X92535238Y-135632380D01*
X93535238Y-135108571D02*
X93868571Y-135108571D01*
X94011428Y-135632380D02*
X93535238Y-135632380D01*
X93535238Y-134632380D01*
X94011428Y-134632380D01*
X95487619Y-136013333D02*
X95440000Y-135965714D01*
X95344761Y-135822857D01*
X95297142Y-135727619D01*
X95249523Y-135584761D01*
X95201904Y-135346666D01*
X95201904Y-135156190D01*
X95249523Y-134918095D01*
X95297142Y-134775238D01*
X95344761Y-134680000D01*
X95440000Y-134537142D01*
X95487619Y-134489523D01*
X95868571Y-135251428D02*
X96630476Y-135251428D01*
X96249523Y-135632380D02*
X96249523Y-134870476D01*
X97011428Y-136013333D02*
X97059047Y-135965714D01*
X97154285Y-135822857D01*
X97201904Y-135727619D01*
X97249523Y-135584761D01*
X97297142Y-135346666D01*
X97297142Y-135156190D01*
X97249523Y-134918095D01*
X97201904Y-134775238D01*
X97154285Y-134680000D01*
X97059047Y-134537142D01*
X97011428Y-134489523D01*
D14*
X155308571Y-69190000D02*
X156522857Y-69190000D01*
X156665714Y-69118571D01*
X156737142Y-69047142D01*
X156808571Y-68904285D01*
X156808571Y-68618571D01*
X156737142Y-68475714D01*
X156665714Y-68404285D01*
X156522857Y-68332857D01*
X155308571Y-68332857D01*
X156737142Y-67690000D02*
X156808571Y-67475714D01*
X156808571Y-67118571D01*
X156737142Y-66975714D01*
X156665714Y-66904285D01*
X156522857Y-66832857D01*
X156380000Y-66832857D01*
X156237142Y-66904285D01*
X156165714Y-66975714D01*
X156094285Y-67118571D01*
X156022857Y-67404285D01*
X155951428Y-67547142D01*
X155880000Y-67618571D01*
X155737142Y-67690000D01*
X155594285Y-67690000D01*
X155451428Y-67618571D01*
X155380000Y-67547142D01*
X155308571Y-67404285D01*
X155308571Y-67047142D01*
X155380000Y-66832857D01*
X156022857Y-66190000D02*
X156022857Y-65690000D01*
X156808571Y-65475714D02*
X156808571Y-66190000D01*
X155308571Y-66190000D01*
X155308571Y-65475714D01*
X156808571Y-63975714D02*
X156094285Y-64475714D01*
X156808571Y-64832857D02*
X155308571Y-64832857D01*
X155308571Y-64261428D01*
X155380000Y-64118571D01*
X155451428Y-64047142D01*
X155594285Y-63975714D01*
X155808571Y-63975714D01*
X155951428Y-64047142D01*
X156022857Y-64118571D01*
X156094285Y-64261428D01*
X156094285Y-64832857D01*
X156808571Y-62190000D02*
X155308571Y-62190000D01*
X155308571Y-61618571D01*
X155380000Y-61475714D01*
X155451428Y-61404285D01*
X155594285Y-61332857D01*
X155808571Y-61332857D01*
X155951428Y-61404285D01*
X156022857Y-61475714D01*
X156094285Y-61618571D01*
X156094285Y-62190000D01*
X155308571Y-60404285D02*
X155308571Y-60118571D01*
X155380000Y-59975714D01*
X155522857Y-59832857D01*
X155808571Y-59761428D01*
X156308571Y-59761428D01*
X156594285Y-59832857D01*
X156737142Y-59975714D01*
X156808571Y-60118571D01*
X156808571Y-60404285D01*
X156737142Y-60547142D01*
X156594285Y-60690000D01*
X156308571Y-60761428D01*
X155808571Y-60761428D01*
X155522857Y-60690000D01*
X155380000Y-60547142D01*
X155308571Y-60404285D01*
X156808571Y-58261428D02*
X156094285Y-58761428D01*
X156808571Y-59118571D02*
X155308571Y-59118571D01*
X155308571Y-58547142D01*
X155380000Y-58404285D01*
X155451428Y-58332857D01*
X155594285Y-58261428D01*
X155808571Y-58261428D01*
X155951428Y-58332857D01*
X156022857Y-58404285D01*
X156094285Y-58547142D01*
X156094285Y-59118571D01*
X155308571Y-57832857D02*
X155308571Y-56975714D01*
X156808571Y-57404285D02*
X155308571Y-57404285D01*
X114768571Y-68511428D02*
X114768571Y-69368571D01*
X114768571Y-68940000D02*
X113268571Y-68940000D01*
X113482857Y-69082857D01*
X113625714Y-69225714D01*
X113697142Y-69368571D01*
X114768571Y-66725714D02*
X113268571Y-66725714D01*
X114340000Y-66225714D01*
X113268571Y-65725714D01*
X114768571Y-65725714D01*
X114768571Y-65011428D02*
X113268571Y-65011428D01*
X113982857Y-65011428D02*
X113982857Y-64154285D01*
X114768571Y-64154285D02*
X113268571Y-64154285D01*
X113268571Y-63582857D02*
X113268571Y-62582857D01*
X114768571Y-63582857D01*
X114768571Y-62582857D01*
X113982857Y-60368571D02*
X114054285Y-60154285D01*
X114125714Y-60082857D01*
X114268571Y-60011428D01*
X114482857Y-60011428D01*
X114625714Y-60082857D01*
X114697142Y-60154285D01*
X114768571Y-60297142D01*
X114768571Y-60868571D01*
X113268571Y-60868571D01*
X113268571Y-60368571D01*
X113340000Y-60225714D01*
X113411428Y-60154285D01*
X113554285Y-60082857D01*
X113697142Y-60082857D01*
X113840000Y-60154285D01*
X113911428Y-60225714D01*
X113982857Y-60368571D01*
X113982857Y-60868571D01*
X113268571Y-59368571D02*
X114482857Y-59368571D01*
X114625714Y-59297142D01*
X114697142Y-59225714D01*
X114768571Y-59082857D01*
X114768571Y-58797142D01*
X114697142Y-58654285D01*
X114625714Y-58582857D01*
X114482857Y-58511428D01*
X113268571Y-58511428D01*
X114697142Y-57868571D02*
X114768571Y-57654285D01*
X114768571Y-57297142D01*
X114697142Y-57154285D01*
X114625714Y-57082857D01*
X114482857Y-57011428D01*
X114340000Y-57011428D01*
X114197142Y-57082857D01*
X114125714Y-57154285D01*
X114054285Y-57297142D01*
X113982857Y-57582857D01*
X113911428Y-57725714D01*
X113840000Y-57797142D01*
X113697142Y-57868571D01*
X113554285Y-57868571D01*
X113411428Y-57797142D01*
X113340000Y-57725714D01*
X113268571Y-57582857D01*
X113268571Y-57225714D01*
X113340000Y-57011428D01*
D13*
X142112857Y-86334285D02*
X142707142Y-86334285D01*
X142387142Y-86700000D01*
X142524285Y-86700000D01*
X142615714Y-86745714D01*
X142661428Y-86791428D01*
X142707142Y-86882857D01*
X142707142Y-87111428D01*
X142661428Y-87202857D01*
X142615714Y-87248571D01*
X142524285Y-87294285D01*
X142250000Y-87294285D01*
X142158571Y-87248571D01*
X142112857Y-87202857D01*
X143621428Y-87294285D02*
X143072857Y-87294285D01*
X143347142Y-87294285D02*
X143347142Y-86334285D01*
X143255714Y-86471428D01*
X143164285Y-86562857D01*
X143072857Y-86608571D01*
X144672857Y-86334285D02*
X145267142Y-86334285D01*
X144947142Y-86700000D01*
X145084285Y-86700000D01*
X145175714Y-86745714D01*
X145221428Y-86791428D01*
X145267142Y-86882857D01*
X145267142Y-87111428D01*
X145221428Y-87202857D01*
X145175714Y-87248571D01*
X145084285Y-87294285D01*
X144810000Y-87294285D01*
X144718571Y-87248571D01*
X144672857Y-87202857D01*
X145632857Y-86425714D02*
X145678571Y-86380000D01*
X145770000Y-86334285D01*
X145998571Y-86334285D01*
X146090000Y-86380000D01*
X146135714Y-86425714D01*
X146181428Y-86517142D01*
X146181428Y-86608571D01*
X146135714Y-86745714D01*
X145587142Y-87294285D01*
X146181428Y-87294285D01*
X147232857Y-86334285D02*
X147827142Y-86334285D01*
X147507142Y-86700000D01*
X147644285Y-86700000D01*
X147735714Y-86745714D01*
X147781428Y-86791428D01*
X147827142Y-86882857D01*
X147827142Y-87111428D01*
X147781428Y-87202857D01*
X147735714Y-87248571D01*
X147644285Y-87294285D01*
X147370000Y-87294285D01*
X147278571Y-87248571D01*
X147232857Y-87202857D01*
X148147142Y-86334285D02*
X148741428Y-86334285D01*
X148421428Y-86700000D01*
X148558571Y-86700000D01*
X148650000Y-86745714D01*
X148695714Y-86791428D01*
X148741428Y-86882857D01*
X148741428Y-87111428D01*
X148695714Y-87202857D01*
X148650000Y-87248571D01*
X148558571Y-87294285D01*
X148284285Y-87294285D01*
X148192857Y-87248571D01*
X148147142Y-87202857D01*
X149792857Y-86334285D02*
X150387142Y-86334285D01*
X150067142Y-86700000D01*
X150204285Y-86700000D01*
X150295714Y-86745714D01*
X150341428Y-86791428D01*
X150387142Y-86882857D01*
X150387142Y-87111428D01*
X150341428Y-87202857D01*
X150295714Y-87248571D01*
X150204285Y-87294285D01*
X149930000Y-87294285D01*
X149838571Y-87248571D01*
X149792857Y-87202857D01*
X151210000Y-86654285D02*
X151210000Y-87294285D01*
X150981428Y-86288571D02*
X150752857Y-86974285D01*
X151347142Y-86974285D01*
X152352857Y-86334285D02*
X152947142Y-86334285D01*
X152627142Y-86700000D01*
X152764285Y-86700000D01*
X152855714Y-86745714D01*
X152901428Y-86791428D01*
X152947142Y-86882857D01*
X152947142Y-87111428D01*
X152901428Y-87202857D01*
X152855714Y-87248571D01*
X152764285Y-87294285D01*
X152490000Y-87294285D01*
X152398571Y-87248571D01*
X152352857Y-87202857D01*
X153815714Y-86334285D02*
X153358571Y-86334285D01*
X153312857Y-86791428D01*
X153358571Y-86745714D01*
X153450000Y-86700000D01*
X153678571Y-86700000D01*
X153770000Y-86745714D01*
X153815714Y-86791428D01*
X153861428Y-86882857D01*
X153861428Y-87111428D01*
X153815714Y-87202857D01*
X153770000Y-87248571D01*
X153678571Y-87294285D01*
X153450000Y-87294285D01*
X153358571Y-87248571D01*
X153312857Y-87202857D01*
X154912857Y-86334285D02*
X155507142Y-86334285D01*
X155187142Y-86700000D01*
X155324285Y-86700000D01*
X155415714Y-86745714D01*
X155461428Y-86791428D01*
X155507142Y-86882857D01*
X155507142Y-87111428D01*
X155461428Y-87202857D01*
X155415714Y-87248571D01*
X155324285Y-87294285D01*
X155050000Y-87294285D01*
X154958571Y-87248571D01*
X154912857Y-87202857D01*
X156330000Y-86334285D02*
X156147142Y-86334285D01*
X156055714Y-86380000D01*
X156010000Y-86425714D01*
X155918571Y-86562857D01*
X155872857Y-86745714D01*
X155872857Y-87111428D01*
X155918571Y-87202857D01*
X155964285Y-87248571D01*
X156055714Y-87294285D01*
X156238571Y-87294285D01*
X156330000Y-87248571D01*
X156375714Y-87202857D01*
X156421428Y-87111428D01*
X156421428Y-86882857D01*
X156375714Y-86791428D01*
X156330000Y-86745714D01*
X156238571Y-86700000D01*
X156055714Y-86700000D01*
X155964285Y-86745714D01*
X155918571Y-86791428D01*
X155872857Y-86882857D01*
X116698571Y-86425714D02*
X116744285Y-86380000D01*
X116835714Y-86334285D01*
X117064285Y-86334285D01*
X117155714Y-86380000D01*
X117201428Y-86425714D01*
X117247142Y-86517142D01*
X117247142Y-86608571D01*
X117201428Y-86745714D01*
X116652857Y-87294285D01*
X117247142Y-87294285D01*
X118161428Y-87294285D02*
X117612857Y-87294285D01*
X117887142Y-87294285D02*
X117887142Y-86334285D01*
X117795714Y-86471428D01*
X117704285Y-86562857D01*
X117612857Y-86608571D01*
X119258571Y-86425714D02*
X119304285Y-86380000D01*
X119395714Y-86334285D01*
X119624285Y-86334285D01*
X119715714Y-86380000D01*
X119761428Y-86425714D01*
X119807142Y-86517142D01*
X119807142Y-86608571D01*
X119761428Y-86745714D01*
X119212857Y-87294285D01*
X119807142Y-87294285D01*
X120172857Y-86425714D02*
X120218571Y-86380000D01*
X120310000Y-86334285D01*
X120538571Y-86334285D01*
X120630000Y-86380000D01*
X120675714Y-86425714D01*
X120721428Y-86517142D01*
X120721428Y-86608571D01*
X120675714Y-86745714D01*
X120127142Y-87294285D01*
X120721428Y-87294285D01*
X121818571Y-86425714D02*
X121864285Y-86380000D01*
X121955714Y-86334285D01*
X122184285Y-86334285D01*
X122275714Y-86380000D01*
X122321428Y-86425714D01*
X122367142Y-86517142D01*
X122367142Y-86608571D01*
X122321428Y-86745714D01*
X121772857Y-87294285D01*
X122367142Y-87294285D01*
X122687142Y-86334285D02*
X123281428Y-86334285D01*
X122961428Y-86700000D01*
X123098571Y-86700000D01*
X123190000Y-86745714D01*
X123235714Y-86791428D01*
X123281428Y-86882857D01*
X123281428Y-87111428D01*
X123235714Y-87202857D01*
X123190000Y-87248571D01*
X123098571Y-87294285D01*
X122824285Y-87294285D01*
X122732857Y-87248571D01*
X122687142Y-87202857D01*
X124378571Y-86425714D02*
X124424285Y-86380000D01*
X124515714Y-86334285D01*
X124744285Y-86334285D01*
X124835714Y-86380000D01*
X124881428Y-86425714D01*
X124927142Y-86517142D01*
X124927142Y-86608571D01*
X124881428Y-86745714D01*
X124332857Y-87294285D01*
X124927142Y-87294285D01*
X125750000Y-86654285D02*
X125750000Y-87294285D01*
X125521428Y-86288571D02*
X125292857Y-86974285D01*
X125887142Y-86974285D01*
X126938571Y-86425714D02*
X126984285Y-86380000D01*
X127075714Y-86334285D01*
X127304285Y-86334285D01*
X127395714Y-86380000D01*
X127441428Y-86425714D01*
X127487142Y-86517142D01*
X127487142Y-86608571D01*
X127441428Y-86745714D01*
X126892857Y-87294285D01*
X127487142Y-87294285D01*
X128355714Y-86334285D02*
X127898571Y-86334285D01*
X127852857Y-86791428D01*
X127898571Y-86745714D01*
X127990000Y-86700000D01*
X128218571Y-86700000D01*
X128310000Y-86745714D01*
X128355714Y-86791428D01*
X128401428Y-86882857D01*
X128401428Y-87111428D01*
X128355714Y-87202857D01*
X128310000Y-87248571D01*
X128218571Y-87294285D01*
X127990000Y-87294285D01*
X127898571Y-87248571D01*
X127852857Y-87202857D01*
X129498571Y-86425714D02*
X129544285Y-86380000D01*
X129635714Y-86334285D01*
X129864285Y-86334285D01*
X129955714Y-86380000D01*
X130001428Y-86425714D01*
X130047142Y-86517142D01*
X130047142Y-86608571D01*
X130001428Y-86745714D01*
X129452857Y-87294285D01*
X130047142Y-87294285D01*
X130870000Y-86334285D02*
X130687142Y-86334285D01*
X130595714Y-86380000D01*
X130550000Y-86425714D01*
X130458571Y-86562857D01*
X130412857Y-86745714D01*
X130412857Y-87111428D01*
X130458571Y-87202857D01*
X130504285Y-87248571D01*
X130595714Y-87294285D01*
X130778571Y-87294285D01*
X130870000Y-87248571D01*
X130915714Y-87202857D01*
X130961428Y-87111428D01*
X130961428Y-86882857D01*
X130915714Y-86791428D01*
X130870000Y-86745714D01*
X130778571Y-86700000D01*
X130595714Y-86700000D01*
X130504285Y-86745714D01*
X130458571Y-86791428D01*
X130412857Y-86882857D01*
X132058571Y-86425714D02*
X132104285Y-86380000D01*
X132195714Y-86334285D01*
X132424285Y-86334285D01*
X132515714Y-86380000D01*
X132561428Y-86425714D01*
X132607142Y-86517142D01*
X132607142Y-86608571D01*
X132561428Y-86745714D01*
X132012857Y-87294285D01*
X132607142Y-87294285D01*
X132927142Y-86334285D02*
X133567142Y-86334285D01*
X133155714Y-87294285D01*
X134618571Y-86425714D02*
X134664285Y-86380000D01*
X134755714Y-86334285D01*
X134984285Y-86334285D01*
X135075714Y-86380000D01*
X135121428Y-86425714D01*
X135167142Y-86517142D01*
X135167142Y-86608571D01*
X135121428Y-86745714D01*
X134572857Y-87294285D01*
X135167142Y-87294285D01*
X135715714Y-86745714D02*
X135624285Y-86700000D01*
X135578571Y-86654285D01*
X135532857Y-86562857D01*
X135532857Y-86517142D01*
X135578571Y-86425714D01*
X135624285Y-86380000D01*
X135715714Y-86334285D01*
X135898571Y-86334285D01*
X135990000Y-86380000D01*
X136035714Y-86425714D01*
X136081428Y-86517142D01*
X136081428Y-86562857D01*
X136035714Y-86654285D01*
X135990000Y-86700000D01*
X135898571Y-86745714D01*
X135715714Y-86745714D01*
X135624285Y-86791428D01*
X135578571Y-86837142D01*
X135532857Y-86928571D01*
X135532857Y-87111428D01*
X135578571Y-87202857D01*
X135624285Y-87248571D01*
X135715714Y-87294285D01*
X135898571Y-87294285D01*
X135990000Y-87248571D01*
X136035714Y-87202857D01*
X136081428Y-87111428D01*
X136081428Y-86928571D01*
X136035714Y-86837142D01*
X135990000Y-86791428D01*
X135898571Y-86745714D01*
X137178571Y-86425714D02*
X137224285Y-86380000D01*
X137315714Y-86334285D01*
X137544285Y-86334285D01*
X137635714Y-86380000D01*
X137681428Y-86425714D01*
X137727142Y-86517142D01*
X137727142Y-86608571D01*
X137681428Y-86745714D01*
X137132857Y-87294285D01*
X137727142Y-87294285D01*
X138184285Y-87294285D02*
X138367142Y-87294285D01*
X138458571Y-87248571D01*
X138504285Y-87202857D01*
X138595714Y-87065714D01*
X138641428Y-86882857D01*
X138641428Y-86517142D01*
X138595714Y-86425714D01*
X138550000Y-86380000D01*
X138458571Y-86334285D01*
X138275714Y-86334285D01*
X138184285Y-86380000D01*
X138138571Y-86425714D01*
X138092857Y-86517142D01*
X138092857Y-86745714D01*
X138138571Y-86837142D01*
X138184285Y-86882857D01*
X138275714Y-86928571D01*
X138458571Y-86928571D01*
X138550000Y-86882857D01*
X138595714Y-86837142D01*
X138641428Y-86745714D01*
X139692857Y-86334285D02*
X140287142Y-86334285D01*
X139967142Y-86700000D01*
X140104285Y-86700000D01*
X140195714Y-86745714D01*
X140241428Y-86791428D01*
X140287142Y-86882857D01*
X140287142Y-87111428D01*
X140241428Y-87202857D01*
X140195714Y-87248571D01*
X140104285Y-87294285D01*
X139830000Y-87294285D01*
X139738571Y-87248571D01*
X139692857Y-87202857D01*
X140881428Y-86334285D02*
X140972857Y-86334285D01*
X141064285Y-86380000D01*
X141110000Y-86425714D01*
X141155714Y-86517142D01*
X141201428Y-86700000D01*
X141201428Y-86928571D01*
X141155714Y-87111428D01*
X141110000Y-87202857D01*
X141064285Y-87248571D01*
X140972857Y-87294285D01*
X140881428Y-87294285D01*
X140790000Y-87248571D01*
X140744285Y-87202857D01*
X140698571Y-87111428D01*
X140652857Y-86928571D01*
X140652857Y-86700000D01*
X140698571Y-86517142D01*
X140744285Y-86425714D01*
X140790000Y-86380000D01*
X140881428Y-86334285D01*
X66889999Y-87321428D02*
X66307142Y-87321428D01*
X66598571Y-87321428D02*
X66598571Y-86301428D01*
X66501428Y-86447142D01*
X66404285Y-86544285D01*
X66307142Y-86592857D01*
X68832857Y-86398571D02*
X68881428Y-86350000D01*
X68978571Y-86301428D01*
X69221428Y-86301428D01*
X69318571Y-86350000D01*
X69367142Y-86398571D01*
X69415714Y-86495714D01*
X69415714Y-86592857D01*
X69367142Y-86738571D01*
X68784285Y-87321428D01*
X69415714Y-87321428D01*
X71309999Y-86301428D02*
X71941428Y-86301428D01*
X71601428Y-86690000D01*
X71747142Y-86690000D01*
X71844285Y-86738571D01*
X71892857Y-86787142D01*
X71941428Y-86884285D01*
X71941428Y-87127142D01*
X71892857Y-87224285D01*
X71844285Y-87272857D01*
X71747142Y-87321428D01*
X71455714Y-87321428D01*
X71358571Y-87272857D01*
X71309999Y-87224285D01*
X74369999Y-86641428D02*
X74369999Y-87321428D01*
X74127142Y-86252857D02*
X73884285Y-86981428D01*
X74515714Y-86981428D01*
X76944285Y-86301428D02*
X76458571Y-86301428D01*
X76409999Y-86787142D01*
X76458571Y-86738571D01*
X76555714Y-86690000D01*
X76798571Y-86690000D01*
X76895714Y-86738571D01*
X76944285Y-86787142D01*
X76992857Y-86884285D01*
X76992857Y-87127142D01*
X76944285Y-87224285D01*
X76895714Y-87272857D01*
X76798571Y-87321428D01*
X76555714Y-87321428D01*
X76458571Y-87272857D01*
X76409999Y-87224285D01*
X79421428Y-86301428D02*
X79227142Y-86301428D01*
X79129999Y-86350000D01*
X79081428Y-86398571D01*
X78984285Y-86544285D01*
X78935714Y-86738571D01*
X78935714Y-87127142D01*
X78984285Y-87224285D01*
X79032857Y-87272857D01*
X79129999Y-87321428D01*
X79324285Y-87321428D01*
X79421428Y-87272857D01*
X79469999Y-87224285D01*
X79518571Y-87127142D01*
X79518571Y-86884285D01*
X79469999Y-86787142D01*
X79421428Y-86738571D01*
X79324285Y-86690000D01*
X79129999Y-86690000D01*
X79032857Y-86738571D01*
X78984285Y-86787142D01*
X78935714Y-86884285D01*
X81412857Y-86301428D02*
X82092857Y-86301428D01*
X81655714Y-87321428D01*
X84181428Y-86738571D02*
X84084285Y-86690000D01*
X84035714Y-86641428D01*
X83987142Y-86544285D01*
X83987142Y-86495714D01*
X84035714Y-86398571D01*
X84084285Y-86350000D01*
X84181428Y-86301428D01*
X84375714Y-86301428D01*
X84472857Y-86350000D01*
X84521428Y-86398571D01*
X84569999Y-86495714D01*
X84569999Y-86544285D01*
X84521428Y-86641428D01*
X84472857Y-86690000D01*
X84375714Y-86738571D01*
X84181428Y-86738571D01*
X84084285Y-86787142D01*
X84035714Y-86835714D01*
X83987142Y-86932857D01*
X83987142Y-87127142D01*
X84035714Y-87224285D01*
X84084285Y-87272857D01*
X84181428Y-87321428D01*
X84375714Y-87321428D01*
X84472857Y-87272857D01*
X84521428Y-87224285D01*
X84569999Y-87127142D01*
X84569999Y-86932857D01*
X84521428Y-86835714D01*
X84472857Y-86787142D01*
X84375714Y-86738571D01*
X86609999Y-87321428D02*
X86804285Y-87321428D01*
X86901428Y-87272857D01*
X86949999Y-87224285D01*
X87047142Y-87078571D01*
X87095714Y-86884285D01*
X87095714Y-86495714D01*
X87047142Y-86398571D01*
X86998571Y-86350000D01*
X86901428Y-86301428D01*
X86707142Y-86301428D01*
X86609999Y-86350000D01*
X86561428Y-86398571D01*
X86512857Y-86495714D01*
X86512857Y-86738571D01*
X86561428Y-86835714D01*
X86609999Y-86884285D01*
X86707142Y-86932857D01*
X86901428Y-86932857D01*
X86998571Y-86884285D01*
X87047142Y-86835714D01*
X87095714Y-86738571D01*
X89621428Y-87321428D02*
X89038571Y-87321428D01*
X89329999Y-87321428D02*
X89329999Y-86301428D01*
X89232857Y-86447142D01*
X89135714Y-86544285D01*
X89038571Y-86592857D01*
X90252857Y-86301428D02*
X90349999Y-86301428D01*
X90447142Y-86350000D01*
X90495714Y-86398571D01*
X90544285Y-86495714D01*
X90592857Y-86690000D01*
X90592857Y-86932857D01*
X90544285Y-87127142D01*
X90495714Y-87224285D01*
X90447142Y-87272857D01*
X90349999Y-87321428D01*
X90252857Y-87321428D01*
X90155714Y-87272857D01*
X90107142Y-87224285D01*
X90058571Y-87127142D01*
X90009999Y-86932857D01*
X90009999Y-86690000D01*
X90058571Y-86495714D01*
X90107142Y-86398571D01*
X90155714Y-86350000D01*
X90252857Y-86301428D01*
X91957142Y-87312380D02*
X91408571Y-87312380D01*
X91682857Y-87312380D02*
X91682857Y-86312380D01*
X91591428Y-86455238D01*
X91500000Y-86550476D01*
X91408571Y-86598095D01*
X92871428Y-87312380D02*
X92322857Y-87312380D01*
X92597142Y-87312380D02*
X92597142Y-86312380D01*
X92505714Y-86455238D01*
X92414285Y-86550476D01*
X92322857Y-86598095D01*
X94517142Y-87312380D02*
X93968571Y-87312380D01*
X94242857Y-87312380D02*
X94242857Y-86312380D01*
X94151428Y-86455238D01*
X94060000Y-86550476D01*
X93968571Y-86598095D01*
X94882857Y-86407619D02*
X94928571Y-86360000D01*
X95020000Y-86312380D01*
X95248571Y-86312380D01*
X95340000Y-86360000D01*
X95385714Y-86407619D01*
X95431428Y-86502857D01*
X95431428Y-86598095D01*
X95385714Y-86740952D01*
X94837142Y-87312380D01*
X95431428Y-87312380D01*
X97077142Y-87312380D02*
X96528571Y-87312380D01*
X96802857Y-87312380D02*
X96802857Y-86312380D01*
X96711428Y-86455238D01*
X96620000Y-86550476D01*
X96528571Y-86598095D01*
X97397142Y-86312380D02*
X97991428Y-86312380D01*
X97671428Y-86693333D01*
X97808571Y-86693333D01*
X97900000Y-86740952D01*
X97945714Y-86788571D01*
X97991428Y-86883809D01*
X97991428Y-87121904D01*
X97945714Y-87217142D01*
X97900000Y-87264761D01*
X97808571Y-87312380D01*
X97534285Y-87312380D01*
X97442857Y-87264761D01*
X97397142Y-87217142D01*
X99637142Y-87312380D02*
X99088571Y-87312380D01*
X99362857Y-87312380D02*
X99362857Y-86312380D01*
X99271428Y-86455238D01*
X99180000Y-86550476D01*
X99088571Y-86598095D01*
X100460000Y-86645714D02*
X100460000Y-87312380D01*
X100231428Y-86264761D02*
X100002857Y-86979047D01*
X100597142Y-86979047D01*
X102197142Y-87312380D02*
X101648571Y-87312380D01*
X101922857Y-87312380D02*
X101922857Y-86312380D01*
X101831428Y-86455238D01*
X101740000Y-86550476D01*
X101648571Y-86598095D01*
X103065714Y-86312380D02*
X102608571Y-86312380D01*
X102562857Y-86788571D01*
X102608571Y-86740952D01*
X102700000Y-86693333D01*
X102928571Y-86693333D01*
X103020000Y-86740952D01*
X103065714Y-86788571D01*
X103111428Y-86883809D01*
X103111428Y-87121904D01*
X103065714Y-87217142D01*
X103020000Y-87264761D01*
X102928571Y-87312380D01*
X102700000Y-87312380D01*
X102608571Y-87264761D01*
X102562857Y-87217142D01*
X104757142Y-87312380D02*
X104208571Y-87312380D01*
X104482857Y-87312380D02*
X104482857Y-86312380D01*
X104391428Y-86455238D01*
X104300000Y-86550476D01*
X104208571Y-86598095D01*
X105580000Y-86312380D02*
X105397142Y-86312380D01*
X105305714Y-86360000D01*
X105260000Y-86407619D01*
X105168571Y-86550476D01*
X105122857Y-86740952D01*
X105122857Y-87121904D01*
X105168571Y-87217142D01*
X105214285Y-87264761D01*
X105305714Y-87312380D01*
X105488571Y-87312380D01*
X105580000Y-87264761D01*
X105625714Y-87217142D01*
X105671428Y-87121904D01*
X105671428Y-86883809D01*
X105625714Y-86788571D01*
X105580000Y-86740952D01*
X105488571Y-86693333D01*
X105305714Y-86693333D01*
X105214285Y-86740952D01*
X105168571Y-86788571D01*
X105122857Y-86883809D01*
X107317142Y-87312380D02*
X106768571Y-87312380D01*
X107042857Y-87312380D02*
X107042857Y-86312380D01*
X106951428Y-86455238D01*
X106860000Y-86550476D01*
X106768571Y-86598095D01*
X107637142Y-86312380D02*
X108277142Y-86312380D01*
X107865714Y-87312380D01*
X109877142Y-87312380D02*
X109328571Y-87312380D01*
X109602857Y-87312380D02*
X109602857Y-86312380D01*
X109511428Y-86455238D01*
X109420000Y-86550476D01*
X109328571Y-86598095D01*
X110425714Y-86740952D02*
X110334285Y-86693333D01*
X110288571Y-86645714D01*
X110242857Y-86550476D01*
X110242857Y-86502857D01*
X110288571Y-86407619D01*
X110334285Y-86360000D01*
X110425714Y-86312380D01*
X110608571Y-86312380D01*
X110700000Y-86360000D01*
X110745714Y-86407619D01*
X110791428Y-86502857D01*
X110791428Y-86550476D01*
X110745714Y-86645714D01*
X110700000Y-86693333D01*
X110608571Y-86740952D01*
X110425714Y-86740952D01*
X110334285Y-86788571D01*
X110288571Y-86836190D01*
X110242857Y-86931428D01*
X110242857Y-87121904D01*
X110288571Y-87217142D01*
X110334285Y-87264761D01*
X110425714Y-87312380D01*
X110608571Y-87312380D01*
X110700000Y-87264761D01*
X110745714Y-87217142D01*
X110791428Y-87121904D01*
X110791428Y-86931428D01*
X110745714Y-86836190D01*
X110700000Y-86788571D01*
X110608571Y-86740952D01*
X112437142Y-87312380D02*
X111888571Y-87312380D01*
X112162857Y-87312380D02*
X112162857Y-86312380D01*
X112071428Y-86455238D01*
X111980000Y-86550476D01*
X111888571Y-86598095D01*
X112894285Y-87312380D02*
X113077142Y-87312380D01*
X113168571Y-87264761D01*
X113214285Y-87217142D01*
X113305714Y-87074285D01*
X113351428Y-86883809D01*
X113351428Y-86502857D01*
X113305714Y-86407619D01*
X113260000Y-86360000D01*
X113168571Y-86312380D01*
X112985714Y-86312380D01*
X112894285Y-86360000D01*
X112848571Y-86407619D01*
X112802857Y-86502857D01*
X112802857Y-86740952D01*
X112848571Y-86836190D01*
X112894285Y-86883809D01*
X112985714Y-86931428D01*
X113168571Y-86931428D01*
X113260000Y-86883809D01*
X113305714Y-86836190D01*
X113351428Y-86740952D01*
X114448571Y-86407619D02*
X114494285Y-86360000D01*
X114585714Y-86312380D01*
X114814285Y-86312380D01*
X114905714Y-86360000D01*
X114951428Y-86407619D01*
X114997142Y-86502857D01*
X114997142Y-86598095D01*
X114951428Y-86740952D01*
X114402857Y-87312380D01*
X114997142Y-87312380D01*
X115591428Y-86312380D02*
X115682857Y-86312380D01*
X115774285Y-86360000D01*
X115819999Y-86407619D01*
X115865714Y-86502857D01*
X115911428Y-86693333D01*
X115911428Y-86931428D01*
X115865714Y-87121904D01*
X115819999Y-87217142D01*
X115774285Y-87264761D01*
X115682857Y-87312380D01*
X115591428Y-87312380D01*
X115499999Y-87264761D01*
X115454285Y-87217142D01*
X115408571Y-87121904D01*
X115362857Y-86931428D01*
X115362857Y-86693333D01*
X115408571Y-86502857D01*
X115454285Y-86407619D01*
X115499999Y-86360000D01*
X115591428Y-86312380D01*
X141902857Y-101584285D02*
X142497142Y-101584285D01*
X142177142Y-101950000D01*
X142314285Y-101950000D01*
X142405714Y-101995714D01*
X142451428Y-102041428D01*
X142497142Y-102132857D01*
X142497142Y-102361428D01*
X142451428Y-102452857D01*
X142405714Y-102498571D01*
X142314285Y-102544285D01*
X142040000Y-102544285D01*
X141948571Y-102498571D01*
X141902857Y-102452857D01*
X143411428Y-102544285D02*
X142862857Y-102544285D01*
X143137142Y-102544285D02*
X143137142Y-101584285D01*
X143045714Y-101721428D01*
X142954285Y-101812857D01*
X142862857Y-101858571D01*
X144462857Y-101584285D02*
X145057142Y-101584285D01*
X144737142Y-101950000D01*
X144874285Y-101950000D01*
X144965714Y-101995714D01*
X145011428Y-102041428D01*
X145057142Y-102132857D01*
X145057142Y-102361428D01*
X145011428Y-102452857D01*
X144965714Y-102498571D01*
X144874285Y-102544285D01*
X144600000Y-102544285D01*
X144508571Y-102498571D01*
X144462857Y-102452857D01*
X145422857Y-101675714D02*
X145468571Y-101630000D01*
X145560000Y-101584285D01*
X145788571Y-101584285D01*
X145880000Y-101630000D01*
X145925714Y-101675714D01*
X145971428Y-101767142D01*
X145971428Y-101858571D01*
X145925714Y-101995714D01*
X145377142Y-102544285D01*
X145971428Y-102544285D01*
X147022857Y-101584285D02*
X147617142Y-101584285D01*
X147297142Y-101950000D01*
X147434285Y-101950000D01*
X147525714Y-101995714D01*
X147571428Y-102041428D01*
X147617142Y-102132857D01*
X147617142Y-102361428D01*
X147571428Y-102452857D01*
X147525714Y-102498571D01*
X147434285Y-102544285D01*
X147160000Y-102544285D01*
X147068571Y-102498571D01*
X147022857Y-102452857D01*
X147937142Y-101584285D02*
X148531428Y-101584285D01*
X148211428Y-101950000D01*
X148348571Y-101950000D01*
X148440000Y-101995714D01*
X148485714Y-102041428D01*
X148531428Y-102132857D01*
X148531428Y-102361428D01*
X148485714Y-102452857D01*
X148440000Y-102498571D01*
X148348571Y-102544285D01*
X148074285Y-102544285D01*
X147982857Y-102498571D01*
X147937142Y-102452857D01*
X149582857Y-101584285D02*
X150177142Y-101584285D01*
X149857142Y-101950000D01*
X149994285Y-101950000D01*
X150085714Y-101995714D01*
X150131428Y-102041428D01*
X150177142Y-102132857D01*
X150177142Y-102361428D01*
X150131428Y-102452857D01*
X150085714Y-102498571D01*
X149994285Y-102544285D01*
X149720000Y-102544285D01*
X149628571Y-102498571D01*
X149582857Y-102452857D01*
X151000000Y-101904285D02*
X151000000Y-102544285D01*
X150771428Y-101538571D02*
X150542857Y-102224285D01*
X151137142Y-102224285D01*
X152142857Y-101584285D02*
X152737142Y-101584285D01*
X152417142Y-101950000D01*
X152554285Y-101950000D01*
X152645714Y-101995714D01*
X152691428Y-102041428D01*
X152737142Y-102132857D01*
X152737142Y-102361428D01*
X152691428Y-102452857D01*
X152645714Y-102498571D01*
X152554285Y-102544285D01*
X152280000Y-102544285D01*
X152188571Y-102498571D01*
X152142857Y-102452857D01*
X153605714Y-101584285D02*
X153148571Y-101584285D01*
X153102857Y-102041428D01*
X153148571Y-101995714D01*
X153240000Y-101950000D01*
X153468571Y-101950000D01*
X153560000Y-101995714D01*
X153605714Y-102041428D01*
X153651428Y-102132857D01*
X153651428Y-102361428D01*
X153605714Y-102452857D01*
X153560000Y-102498571D01*
X153468571Y-102544285D01*
X153240000Y-102544285D01*
X153148571Y-102498571D01*
X153102857Y-102452857D01*
X154702857Y-101584285D02*
X155297142Y-101584285D01*
X154977142Y-101950000D01*
X155114285Y-101950000D01*
X155205714Y-101995714D01*
X155251428Y-102041428D01*
X155297142Y-102132857D01*
X155297142Y-102361428D01*
X155251428Y-102452857D01*
X155205714Y-102498571D01*
X155114285Y-102544285D01*
X154840000Y-102544285D01*
X154748571Y-102498571D01*
X154702857Y-102452857D01*
X156120000Y-101584285D02*
X155937142Y-101584285D01*
X155845714Y-101630000D01*
X155800000Y-101675714D01*
X155708571Y-101812857D01*
X155662857Y-101995714D01*
X155662857Y-102361428D01*
X155708571Y-102452857D01*
X155754285Y-102498571D01*
X155845714Y-102544285D01*
X156028571Y-102544285D01*
X156120000Y-102498571D01*
X156165714Y-102452857D01*
X156211428Y-102361428D01*
X156211428Y-102132857D01*
X156165714Y-102041428D01*
X156120000Y-101995714D01*
X156028571Y-101950000D01*
X155845714Y-101950000D01*
X155754285Y-101995714D01*
X155708571Y-102041428D01*
X155662857Y-102132857D01*
X116488571Y-101675714D02*
X116534285Y-101630000D01*
X116625714Y-101584285D01*
X116854285Y-101584285D01*
X116945714Y-101630000D01*
X116991428Y-101675714D01*
X117037142Y-101767142D01*
X117037142Y-101858571D01*
X116991428Y-101995714D01*
X116442857Y-102544285D01*
X117037142Y-102544285D01*
X117951428Y-102544285D02*
X117402857Y-102544285D01*
X117677142Y-102544285D02*
X117677142Y-101584285D01*
X117585714Y-101721428D01*
X117494285Y-101812857D01*
X117402857Y-101858571D01*
X119048571Y-101675714D02*
X119094285Y-101630000D01*
X119185714Y-101584285D01*
X119414285Y-101584285D01*
X119505714Y-101630000D01*
X119551428Y-101675714D01*
X119597142Y-101767142D01*
X119597142Y-101858571D01*
X119551428Y-101995714D01*
X119002857Y-102544285D01*
X119597142Y-102544285D01*
X119962857Y-101675714D02*
X120008571Y-101630000D01*
X120100000Y-101584285D01*
X120328571Y-101584285D01*
X120420000Y-101630000D01*
X120465714Y-101675714D01*
X120511428Y-101767142D01*
X120511428Y-101858571D01*
X120465714Y-101995714D01*
X119917142Y-102544285D01*
X120511428Y-102544285D01*
X121608571Y-101675714D02*
X121654285Y-101630000D01*
X121745714Y-101584285D01*
X121974285Y-101584285D01*
X122065714Y-101630000D01*
X122111428Y-101675714D01*
X122157142Y-101767142D01*
X122157142Y-101858571D01*
X122111428Y-101995714D01*
X121562857Y-102544285D01*
X122157142Y-102544285D01*
X122477142Y-101584285D02*
X123071428Y-101584285D01*
X122751428Y-101950000D01*
X122888571Y-101950000D01*
X122980000Y-101995714D01*
X123025714Y-102041428D01*
X123071428Y-102132857D01*
X123071428Y-102361428D01*
X123025714Y-102452857D01*
X122980000Y-102498571D01*
X122888571Y-102544285D01*
X122614285Y-102544285D01*
X122522857Y-102498571D01*
X122477142Y-102452857D01*
X124168571Y-101675714D02*
X124214285Y-101630000D01*
X124305714Y-101584285D01*
X124534285Y-101584285D01*
X124625714Y-101630000D01*
X124671428Y-101675714D01*
X124717142Y-101767142D01*
X124717142Y-101858571D01*
X124671428Y-101995714D01*
X124122857Y-102544285D01*
X124717142Y-102544285D01*
X125540000Y-101904285D02*
X125540000Y-102544285D01*
X125311428Y-101538571D02*
X125082857Y-102224285D01*
X125677142Y-102224285D01*
X126728571Y-101675714D02*
X126774285Y-101630000D01*
X126865714Y-101584285D01*
X127094285Y-101584285D01*
X127185714Y-101630000D01*
X127231428Y-101675714D01*
X127277142Y-101767142D01*
X127277142Y-101858571D01*
X127231428Y-101995714D01*
X126682857Y-102544285D01*
X127277142Y-102544285D01*
X128145714Y-101584285D02*
X127688571Y-101584285D01*
X127642857Y-102041428D01*
X127688571Y-101995714D01*
X127780000Y-101950000D01*
X128008571Y-101950000D01*
X128100000Y-101995714D01*
X128145714Y-102041428D01*
X128191428Y-102132857D01*
X128191428Y-102361428D01*
X128145714Y-102452857D01*
X128100000Y-102498571D01*
X128008571Y-102544285D01*
X127780000Y-102544285D01*
X127688571Y-102498571D01*
X127642857Y-102452857D01*
X129288571Y-101675714D02*
X129334285Y-101630000D01*
X129425714Y-101584285D01*
X129654285Y-101584285D01*
X129745714Y-101630000D01*
X129791428Y-101675714D01*
X129837142Y-101767142D01*
X129837142Y-101858571D01*
X129791428Y-101995714D01*
X129242857Y-102544285D01*
X129837142Y-102544285D01*
X130660000Y-101584285D02*
X130477142Y-101584285D01*
X130385714Y-101630000D01*
X130340000Y-101675714D01*
X130248571Y-101812857D01*
X130202857Y-101995714D01*
X130202857Y-102361428D01*
X130248571Y-102452857D01*
X130294285Y-102498571D01*
X130385714Y-102544285D01*
X130568571Y-102544285D01*
X130660000Y-102498571D01*
X130705714Y-102452857D01*
X130751428Y-102361428D01*
X130751428Y-102132857D01*
X130705714Y-102041428D01*
X130660000Y-101995714D01*
X130568571Y-101950000D01*
X130385714Y-101950000D01*
X130294285Y-101995714D01*
X130248571Y-102041428D01*
X130202857Y-102132857D01*
X131848571Y-101675714D02*
X131894285Y-101630000D01*
X131985714Y-101584285D01*
X132214285Y-101584285D01*
X132305714Y-101630000D01*
X132351428Y-101675714D01*
X132397142Y-101767142D01*
X132397142Y-101858571D01*
X132351428Y-101995714D01*
X131802857Y-102544285D01*
X132397142Y-102544285D01*
X132717142Y-101584285D02*
X133357142Y-101584285D01*
X132945714Y-102544285D01*
X134408571Y-101675714D02*
X134454285Y-101630000D01*
X134545714Y-101584285D01*
X134774285Y-101584285D01*
X134865714Y-101630000D01*
X134911428Y-101675714D01*
X134957142Y-101767142D01*
X134957142Y-101858571D01*
X134911428Y-101995714D01*
X134362857Y-102544285D01*
X134957142Y-102544285D01*
X135505714Y-101995714D02*
X135414285Y-101950000D01*
X135368571Y-101904285D01*
X135322857Y-101812857D01*
X135322857Y-101767142D01*
X135368571Y-101675714D01*
X135414285Y-101630000D01*
X135505714Y-101584285D01*
X135688571Y-101584285D01*
X135780000Y-101630000D01*
X135825714Y-101675714D01*
X135871428Y-101767142D01*
X135871428Y-101812857D01*
X135825714Y-101904285D01*
X135780000Y-101950000D01*
X135688571Y-101995714D01*
X135505714Y-101995714D01*
X135414285Y-102041428D01*
X135368571Y-102087142D01*
X135322857Y-102178571D01*
X135322857Y-102361428D01*
X135368571Y-102452857D01*
X135414285Y-102498571D01*
X135505714Y-102544285D01*
X135688571Y-102544285D01*
X135780000Y-102498571D01*
X135825714Y-102452857D01*
X135871428Y-102361428D01*
X135871428Y-102178571D01*
X135825714Y-102087142D01*
X135780000Y-102041428D01*
X135688571Y-101995714D01*
X136968571Y-101675714D02*
X137014285Y-101630000D01*
X137105714Y-101584285D01*
X137334285Y-101584285D01*
X137425714Y-101630000D01*
X137471428Y-101675714D01*
X137517142Y-101767142D01*
X137517142Y-101858571D01*
X137471428Y-101995714D01*
X136922857Y-102544285D01*
X137517142Y-102544285D01*
X137974285Y-102544285D02*
X138157142Y-102544285D01*
X138248571Y-102498571D01*
X138294285Y-102452857D01*
X138385714Y-102315714D01*
X138431428Y-102132857D01*
X138431428Y-101767142D01*
X138385714Y-101675714D01*
X138340000Y-101630000D01*
X138248571Y-101584285D01*
X138065714Y-101584285D01*
X137974285Y-101630000D01*
X137928571Y-101675714D01*
X137882857Y-101767142D01*
X137882857Y-101995714D01*
X137928571Y-102087142D01*
X137974285Y-102132857D01*
X138065714Y-102178571D01*
X138248571Y-102178571D01*
X138340000Y-102132857D01*
X138385714Y-102087142D01*
X138431428Y-101995714D01*
X139482857Y-101584285D02*
X140077142Y-101584285D01*
X139757142Y-101950000D01*
X139894285Y-101950000D01*
X139985714Y-101995714D01*
X140031428Y-102041428D01*
X140077142Y-102132857D01*
X140077142Y-102361428D01*
X140031428Y-102452857D01*
X139985714Y-102498571D01*
X139894285Y-102544285D01*
X139620000Y-102544285D01*
X139528571Y-102498571D01*
X139482857Y-102452857D01*
X140671428Y-101584285D02*
X140762857Y-101584285D01*
X140854285Y-101630000D01*
X140900000Y-101675714D01*
X140945714Y-101767142D01*
X140991428Y-101950000D01*
X140991428Y-102178571D01*
X140945714Y-102361428D01*
X140900000Y-102452857D01*
X140854285Y-102498571D01*
X140762857Y-102544285D01*
X140671428Y-102544285D01*
X140580000Y-102498571D01*
X140534285Y-102452857D01*
X140488571Y-102361428D01*
X140442857Y-102178571D01*
X140442857Y-101950000D01*
X140488571Y-101767142D01*
X140534285Y-101675714D01*
X140580000Y-101630000D01*
X140671428Y-101584285D01*
X91747142Y-102562380D02*
X91198571Y-102562380D01*
X91472857Y-102562380D02*
X91472857Y-101562380D01*
X91381428Y-101705238D01*
X91290000Y-101800476D01*
X91198571Y-101848095D01*
X92661428Y-102562380D02*
X92112857Y-102562380D01*
X92387142Y-102562380D02*
X92387142Y-101562380D01*
X92295714Y-101705238D01*
X92204285Y-101800476D01*
X92112857Y-101848095D01*
X94307142Y-102562380D02*
X93758571Y-102562380D01*
X94032857Y-102562380D02*
X94032857Y-101562380D01*
X93941428Y-101705238D01*
X93850000Y-101800476D01*
X93758571Y-101848095D01*
X94672857Y-101657619D02*
X94718571Y-101610000D01*
X94810000Y-101562380D01*
X95038571Y-101562380D01*
X95130000Y-101610000D01*
X95175714Y-101657619D01*
X95221428Y-101752857D01*
X95221428Y-101848095D01*
X95175714Y-101990952D01*
X94627142Y-102562380D01*
X95221428Y-102562380D01*
X96867142Y-102562380D02*
X96318571Y-102562380D01*
X96592857Y-102562380D02*
X96592857Y-101562380D01*
X96501428Y-101705238D01*
X96410000Y-101800476D01*
X96318571Y-101848095D01*
X97187142Y-101562380D02*
X97781428Y-101562380D01*
X97461428Y-101943333D01*
X97598571Y-101943333D01*
X97690000Y-101990952D01*
X97735714Y-102038571D01*
X97781428Y-102133809D01*
X97781428Y-102371904D01*
X97735714Y-102467142D01*
X97690000Y-102514761D01*
X97598571Y-102562380D01*
X97324285Y-102562380D01*
X97232857Y-102514761D01*
X97187142Y-102467142D01*
X99427142Y-102562380D02*
X98878571Y-102562380D01*
X99152857Y-102562380D02*
X99152857Y-101562380D01*
X99061428Y-101705238D01*
X98970000Y-101800476D01*
X98878571Y-101848095D01*
X100250000Y-101895714D02*
X100250000Y-102562380D01*
X100021428Y-101514761D02*
X99792857Y-102229047D01*
X100387142Y-102229047D01*
X101987142Y-102562380D02*
X101438571Y-102562380D01*
X101712857Y-102562380D02*
X101712857Y-101562380D01*
X101621428Y-101705238D01*
X101530000Y-101800476D01*
X101438571Y-101848095D01*
X102855714Y-101562380D02*
X102398571Y-101562380D01*
X102352857Y-102038571D01*
X102398571Y-101990952D01*
X102490000Y-101943333D01*
X102718571Y-101943333D01*
X102810000Y-101990952D01*
X102855714Y-102038571D01*
X102901428Y-102133809D01*
X102901428Y-102371904D01*
X102855714Y-102467142D01*
X102810000Y-102514761D01*
X102718571Y-102562380D01*
X102490000Y-102562380D01*
X102398571Y-102514761D01*
X102352857Y-102467142D01*
X104547142Y-102562380D02*
X103998571Y-102562380D01*
X104272857Y-102562380D02*
X104272857Y-101562380D01*
X104181428Y-101705238D01*
X104090000Y-101800476D01*
X103998571Y-101848095D01*
X105370000Y-101562380D02*
X105187142Y-101562380D01*
X105095714Y-101610000D01*
X105050000Y-101657619D01*
X104958571Y-101800476D01*
X104912857Y-101990952D01*
X104912857Y-102371904D01*
X104958571Y-102467142D01*
X105004285Y-102514761D01*
X105095714Y-102562380D01*
X105278571Y-102562380D01*
X105370000Y-102514761D01*
X105415714Y-102467142D01*
X105461428Y-102371904D01*
X105461428Y-102133809D01*
X105415714Y-102038571D01*
X105370000Y-101990952D01*
X105278571Y-101943333D01*
X105095714Y-101943333D01*
X105004285Y-101990952D01*
X104958571Y-102038571D01*
X104912857Y-102133809D01*
X107107142Y-102562380D02*
X106558571Y-102562380D01*
X106832857Y-102562380D02*
X106832857Y-101562380D01*
X106741428Y-101705238D01*
X106650000Y-101800476D01*
X106558571Y-101848095D01*
X107427142Y-101562380D02*
X108067142Y-101562380D01*
X107655714Y-102562380D01*
X109667142Y-102562380D02*
X109118571Y-102562380D01*
X109392857Y-102562380D02*
X109392857Y-101562380D01*
X109301428Y-101705238D01*
X109210000Y-101800476D01*
X109118571Y-101848095D01*
X110215714Y-101990952D02*
X110124285Y-101943333D01*
X110078571Y-101895714D01*
X110032857Y-101800476D01*
X110032857Y-101752857D01*
X110078571Y-101657619D01*
X110124285Y-101610000D01*
X110215714Y-101562380D01*
X110398571Y-101562380D01*
X110490000Y-101610000D01*
X110535714Y-101657619D01*
X110581428Y-101752857D01*
X110581428Y-101800476D01*
X110535714Y-101895714D01*
X110490000Y-101943333D01*
X110398571Y-101990952D01*
X110215714Y-101990952D01*
X110124285Y-102038571D01*
X110078571Y-102086190D01*
X110032857Y-102181428D01*
X110032857Y-102371904D01*
X110078571Y-102467142D01*
X110124285Y-102514761D01*
X110215714Y-102562380D01*
X110398571Y-102562380D01*
X110490000Y-102514761D01*
X110535714Y-102467142D01*
X110581428Y-102371904D01*
X110581428Y-102181428D01*
X110535714Y-102086190D01*
X110490000Y-102038571D01*
X110398571Y-101990952D01*
X112227142Y-102562380D02*
X111678571Y-102562380D01*
X111952857Y-102562380D02*
X111952857Y-101562380D01*
X111861428Y-101705238D01*
X111770000Y-101800476D01*
X111678571Y-101848095D01*
X112684285Y-102562380D02*
X112867142Y-102562380D01*
X112958571Y-102514761D01*
X113004285Y-102467142D01*
X113095714Y-102324285D01*
X113141428Y-102133809D01*
X113141428Y-101752857D01*
X113095714Y-101657619D01*
X113050000Y-101610000D01*
X112958571Y-101562380D01*
X112775714Y-101562380D01*
X112684285Y-101610000D01*
X112638571Y-101657619D01*
X112592857Y-101752857D01*
X112592857Y-101990952D01*
X112638571Y-102086190D01*
X112684285Y-102133809D01*
X112775714Y-102181428D01*
X112958571Y-102181428D01*
X113050000Y-102133809D01*
X113095714Y-102086190D01*
X113141428Y-101990952D01*
X114238571Y-101657619D02*
X114284285Y-101610000D01*
X114375714Y-101562380D01*
X114604285Y-101562380D01*
X114695714Y-101610000D01*
X114741428Y-101657619D01*
X114787142Y-101752857D01*
X114787142Y-101848095D01*
X114741428Y-101990952D01*
X114192857Y-102562380D01*
X114787142Y-102562380D01*
X115381428Y-101562380D02*
X115472857Y-101562380D01*
X115564285Y-101610000D01*
X115609999Y-101657619D01*
X115655714Y-101752857D01*
X115701428Y-101943333D01*
X115701428Y-102181428D01*
X115655714Y-102371904D01*
X115609999Y-102467142D01*
X115564285Y-102514761D01*
X115472857Y-102562380D01*
X115381428Y-102562380D01*
X115289999Y-102514761D01*
X115244285Y-102467142D01*
X115198571Y-102371904D01*
X115152857Y-102181428D01*
X115152857Y-101943333D01*
X115198571Y-101752857D01*
X115244285Y-101657619D01*
X115289999Y-101610000D01*
X115381428Y-101562380D01*
X66679999Y-102571428D02*
X66097142Y-102571428D01*
X66388571Y-102571428D02*
X66388571Y-101551428D01*
X66291428Y-101697142D01*
X66194285Y-101794285D01*
X66097142Y-101842857D01*
X68622857Y-101648571D02*
X68671428Y-101600000D01*
X68768571Y-101551428D01*
X69011428Y-101551428D01*
X69108571Y-101600000D01*
X69157142Y-101648571D01*
X69205714Y-101745714D01*
X69205714Y-101842857D01*
X69157142Y-101988571D01*
X68574285Y-102571428D01*
X69205714Y-102571428D01*
X71099999Y-101551428D02*
X71731428Y-101551428D01*
X71391428Y-101940000D01*
X71537142Y-101940000D01*
X71634285Y-101988571D01*
X71682857Y-102037142D01*
X71731428Y-102134285D01*
X71731428Y-102377142D01*
X71682857Y-102474285D01*
X71634285Y-102522857D01*
X71537142Y-102571428D01*
X71245714Y-102571428D01*
X71148571Y-102522857D01*
X71099999Y-102474285D01*
X74159999Y-101891428D02*
X74159999Y-102571428D01*
X73917142Y-101502857D02*
X73674285Y-102231428D01*
X74305714Y-102231428D01*
X76734285Y-101551428D02*
X76248571Y-101551428D01*
X76199999Y-102037142D01*
X76248571Y-101988571D01*
X76345714Y-101940000D01*
X76588571Y-101940000D01*
X76685714Y-101988571D01*
X76734285Y-102037142D01*
X76782857Y-102134285D01*
X76782857Y-102377142D01*
X76734285Y-102474285D01*
X76685714Y-102522857D01*
X76588571Y-102571428D01*
X76345714Y-102571428D01*
X76248571Y-102522857D01*
X76199999Y-102474285D01*
X79211428Y-101551428D02*
X79017142Y-101551428D01*
X78919999Y-101600000D01*
X78871428Y-101648571D01*
X78774285Y-101794285D01*
X78725714Y-101988571D01*
X78725714Y-102377142D01*
X78774285Y-102474285D01*
X78822857Y-102522857D01*
X78919999Y-102571428D01*
X79114285Y-102571428D01*
X79211428Y-102522857D01*
X79259999Y-102474285D01*
X79308571Y-102377142D01*
X79308571Y-102134285D01*
X79259999Y-102037142D01*
X79211428Y-101988571D01*
X79114285Y-101940000D01*
X78919999Y-101940000D01*
X78822857Y-101988571D01*
X78774285Y-102037142D01*
X78725714Y-102134285D01*
X81202857Y-101551428D02*
X81882857Y-101551428D01*
X81445714Y-102571428D01*
X83971428Y-101988571D02*
X83874285Y-101940000D01*
X83825714Y-101891428D01*
X83777142Y-101794285D01*
X83777142Y-101745714D01*
X83825714Y-101648571D01*
X83874285Y-101600000D01*
X83971428Y-101551428D01*
X84165714Y-101551428D01*
X84262857Y-101600000D01*
X84311428Y-101648571D01*
X84359999Y-101745714D01*
X84359999Y-101794285D01*
X84311428Y-101891428D01*
X84262857Y-101940000D01*
X84165714Y-101988571D01*
X83971428Y-101988571D01*
X83874285Y-102037142D01*
X83825714Y-102085714D01*
X83777142Y-102182857D01*
X83777142Y-102377142D01*
X83825714Y-102474285D01*
X83874285Y-102522857D01*
X83971428Y-102571428D01*
X84165714Y-102571428D01*
X84262857Y-102522857D01*
X84311428Y-102474285D01*
X84359999Y-102377142D01*
X84359999Y-102182857D01*
X84311428Y-102085714D01*
X84262857Y-102037142D01*
X84165714Y-101988571D01*
X86399999Y-102571428D02*
X86594285Y-102571428D01*
X86691428Y-102522857D01*
X86739999Y-102474285D01*
X86837142Y-102328571D01*
X86885714Y-102134285D01*
X86885714Y-101745714D01*
X86837142Y-101648571D01*
X86788571Y-101600000D01*
X86691428Y-101551428D01*
X86497142Y-101551428D01*
X86399999Y-101600000D01*
X86351428Y-101648571D01*
X86302857Y-101745714D01*
X86302857Y-101988571D01*
X86351428Y-102085714D01*
X86399999Y-102134285D01*
X86497142Y-102182857D01*
X86691428Y-102182857D01*
X86788571Y-102134285D01*
X86837142Y-102085714D01*
X86885714Y-101988571D01*
X89411428Y-102571428D02*
X88828571Y-102571428D01*
X89119999Y-102571428D02*
X89119999Y-101551428D01*
X89022857Y-101697142D01*
X88925714Y-101794285D01*
X88828571Y-101842857D01*
X90042857Y-101551428D02*
X90139999Y-101551428D01*
X90237142Y-101600000D01*
X90285714Y-101648571D01*
X90334285Y-101745714D01*
X90382857Y-101940000D01*
X90382857Y-102182857D01*
X90334285Y-102377142D01*
X90285714Y-102474285D01*
X90237142Y-102522857D01*
X90139999Y-102571428D01*
X90042857Y-102571428D01*
X89945714Y-102522857D01*
X89897142Y-102474285D01*
X89848571Y-102377142D01*
X89799999Y-102182857D01*
X89799999Y-101940000D01*
X89848571Y-101745714D01*
X89897142Y-101648571D01*
X89945714Y-101600000D01*
X90042857Y-101551428D01*
X141812857Y-116874285D02*
X142407142Y-116874285D01*
X142087142Y-117240000D01*
X142224285Y-117240000D01*
X142315714Y-117285714D01*
X142361428Y-117331428D01*
X142407142Y-117422857D01*
X142407142Y-117651428D01*
X142361428Y-117742857D01*
X142315714Y-117788571D01*
X142224285Y-117834285D01*
X141950000Y-117834285D01*
X141858571Y-117788571D01*
X141812857Y-117742857D01*
X143321428Y-117834285D02*
X142772857Y-117834285D01*
X143047142Y-117834285D02*
X143047142Y-116874285D01*
X142955714Y-117011428D01*
X142864285Y-117102857D01*
X142772857Y-117148571D01*
X144372857Y-116874285D02*
X144967142Y-116874285D01*
X144647142Y-117240000D01*
X144784285Y-117240000D01*
X144875714Y-117285714D01*
X144921428Y-117331428D01*
X144967142Y-117422857D01*
X144967142Y-117651428D01*
X144921428Y-117742857D01*
X144875714Y-117788571D01*
X144784285Y-117834285D01*
X144510000Y-117834285D01*
X144418571Y-117788571D01*
X144372857Y-117742857D01*
X145332857Y-116965714D02*
X145378571Y-116920000D01*
X145470000Y-116874285D01*
X145698571Y-116874285D01*
X145790000Y-116920000D01*
X145835714Y-116965714D01*
X145881428Y-117057142D01*
X145881428Y-117148571D01*
X145835714Y-117285714D01*
X145287142Y-117834285D01*
X145881428Y-117834285D01*
X146932857Y-116874285D02*
X147527142Y-116874285D01*
X147207142Y-117240000D01*
X147344285Y-117240000D01*
X147435714Y-117285714D01*
X147481428Y-117331428D01*
X147527142Y-117422857D01*
X147527142Y-117651428D01*
X147481428Y-117742857D01*
X147435714Y-117788571D01*
X147344285Y-117834285D01*
X147070000Y-117834285D01*
X146978571Y-117788571D01*
X146932857Y-117742857D01*
X147847142Y-116874285D02*
X148441428Y-116874285D01*
X148121428Y-117240000D01*
X148258571Y-117240000D01*
X148350000Y-117285714D01*
X148395714Y-117331428D01*
X148441428Y-117422857D01*
X148441428Y-117651428D01*
X148395714Y-117742857D01*
X148350000Y-117788571D01*
X148258571Y-117834285D01*
X147984285Y-117834285D01*
X147892857Y-117788571D01*
X147847142Y-117742857D01*
X149492857Y-116874285D02*
X150087142Y-116874285D01*
X149767142Y-117240000D01*
X149904285Y-117240000D01*
X149995714Y-117285714D01*
X150041428Y-117331428D01*
X150087142Y-117422857D01*
X150087142Y-117651428D01*
X150041428Y-117742857D01*
X149995714Y-117788571D01*
X149904285Y-117834285D01*
X149630000Y-117834285D01*
X149538571Y-117788571D01*
X149492857Y-117742857D01*
X150910000Y-117194285D02*
X150910000Y-117834285D01*
X150681428Y-116828571D02*
X150452857Y-117514285D01*
X151047142Y-117514285D01*
X152052857Y-116874285D02*
X152647142Y-116874285D01*
X152327142Y-117240000D01*
X152464285Y-117240000D01*
X152555714Y-117285714D01*
X152601428Y-117331428D01*
X152647142Y-117422857D01*
X152647142Y-117651428D01*
X152601428Y-117742857D01*
X152555714Y-117788571D01*
X152464285Y-117834285D01*
X152190000Y-117834285D01*
X152098571Y-117788571D01*
X152052857Y-117742857D01*
X153515714Y-116874285D02*
X153058571Y-116874285D01*
X153012857Y-117331428D01*
X153058571Y-117285714D01*
X153150000Y-117240000D01*
X153378571Y-117240000D01*
X153470000Y-117285714D01*
X153515714Y-117331428D01*
X153561428Y-117422857D01*
X153561428Y-117651428D01*
X153515714Y-117742857D01*
X153470000Y-117788571D01*
X153378571Y-117834285D01*
X153150000Y-117834285D01*
X153058571Y-117788571D01*
X153012857Y-117742857D01*
X154612857Y-116874285D02*
X155207142Y-116874285D01*
X154887142Y-117240000D01*
X155024285Y-117240000D01*
X155115714Y-117285714D01*
X155161428Y-117331428D01*
X155207142Y-117422857D01*
X155207142Y-117651428D01*
X155161428Y-117742857D01*
X155115714Y-117788571D01*
X155024285Y-117834285D01*
X154750000Y-117834285D01*
X154658571Y-117788571D01*
X154612857Y-117742857D01*
X156030000Y-116874285D02*
X155847142Y-116874285D01*
X155755714Y-116920000D01*
X155710000Y-116965714D01*
X155618571Y-117102857D01*
X155572857Y-117285714D01*
X155572857Y-117651428D01*
X155618571Y-117742857D01*
X155664285Y-117788571D01*
X155755714Y-117834285D01*
X155938571Y-117834285D01*
X156030000Y-117788571D01*
X156075714Y-117742857D01*
X156121428Y-117651428D01*
X156121428Y-117422857D01*
X156075714Y-117331428D01*
X156030000Y-117285714D01*
X155938571Y-117240000D01*
X155755714Y-117240000D01*
X155664285Y-117285714D01*
X155618571Y-117331428D01*
X155572857Y-117422857D01*
X116398571Y-116965714D02*
X116444285Y-116920000D01*
X116535714Y-116874285D01*
X116764285Y-116874285D01*
X116855714Y-116920000D01*
X116901428Y-116965714D01*
X116947142Y-117057142D01*
X116947142Y-117148571D01*
X116901428Y-117285714D01*
X116352857Y-117834285D01*
X116947142Y-117834285D01*
X117861428Y-117834285D02*
X117312857Y-117834285D01*
X117587142Y-117834285D02*
X117587142Y-116874285D01*
X117495714Y-117011428D01*
X117404285Y-117102857D01*
X117312857Y-117148571D01*
X118958571Y-116965714D02*
X119004285Y-116920000D01*
X119095714Y-116874285D01*
X119324285Y-116874285D01*
X119415714Y-116920000D01*
X119461428Y-116965714D01*
X119507142Y-117057142D01*
X119507142Y-117148571D01*
X119461428Y-117285714D01*
X118912857Y-117834285D01*
X119507142Y-117834285D01*
X119872857Y-116965714D02*
X119918571Y-116920000D01*
X120010000Y-116874285D01*
X120238571Y-116874285D01*
X120330000Y-116920000D01*
X120375714Y-116965714D01*
X120421428Y-117057142D01*
X120421428Y-117148571D01*
X120375714Y-117285714D01*
X119827142Y-117834285D01*
X120421428Y-117834285D01*
X121518571Y-116965714D02*
X121564285Y-116920000D01*
X121655714Y-116874285D01*
X121884285Y-116874285D01*
X121975714Y-116920000D01*
X122021428Y-116965714D01*
X122067142Y-117057142D01*
X122067142Y-117148571D01*
X122021428Y-117285714D01*
X121472857Y-117834285D01*
X122067142Y-117834285D01*
X122387142Y-116874285D02*
X122981428Y-116874285D01*
X122661428Y-117240000D01*
X122798571Y-117240000D01*
X122890000Y-117285714D01*
X122935714Y-117331428D01*
X122981428Y-117422857D01*
X122981428Y-117651428D01*
X122935714Y-117742857D01*
X122890000Y-117788571D01*
X122798571Y-117834285D01*
X122524285Y-117834285D01*
X122432857Y-117788571D01*
X122387142Y-117742857D01*
X124078571Y-116965714D02*
X124124285Y-116920000D01*
X124215714Y-116874285D01*
X124444285Y-116874285D01*
X124535714Y-116920000D01*
X124581428Y-116965714D01*
X124627142Y-117057142D01*
X124627142Y-117148571D01*
X124581428Y-117285714D01*
X124032857Y-117834285D01*
X124627142Y-117834285D01*
X125450000Y-117194285D02*
X125450000Y-117834285D01*
X125221428Y-116828571D02*
X124992857Y-117514285D01*
X125587142Y-117514285D01*
X126638571Y-116965714D02*
X126684285Y-116920000D01*
X126775714Y-116874285D01*
X127004285Y-116874285D01*
X127095714Y-116920000D01*
X127141428Y-116965714D01*
X127187142Y-117057142D01*
X127187142Y-117148571D01*
X127141428Y-117285714D01*
X126592857Y-117834285D01*
X127187142Y-117834285D01*
X128055714Y-116874285D02*
X127598571Y-116874285D01*
X127552857Y-117331428D01*
X127598571Y-117285714D01*
X127690000Y-117240000D01*
X127918571Y-117240000D01*
X128010000Y-117285714D01*
X128055714Y-117331428D01*
X128101428Y-117422857D01*
X128101428Y-117651428D01*
X128055714Y-117742857D01*
X128010000Y-117788571D01*
X127918571Y-117834285D01*
X127690000Y-117834285D01*
X127598571Y-117788571D01*
X127552857Y-117742857D01*
X129198571Y-116965714D02*
X129244285Y-116920000D01*
X129335714Y-116874285D01*
X129564285Y-116874285D01*
X129655714Y-116920000D01*
X129701428Y-116965714D01*
X129747142Y-117057142D01*
X129747142Y-117148571D01*
X129701428Y-117285714D01*
X129152857Y-117834285D01*
X129747142Y-117834285D01*
X130570000Y-116874285D02*
X130387142Y-116874285D01*
X130295714Y-116920000D01*
X130250000Y-116965714D01*
X130158571Y-117102857D01*
X130112857Y-117285714D01*
X130112857Y-117651428D01*
X130158571Y-117742857D01*
X130204285Y-117788571D01*
X130295714Y-117834285D01*
X130478571Y-117834285D01*
X130570000Y-117788571D01*
X130615714Y-117742857D01*
X130661428Y-117651428D01*
X130661428Y-117422857D01*
X130615714Y-117331428D01*
X130570000Y-117285714D01*
X130478571Y-117240000D01*
X130295714Y-117240000D01*
X130204285Y-117285714D01*
X130158571Y-117331428D01*
X130112857Y-117422857D01*
X131758571Y-116965714D02*
X131804285Y-116920000D01*
X131895714Y-116874285D01*
X132124285Y-116874285D01*
X132215714Y-116920000D01*
X132261428Y-116965714D01*
X132307142Y-117057142D01*
X132307142Y-117148571D01*
X132261428Y-117285714D01*
X131712857Y-117834285D01*
X132307142Y-117834285D01*
X132627142Y-116874285D02*
X133267142Y-116874285D01*
X132855714Y-117834285D01*
X134318571Y-116965714D02*
X134364285Y-116920000D01*
X134455714Y-116874285D01*
X134684285Y-116874285D01*
X134775714Y-116920000D01*
X134821428Y-116965714D01*
X134867142Y-117057142D01*
X134867142Y-117148571D01*
X134821428Y-117285714D01*
X134272857Y-117834285D01*
X134867142Y-117834285D01*
X135415714Y-117285714D02*
X135324285Y-117240000D01*
X135278571Y-117194285D01*
X135232857Y-117102857D01*
X135232857Y-117057142D01*
X135278571Y-116965714D01*
X135324285Y-116920000D01*
X135415714Y-116874285D01*
X135598571Y-116874285D01*
X135690000Y-116920000D01*
X135735714Y-116965714D01*
X135781428Y-117057142D01*
X135781428Y-117102857D01*
X135735714Y-117194285D01*
X135690000Y-117240000D01*
X135598571Y-117285714D01*
X135415714Y-117285714D01*
X135324285Y-117331428D01*
X135278571Y-117377142D01*
X135232857Y-117468571D01*
X135232857Y-117651428D01*
X135278571Y-117742857D01*
X135324285Y-117788571D01*
X135415714Y-117834285D01*
X135598571Y-117834285D01*
X135690000Y-117788571D01*
X135735714Y-117742857D01*
X135781428Y-117651428D01*
X135781428Y-117468571D01*
X135735714Y-117377142D01*
X135690000Y-117331428D01*
X135598571Y-117285714D01*
X136878571Y-116965714D02*
X136924285Y-116920000D01*
X137015714Y-116874285D01*
X137244285Y-116874285D01*
X137335714Y-116920000D01*
X137381428Y-116965714D01*
X137427142Y-117057142D01*
X137427142Y-117148571D01*
X137381428Y-117285714D01*
X136832857Y-117834285D01*
X137427142Y-117834285D01*
X137884285Y-117834285D02*
X138067142Y-117834285D01*
X138158571Y-117788571D01*
X138204285Y-117742857D01*
X138295714Y-117605714D01*
X138341428Y-117422857D01*
X138341428Y-117057142D01*
X138295714Y-116965714D01*
X138250000Y-116920000D01*
X138158571Y-116874285D01*
X137975714Y-116874285D01*
X137884285Y-116920000D01*
X137838571Y-116965714D01*
X137792857Y-117057142D01*
X137792857Y-117285714D01*
X137838571Y-117377142D01*
X137884285Y-117422857D01*
X137975714Y-117468571D01*
X138158571Y-117468571D01*
X138250000Y-117422857D01*
X138295714Y-117377142D01*
X138341428Y-117285714D01*
X139392857Y-116874285D02*
X139987142Y-116874285D01*
X139667142Y-117240000D01*
X139804285Y-117240000D01*
X139895714Y-117285714D01*
X139941428Y-117331428D01*
X139987142Y-117422857D01*
X139987142Y-117651428D01*
X139941428Y-117742857D01*
X139895714Y-117788571D01*
X139804285Y-117834285D01*
X139530000Y-117834285D01*
X139438571Y-117788571D01*
X139392857Y-117742857D01*
X140581428Y-116874285D02*
X140672857Y-116874285D01*
X140764285Y-116920000D01*
X140810000Y-116965714D01*
X140855714Y-117057142D01*
X140901428Y-117240000D01*
X140901428Y-117468571D01*
X140855714Y-117651428D01*
X140810000Y-117742857D01*
X140764285Y-117788571D01*
X140672857Y-117834285D01*
X140581428Y-117834285D01*
X140490000Y-117788571D01*
X140444285Y-117742857D01*
X140398571Y-117651428D01*
X140352857Y-117468571D01*
X140352857Y-117240000D01*
X140398571Y-117057142D01*
X140444285Y-116965714D01*
X140490000Y-116920000D01*
X140581428Y-116874285D01*
X91657142Y-117852380D02*
X91108571Y-117852380D01*
X91382857Y-117852380D02*
X91382857Y-116852380D01*
X91291428Y-116995238D01*
X91200000Y-117090476D01*
X91108571Y-117138095D01*
X92571428Y-117852380D02*
X92022857Y-117852380D01*
X92297142Y-117852380D02*
X92297142Y-116852380D01*
X92205714Y-116995238D01*
X92114285Y-117090476D01*
X92022857Y-117138095D01*
X94217142Y-117852380D02*
X93668571Y-117852380D01*
X93942857Y-117852380D02*
X93942857Y-116852380D01*
X93851428Y-116995238D01*
X93760000Y-117090476D01*
X93668571Y-117138095D01*
X94582857Y-116947619D02*
X94628571Y-116900000D01*
X94720000Y-116852380D01*
X94948571Y-116852380D01*
X95040000Y-116900000D01*
X95085714Y-116947619D01*
X95131428Y-117042857D01*
X95131428Y-117138095D01*
X95085714Y-117280952D01*
X94537142Y-117852380D01*
X95131428Y-117852380D01*
X96777142Y-117852380D02*
X96228571Y-117852380D01*
X96502857Y-117852380D02*
X96502857Y-116852380D01*
X96411428Y-116995238D01*
X96320000Y-117090476D01*
X96228571Y-117138095D01*
X97097142Y-116852380D02*
X97691428Y-116852380D01*
X97371428Y-117233333D01*
X97508571Y-117233333D01*
X97600000Y-117280952D01*
X97645714Y-117328571D01*
X97691428Y-117423809D01*
X97691428Y-117661904D01*
X97645714Y-117757142D01*
X97600000Y-117804761D01*
X97508571Y-117852380D01*
X97234285Y-117852380D01*
X97142857Y-117804761D01*
X97097142Y-117757142D01*
X99337142Y-117852380D02*
X98788571Y-117852380D01*
X99062857Y-117852380D02*
X99062857Y-116852380D01*
X98971428Y-116995238D01*
X98880000Y-117090476D01*
X98788571Y-117138095D01*
X100160000Y-117185714D02*
X100160000Y-117852380D01*
X99931428Y-116804761D02*
X99702857Y-117519047D01*
X100297142Y-117519047D01*
X101897142Y-117852380D02*
X101348571Y-117852380D01*
X101622857Y-117852380D02*
X101622857Y-116852380D01*
X101531428Y-116995238D01*
X101440000Y-117090476D01*
X101348571Y-117138095D01*
X102765714Y-116852380D02*
X102308571Y-116852380D01*
X102262857Y-117328571D01*
X102308571Y-117280952D01*
X102400000Y-117233333D01*
X102628571Y-117233333D01*
X102720000Y-117280952D01*
X102765714Y-117328571D01*
X102811428Y-117423809D01*
X102811428Y-117661904D01*
X102765714Y-117757142D01*
X102720000Y-117804761D01*
X102628571Y-117852380D01*
X102400000Y-117852380D01*
X102308571Y-117804761D01*
X102262857Y-117757142D01*
X104457142Y-117852380D02*
X103908571Y-117852380D01*
X104182857Y-117852380D02*
X104182857Y-116852380D01*
X104091428Y-116995238D01*
X104000000Y-117090476D01*
X103908571Y-117138095D01*
X105280000Y-116852380D02*
X105097142Y-116852380D01*
X105005714Y-116900000D01*
X104960000Y-116947619D01*
X104868571Y-117090476D01*
X104822857Y-117280952D01*
X104822857Y-117661904D01*
X104868571Y-117757142D01*
X104914285Y-117804761D01*
X105005714Y-117852380D01*
X105188571Y-117852380D01*
X105280000Y-117804761D01*
X105325714Y-117757142D01*
X105371428Y-117661904D01*
X105371428Y-117423809D01*
X105325714Y-117328571D01*
X105280000Y-117280952D01*
X105188571Y-117233333D01*
X105005714Y-117233333D01*
X104914285Y-117280952D01*
X104868571Y-117328571D01*
X104822857Y-117423809D01*
X107017142Y-117852380D02*
X106468571Y-117852380D01*
X106742857Y-117852380D02*
X106742857Y-116852380D01*
X106651428Y-116995238D01*
X106560000Y-117090476D01*
X106468571Y-117138095D01*
X107337142Y-116852380D02*
X107977142Y-116852380D01*
X107565714Y-117852380D01*
X109577142Y-117852380D02*
X109028571Y-117852380D01*
X109302857Y-117852380D02*
X109302857Y-116852380D01*
X109211428Y-116995238D01*
X109120000Y-117090476D01*
X109028571Y-117138095D01*
X110125714Y-117280952D02*
X110034285Y-117233333D01*
X109988571Y-117185714D01*
X109942857Y-117090476D01*
X109942857Y-117042857D01*
X109988571Y-116947619D01*
X110034285Y-116900000D01*
X110125714Y-116852380D01*
X110308571Y-116852380D01*
X110400000Y-116900000D01*
X110445714Y-116947619D01*
X110491428Y-117042857D01*
X110491428Y-117090476D01*
X110445714Y-117185714D01*
X110400000Y-117233333D01*
X110308571Y-117280952D01*
X110125714Y-117280952D01*
X110034285Y-117328571D01*
X109988571Y-117376190D01*
X109942857Y-117471428D01*
X109942857Y-117661904D01*
X109988571Y-117757142D01*
X110034285Y-117804761D01*
X110125714Y-117852380D01*
X110308571Y-117852380D01*
X110400000Y-117804761D01*
X110445714Y-117757142D01*
X110491428Y-117661904D01*
X110491428Y-117471428D01*
X110445714Y-117376190D01*
X110400000Y-117328571D01*
X110308571Y-117280952D01*
X112137142Y-117852380D02*
X111588571Y-117852380D01*
X111862857Y-117852380D02*
X111862857Y-116852380D01*
X111771428Y-116995238D01*
X111680000Y-117090476D01*
X111588571Y-117138095D01*
X112594285Y-117852380D02*
X112777142Y-117852380D01*
X112868571Y-117804761D01*
X112914285Y-117757142D01*
X113005714Y-117614285D01*
X113051428Y-117423809D01*
X113051428Y-117042857D01*
X113005714Y-116947619D01*
X112960000Y-116900000D01*
X112868571Y-116852380D01*
X112685714Y-116852380D01*
X112594285Y-116900000D01*
X112548571Y-116947619D01*
X112502857Y-117042857D01*
X112502857Y-117280952D01*
X112548571Y-117376190D01*
X112594285Y-117423809D01*
X112685714Y-117471428D01*
X112868571Y-117471428D01*
X112960000Y-117423809D01*
X113005714Y-117376190D01*
X113051428Y-117280952D01*
X114148571Y-116947619D02*
X114194285Y-116900000D01*
X114285714Y-116852380D01*
X114514285Y-116852380D01*
X114605714Y-116900000D01*
X114651428Y-116947619D01*
X114697142Y-117042857D01*
X114697142Y-117138095D01*
X114651428Y-117280952D01*
X114102857Y-117852380D01*
X114697142Y-117852380D01*
X115291428Y-116852380D02*
X115382857Y-116852380D01*
X115474285Y-116900000D01*
X115519999Y-116947619D01*
X115565714Y-117042857D01*
X115611428Y-117233333D01*
X115611428Y-117471428D01*
X115565714Y-117661904D01*
X115519999Y-117757142D01*
X115474285Y-117804761D01*
X115382857Y-117852380D01*
X115291428Y-117852380D01*
X115199999Y-117804761D01*
X115154285Y-117757142D01*
X115108571Y-117661904D01*
X115062857Y-117471428D01*
X115062857Y-117233333D01*
X115108571Y-117042857D01*
X115154285Y-116947619D01*
X115199999Y-116900000D01*
X115291428Y-116852380D01*
X66589999Y-117861428D02*
X66007142Y-117861428D01*
X66298571Y-117861428D02*
X66298571Y-116841428D01*
X66201428Y-116987142D01*
X66104285Y-117084285D01*
X66007142Y-117132857D01*
X68532857Y-116938571D02*
X68581428Y-116890000D01*
X68678571Y-116841428D01*
X68921428Y-116841428D01*
X69018571Y-116890000D01*
X69067142Y-116938571D01*
X69115714Y-117035714D01*
X69115714Y-117132857D01*
X69067142Y-117278571D01*
X68484285Y-117861428D01*
X69115714Y-117861428D01*
X71009999Y-116841428D02*
X71641428Y-116841428D01*
X71301428Y-117230000D01*
X71447142Y-117230000D01*
X71544285Y-117278571D01*
X71592857Y-117327142D01*
X71641428Y-117424285D01*
X71641428Y-117667142D01*
X71592857Y-117764285D01*
X71544285Y-117812857D01*
X71447142Y-117861428D01*
X71155714Y-117861428D01*
X71058571Y-117812857D01*
X71009999Y-117764285D01*
X74069999Y-117181428D02*
X74069999Y-117861428D01*
X73827142Y-116792857D02*
X73584285Y-117521428D01*
X74215714Y-117521428D01*
X76644285Y-116841428D02*
X76158571Y-116841428D01*
X76109999Y-117327142D01*
X76158571Y-117278571D01*
X76255714Y-117230000D01*
X76498571Y-117230000D01*
X76595714Y-117278571D01*
X76644285Y-117327142D01*
X76692857Y-117424285D01*
X76692857Y-117667142D01*
X76644285Y-117764285D01*
X76595714Y-117812857D01*
X76498571Y-117861428D01*
X76255714Y-117861428D01*
X76158571Y-117812857D01*
X76109999Y-117764285D01*
X79121428Y-116841428D02*
X78927142Y-116841428D01*
X78829999Y-116890000D01*
X78781428Y-116938571D01*
X78684285Y-117084285D01*
X78635714Y-117278571D01*
X78635714Y-117667142D01*
X78684285Y-117764285D01*
X78732857Y-117812857D01*
X78829999Y-117861428D01*
X79024285Y-117861428D01*
X79121428Y-117812857D01*
X79169999Y-117764285D01*
X79218571Y-117667142D01*
X79218571Y-117424285D01*
X79169999Y-117327142D01*
X79121428Y-117278571D01*
X79024285Y-117230000D01*
X78829999Y-117230000D01*
X78732857Y-117278571D01*
X78684285Y-117327142D01*
X78635714Y-117424285D01*
X81112857Y-116841428D02*
X81792857Y-116841428D01*
X81355714Y-117861428D01*
X83881428Y-117278571D02*
X83784285Y-117230000D01*
X83735714Y-117181428D01*
X83687142Y-117084285D01*
X83687142Y-117035714D01*
X83735714Y-116938571D01*
X83784285Y-116890000D01*
X83881428Y-116841428D01*
X84075714Y-116841428D01*
X84172857Y-116890000D01*
X84221428Y-116938571D01*
X84269999Y-117035714D01*
X84269999Y-117084285D01*
X84221428Y-117181428D01*
X84172857Y-117230000D01*
X84075714Y-117278571D01*
X83881428Y-117278571D01*
X83784285Y-117327142D01*
X83735714Y-117375714D01*
X83687142Y-117472857D01*
X83687142Y-117667142D01*
X83735714Y-117764285D01*
X83784285Y-117812857D01*
X83881428Y-117861428D01*
X84075714Y-117861428D01*
X84172857Y-117812857D01*
X84221428Y-117764285D01*
X84269999Y-117667142D01*
X84269999Y-117472857D01*
X84221428Y-117375714D01*
X84172857Y-117327142D01*
X84075714Y-117278571D01*
X86309999Y-117861428D02*
X86504285Y-117861428D01*
X86601428Y-117812857D01*
X86649999Y-117764285D01*
X86747142Y-117618571D01*
X86795714Y-117424285D01*
X86795714Y-117035714D01*
X86747142Y-116938571D01*
X86698571Y-116890000D01*
X86601428Y-116841428D01*
X86407142Y-116841428D01*
X86309999Y-116890000D01*
X86261428Y-116938571D01*
X86212857Y-117035714D01*
X86212857Y-117278571D01*
X86261428Y-117375714D01*
X86309999Y-117424285D01*
X86407142Y-117472857D01*
X86601428Y-117472857D01*
X86698571Y-117424285D01*
X86747142Y-117375714D01*
X86795714Y-117278571D01*
X89321428Y-117861428D02*
X88738571Y-117861428D01*
X89029999Y-117861428D02*
X89029999Y-116841428D01*
X88932857Y-116987142D01*
X88835714Y-117084285D01*
X88738571Y-117132857D01*
X89952857Y-116841428D02*
X90049999Y-116841428D01*
X90147142Y-116890000D01*
X90195714Y-116938571D01*
X90244285Y-117035714D01*
X90292857Y-117230000D01*
X90292857Y-117472857D01*
X90244285Y-117667142D01*
X90195714Y-117764285D01*
X90147142Y-117812857D01*
X90049999Y-117861428D01*
X89952857Y-117861428D01*
X89855714Y-117812857D01*
X89807142Y-117764285D01*
X89758571Y-117667142D01*
X89709999Y-117472857D01*
X89709999Y-117230000D01*
X89758571Y-117035714D01*
X89807142Y-116938571D01*
X89855714Y-116890000D01*
X89952857Y-116841428D01*
D14*
X158644285Y-89202857D02*
X158144285Y-89202857D01*
X158144285Y-89988571D02*
X158144285Y-88488571D01*
X158858571Y-88488571D01*
X158822857Y-91110000D02*
X158680000Y-91038571D01*
X158465714Y-91038571D01*
X158251428Y-91110000D01*
X158108571Y-91252857D01*
X158037142Y-91395714D01*
X157965714Y-91681428D01*
X157965714Y-91895714D01*
X158037142Y-92181428D01*
X158108571Y-92324285D01*
X158251428Y-92467142D01*
X158465714Y-92538571D01*
X158608571Y-92538571D01*
X158822857Y-92467142D01*
X158894285Y-92395714D01*
X158894285Y-91895714D01*
X158608571Y-91895714D01*
X158001428Y-95088571D02*
X158001428Y-93588571D01*
X158001428Y-94302857D02*
X158858571Y-94302857D01*
X158858571Y-95088571D02*
X158858571Y-93588571D01*
X158430000Y-97638571D02*
X158430000Y-96138571D01*
X158644285Y-98688571D02*
X158644285Y-99760000D01*
X158572857Y-99974285D01*
X158430000Y-100117142D01*
X158215714Y-100188571D01*
X158072857Y-100188571D01*
X158197142Y-120828571D02*
X158197142Y-119328571D01*
X158768571Y-119328571D01*
X158911428Y-119400000D01*
X158982857Y-119471428D01*
X159054285Y-119614285D01*
X159054285Y-119828571D01*
X158982857Y-119971428D01*
X158911428Y-120042857D01*
X158768571Y-120114285D01*
X158197142Y-120114285D01*
X159161428Y-123521428D02*
X159018571Y-123450000D01*
X158875714Y-123307142D01*
X158661428Y-123092857D01*
X158518571Y-123021428D01*
X158375714Y-123021428D01*
X158447142Y-123378571D02*
X158304285Y-123307142D01*
X158161428Y-123164285D01*
X158090000Y-122878571D01*
X158090000Y-122378571D01*
X158161428Y-122092857D01*
X158304285Y-121950000D01*
X158447142Y-121878571D01*
X158732857Y-121878571D01*
X158875714Y-121950000D01*
X159018571Y-122092857D01*
X159090000Y-122378571D01*
X159090000Y-122878571D01*
X159018571Y-123164285D01*
X158875714Y-123307142D01*
X158732857Y-123378571D01*
X158447142Y-123378571D01*
X159054285Y-125928571D02*
X158554285Y-125214285D01*
X158197142Y-125928571D02*
X158197142Y-124428571D01*
X158768571Y-124428571D01*
X158911428Y-124500000D01*
X158982857Y-124571428D01*
X159054285Y-124714285D01*
X159054285Y-124928571D01*
X158982857Y-125071428D01*
X158911428Y-125142857D01*
X158768571Y-125214285D01*
X158197142Y-125214285D01*
X158161428Y-128407142D02*
X158375714Y-128478571D01*
X158732857Y-128478571D01*
X158875714Y-128407142D01*
X158947142Y-128335714D01*
X159018571Y-128192857D01*
X159018571Y-128050000D01*
X158947142Y-127907142D01*
X158875714Y-127835714D01*
X158732857Y-127764285D01*
X158447142Y-127692857D01*
X158304285Y-127621428D01*
X158232857Y-127550000D01*
X158161428Y-127407142D01*
X158161428Y-127264285D01*
X158232857Y-127121428D01*
X158304285Y-127050000D01*
X158447142Y-126978571D01*
X158804285Y-126978571D01*
X159018571Y-127050000D01*
X158161428Y-129528571D02*
X159018571Y-129528571D01*
X158590000Y-131028571D02*
X158590000Y-129528571D01*
X158117142Y-105228571D02*
X158117142Y-103728571D01*
X158974285Y-105228571D02*
X158331428Y-104371428D01*
X158974285Y-103728571D02*
X158117142Y-104585714D01*
X158974285Y-107778571D02*
X158260000Y-107778571D01*
X158260000Y-106278571D01*
X158010000Y-110328571D02*
X158010000Y-108828571D01*
X158510000Y-109900000D01*
X159010000Y-108828571D01*
X159010000Y-110328571D01*
X158081428Y-112878571D02*
X158081428Y-111378571D01*
X158938571Y-112878571D01*
X158938571Y-111378571D01*
X158367142Y-113928571D02*
X158652857Y-113928571D01*
X158795714Y-114000000D01*
X158938571Y-114142857D01*
X159010000Y-114428571D01*
X159010000Y-114928571D01*
X158938571Y-115214285D01*
X158795714Y-115357142D01*
X158652857Y-115428571D01*
X158367142Y-115428571D01*
X158224285Y-115357142D01*
X158081428Y-115214285D01*
X158010000Y-114928571D01*
X158010000Y-114428571D01*
X158081428Y-114142857D01*
X158224285Y-114000000D01*
X158367142Y-113928571D01*
X158072857Y-74130000D02*
X158787142Y-74130000D01*
X157930000Y-74558571D02*
X158430000Y-73058571D01*
X158930000Y-74558571D01*
X158537142Y-76322857D02*
X158751428Y-76394285D01*
X158822857Y-76465714D01*
X158894285Y-76608571D01*
X158894285Y-76822857D01*
X158822857Y-76965714D01*
X158751428Y-77037142D01*
X158608571Y-77108571D01*
X158037142Y-77108571D01*
X158037142Y-75608571D01*
X158537142Y-75608571D01*
X158680000Y-75680000D01*
X158751428Y-75751428D01*
X158822857Y-75894285D01*
X158822857Y-76037142D01*
X158751428Y-76180000D01*
X158680000Y-76251428D01*
X158537142Y-76322857D01*
X158037142Y-76322857D01*
X158894285Y-79515714D02*
X158822857Y-79587142D01*
X158608571Y-79658571D01*
X158465714Y-79658571D01*
X158251428Y-79587142D01*
X158108571Y-79444285D01*
X158037142Y-79301428D01*
X157965714Y-79015714D01*
X157965714Y-78801428D01*
X158037142Y-78515714D01*
X158108571Y-78372857D01*
X158251428Y-78230000D01*
X158465714Y-78158571D01*
X158608571Y-78158571D01*
X158822857Y-78230000D01*
X158894285Y-78301428D01*
X158037142Y-82208571D02*
X158037142Y-80708571D01*
X158394285Y-80708571D01*
X158608571Y-80780000D01*
X158751428Y-80922857D01*
X158822857Y-81065714D01*
X158894285Y-81351428D01*
X158894285Y-81565714D01*
X158822857Y-81851428D01*
X158751428Y-81994285D01*
X158608571Y-82137142D01*
X158394285Y-82208571D01*
X158037142Y-82208571D01*
X158108571Y-83972857D02*
X158608571Y-83972857D01*
X158822857Y-84758571D02*
X158108571Y-84758571D01*
X158108571Y-83258571D01*
X158822857Y-83258571D01*
X63477142Y-120918571D02*
X63477142Y-119418571D01*
X64048571Y-119418571D01*
X64191428Y-119490000D01*
X64262857Y-119561428D01*
X64334285Y-119704285D01*
X64334285Y-119918571D01*
X64262857Y-120061428D01*
X64191428Y-120132857D01*
X64048571Y-120204285D01*
X63477142Y-120204285D01*
X64441428Y-123611428D02*
X64298571Y-123540000D01*
X64155714Y-123397142D01*
X63941428Y-123182857D01*
X63798571Y-123111428D01*
X63655714Y-123111428D01*
X63727142Y-123468571D02*
X63584285Y-123397142D01*
X63441428Y-123254285D01*
X63370000Y-122968571D01*
X63370000Y-122468571D01*
X63441428Y-122182857D01*
X63584285Y-122040000D01*
X63727142Y-121968571D01*
X64012857Y-121968571D01*
X64155714Y-122040000D01*
X64298571Y-122182857D01*
X64370000Y-122468571D01*
X64370000Y-122968571D01*
X64298571Y-123254285D01*
X64155714Y-123397142D01*
X64012857Y-123468571D01*
X63727142Y-123468571D01*
X64334285Y-126018571D02*
X63834285Y-125304285D01*
X63477142Y-126018571D02*
X63477142Y-124518571D01*
X64048571Y-124518571D01*
X64191428Y-124590000D01*
X64262857Y-124661428D01*
X64334285Y-124804285D01*
X64334285Y-125018571D01*
X64262857Y-125161428D01*
X64191428Y-125232857D01*
X64048571Y-125304285D01*
X63477142Y-125304285D01*
X63441428Y-128497142D02*
X63655714Y-128568571D01*
X64012857Y-128568571D01*
X64155714Y-128497142D01*
X64227142Y-128425714D01*
X64298571Y-128282857D01*
X64298571Y-128140000D01*
X64227142Y-127997142D01*
X64155714Y-127925714D01*
X64012857Y-127854285D01*
X63727142Y-127782857D01*
X63584285Y-127711428D01*
X63512857Y-127640000D01*
X63441428Y-127497142D01*
X63441428Y-127354285D01*
X63512857Y-127211428D01*
X63584285Y-127140000D01*
X63727142Y-127068571D01*
X64084285Y-127068571D01*
X64298571Y-127140000D01*
X63441428Y-129618571D02*
X64298571Y-129618571D01*
X63870000Y-131118571D02*
X63870000Y-129618571D01*
X63397142Y-105318571D02*
X63397142Y-103818571D01*
X64254285Y-105318571D02*
X63611428Y-104461428D01*
X64254285Y-103818571D02*
X63397142Y-104675714D01*
X64254285Y-107868571D02*
X63540000Y-107868571D01*
X63540000Y-106368571D01*
X63290000Y-110418571D02*
X63290000Y-108918571D01*
X63790000Y-109990000D01*
X64290000Y-108918571D01*
X64290000Y-110418571D01*
X63361428Y-112968571D02*
X63361428Y-111468571D01*
X64218571Y-112968571D01*
X64218571Y-111468571D01*
X63647142Y-114018571D02*
X63932857Y-114018571D01*
X64075714Y-114090000D01*
X64218571Y-114232857D01*
X64290000Y-114518571D01*
X64290000Y-115018571D01*
X64218571Y-115304285D01*
X64075714Y-115447142D01*
X63932857Y-115518571D01*
X63647142Y-115518571D01*
X63504285Y-115447142D01*
X63361428Y-115304285D01*
X63290000Y-115018571D01*
X63290000Y-114518571D01*
X63361428Y-114232857D01*
X63504285Y-114090000D01*
X63647142Y-114018571D01*
X63924285Y-89292857D02*
X63424285Y-89292857D01*
X63424285Y-90078571D02*
X63424285Y-88578571D01*
X64138571Y-88578571D01*
X64102857Y-91200000D02*
X63960000Y-91128571D01*
X63745714Y-91128571D01*
X63531428Y-91200000D01*
X63388571Y-91342857D01*
X63317142Y-91485714D01*
X63245714Y-91771428D01*
X63245714Y-91985714D01*
X63317142Y-92271428D01*
X63388571Y-92414285D01*
X63531428Y-92557142D01*
X63745714Y-92628571D01*
X63888571Y-92628571D01*
X64102857Y-92557142D01*
X64174285Y-92485714D01*
X64174285Y-91985714D01*
X63888571Y-91985714D01*
X63281428Y-95178571D02*
X63281428Y-93678571D01*
X63281428Y-94392857D02*
X64138571Y-94392857D01*
X64138571Y-95178571D02*
X64138571Y-93678571D01*
X63710000Y-97728571D02*
X63710000Y-96228571D01*
X63924285Y-98778571D02*
X63924285Y-99850000D01*
X63852857Y-100064285D01*
X63710000Y-100207142D01*
X63495714Y-100278571D01*
X63352857Y-100278571D01*
X63352857Y-74220000D02*
X64067142Y-74220000D01*
X63210000Y-74648571D02*
X63710000Y-73148571D01*
X64210000Y-74648571D01*
X63817142Y-76412857D02*
X64031428Y-76484285D01*
X64102857Y-76555714D01*
X64174285Y-76698571D01*
X64174285Y-76912857D01*
X64102857Y-77055714D01*
X64031428Y-77127142D01*
X63888571Y-77198571D01*
X63317142Y-77198571D01*
X63317142Y-75698571D01*
X63817142Y-75698571D01*
X63960000Y-75770000D01*
X64031428Y-75841428D01*
X64102857Y-75984285D01*
X64102857Y-76127142D01*
X64031428Y-76270000D01*
X63960000Y-76341428D01*
X63817142Y-76412857D01*
X63317142Y-76412857D01*
X64174285Y-79605714D02*
X64102857Y-79677142D01*
X63888571Y-79748571D01*
X63745714Y-79748571D01*
X63531428Y-79677142D01*
X63388571Y-79534285D01*
X63317142Y-79391428D01*
X63245714Y-79105714D01*
X63245714Y-78891428D01*
X63317142Y-78605714D01*
X63388571Y-78462857D01*
X63531428Y-78320000D01*
X63745714Y-78248571D01*
X63888571Y-78248571D01*
X64102857Y-78320000D01*
X64174285Y-78391428D01*
X63317142Y-82298571D02*
X63317142Y-80798571D01*
X63674285Y-80798571D01*
X63888571Y-80870000D01*
X64031428Y-81012857D01*
X64102857Y-81155714D01*
X64174285Y-81441428D01*
X64174285Y-81655714D01*
X64102857Y-81941428D01*
X64031428Y-82084285D01*
X63888571Y-82227142D01*
X63674285Y-82298571D01*
X63317142Y-82298571D01*
X63388571Y-84062857D02*
X63888571Y-84062857D01*
X64102857Y-84848571D02*
X63388571Y-84848571D01*
X63388571Y-83348571D01*
X64102857Y-83348571D01*
D13*
X87324761Y-65632380D02*
X87372380Y-65489523D01*
X87372380Y-65251428D01*
X87324761Y-65156190D01*
X87277142Y-65108571D01*
X87181904Y-65060952D01*
X87086666Y-65060952D01*
X86991428Y-65108571D01*
X86943809Y-65156190D01*
X86896190Y-65251428D01*
X86848571Y-65441904D01*
X86800952Y-65537142D01*
X86753333Y-65584761D01*
X86658095Y-65632380D01*
X86562857Y-65632380D01*
X86467619Y-65584761D01*
X86420000Y-65537142D01*
X86372380Y-65441904D01*
X86372380Y-65203809D01*
X86420000Y-65060952D01*
X87372380Y-64632380D02*
X86372380Y-64632380D01*
X87372380Y-64060952D01*
X86372380Y-64060952D01*
X87372380Y-63584761D02*
X86372380Y-63584761D01*
X86372380Y-63346666D01*
X86420000Y-63203809D01*
X86515238Y-63108571D01*
X86610476Y-63060952D01*
X86800952Y-63013333D01*
X86943809Y-63013333D01*
X87134285Y-63060952D01*
X87229523Y-63108571D01*
X87324761Y-63203809D01*
X87372380Y-63346666D01*
X87372380Y-63584761D01*
X87372380Y-61822857D02*
X86372380Y-61822857D01*
X87372380Y-61346666D02*
X86372380Y-61346666D01*
X87372380Y-60775238D01*
X86372380Y-60775238D01*
X89892380Y-65568095D02*
X88892380Y-65568095D01*
X88892380Y-65330000D01*
X88940000Y-65187142D01*
X89035238Y-65091904D01*
X89130476Y-65044285D01*
X89320952Y-64996666D01*
X89463809Y-64996666D01*
X89654285Y-65044285D01*
X89749523Y-65091904D01*
X89844761Y-65187142D01*
X89892380Y-65330000D01*
X89892380Y-65568095D01*
X88892380Y-64377619D02*
X88892380Y-64282380D01*
X88940000Y-64187142D01*
X88987619Y-64139523D01*
X89082857Y-64091904D01*
X89273333Y-64044285D01*
X89511428Y-64044285D01*
X89701904Y-64091904D01*
X89797142Y-64139523D01*
X89844761Y-64187142D01*
X89892380Y-64282380D01*
X89892380Y-64377619D01*
X89844761Y-64472857D01*
X89797142Y-64520476D01*
X89701904Y-64568095D01*
X89511428Y-64615714D01*
X89273333Y-64615714D01*
X89082857Y-64568095D01*
X88987619Y-64520476D01*
X88940000Y-64472857D01*
X88892380Y-64377619D01*
X82262380Y-65550476D02*
X81262380Y-65550476D01*
X81262380Y-65169523D01*
X81310000Y-65074285D01*
X81357619Y-65026666D01*
X81452857Y-64979047D01*
X81595714Y-64979047D01*
X81690952Y-65026666D01*
X81738571Y-65074285D01*
X81786190Y-65169523D01*
X81786190Y-65550476D01*
X81310000Y-64026666D02*
X81262380Y-64121904D01*
X81262380Y-64264761D01*
X81310000Y-64407619D01*
X81405238Y-64502857D01*
X81500476Y-64550476D01*
X81690952Y-64598095D01*
X81833809Y-64598095D01*
X82024285Y-64550476D01*
X82119523Y-64502857D01*
X82214761Y-64407619D01*
X82262380Y-64264761D01*
X82262380Y-64169523D01*
X82214761Y-64026666D01*
X82167142Y-63979047D01*
X81833809Y-63979047D01*
X81833809Y-64169523D01*
X81738571Y-63217142D02*
X81738571Y-63550476D01*
X82262380Y-63550476D02*
X81262380Y-63550476D01*
X81262380Y-63074285D01*
X82262380Y-62693333D02*
X81262380Y-62693333D01*
X81262380Y-62455238D01*
X81310000Y-62312380D01*
X81405238Y-62217142D01*
X81500476Y-62169523D01*
X81690952Y-62121904D01*
X81833809Y-62121904D01*
X82024285Y-62169523D01*
X82119523Y-62217142D01*
X82214761Y-62312380D01*
X82262380Y-62455238D01*
X82262380Y-62693333D01*
X99110000Y-65111904D02*
X99062380Y-65207142D01*
X99062380Y-65350000D01*
X99110000Y-65492857D01*
X99205238Y-65588095D01*
X99300476Y-65635714D01*
X99490952Y-65683333D01*
X99633809Y-65683333D01*
X99824285Y-65635714D01*
X99919523Y-65588095D01*
X100014761Y-65492857D01*
X100062380Y-65350000D01*
X100062380Y-65254761D01*
X100014761Y-65111904D01*
X99967142Y-65064285D01*
X99633809Y-65064285D01*
X99633809Y-65254761D01*
X100062380Y-64635714D02*
X99062380Y-64635714D01*
X100062380Y-64064285D01*
X99062380Y-64064285D01*
X100062380Y-63588095D02*
X99062380Y-63588095D01*
X99062380Y-63350000D01*
X99110000Y-63207142D01*
X99205238Y-63111904D01*
X99300476Y-63064285D01*
X99490952Y-63016666D01*
X99633809Y-63016666D01*
X99824285Y-63064285D01*
X99919523Y-63111904D01*
X100014761Y-63207142D01*
X100062380Y-63350000D01*
X100062380Y-63588095D01*
X94992380Y-65618095D02*
X93992380Y-65618095D01*
X93992380Y-65380000D01*
X94040000Y-65237142D01*
X94135238Y-65141904D01*
X94230476Y-65094285D01*
X94420952Y-65046666D01*
X94563809Y-65046666D01*
X94754285Y-65094285D01*
X94849523Y-65141904D01*
X94944761Y-65237142D01*
X94992380Y-65380000D01*
X94992380Y-65618095D01*
X94325714Y-64189523D02*
X94992380Y-64189523D01*
X93944761Y-64427619D02*
X94659047Y-64665714D01*
X94659047Y-64046666D01*
X97482380Y-65648095D02*
X96482380Y-65648095D01*
X96482380Y-65410000D01*
X96530000Y-65267142D01*
X96625238Y-65171904D01*
X96720476Y-65124285D01*
X96910952Y-65076666D01*
X97053809Y-65076666D01*
X97244285Y-65124285D01*
X97339523Y-65171904D01*
X97434761Y-65267142D01*
X97482380Y-65410000D01*
X97482380Y-65648095D01*
X96482380Y-64219523D02*
X96482380Y-64410000D01*
X96530000Y-64505238D01*
X96577619Y-64552857D01*
X96720476Y-64648095D01*
X96910952Y-64695714D01*
X97291904Y-64695714D01*
X97387142Y-64648095D01*
X97434761Y-64600476D01*
X97482380Y-64505238D01*
X97482380Y-64314761D01*
X97434761Y-64219523D01*
X97387142Y-64171904D01*
X97291904Y-64124285D01*
X97053809Y-64124285D01*
X96958571Y-64171904D01*
X96910952Y-64219523D01*
X96863333Y-64314761D01*
X96863333Y-64505238D01*
X96910952Y-64600476D01*
X96958571Y-64648095D01*
X97053809Y-64695714D01*
X79832380Y-65620476D02*
X78832380Y-65620476D01*
X78832380Y-65239523D01*
X78880000Y-65144285D01*
X78927619Y-65096666D01*
X79022857Y-65049047D01*
X79165714Y-65049047D01*
X79260952Y-65096666D01*
X79308571Y-65144285D01*
X79356190Y-65239523D01*
X79356190Y-65620476D01*
X78880000Y-64096666D02*
X78832380Y-64191904D01*
X78832380Y-64334761D01*
X78880000Y-64477619D01*
X78975238Y-64572857D01*
X79070476Y-64620476D01*
X79260952Y-64668095D01*
X79403809Y-64668095D01*
X79594285Y-64620476D01*
X79689523Y-64572857D01*
X79784761Y-64477619D01*
X79832380Y-64334761D01*
X79832380Y-64239523D01*
X79784761Y-64096666D01*
X79737142Y-64049047D01*
X79403809Y-64049047D01*
X79403809Y-64239523D01*
X79308571Y-63287142D02*
X79308571Y-63620476D01*
X79832380Y-63620476D02*
X78832380Y-63620476D01*
X78832380Y-63144285D01*
X79737142Y-62191904D02*
X79784761Y-62239523D01*
X79832380Y-62382380D01*
X79832380Y-62477619D01*
X79784761Y-62620476D01*
X79689523Y-62715714D01*
X79594285Y-62763333D01*
X79403809Y-62810952D01*
X79260952Y-62810952D01*
X79070476Y-62763333D01*
X78975238Y-62715714D01*
X78880000Y-62620476D01*
X78832380Y-62477619D01*
X78832380Y-62382380D01*
X78880000Y-62239523D01*
X78927619Y-62191904D01*
X74662380Y-65525238D02*
X73662380Y-65525238D01*
X74662380Y-64953809D01*
X73662380Y-64953809D01*
X74662380Y-64477619D02*
X73662380Y-64477619D01*
X74376666Y-64144285D01*
X73662380Y-63810952D01*
X74662380Y-63810952D01*
X74662380Y-63334761D02*
X73662380Y-63334761D01*
X72192380Y-65058095D02*
X72192380Y-65629523D01*
X72192380Y-65343809D02*
X71192380Y-65343809D01*
X71335238Y-65439047D01*
X71430476Y-65534285D01*
X71478095Y-65629523D01*
X72192380Y-64629523D02*
X71192380Y-64629523D01*
X71906666Y-64296190D01*
X71192380Y-63962857D01*
X72192380Y-63962857D01*
X72192380Y-63486666D02*
X71192380Y-63486666D01*
X71668571Y-63486666D02*
X71668571Y-62915238D01*
X72192380Y-62915238D02*
X71192380Y-62915238D01*
X71192380Y-62534285D02*
X71192380Y-61867619D01*
X72192380Y-62534285D01*
X72192380Y-61867619D01*
X71668571Y-61486666D02*
X71668571Y-61153333D01*
X72192380Y-61010476D02*
X72192380Y-61486666D01*
X71192380Y-61486666D01*
X71192380Y-61010476D01*
X109916666Y-65624285D02*
X109916666Y-65148095D01*
X110202380Y-65719523D02*
X109202380Y-65386190D01*
X110202380Y-65052857D01*
X109202380Y-64814761D02*
X109202380Y-64148095D01*
X110202380Y-64576666D01*
X107316666Y-65644285D02*
X107316666Y-65168095D01*
X107602380Y-65739523D02*
X106602380Y-65406190D01*
X107602380Y-65072857D01*
X106602380Y-64263333D02*
X106602380Y-64739523D01*
X107078571Y-64787142D01*
X107030952Y-64739523D01*
X106983333Y-64644285D01*
X106983333Y-64406190D01*
X107030952Y-64310952D01*
X107078571Y-64263333D01*
X107173809Y-64215714D01*
X107411904Y-64215714D01*
X107507142Y-64263333D01*
X107554761Y-64310952D01*
X107602380Y-64406190D01*
X107602380Y-64644285D01*
X107554761Y-64739523D01*
X107507142Y-64787142D01*
X104896666Y-65644285D02*
X104896666Y-65168095D01*
X105182380Y-65739523D02*
X104182380Y-65406190D01*
X105182380Y-65072857D01*
X104182380Y-64834761D02*
X104182380Y-64215714D01*
X104563333Y-64549047D01*
X104563333Y-64406190D01*
X104610952Y-64310952D01*
X104658571Y-64263333D01*
X104753809Y-64215714D01*
X104991904Y-64215714D01*
X105087142Y-64263333D01*
X105134761Y-64310952D01*
X105182380Y-64406190D01*
X105182380Y-64691904D01*
X105134761Y-64787142D01*
X105087142Y-64834761D01*
X92472380Y-65588095D02*
X91472380Y-65588095D01*
X91472380Y-65350000D01*
X91520000Y-65207142D01*
X91615238Y-65111904D01*
X91710476Y-65064285D01*
X91900952Y-65016666D01*
X92043809Y-65016666D01*
X92234285Y-65064285D01*
X92329523Y-65111904D01*
X92424761Y-65207142D01*
X92472380Y-65350000D01*
X92472380Y-65588095D01*
X91567619Y-64635714D02*
X91520000Y-64588095D01*
X91472380Y-64492857D01*
X91472380Y-64254761D01*
X91520000Y-64159523D01*
X91567619Y-64111904D01*
X91662857Y-64064285D01*
X91758095Y-64064285D01*
X91900952Y-64111904D01*
X92472380Y-64683333D01*
X92472380Y-64064285D01*
X84882380Y-64977619D02*
X84406190Y-65310952D01*
X84882380Y-65549047D02*
X83882380Y-65549047D01*
X83882380Y-65168095D01*
X83930000Y-65072857D01*
X83977619Y-65025238D01*
X84072857Y-64977619D01*
X84215714Y-64977619D01*
X84310952Y-65025238D01*
X84358571Y-65072857D01*
X84406190Y-65168095D01*
X84406190Y-65549047D01*
X84834761Y-64596666D02*
X84882380Y-64453809D01*
X84882380Y-64215714D01*
X84834761Y-64120476D01*
X84787142Y-64072857D01*
X84691904Y-64025238D01*
X84596666Y-64025238D01*
X84501428Y-64072857D01*
X84453809Y-64120476D01*
X84406190Y-64215714D01*
X84358571Y-64406190D01*
X84310952Y-64501428D01*
X84263333Y-64549047D01*
X84168095Y-64596666D01*
X84072857Y-64596666D01*
X83977619Y-64549047D01*
X83930000Y-64501428D01*
X83882380Y-64406190D01*
X83882380Y-64168095D01*
X83930000Y-64025238D01*
X83882380Y-63739523D02*
X83882380Y-63168095D01*
X84882380Y-63453809D02*
X83882380Y-63453809D01*
X102376666Y-65644285D02*
X102376666Y-65168095D01*
X102662380Y-65739523D02*
X101662380Y-65406190D01*
X102662380Y-65072857D01*
X102662380Y-64215714D02*
X102662380Y-64787142D01*
X102662380Y-64501428D02*
X101662380Y-64501428D01*
X101805238Y-64596666D01*
X101900476Y-64691904D01*
X101948095Y-64787142D01*
X77172380Y-65603809D02*
X76172380Y-65603809D01*
X77172380Y-64556190D02*
X76696190Y-64889523D01*
X77172380Y-65127619D02*
X76172380Y-65127619D01*
X76172380Y-64746666D01*
X76220000Y-64651428D01*
X76267619Y-64603809D01*
X76362857Y-64556190D01*
X76505714Y-64556190D01*
X76600952Y-64603809D01*
X76648571Y-64651428D01*
X76696190Y-64746666D01*
X76696190Y-65127619D01*
X77267619Y-63460952D02*
X77220000Y-63556190D01*
X77124761Y-63651428D01*
X76981904Y-63794285D01*
X76934285Y-63889523D01*
X76934285Y-63984761D01*
X77172380Y-63937142D02*
X77124761Y-64032380D01*
X77029523Y-64127619D01*
X76839047Y-64175238D01*
X76505714Y-64175238D01*
X76315238Y-64127619D01*
X76220000Y-64032380D01*
X76172380Y-63937142D01*
X76172380Y-63746666D01*
X76220000Y-63651428D01*
X76315238Y-63556190D01*
X76505714Y-63508571D01*
X76839047Y-63508571D01*
X77029523Y-63556190D01*
X77124761Y-63651428D01*
X77172380Y-63746666D01*
X77172380Y-63937142D01*
X69612380Y-64905714D02*
X69136190Y-65239047D01*
X69612380Y-65477142D02*
X68612380Y-65477142D01*
X68612380Y-65096190D01*
X68660000Y-65000952D01*
X68707619Y-64953333D01*
X68802857Y-64905714D01*
X68945714Y-64905714D01*
X69040952Y-64953333D01*
X69088571Y-65000952D01*
X69136190Y-65096190D01*
X69136190Y-65477142D01*
X68564761Y-63762857D02*
X69850476Y-64620000D01*
X68612380Y-63524761D02*
X69612380Y-63286666D01*
X68898095Y-63096190D01*
X69612380Y-62905714D01*
X68612380Y-62667619D01*
X109860000Y-72752857D02*
X109860000Y-72324285D01*
X110117142Y-72838571D02*
X109217142Y-72538571D01*
X110117142Y-72238571D01*
X109217142Y-71552857D02*
X109217142Y-71724285D01*
X109260000Y-71810000D01*
X109302857Y-71852857D01*
X109431428Y-71938571D01*
X109602857Y-71981428D01*
X109945714Y-71981428D01*
X110031428Y-71938571D01*
X110074285Y-71895714D01*
X110117142Y-71810000D01*
X110117142Y-71638571D01*
X110074285Y-71552857D01*
X110031428Y-71510000D01*
X109945714Y-71467142D01*
X109731428Y-71467142D01*
X109645714Y-71510000D01*
X109602857Y-71552857D01*
X109560000Y-71638571D01*
X109560000Y-71810000D01*
X109602857Y-71895714D01*
X109645714Y-71938571D01*
X109731428Y-71981428D01*
X107360000Y-72722857D02*
X107360000Y-72294285D01*
X107617142Y-72808571D02*
X106717142Y-72508571D01*
X107617142Y-72208571D01*
X107017142Y-71522857D02*
X107617142Y-71522857D01*
X106674285Y-71737142D02*
X107317142Y-71951428D01*
X107317142Y-71394285D01*
X104830000Y-72702857D02*
X104830000Y-72274285D01*
X105087142Y-72788571D02*
X104187142Y-72488571D01*
X105087142Y-72188571D01*
X105087142Y-71417142D02*
X105087142Y-71931428D01*
X105087142Y-71674285D02*
X104187142Y-71674285D01*
X104315714Y-71760000D01*
X104401428Y-71845714D01*
X104444285Y-71931428D01*
X102290000Y-72742857D02*
X102290000Y-72314285D01*
X102547142Y-72828571D02*
X101647142Y-72528571D01*
X102547142Y-72228571D01*
X101647142Y-71757142D02*
X101647142Y-71671428D01*
X101690000Y-71585714D01*
X101732857Y-71542857D01*
X101818571Y-71500000D01*
X101990000Y-71457142D01*
X102204285Y-71457142D01*
X102375714Y-71500000D01*
X102461428Y-71542857D01*
X102504285Y-71585714D01*
X102547142Y-71671428D01*
X102547142Y-71757142D01*
X102504285Y-71842857D01*
X102461428Y-71885714D01*
X102375714Y-71928571D01*
X102204285Y-71971428D01*
X101990000Y-71971428D01*
X101818571Y-71928571D01*
X101732857Y-71885714D01*
X101690000Y-71842857D01*
X101647142Y-71757142D01*
X100007142Y-72814285D02*
X99107142Y-72814285D01*
X99107142Y-72600000D01*
X99150000Y-72471428D01*
X99235714Y-72385714D01*
X99321428Y-72342857D01*
X99492857Y-72300000D01*
X99621428Y-72300000D01*
X99792857Y-72342857D01*
X99878571Y-72385714D01*
X99964285Y-72471428D01*
X100007142Y-72600000D01*
X100007142Y-72814285D01*
X99107142Y-72000000D02*
X99107142Y-71400000D01*
X100007142Y-71785714D01*
X97457142Y-72794285D02*
X96557142Y-72794285D01*
X96557142Y-72580000D01*
X96600000Y-72451428D01*
X96685714Y-72365714D01*
X96771428Y-72322857D01*
X96942857Y-72280000D01*
X97071428Y-72280000D01*
X97242857Y-72322857D01*
X97328571Y-72365714D01*
X97414285Y-72451428D01*
X97457142Y-72580000D01*
X97457142Y-72794285D01*
X96557142Y-71465714D02*
X96557142Y-71894285D01*
X96985714Y-71937142D01*
X96942857Y-71894285D01*
X96900000Y-71808571D01*
X96900000Y-71594285D01*
X96942857Y-71508571D01*
X96985714Y-71465714D01*
X97071428Y-71422857D01*
X97285714Y-71422857D01*
X97371428Y-71465714D01*
X97414285Y-71508571D01*
X97457142Y-71594285D01*
X97457142Y-71808571D01*
X97414285Y-71894285D01*
X97371428Y-71937142D01*
X94937142Y-72794285D02*
X94037142Y-72794285D01*
X94037142Y-72580000D01*
X94080000Y-72451428D01*
X94165714Y-72365714D01*
X94251428Y-72322857D01*
X94422857Y-72280000D01*
X94551428Y-72280000D01*
X94722857Y-72322857D01*
X94808571Y-72365714D01*
X94894285Y-72451428D01*
X94937142Y-72580000D01*
X94937142Y-72794285D01*
X94037142Y-71980000D02*
X94037142Y-71422857D01*
X94380000Y-71722857D01*
X94380000Y-71594285D01*
X94422857Y-71508571D01*
X94465714Y-71465714D01*
X94551428Y-71422857D01*
X94765714Y-71422857D01*
X94851428Y-71465714D01*
X94894285Y-71508571D01*
X94937142Y-71594285D01*
X94937142Y-71851428D01*
X94894285Y-71937142D01*
X94851428Y-71980000D01*
X92297142Y-72774285D02*
X91397142Y-72774285D01*
X91397142Y-72560000D01*
X91440000Y-72431428D01*
X91525714Y-72345714D01*
X91611428Y-72302857D01*
X91782857Y-72260000D01*
X91911428Y-72260000D01*
X92082857Y-72302857D01*
X92168571Y-72345714D01*
X92254285Y-72431428D01*
X92297142Y-72560000D01*
X92297142Y-72774285D01*
X92297142Y-71402857D02*
X92297142Y-71917142D01*
X92297142Y-71660000D02*
X91397142Y-71660000D01*
X91525714Y-71745714D01*
X91611428Y-71831428D01*
X91654285Y-71917142D01*
X151952380Y-65748095D02*
X150952380Y-65748095D01*
X150952380Y-65367142D01*
X151000000Y-65271904D01*
X151047619Y-65224285D01*
X151142857Y-65176666D01*
X151285714Y-65176666D01*
X151380952Y-65224285D01*
X151428571Y-65271904D01*
X151476190Y-65367142D01*
X151476190Y-65748095D01*
X151428571Y-64414761D02*
X151476190Y-64271904D01*
X151523809Y-64224285D01*
X151619047Y-64176666D01*
X151761904Y-64176666D01*
X151857142Y-64224285D01*
X151904761Y-64271904D01*
X151952380Y-64367142D01*
X151952380Y-64748095D01*
X150952380Y-64748095D01*
X150952380Y-64414761D01*
X151000000Y-64319523D01*
X151047619Y-64271904D01*
X151142857Y-64224285D01*
X151238095Y-64224285D01*
X151333333Y-64271904D01*
X151380952Y-64319523D01*
X151428571Y-64414761D01*
X151428571Y-64748095D01*
X150952380Y-63843333D02*
X150952380Y-63176666D01*
X151952380Y-63605238D01*
X149462380Y-65798095D02*
X148462380Y-65798095D01*
X148462380Y-65417142D01*
X148510000Y-65321904D01*
X148557619Y-65274285D01*
X148652857Y-65226666D01*
X148795714Y-65226666D01*
X148890952Y-65274285D01*
X148938571Y-65321904D01*
X148986190Y-65417142D01*
X148986190Y-65798095D01*
X148938571Y-64464761D02*
X148986190Y-64321904D01*
X149033809Y-64274285D01*
X149129047Y-64226666D01*
X149271904Y-64226666D01*
X149367142Y-64274285D01*
X149414761Y-64321904D01*
X149462380Y-64417142D01*
X149462380Y-64798095D01*
X148462380Y-64798095D01*
X148462380Y-64464761D01*
X148510000Y-64369523D01*
X148557619Y-64321904D01*
X148652857Y-64274285D01*
X148748095Y-64274285D01*
X148843333Y-64321904D01*
X148890952Y-64369523D01*
X148938571Y-64464761D01*
X148938571Y-64798095D01*
X148462380Y-63369523D02*
X148462380Y-63560000D01*
X148510000Y-63655238D01*
X148557619Y-63702857D01*
X148700476Y-63798095D01*
X148890952Y-63845714D01*
X149271904Y-63845714D01*
X149367142Y-63798095D01*
X149414761Y-63750476D01*
X149462380Y-63655238D01*
X149462380Y-63464761D01*
X149414761Y-63369523D01*
X149367142Y-63321904D01*
X149271904Y-63274285D01*
X149033809Y-63274285D01*
X148938571Y-63321904D01*
X148890952Y-63369523D01*
X148843333Y-63464761D01*
X148843333Y-63655238D01*
X148890952Y-63750476D01*
X148938571Y-63798095D01*
X149033809Y-63845714D01*
X146882380Y-65748095D02*
X145882380Y-65748095D01*
X145882380Y-65367142D01*
X145930000Y-65271904D01*
X145977619Y-65224285D01*
X146072857Y-65176666D01*
X146215714Y-65176666D01*
X146310952Y-65224285D01*
X146358571Y-65271904D01*
X146406190Y-65367142D01*
X146406190Y-65748095D01*
X146358571Y-64414761D02*
X146406190Y-64271904D01*
X146453809Y-64224285D01*
X146549047Y-64176666D01*
X146691904Y-64176666D01*
X146787142Y-64224285D01*
X146834761Y-64271904D01*
X146882380Y-64367142D01*
X146882380Y-64748095D01*
X145882380Y-64748095D01*
X145882380Y-64414761D01*
X145930000Y-64319523D01*
X145977619Y-64271904D01*
X146072857Y-64224285D01*
X146168095Y-64224285D01*
X146263333Y-64271904D01*
X146310952Y-64319523D01*
X146358571Y-64414761D01*
X146358571Y-64748095D01*
X145882380Y-63271904D02*
X145882380Y-63748095D01*
X146358571Y-63795714D01*
X146310952Y-63748095D01*
X146263333Y-63652857D01*
X146263333Y-63414761D01*
X146310952Y-63319523D01*
X146358571Y-63271904D01*
X146453809Y-63224285D01*
X146691904Y-63224285D01*
X146787142Y-63271904D01*
X146834761Y-63319523D01*
X146882380Y-63414761D01*
X146882380Y-63652857D01*
X146834761Y-63748095D01*
X146787142Y-63795714D01*
X144392380Y-65798095D02*
X143392380Y-65798095D01*
X143392380Y-65417142D01*
X143440000Y-65321904D01*
X143487619Y-65274285D01*
X143582857Y-65226666D01*
X143725714Y-65226666D01*
X143820952Y-65274285D01*
X143868571Y-65321904D01*
X143916190Y-65417142D01*
X143916190Y-65798095D01*
X143868571Y-64464761D02*
X143916190Y-64321904D01*
X143963809Y-64274285D01*
X144059047Y-64226666D01*
X144201904Y-64226666D01*
X144297142Y-64274285D01*
X144344761Y-64321904D01*
X144392380Y-64417142D01*
X144392380Y-64798095D01*
X143392380Y-64798095D01*
X143392380Y-64464761D01*
X143440000Y-64369523D01*
X143487619Y-64321904D01*
X143582857Y-64274285D01*
X143678095Y-64274285D01*
X143773333Y-64321904D01*
X143820952Y-64369523D01*
X143868571Y-64464761D01*
X143868571Y-64798095D01*
X143725714Y-63369523D02*
X144392380Y-63369523D01*
X143344761Y-63607619D02*
X144059047Y-63845714D01*
X144059047Y-63226666D01*
X141812380Y-65798095D02*
X140812380Y-65798095D01*
X140812380Y-65417142D01*
X140860000Y-65321904D01*
X140907619Y-65274285D01*
X141002857Y-65226666D01*
X141145714Y-65226666D01*
X141240952Y-65274285D01*
X141288571Y-65321904D01*
X141336190Y-65417142D01*
X141336190Y-65798095D01*
X141288571Y-64464761D02*
X141336190Y-64321904D01*
X141383809Y-64274285D01*
X141479047Y-64226666D01*
X141621904Y-64226666D01*
X141717142Y-64274285D01*
X141764761Y-64321904D01*
X141812380Y-64417142D01*
X141812380Y-64798095D01*
X140812380Y-64798095D01*
X140812380Y-64464761D01*
X140860000Y-64369523D01*
X140907619Y-64321904D01*
X141002857Y-64274285D01*
X141098095Y-64274285D01*
X141193333Y-64321904D01*
X141240952Y-64369523D01*
X141288571Y-64464761D01*
X141288571Y-64798095D01*
X140812380Y-63893333D02*
X140812380Y-63274285D01*
X141193333Y-63607619D01*
X141193333Y-63464761D01*
X141240952Y-63369523D01*
X141288571Y-63321904D01*
X141383809Y-63274285D01*
X141621904Y-63274285D01*
X141717142Y-63321904D01*
X141764761Y-63369523D01*
X141812380Y-63464761D01*
X141812380Y-63750476D01*
X141764761Y-63845714D01*
X141717142Y-63893333D01*
X139322380Y-65748095D02*
X138322380Y-65748095D01*
X138322380Y-65367142D01*
X138370000Y-65271904D01*
X138417619Y-65224285D01*
X138512857Y-65176666D01*
X138655714Y-65176666D01*
X138750952Y-65224285D01*
X138798571Y-65271904D01*
X138846190Y-65367142D01*
X138846190Y-65748095D01*
X138798571Y-64414761D02*
X138846190Y-64271904D01*
X138893809Y-64224285D01*
X138989047Y-64176666D01*
X139131904Y-64176666D01*
X139227142Y-64224285D01*
X139274761Y-64271904D01*
X139322380Y-64367142D01*
X139322380Y-64748095D01*
X138322380Y-64748095D01*
X138322380Y-64414761D01*
X138370000Y-64319523D01*
X138417619Y-64271904D01*
X138512857Y-64224285D01*
X138608095Y-64224285D01*
X138703333Y-64271904D01*
X138750952Y-64319523D01*
X138798571Y-64414761D01*
X138798571Y-64748095D01*
X138417619Y-63795714D02*
X138370000Y-63748095D01*
X138322380Y-63652857D01*
X138322380Y-63414761D01*
X138370000Y-63319523D01*
X138417619Y-63271904D01*
X138512857Y-63224285D01*
X138608095Y-63224285D01*
X138750952Y-63271904D01*
X139322380Y-63843333D01*
X139322380Y-63224285D01*
X136742380Y-65698095D02*
X135742380Y-65698095D01*
X135742380Y-65317142D01*
X135790000Y-65221904D01*
X135837619Y-65174285D01*
X135932857Y-65126666D01*
X136075714Y-65126666D01*
X136170952Y-65174285D01*
X136218571Y-65221904D01*
X136266190Y-65317142D01*
X136266190Y-65698095D01*
X136218571Y-64364761D02*
X136266190Y-64221904D01*
X136313809Y-64174285D01*
X136409047Y-64126666D01*
X136551904Y-64126666D01*
X136647142Y-64174285D01*
X136694761Y-64221904D01*
X136742380Y-64317142D01*
X136742380Y-64698095D01*
X135742380Y-64698095D01*
X135742380Y-64364761D01*
X135790000Y-64269523D01*
X135837619Y-64221904D01*
X135932857Y-64174285D01*
X136028095Y-64174285D01*
X136123333Y-64221904D01*
X136170952Y-64269523D01*
X136218571Y-64364761D01*
X136218571Y-64698095D01*
X136742380Y-63174285D02*
X136742380Y-63745714D01*
X136742380Y-63460000D02*
X135742380Y-63460000D01*
X135885238Y-63555238D01*
X135980476Y-63650476D01*
X136028095Y-63745714D01*
X134202380Y-65698095D02*
X133202380Y-65698095D01*
X133202380Y-65317142D01*
X133250000Y-65221904D01*
X133297619Y-65174285D01*
X133392857Y-65126666D01*
X133535714Y-65126666D01*
X133630952Y-65174285D01*
X133678571Y-65221904D01*
X133726190Y-65317142D01*
X133726190Y-65698095D01*
X133678571Y-64364761D02*
X133726190Y-64221904D01*
X133773809Y-64174285D01*
X133869047Y-64126666D01*
X134011904Y-64126666D01*
X134107142Y-64174285D01*
X134154761Y-64221904D01*
X134202380Y-64317142D01*
X134202380Y-64698095D01*
X133202380Y-64698095D01*
X133202380Y-64364761D01*
X133250000Y-64269523D01*
X133297619Y-64221904D01*
X133392857Y-64174285D01*
X133488095Y-64174285D01*
X133583333Y-64221904D01*
X133630952Y-64269523D01*
X133678571Y-64364761D01*
X133678571Y-64698095D01*
X133202380Y-63507619D02*
X133202380Y-63412380D01*
X133250000Y-63317142D01*
X133297619Y-63269523D01*
X133392857Y-63221904D01*
X133583333Y-63174285D01*
X133821428Y-63174285D01*
X134011904Y-63221904D01*
X134107142Y-63269523D01*
X134154761Y-63317142D01*
X134202380Y-63412380D01*
X134202380Y-63507619D01*
X134154761Y-63602857D01*
X134107142Y-63650476D01*
X134011904Y-63698095D01*
X133821428Y-63745714D01*
X133583333Y-63745714D01*
X133392857Y-63698095D01*
X133297619Y-63650476D01*
X133250000Y-63602857D01*
X133202380Y-63507619D01*
X131577142Y-65086666D02*
X131624761Y-65134285D01*
X131672380Y-65277142D01*
X131672380Y-65372380D01*
X131624761Y-65515238D01*
X131529523Y-65610476D01*
X131434285Y-65658095D01*
X131243809Y-65705714D01*
X131100952Y-65705714D01*
X130910476Y-65658095D01*
X130815238Y-65610476D01*
X130720000Y-65515238D01*
X130672380Y-65372380D01*
X130672380Y-65277142D01*
X130720000Y-65134285D01*
X130767619Y-65086666D01*
X131148571Y-64324761D02*
X131196190Y-64181904D01*
X131243809Y-64134285D01*
X131339047Y-64086666D01*
X131481904Y-64086666D01*
X131577142Y-64134285D01*
X131624761Y-64181904D01*
X131672380Y-64277142D01*
X131672380Y-64658095D01*
X130672380Y-64658095D01*
X130672380Y-64324761D01*
X130720000Y-64229523D01*
X130767619Y-64181904D01*
X130862857Y-64134285D01*
X130958095Y-64134285D01*
X131053333Y-64181904D01*
X131100952Y-64229523D01*
X131148571Y-64324761D01*
X131148571Y-64658095D01*
X130767619Y-63705714D02*
X130720000Y-63658095D01*
X130672380Y-63562857D01*
X130672380Y-63324761D01*
X130720000Y-63229523D01*
X130767619Y-63181904D01*
X130862857Y-63134285D01*
X130958095Y-63134285D01*
X131100952Y-63181904D01*
X131672380Y-63753333D01*
X131672380Y-63134285D01*
X128897142Y-64986666D02*
X128944761Y-65034285D01*
X128992380Y-65177142D01*
X128992380Y-65272380D01*
X128944761Y-65415238D01*
X128849523Y-65510476D01*
X128754285Y-65558095D01*
X128563809Y-65605714D01*
X128420952Y-65605714D01*
X128230476Y-65558095D01*
X128135238Y-65510476D01*
X128040000Y-65415238D01*
X127992380Y-65272380D01*
X127992380Y-65177142D01*
X128040000Y-65034285D01*
X128087619Y-64986666D01*
X128468571Y-64224761D02*
X128516190Y-64081904D01*
X128563809Y-64034285D01*
X128659047Y-63986666D01*
X128801904Y-63986666D01*
X128897142Y-64034285D01*
X128944761Y-64081904D01*
X128992380Y-64177142D01*
X128992380Y-64558095D01*
X127992380Y-64558095D01*
X127992380Y-64224761D01*
X128040000Y-64129523D01*
X128087619Y-64081904D01*
X128182857Y-64034285D01*
X128278095Y-64034285D01*
X128373333Y-64081904D01*
X128420952Y-64129523D01*
X128468571Y-64224761D01*
X128468571Y-64558095D01*
X128992380Y-63034285D02*
X128992380Y-63605714D01*
X128992380Y-63320000D02*
X127992380Y-63320000D01*
X128135238Y-63415238D01*
X128230476Y-63510476D01*
X128278095Y-63605714D01*
D15*
X94350000Y-140507142D02*
X96730952Y-142888095D01*
X94350000Y-145269047D01*
X91969047Y-142888095D01*
X94350000Y-140507142D01*
X94350000Y-145269047D01*
X94390000Y-144895714D02*
X94390000Y-148467142D01*
X90818571Y-147038571D02*
X94390000Y-148467142D01*
X97961428Y-147038571D01*
X92247142Y-151324285D02*
X94390000Y-148467142D01*
X96532857Y-151324285D01*
D13*
X155235000Y-132966904D02*
X155187380Y-133062142D01*
X155187380Y-133205000D01*
X155235000Y-133347857D01*
X155330238Y-133443095D01*
X155425476Y-133490714D01*
X155615952Y-133538333D01*
X155758809Y-133538333D01*
X155949285Y-133490714D01*
X156044523Y-133443095D01*
X156139761Y-133347857D01*
X156187380Y-133205000D01*
X156187380Y-133109761D01*
X156139761Y-132966904D01*
X156092142Y-132919285D01*
X155758809Y-132919285D01*
X155758809Y-133109761D01*
X156187380Y-132490714D02*
X155187380Y-132490714D01*
X156187380Y-131919285D01*
X155187380Y-131919285D01*
X156187380Y-131443095D02*
X155187380Y-131443095D01*
X155187380Y-131205000D01*
X155235000Y-131062142D01*
X155330238Y-130966904D01*
X155425476Y-130919285D01*
X155615952Y-130871666D01*
X155758809Y-130871666D01*
X155949285Y-130919285D01*
X156044523Y-130966904D01*
X156139761Y-131062142D01*
X156187380Y-131205000D01*
X156187380Y-131443095D01*
X153637380Y-133518095D02*
X152637380Y-133518095D01*
X152637380Y-133280000D01*
X152685000Y-133137142D01*
X152780238Y-133041904D01*
X152875476Y-132994285D01*
X153065952Y-132946666D01*
X153208809Y-132946666D01*
X153399285Y-132994285D01*
X153494523Y-133041904D01*
X153589761Y-133137142D01*
X153637380Y-133280000D01*
X153637380Y-133518095D01*
X153637380Y-131994285D02*
X153637380Y-132565714D01*
X153637380Y-132280000D02*
X152637380Y-132280000D01*
X152780238Y-132375238D01*
X152875476Y-132470476D01*
X152923095Y-132565714D01*
X151162380Y-133518095D02*
X150162380Y-133518095D01*
X150162380Y-133280000D01*
X150210000Y-133137142D01*
X150305238Y-133041904D01*
X150400476Y-132994285D01*
X150590952Y-132946666D01*
X150733809Y-132946666D01*
X150924285Y-132994285D01*
X151019523Y-133041904D01*
X151114761Y-133137142D01*
X151162380Y-133280000D01*
X151162380Y-133518095D01*
X150257619Y-132565714D02*
X150210000Y-132518095D01*
X150162380Y-132422857D01*
X150162380Y-132184761D01*
X150210000Y-132089523D01*
X150257619Y-132041904D01*
X150352857Y-131994285D01*
X150448095Y-131994285D01*
X150590952Y-132041904D01*
X151162380Y-132613333D01*
X151162380Y-131994285D01*
X148637380Y-133518095D02*
X147637380Y-133518095D01*
X147637380Y-133280000D01*
X147685000Y-133137142D01*
X147780238Y-133041904D01*
X147875476Y-132994285D01*
X148065952Y-132946666D01*
X148208809Y-132946666D01*
X148399285Y-132994285D01*
X148494523Y-133041904D01*
X148589761Y-133137142D01*
X148637380Y-133280000D01*
X148637380Y-133518095D01*
X147637380Y-132327619D02*
X147637380Y-132232380D01*
X147685000Y-132137142D01*
X147732619Y-132089523D01*
X147827857Y-132041904D01*
X148018333Y-131994285D01*
X148256428Y-131994285D01*
X148446904Y-132041904D01*
X148542142Y-132089523D01*
X148589761Y-132137142D01*
X148637380Y-132232380D01*
X148637380Y-132327619D01*
X148589761Y-132422857D01*
X148542142Y-132470476D01*
X148446904Y-132518095D01*
X148256428Y-132565714D01*
X148018333Y-132565714D01*
X147827857Y-132518095D01*
X147732619Y-132470476D01*
X147685000Y-132422857D01*
X147637380Y-132327619D01*
X145751666Y-133444285D02*
X145751666Y-132968095D01*
X146037380Y-133539523D02*
X145037380Y-133206190D01*
X146037380Y-132872857D01*
X145037380Y-132349047D02*
X145037380Y-132253809D01*
X145085000Y-132158571D01*
X145132619Y-132110952D01*
X145227857Y-132063333D01*
X145418333Y-132015714D01*
X145656428Y-132015714D01*
X145846904Y-132063333D01*
X145942142Y-132110952D01*
X145989761Y-132158571D01*
X146037380Y-132253809D01*
X146037380Y-132349047D01*
X145989761Y-132444285D01*
X145942142Y-132491904D01*
X145846904Y-132539523D01*
X145656428Y-132587142D01*
X145418333Y-132587142D01*
X145227857Y-132539523D01*
X145132619Y-132491904D01*
X145085000Y-132444285D01*
X145037380Y-132349047D01*
X143251666Y-133469285D02*
X143251666Y-132993095D01*
X143537380Y-133564523D02*
X142537380Y-133231190D01*
X143537380Y-132897857D01*
X143537380Y-132040714D02*
X143537380Y-132612142D01*
X143537380Y-132326428D02*
X142537380Y-132326428D01*
X142680238Y-132421666D01*
X142775476Y-132516904D01*
X142823095Y-132612142D01*
X140626666Y-133469285D02*
X140626666Y-132993095D01*
X140912380Y-133564523D02*
X139912380Y-133231190D01*
X140912380Y-132897857D01*
X140007619Y-132612142D02*
X139960000Y-132564523D01*
X139912380Y-132469285D01*
X139912380Y-132231190D01*
X139960000Y-132135952D01*
X140007619Y-132088333D01*
X140102857Y-132040714D01*
X140198095Y-132040714D01*
X140340952Y-132088333D01*
X140912380Y-132659761D01*
X140912380Y-132040714D01*
X138126666Y-133469285D02*
X138126666Y-132993095D01*
X138412380Y-133564523D02*
X137412380Y-133231190D01*
X138412380Y-132897857D01*
X137412380Y-132659761D02*
X137412380Y-132040714D01*
X137793333Y-132374047D01*
X137793333Y-132231190D01*
X137840952Y-132135952D01*
X137888571Y-132088333D01*
X137983809Y-132040714D01*
X138221904Y-132040714D01*
X138317142Y-132088333D01*
X138364761Y-132135952D01*
X138412380Y-132231190D01*
X138412380Y-132516904D01*
X138364761Y-132612142D01*
X138317142Y-132659761D01*
X135626666Y-133494285D02*
X135626666Y-133018095D01*
X135912380Y-133589523D02*
X134912380Y-133256190D01*
X135912380Y-132922857D01*
X135245714Y-132160952D02*
X135912380Y-132160952D01*
X134864761Y-132399047D02*
X135579047Y-132637142D01*
X135579047Y-132018095D01*
X133026666Y-133494285D02*
X133026666Y-133018095D01*
X133312380Y-133589523D02*
X132312380Y-133256190D01*
X133312380Y-132922857D01*
X132312380Y-132113333D02*
X132312380Y-132589523D01*
X132788571Y-132637142D01*
X132740952Y-132589523D01*
X132693333Y-132494285D01*
X132693333Y-132256190D01*
X132740952Y-132160952D01*
X132788571Y-132113333D01*
X132883809Y-132065714D01*
X133121904Y-132065714D01*
X133217142Y-132113333D01*
X133264761Y-132160952D01*
X133312380Y-132256190D01*
X133312380Y-132494285D01*
X133264761Y-132589523D01*
X133217142Y-132637142D01*
X130501666Y-133494285D02*
X130501666Y-133018095D01*
X130787380Y-133589523D02*
X129787380Y-133256190D01*
X130787380Y-132922857D01*
X129787380Y-132160952D02*
X129787380Y-132351428D01*
X129835000Y-132446666D01*
X129882619Y-132494285D01*
X130025476Y-132589523D01*
X130215952Y-132637142D01*
X130596904Y-132637142D01*
X130692142Y-132589523D01*
X130739761Y-132541904D01*
X130787380Y-132446666D01*
X130787380Y-132256190D01*
X130739761Y-132160952D01*
X130692142Y-132113333D01*
X130596904Y-132065714D01*
X130358809Y-132065714D01*
X130263571Y-132113333D01*
X130215952Y-132160952D01*
X130168333Y-132256190D01*
X130168333Y-132446666D01*
X130215952Y-132541904D01*
X130263571Y-132589523D01*
X130358809Y-132637142D01*
X127951666Y-133444285D02*
X127951666Y-132968095D01*
X128237380Y-133539523D02*
X127237380Y-133206190D01*
X128237380Y-132872857D01*
X127237380Y-132634761D02*
X127237380Y-131968095D01*
X128237380Y-132396666D01*
X124807142Y-133401428D02*
X124807142Y-133230000D01*
X124850000Y-133144285D01*
X124935714Y-133058571D01*
X125107142Y-133015714D01*
X125407142Y-133015714D01*
X125578571Y-133058571D01*
X125664285Y-133144285D01*
X125707142Y-133230000D01*
X125707142Y-133401428D01*
X125664285Y-133487142D01*
X125578571Y-133572857D01*
X125407142Y-133615714D01*
X125107142Y-133615714D01*
X124935714Y-133572857D01*
X124850000Y-133487142D01*
X124807142Y-133401428D01*
X125235714Y-132630000D02*
X125235714Y-132330000D01*
X125707142Y-132201428D02*
X125707142Y-132630000D01*
X124807142Y-132630000D01*
X124807142Y-132201428D01*
X124892857Y-131858571D02*
X124850000Y-131815714D01*
X124807142Y-131730000D01*
X124807142Y-131515714D01*
X124850000Y-131430000D01*
X124892857Y-131387142D01*
X124978571Y-131344285D01*
X125064285Y-131344285D01*
X125192857Y-131387142D01*
X125707142Y-131901428D01*
X125707142Y-131344285D01*
X123212380Y-133543095D02*
X122212380Y-133543095D01*
X122212380Y-133305000D01*
X122260000Y-133162142D01*
X122355238Y-133066904D01*
X122450476Y-133019285D01*
X122640952Y-132971666D01*
X122783809Y-132971666D01*
X122974285Y-133019285D01*
X123069523Y-133066904D01*
X123164761Y-133162142D01*
X123212380Y-133305000D01*
X123212380Y-133543095D01*
X122545714Y-132114523D02*
X123212380Y-132114523D01*
X122164761Y-132352619D02*
X122879047Y-132590714D01*
X122879047Y-131971666D01*
X120662380Y-133568095D02*
X119662380Y-133568095D01*
X119662380Y-133330000D01*
X119710000Y-133187142D01*
X119805238Y-133091904D01*
X119900476Y-133044285D01*
X120090952Y-132996666D01*
X120233809Y-132996666D01*
X120424285Y-133044285D01*
X120519523Y-133091904D01*
X120614761Y-133187142D01*
X120662380Y-133330000D01*
X120662380Y-133568095D01*
X119662380Y-132091904D02*
X119662380Y-132568095D01*
X120138571Y-132615714D01*
X120090952Y-132568095D01*
X120043333Y-132472857D01*
X120043333Y-132234761D01*
X120090952Y-132139523D01*
X120138571Y-132091904D01*
X120233809Y-132044285D01*
X120471904Y-132044285D01*
X120567142Y-132091904D01*
X120614761Y-132139523D01*
X120662380Y-132234761D01*
X120662380Y-132472857D01*
X120614761Y-132568095D01*
X120567142Y-132615714D01*
X118137380Y-133543095D02*
X117137380Y-133543095D01*
X117137380Y-133305000D01*
X117185000Y-133162142D01*
X117280238Y-133066904D01*
X117375476Y-133019285D01*
X117565952Y-132971666D01*
X117708809Y-132971666D01*
X117899285Y-133019285D01*
X117994523Y-133066904D01*
X118089761Y-133162142D01*
X118137380Y-133305000D01*
X118137380Y-133543095D01*
X117137380Y-132114523D02*
X117137380Y-132305000D01*
X117185000Y-132400238D01*
X117232619Y-132447857D01*
X117375476Y-132543095D01*
X117565952Y-132590714D01*
X117946904Y-132590714D01*
X118042142Y-132543095D01*
X118089761Y-132495476D01*
X118137380Y-132400238D01*
X118137380Y-132209761D01*
X118089761Y-132114523D01*
X118042142Y-132066904D01*
X117946904Y-132019285D01*
X117708809Y-132019285D01*
X117613571Y-132066904D01*
X117565952Y-132114523D01*
X117518333Y-132209761D01*
X117518333Y-132400238D01*
X117565952Y-132495476D01*
X117613571Y-132543095D01*
X117708809Y-132590714D01*
X115612380Y-133518095D02*
X114612380Y-133518095D01*
X114612380Y-133280000D01*
X114660000Y-133137142D01*
X114755238Y-133041904D01*
X114850476Y-132994285D01*
X115040952Y-132946666D01*
X115183809Y-132946666D01*
X115374285Y-132994285D01*
X115469523Y-133041904D01*
X115564761Y-133137142D01*
X115612380Y-133280000D01*
X115612380Y-133518095D01*
X114612380Y-132613333D02*
X114612380Y-131946666D01*
X115612380Y-132375238D01*
X112726666Y-133419285D02*
X112726666Y-132943095D01*
X113012380Y-133514523D02*
X112012380Y-133181190D01*
X113012380Y-132847857D01*
X113012380Y-132466904D02*
X113012380Y-132276428D01*
X112964761Y-132181190D01*
X112917142Y-132133571D01*
X112774285Y-132038333D01*
X112583809Y-131990714D01*
X112202857Y-131990714D01*
X112107619Y-132038333D01*
X112060000Y-132085952D01*
X112012380Y-132181190D01*
X112012380Y-132371666D01*
X112060000Y-132466904D01*
X112107619Y-132514523D01*
X112202857Y-132562142D01*
X112440952Y-132562142D01*
X112536190Y-132514523D01*
X112583809Y-132466904D01*
X112631428Y-132371666D01*
X112631428Y-132181190D01*
X112583809Y-132085952D01*
X112536190Y-132038333D01*
X112440952Y-131990714D01*
X110240000Y-133491428D02*
X110240000Y-133062857D01*
X110497142Y-133577142D02*
X109597142Y-133277142D01*
X110497142Y-132977142D01*
X110497142Y-132205714D02*
X110497142Y-132720000D01*
X110497142Y-132462857D02*
X109597142Y-132462857D01*
X109725714Y-132548571D01*
X109811428Y-132634285D01*
X109854285Y-132720000D01*
X110497142Y-131348571D02*
X110497142Y-131862857D01*
X110497142Y-131605714D02*
X109597142Y-131605714D01*
X109725714Y-131691428D01*
X109811428Y-131777142D01*
X109854285Y-131862857D01*
X107862380Y-133518095D02*
X106862380Y-133518095D01*
X106862380Y-133280000D01*
X106910000Y-133137142D01*
X107005238Y-133041904D01*
X107100476Y-132994285D01*
X107290952Y-132946666D01*
X107433809Y-132946666D01*
X107624285Y-132994285D01*
X107719523Y-133041904D01*
X107814761Y-133137142D01*
X107862380Y-133280000D01*
X107862380Y-133518095D01*
X106862380Y-132613333D02*
X106862380Y-131994285D01*
X107243333Y-132327619D01*
X107243333Y-132184761D01*
X107290952Y-132089523D01*
X107338571Y-132041904D01*
X107433809Y-131994285D01*
X107671904Y-131994285D01*
X107767142Y-132041904D01*
X107814761Y-132089523D01*
X107862380Y-132184761D01*
X107862380Y-132470476D01*
X107814761Y-132565714D01*
X107767142Y-132613333D01*
X105030000Y-133461428D02*
X105030000Y-133032857D01*
X105287142Y-133547142D02*
X104387142Y-133247142D01*
X105287142Y-132947142D01*
X105287142Y-132175714D02*
X105287142Y-132690000D01*
X105287142Y-132432857D02*
X104387142Y-132432857D01*
X104515714Y-132518571D01*
X104601428Y-132604285D01*
X104644285Y-132690000D01*
X104387142Y-131618571D02*
X104387142Y-131532857D01*
X104430000Y-131447142D01*
X104472857Y-131404285D01*
X104558571Y-131361428D01*
X104730000Y-131318571D01*
X104944285Y-131318571D01*
X105115714Y-131361428D01*
X105201428Y-131404285D01*
X105244285Y-131447142D01*
X105287142Y-131532857D01*
X105287142Y-131618571D01*
X105244285Y-131704285D01*
X105201428Y-131747142D01*
X105115714Y-131790000D01*
X104944285Y-131832857D01*
X104730000Y-131832857D01*
X104558571Y-131790000D01*
X104472857Y-131747142D01*
X104430000Y-131704285D01*
X104387142Y-131618571D01*
X101787380Y-133488333D02*
X102787380Y-133155000D01*
X101787380Y-132821666D01*
X102692142Y-131916904D02*
X102739761Y-131964523D01*
X102787380Y-132107380D01*
X102787380Y-132202619D01*
X102739761Y-132345476D01*
X102644523Y-132440714D01*
X102549285Y-132488333D01*
X102358809Y-132535952D01*
X102215952Y-132535952D01*
X102025476Y-132488333D01*
X101930238Y-132440714D01*
X101835000Y-132345476D01*
X101787380Y-132202619D01*
X101787380Y-132107380D01*
X101835000Y-131964523D01*
X101882619Y-131916904D01*
X102692142Y-130916904D02*
X102739761Y-130964523D01*
X102787380Y-131107380D01*
X102787380Y-131202619D01*
X102739761Y-131345476D01*
X102644523Y-131440714D01*
X102549285Y-131488333D01*
X102358809Y-131535952D01*
X102215952Y-131535952D01*
X102025476Y-131488333D01*
X101930238Y-131440714D01*
X101835000Y-131345476D01*
X101787380Y-131202619D01*
X101787380Y-131107380D01*
X101835000Y-130964523D01*
X101882619Y-130916904D01*
X155115000Y-141686904D02*
X155067380Y-141782142D01*
X155067380Y-141925000D01*
X155115000Y-142067857D01*
X155210238Y-142163095D01*
X155305476Y-142210714D01*
X155495952Y-142258333D01*
X155638809Y-142258333D01*
X155829285Y-142210714D01*
X155924523Y-142163095D01*
X156019761Y-142067857D01*
X156067380Y-141925000D01*
X156067380Y-141829761D01*
X156019761Y-141686904D01*
X155972142Y-141639285D01*
X155638809Y-141639285D01*
X155638809Y-141829761D01*
X156067380Y-141210714D02*
X155067380Y-141210714D01*
X156067380Y-140639285D01*
X155067380Y-140639285D01*
X156067380Y-140163095D02*
X155067380Y-140163095D01*
X155067380Y-139925000D01*
X155115000Y-139782142D01*
X155210238Y-139686904D01*
X155305476Y-139639285D01*
X155495952Y-139591666D01*
X155638809Y-139591666D01*
X155829285Y-139639285D01*
X155924523Y-139686904D01*
X156019761Y-139782142D01*
X156067380Y-139925000D01*
X156067380Y-140163095D01*
X153264761Y-144452380D02*
X153312380Y-144309523D01*
X153312380Y-144071428D01*
X153264761Y-143976190D01*
X153217142Y-143928571D01*
X153121904Y-143880952D01*
X153026666Y-143880952D01*
X152931428Y-143928571D01*
X152883809Y-143976190D01*
X152836190Y-144071428D01*
X152788571Y-144261904D01*
X152740952Y-144357142D01*
X152693333Y-144404761D01*
X152598095Y-144452380D01*
X152502857Y-144452380D01*
X152407619Y-144404761D01*
X152360000Y-144357142D01*
X152312380Y-144261904D01*
X152312380Y-144023809D01*
X152360000Y-143880952D01*
X153312380Y-143452380D02*
X152312380Y-143452380D01*
X153312380Y-142880952D01*
X152312380Y-142880952D01*
X153312380Y-142404761D02*
X152312380Y-142404761D01*
X152312380Y-142166666D01*
X152360000Y-142023809D01*
X152455238Y-141928571D01*
X152550476Y-141880952D01*
X152740952Y-141833333D01*
X152883809Y-141833333D01*
X153074285Y-141880952D01*
X153169523Y-141928571D01*
X153264761Y-142023809D01*
X153312380Y-142166666D01*
X153312380Y-142404761D01*
X153312380Y-140642857D02*
X152312380Y-140642857D01*
X153312380Y-140166666D02*
X152312380Y-140166666D01*
X153312380Y-139595238D01*
X152312380Y-139595238D01*
X150621428Y-146650000D02*
X150621428Y-145888095D01*
X151002380Y-146269047D02*
X150240476Y-146269047D01*
X150002380Y-144935714D02*
X150002380Y-145411904D01*
X150478571Y-145459523D01*
X150430952Y-145411904D01*
X150383333Y-145316666D01*
X150383333Y-145078571D01*
X150430952Y-144983333D01*
X150478571Y-144935714D01*
X150573809Y-144888095D01*
X150811904Y-144888095D01*
X150907142Y-144935714D01*
X150954761Y-144983333D01*
X151002380Y-145078571D01*
X151002380Y-145316666D01*
X150954761Y-145411904D01*
X150907142Y-145459523D01*
X149954761Y-142983333D02*
X151240476Y-143840476D01*
X150335714Y-141459523D02*
X151002380Y-141459523D01*
X149954761Y-141697619D02*
X150669047Y-141935714D01*
X150669047Y-141316666D01*
X151002380Y-140935714D02*
X150002380Y-140935714D01*
X150621428Y-140840476D02*
X151002380Y-140554761D01*
X150335714Y-140554761D02*
X150716666Y-140935714D01*
X150002380Y-140221428D02*
X150002380Y-139554761D01*
X151002380Y-139983333D01*
X148304761Y-145699047D02*
X148352380Y-145556190D01*
X148352380Y-145318095D01*
X148304761Y-145222857D01*
X148257142Y-145175238D01*
X148161904Y-145127619D01*
X148066666Y-145127619D01*
X147971428Y-145175238D01*
X147923809Y-145222857D01*
X147876190Y-145318095D01*
X147828571Y-145508571D01*
X147780952Y-145603809D01*
X147733333Y-145651428D01*
X147638095Y-145699047D01*
X147542857Y-145699047D01*
X147447619Y-145651428D01*
X147400000Y-145603809D01*
X147352380Y-145508571D01*
X147352380Y-145270476D01*
X147400000Y-145127619D01*
X148352380Y-144699047D02*
X147352380Y-144699047D01*
X148352380Y-144127619D01*
X147352380Y-144127619D01*
X148352380Y-143651428D02*
X147352380Y-143651428D01*
X147352380Y-143413333D01*
X147400000Y-143270476D01*
X147495238Y-143175238D01*
X147590476Y-143127619D01*
X147780952Y-143080000D01*
X147923809Y-143080000D01*
X148114285Y-143127619D01*
X148209523Y-143175238D01*
X148304761Y-143270476D01*
X148352380Y-143413333D01*
X148352380Y-143651428D01*
X147352380Y-141699047D02*
X147352380Y-141508571D01*
X147400000Y-141413333D01*
X147495238Y-141318095D01*
X147685714Y-141270476D01*
X148019047Y-141270476D01*
X148209523Y-141318095D01*
X148304761Y-141413333D01*
X148352380Y-141508571D01*
X148352380Y-141699047D01*
X148304761Y-141794285D01*
X148209523Y-141889523D01*
X148019047Y-141937142D01*
X147685714Y-141937142D01*
X147495238Y-141889523D01*
X147400000Y-141794285D01*
X147352380Y-141699047D01*
X147352380Y-140841904D02*
X148161904Y-140841904D01*
X148257142Y-140794285D01*
X148304761Y-140746666D01*
X148352380Y-140651428D01*
X148352380Y-140460952D01*
X148304761Y-140365714D01*
X148257142Y-140318095D01*
X148161904Y-140270476D01*
X147352380Y-140270476D01*
X147352380Y-139937142D02*
X147352380Y-139365714D01*
X148352380Y-139651428D02*
X147352380Y-139651428D01*
X145762380Y-144482857D02*
X145286190Y-144816190D01*
X145762380Y-145054285D02*
X144762380Y-145054285D01*
X144762380Y-144673333D01*
X144810000Y-144578095D01*
X144857619Y-144530476D01*
X144952857Y-144482857D01*
X145095714Y-144482857D01*
X145190952Y-144530476D01*
X145238571Y-144578095D01*
X145286190Y-144673333D01*
X145286190Y-145054285D01*
X144762380Y-143863809D02*
X144762380Y-143673333D01*
X144810000Y-143578095D01*
X144905238Y-143482857D01*
X145095714Y-143435238D01*
X145429047Y-143435238D01*
X145619523Y-143482857D01*
X145714761Y-143578095D01*
X145762380Y-143673333D01*
X145762380Y-143863809D01*
X145714761Y-143959047D01*
X145619523Y-144054285D01*
X145429047Y-144101904D01*
X145095714Y-144101904D01*
X144905238Y-144054285D01*
X144810000Y-143959047D01*
X144762380Y-143863809D01*
X145762380Y-143006666D02*
X144762380Y-143006666D01*
X145476666Y-142673333D01*
X144762380Y-142340000D01*
X145762380Y-142340000D01*
X145714761Y-141911428D02*
X145762380Y-141768571D01*
X145762380Y-141530476D01*
X145714761Y-141435238D01*
X145667142Y-141387619D01*
X145571904Y-141340000D01*
X145476666Y-141340000D01*
X145381428Y-141387619D01*
X145333809Y-141435238D01*
X145286190Y-141530476D01*
X145238571Y-141720952D01*
X145190952Y-141816190D01*
X145143333Y-141863809D01*
X145048095Y-141911428D01*
X144952857Y-141911428D01*
X144857619Y-141863809D01*
X144810000Y-141816190D01*
X144762380Y-141720952D01*
X144762380Y-141482857D01*
X144810000Y-141340000D01*
X144762380Y-141054285D02*
X144762380Y-140482857D01*
X145762380Y-140768571D02*
X144762380Y-140768571D01*
X145238571Y-139816190D02*
X145286190Y-139673333D01*
X145333809Y-139625714D01*
X145429047Y-139578095D01*
X145571904Y-139578095D01*
X145667142Y-139625714D01*
X145714761Y-139673333D01*
X145762380Y-139768571D01*
X145762380Y-140149523D01*
X144762380Y-140149523D01*
X144762380Y-139816190D01*
X144810000Y-139720952D01*
X144857619Y-139673333D01*
X144952857Y-139625714D01*
X145048095Y-139625714D01*
X145143333Y-139673333D01*
X145190952Y-139720952D01*
X145238571Y-139816190D01*
X145238571Y-140149523D01*
X143222380Y-144542857D02*
X143222380Y-145114285D01*
X143222380Y-144828571D02*
X142222380Y-144828571D01*
X142365238Y-144923809D01*
X142460476Y-145019047D01*
X142508095Y-145114285D01*
X142222380Y-143685714D02*
X142222380Y-143876190D01*
X142270000Y-143971428D01*
X142317619Y-144019047D01*
X142460476Y-144114285D01*
X142650952Y-144161904D01*
X143031904Y-144161904D01*
X143127142Y-144114285D01*
X143174761Y-144066666D01*
X143222380Y-143971428D01*
X143222380Y-143780952D01*
X143174761Y-143685714D01*
X143127142Y-143638095D01*
X143031904Y-143590476D01*
X142793809Y-143590476D01*
X142698571Y-143638095D01*
X142650952Y-143685714D01*
X142603333Y-143780952D01*
X142603333Y-143971428D01*
X142650952Y-144066666D01*
X142698571Y-144114285D01*
X142793809Y-144161904D01*
X143222380Y-142400000D02*
X142222380Y-142400000D01*
X142936666Y-142066666D01*
X142222380Y-141733333D01*
X143222380Y-141733333D01*
X143222380Y-141257142D02*
X142222380Y-141257142D01*
X142698571Y-141257142D02*
X142698571Y-140685714D01*
X143222380Y-140685714D02*
X142222380Y-140685714D01*
X142222380Y-140304761D02*
X142222380Y-139638095D01*
X143222380Y-140304761D01*
X143222380Y-139638095D01*
X140627380Y-143738095D02*
X140151190Y-144071428D01*
X140627380Y-144309523D02*
X139627380Y-144309523D01*
X139627380Y-143928571D01*
X139675000Y-143833333D01*
X139722619Y-143785714D01*
X139817857Y-143738095D01*
X139960714Y-143738095D01*
X140055952Y-143785714D01*
X140103571Y-143833333D01*
X140151190Y-143928571D01*
X140151190Y-144309523D01*
X139627380Y-143119047D02*
X139627380Y-142928571D01*
X139675000Y-142833333D01*
X139770238Y-142738095D01*
X139960714Y-142690476D01*
X140294047Y-142690476D01*
X140484523Y-142738095D01*
X140579761Y-142833333D01*
X140627380Y-142928571D01*
X140627380Y-143119047D01*
X140579761Y-143214285D01*
X140484523Y-143309523D01*
X140294047Y-143357142D01*
X139960714Y-143357142D01*
X139770238Y-143309523D01*
X139675000Y-143214285D01*
X139627380Y-143119047D01*
X140627380Y-142261904D02*
X139627380Y-142261904D01*
X140341666Y-141928571D01*
X139627380Y-141595238D01*
X140627380Y-141595238D01*
X140722619Y-140452380D02*
X140675000Y-140547619D01*
X140579761Y-140642857D01*
X140436904Y-140785714D01*
X140389285Y-140880952D01*
X140389285Y-140976190D01*
X140627380Y-140928571D02*
X140579761Y-141023809D01*
X140484523Y-141119047D01*
X140294047Y-141166666D01*
X139960714Y-141166666D01*
X139770238Y-141119047D01*
X139675000Y-141023809D01*
X139627380Y-140928571D01*
X139627380Y-140738095D01*
X139675000Y-140642857D01*
X139770238Y-140547619D01*
X139960714Y-140500000D01*
X140294047Y-140500000D01*
X140484523Y-140547619D01*
X140579761Y-140642857D01*
X140627380Y-140738095D01*
X140627380Y-140928571D01*
X140341666Y-140119047D02*
X140341666Y-139642857D01*
X140627380Y-140214285D02*
X139627380Y-139880952D01*
X140627380Y-139547619D01*
X138317380Y-143015476D02*
X137317380Y-143015476D01*
X137317380Y-142634523D01*
X137365000Y-142539285D01*
X137412619Y-142491666D01*
X137507857Y-142444047D01*
X137650714Y-142444047D01*
X137745952Y-142491666D01*
X137793571Y-142539285D01*
X137841190Y-142634523D01*
X137841190Y-143015476D01*
X137365000Y-141491666D02*
X137317380Y-141586904D01*
X137317380Y-141729761D01*
X137365000Y-141872619D01*
X137460238Y-141967857D01*
X137555476Y-142015476D01*
X137745952Y-142063095D01*
X137888809Y-142063095D01*
X138079285Y-142015476D01*
X138174523Y-141967857D01*
X138269761Y-141872619D01*
X138317380Y-141729761D01*
X138317380Y-141634523D01*
X138269761Y-141491666D01*
X138222142Y-141444047D01*
X137888809Y-141444047D01*
X137888809Y-141634523D01*
X137793571Y-140682142D02*
X137793571Y-141015476D01*
X138317380Y-141015476D02*
X137317380Y-141015476D01*
X137317380Y-140539285D01*
X138317380Y-140158333D02*
X137317380Y-140158333D01*
X137317380Y-139920238D01*
X137365000Y-139777380D01*
X137460238Y-139682142D01*
X137555476Y-139634523D01*
X137745952Y-139586904D01*
X137888809Y-139586904D01*
X138079285Y-139634523D01*
X138174523Y-139682142D01*
X138269761Y-139777380D01*
X138317380Y-139920238D01*
X138317380Y-140158333D01*
X135792380Y-143090476D02*
X134792380Y-143090476D01*
X134792380Y-142709523D01*
X134840000Y-142614285D01*
X134887619Y-142566666D01*
X134982857Y-142519047D01*
X135125714Y-142519047D01*
X135220952Y-142566666D01*
X135268571Y-142614285D01*
X135316190Y-142709523D01*
X135316190Y-143090476D01*
X134840000Y-141566666D02*
X134792380Y-141661904D01*
X134792380Y-141804761D01*
X134840000Y-141947619D01*
X134935238Y-142042857D01*
X135030476Y-142090476D01*
X135220952Y-142138095D01*
X135363809Y-142138095D01*
X135554285Y-142090476D01*
X135649523Y-142042857D01*
X135744761Y-141947619D01*
X135792380Y-141804761D01*
X135792380Y-141709523D01*
X135744761Y-141566666D01*
X135697142Y-141519047D01*
X135363809Y-141519047D01*
X135363809Y-141709523D01*
X135268571Y-140757142D02*
X135268571Y-141090476D01*
X135792380Y-141090476D02*
X134792380Y-141090476D01*
X134792380Y-140614285D01*
X135697142Y-139661904D02*
X135744761Y-139709523D01*
X135792380Y-139852380D01*
X135792380Y-139947619D01*
X135744761Y-140090476D01*
X135649523Y-140185714D01*
X135554285Y-140233333D01*
X135363809Y-140280952D01*
X135220952Y-140280952D01*
X135030476Y-140233333D01*
X134935238Y-140185714D01*
X134840000Y-140090476D01*
X134792380Y-139947619D01*
X134792380Y-139852380D01*
X134840000Y-139709523D01*
X134887619Y-139661904D01*
X133217380Y-141773809D02*
X132217380Y-141773809D01*
X133217380Y-140726190D02*
X132741190Y-141059523D01*
X133217380Y-141297619D02*
X132217380Y-141297619D01*
X132217380Y-140916666D01*
X132265000Y-140821428D01*
X132312619Y-140773809D01*
X132407857Y-140726190D01*
X132550714Y-140726190D01*
X132645952Y-140773809D01*
X132693571Y-140821428D01*
X132741190Y-140916666D01*
X132741190Y-141297619D01*
X133312619Y-139630952D02*
X133265000Y-139726190D01*
X133169761Y-139821428D01*
X133026904Y-139964285D01*
X132979285Y-140059523D01*
X132979285Y-140154761D01*
X133217380Y-140107142D02*
X133169761Y-140202380D01*
X133074523Y-140297619D01*
X132884047Y-140345238D01*
X132550714Y-140345238D01*
X132360238Y-140297619D01*
X132265000Y-140202380D01*
X132217380Y-140107142D01*
X132217380Y-139916666D01*
X132265000Y-139821428D01*
X132360238Y-139726190D01*
X132550714Y-139678571D01*
X132884047Y-139678571D01*
X133074523Y-139726190D01*
X133169761Y-139821428D01*
X133217380Y-139916666D01*
X133217380Y-140107142D01*
X130692380Y-141970238D02*
X129692380Y-141970238D01*
X130692380Y-141398809D01*
X129692380Y-141398809D01*
X130692380Y-140922619D02*
X129692380Y-140922619D01*
X130406666Y-140589285D01*
X129692380Y-140255952D01*
X130692380Y-140255952D01*
X130692380Y-139779761D02*
X129692380Y-139779761D01*
X128217380Y-141494047D02*
X127741190Y-141827380D01*
X128217380Y-142065476D02*
X127217380Y-142065476D01*
X127217380Y-141684523D01*
X127265000Y-141589285D01*
X127312619Y-141541666D01*
X127407857Y-141494047D01*
X127550714Y-141494047D01*
X127645952Y-141541666D01*
X127693571Y-141589285D01*
X127741190Y-141684523D01*
X127741190Y-142065476D01*
X128217380Y-141065476D02*
X127217380Y-141065476D01*
X127217380Y-140827380D01*
X127265000Y-140684523D01*
X127360238Y-140589285D01*
X127455476Y-140541666D01*
X127645952Y-140494047D01*
X127788809Y-140494047D01*
X127979285Y-140541666D01*
X128074523Y-140589285D01*
X128169761Y-140684523D01*
X128217380Y-140827380D01*
X128217380Y-141065476D01*
X127741190Y-139875000D02*
X128217380Y-139875000D01*
X127217380Y-140208333D02*
X127741190Y-139875000D01*
X127217380Y-139541666D01*
X124825714Y-141944047D02*
X125492380Y-141944047D01*
X124920952Y-141944047D02*
X124873333Y-141896428D01*
X124825714Y-141801190D01*
X124825714Y-141658333D01*
X124873333Y-141563095D01*
X124968571Y-141515476D01*
X125492380Y-141515476D01*
X125397142Y-141039285D02*
X125444761Y-140991666D01*
X125492380Y-141039285D01*
X125444761Y-141086904D01*
X125397142Y-141039285D01*
X125492380Y-141039285D01*
X125444761Y-140134523D02*
X125492380Y-140229761D01*
X125492380Y-140420238D01*
X125444761Y-140515476D01*
X125397142Y-140563095D01*
X125301904Y-140610714D01*
X125016190Y-140610714D01*
X124920952Y-140563095D01*
X124873333Y-140515476D01*
X124825714Y-140420238D01*
X124825714Y-140229761D01*
X124873333Y-140134523D01*
X125397142Y-139705952D02*
X125444761Y-139658333D01*
X125492380Y-139705952D01*
X125444761Y-139753571D01*
X125397142Y-139705952D01*
X125492380Y-139705952D01*
X122736428Y-142335714D02*
X122736428Y-141573809D01*
X122117380Y-140621428D02*
X122117380Y-141097619D01*
X122593571Y-141145238D01*
X122545952Y-141097619D01*
X122498333Y-141002380D01*
X122498333Y-140764285D01*
X122545952Y-140669047D01*
X122593571Y-140621428D01*
X122688809Y-140573809D01*
X122926904Y-140573809D01*
X123022142Y-140621428D01*
X123069761Y-140669047D01*
X123117380Y-140764285D01*
X123117380Y-141002380D01*
X123069761Y-141097619D01*
X123022142Y-141145238D01*
X122117380Y-140288095D02*
X123117380Y-139954761D01*
X122117380Y-139621428D01*
X119517380Y-140670238D02*
X120517380Y-141432142D01*
X120517380Y-141146428D02*
X120469761Y-141241666D01*
X120374523Y-141336904D01*
X120184047Y-141384523D01*
X119850714Y-141384523D01*
X119660238Y-141336904D01*
X119565000Y-141241666D01*
X119517380Y-141146428D01*
X119517380Y-140955952D01*
X119565000Y-140860714D01*
X119660238Y-140765476D01*
X119850714Y-140717857D01*
X120184047Y-140717857D01*
X120374523Y-140765476D01*
X120469761Y-140860714D01*
X120517380Y-140955952D01*
X120517380Y-141146428D01*
X119517380Y-140098809D02*
X119517380Y-140003571D01*
X119565000Y-139908333D01*
X119612619Y-139860714D01*
X119707857Y-139813095D01*
X119898333Y-139765476D01*
X120136428Y-139765476D01*
X120326904Y-139813095D01*
X120422142Y-139860714D01*
X120469761Y-139908333D01*
X120517380Y-140003571D01*
X120517380Y-140098809D01*
X120469761Y-140194047D01*
X120422142Y-140241666D01*
X120326904Y-140289285D01*
X120136428Y-140336904D01*
X119898333Y-140336904D01*
X119707857Y-140289285D01*
X119612619Y-140241666D01*
X119565000Y-140194047D01*
X119517380Y-140098809D01*
X117806666Y-142165476D02*
X117806666Y-141689285D01*
X118092380Y-142260714D02*
X117092380Y-141927380D01*
X118092380Y-141594047D01*
X118092380Y-140736904D02*
X118092380Y-141308333D01*
X118092380Y-141022619D02*
X117092380Y-141022619D01*
X117235238Y-141117857D01*
X117330476Y-141213095D01*
X117378095Y-141308333D01*
X117187619Y-140355952D02*
X117140000Y-140308333D01*
X117092380Y-140213095D01*
X117092380Y-139975000D01*
X117140000Y-139879761D01*
X117187619Y-139832142D01*
X117282857Y-139784523D01*
X117378095Y-139784523D01*
X117520952Y-139832142D01*
X118092380Y-140403571D01*
X118092380Y-139784523D01*
X115206666Y-142165476D02*
X115206666Y-141689285D01*
X115492380Y-142260714D02*
X114492380Y-141927380D01*
X115492380Y-141594047D01*
X115492380Y-140736904D02*
X115492380Y-141308333D01*
X115492380Y-141022619D02*
X114492380Y-141022619D01*
X114635238Y-141117857D01*
X114730476Y-141213095D01*
X114778095Y-141308333D01*
X114492380Y-140403571D02*
X114492380Y-139784523D01*
X114873333Y-140117857D01*
X114873333Y-139975000D01*
X114920952Y-139879761D01*
X114968571Y-139832142D01*
X115063809Y-139784523D01*
X115301904Y-139784523D01*
X115397142Y-139832142D01*
X115444761Y-139879761D01*
X115492380Y-139975000D01*
X115492380Y-140260714D01*
X115444761Y-140355952D01*
X115397142Y-140403571D01*
X112631666Y-141289285D02*
X112631666Y-140813095D01*
X112917380Y-141384523D02*
X111917380Y-141051190D01*
X112917380Y-140717857D01*
X112345952Y-140241666D02*
X112298333Y-140336904D01*
X112250714Y-140384523D01*
X112155476Y-140432142D01*
X112107857Y-140432142D01*
X112012619Y-140384523D01*
X111965000Y-140336904D01*
X111917380Y-140241666D01*
X111917380Y-140051190D01*
X111965000Y-139955952D01*
X112012619Y-139908333D01*
X112107857Y-139860714D01*
X112155476Y-139860714D01*
X112250714Y-139908333D01*
X112298333Y-139955952D01*
X112345952Y-140051190D01*
X112345952Y-140241666D01*
X112393571Y-140336904D01*
X112441190Y-140384523D01*
X112536428Y-140432142D01*
X112726904Y-140432142D01*
X112822142Y-140384523D01*
X112869761Y-140336904D01*
X112917380Y-140241666D01*
X112917380Y-140051190D01*
X112869761Y-139955952D01*
X112822142Y-139908333D01*
X112726904Y-139860714D01*
X112536428Y-139860714D01*
X112441190Y-139908333D01*
X112393571Y-139955952D01*
X112345952Y-140051190D01*
X110417380Y-141935714D02*
X109941190Y-142269047D01*
X110417380Y-142507142D02*
X109417380Y-142507142D01*
X109417380Y-142126190D01*
X109465000Y-142030952D01*
X109512619Y-141983333D01*
X109607857Y-141935714D01*
X109750714Y-141935714D01*
X109845952Y-141983333D01*
X109893571Y-142030952D01*
X109941190Y-142126190D01*
X109941190Y-142507142D01*
X109369761Y-140792857D02*
X110655476Y-141650000D01*
X109417380Y-140554761D02*
X110417380Y-140316666D01*
X109703095Y-140126190D01*
X110417380Y-139935714D01*
X109417380Y-139697619D01*
X107812380Y-141507619D02*
X107336190Y-141840952D01*
X107812380Y-142079047D02*
X106812380Y-142079047D01*
X106812380Y-141698095D01*
X106860000Y-141602857D01*
X106907619Y-141555238D01*
X107002857Y-141507619D01*
X107145714Y-141507619D01*
X107240952Y-141555238D01*
X107288571Y-141602857D01*
X107336190Y-141698095D01*
X107336190Y-142079047D01*
X107764761Y-141126666D02*
X107812380Y-140983809D01*
X107812380Y-140745714D01*
X107764761Y-140650476D01*
X107717142Y-140602857D01*
X107621904Y-140555238D01*
X107526666Y-140555238D01*
X107431428Y-140602857D01*
X107383809Y-140650476D01*
X107336190Y-140745714D01*
X107288571Y-140936190D01*
X107240952Y-141031428D01*
X107193333Y-141079047D01*
X107098095Y-141126666D01*
X107002857Y-141126666D01*
X106907619Y-141079047D01*
X106860000Y-141031428D01*
X106812380Y-140936190D01*
X106812380Y-140698095D01*
X106860000Y-140555238D01*
X106812380Y-140269523D02*
X106812380Y-139698095D01*
X107812380Y-139983809D02*
X106812380Y-139983809D01*
X105222380Y-143591904D02*
X104746190Y-143925238D01*
X105222380Y-144163333D02*
X104222380Y-144163333D01*
X104222380Y-143782380D01*
X104270000Y-143687142D01*
X104317619Y-143639523D01*
X104412857Y-143591904D01*
X104555714Y-143591904D01*
X104650952Y-143639523D01*
X104698571Y-143687142D01*
X104746190Y-143782380D01*
X104746190Y-144163333D01*
X104222380Y-142972857D02*
X104222380Y-142782380D01*
X104270000Y-142687142D01*
X104365238Y-142591904D01*
X104555714Y-142544285D01*
X104889047Y-142544285D01*
X105079523Y-142591904D01*
X105174761Y-142687142D01*
X105222380Y-142782380D01*
X105222380Y-142972857D01*
X105174761Y-143068095D01*
X105079523Y-143163333D01*
X104889047Y-143210952D01*
X104555714Y-143210952D01*
X104365238Y-143163333D01*
X104270000Y-143068095D01*
X104222380Y-142972857D01*
X105222380Y-142115714D02*
X104222380Y-142115714D01*
X104936666Y-141782380D01*
X104222380Y-141449047D01*
X105222380Y-141449047D01*
X104222380Y-140782380D02*
X104222380Y-140591904D01*
X104270000Y-140496666D01*
X104365238Y-140401428D01*
X104555714Y-140353809D01*
X104889047Y-140353809D01*
X105079523Y-140401428D01*
X105174761Y-140496666D01*
X105222380Y-140591904D01*
X105222380Y-140782380D01*
X105174761Y-140877619D01*
X105079523Y-140972857D01*
X104889047Y-141020476D01*
X104555714Y-141020476D01*
X104365238Y-140972857D01*
X104270000Y-140877619D01*
X104222380Y-140782380D01*
X104698571Y-139925238D02*
X104698571Y-139591904D01*
X105222380Y-139449047D02*
X105222380Y-139925238D01*
X104222380Y-139925238D01*
X104222380Y-139449047D01*
X101692380Y-142158333D02*
X102692380Y-141825000D01*
X101692380Y-141491666D01*
X102597142Y-140586904D02*
X102644761Y-140634523D01*
X102692380Y-140777380D01*
X102692380Y-140872619D01*
X102644761Y-141015476D01*
X102549523Y-141110714D01*
X102454285Y-141158333D01*
X102263809Y-141205952D01*
X102120952Y-141205952D01*
X101930476Y-141158333D01*
X101835238Y-141110714D01*
X101740000Y-141015476D01*
X101692380Y-140872619D01*
X101692380Y-140777380D01*
X101740000Y-140634523D01*
X101787619Y-140586904D01*
X102597142Y-139586904D02*
X102644761Y-139634523D01*
X102692380Y-139777380D01*
X102692380Y-139872619D01*
X102644761Y-140015476D01*
X102549523Y-140110714D01*
X102454285Y-140158333D01*
X102263809Y-140205952D01*
X102120952Y-140205952D01*
X101930476Y-140158333D01*
X101835238Y-140110714D01*
X101740000Y-140015476D01*
X101692380Y-139872619D01*
X101692380Y-139777380D01*
X101740000Y-139634523D01*
X101787619Y-139586904D01*
X83045000Y-151750000D02*
X139545000Y-151750000D01*
D11*
X100960000Y-149810000D02*
X100960000Y-148480000D01*
X102290000Y-149810000D02*
X100960000Y-149810000D01*
X100960000Y-147210000D02*
X100960000Y-144610000D01*
X103560000Y-147210000D02*
X100960000Y-147210000D01*
X103560000Y-149810000D02*
X103560000Y-147210000D01*
X100960000Y-144610000D02*
X156960000Y-144610000D01*
X103560000Y-149810000D02*
X156960000Y-149810000D01*
X156960000Y-149810000D02*
X156960000Y-144610000D01*
X65200000Y-140940000D02*
X65200000Y-139610000D01*
X66530000Y-140940000D02*
X65200000Y-140940000D01*
X67800000Y-140940000D02*
X67800000Y-138280000D01*
X67800000Y-138280000D02*
X88180000Y-138280000D01*
X67800000Y-140940000D02*
X88180000Y-140940000D01*
X88180000Y-140940000D02*
X88180000Y-138280000D01*
X65240000Y-136470000D02*
X65240000Y-135140000D01*
X66570000Y-136470000D02*
X65240000Y-136470000D01*
X67840000Y-136470000D02*
X67840000Y-133810000D01*
X67840000Y-133810000D02*
X88220000Y-133810000D01*
X67840000Y-136470000D02*
X88220000Y-136470000D01*
X88220000Y-136470000D02*
X88220000Y-133810000D01*
X67810000Y-60260000D02*
X67810000Y-58930000D01*
X69140000Y-60260000D02*
X67810000Y-60260000D01*
X67810000Y-57660000D02*
X67810000Y-55060000D01*
X70410000Y-57660000D02*
X67810000Y-57660000D01*
X70410000Y-60260000D02*
X70410000Y-57660000D01*
X67810000Y-55060000D02*
X111110000Y-55060000D01*
X70410000Y-60260000D02*
X111110000Y-60260000D01*
X111110000Y-60260000D02*
X111110000Y-55060000D01*
X65200000Y-75490000D02*
X65200000Y-74160000D01*
X66530000Y-75490000D02*
X65200000Y-75490000D01*
X67800000Y-75490000D02*
X67800000Y-72830000D01*
X67800000Y-72830000D02*
X156760000Y-72830000D01*
X67800000Y-75490000D02*
X156760000Y-75490000D01*
X156760000Y-75490000D02*
X156760000Y-72830000D01*
X65200000Y-90730000D02*
X65200000Y-89400000D01*
X66530000Y-90730000D02*
X65200000Y-90730000D01*
X67800000Y-90730000D02*
X67800000Y-88070000D01*
X67800000Y-88070000D02*
X156760000Y-88070000D01*
X67800000Y-90730000D02*
X156760000Y-90730000D01*
X156760000Y-90730000D02*
X156760000Y-88070000D01*
X65190000Y-78030000D02*
X65190000Y-76700000D01*
X66520000Y-78030000D02*
X65190000Y-78030000D01*
X67790000Y-78030000D02*
X67790000Y-75370000D01*
X67790000Y-75370000D02*
X156750000Y-75370000D01*
X67790000Y-78030000D02*
X156750000Y-78030000D01*
X156750000Y-78030000D02*
X156750000Y-75370000D01*
X65200000Y-93270000D02*
X65200000Y-91940000D01*
X66530000Y-93270000D02*
X65200000Y-93270000D01*
X67800000Y-93270000D02*
X67800000Y-90610000D01*
X67800000Y-90610000D02*
X156760000Y-90610000D01*
X67800000Y-93270000D02*
X156760000Y-93270000D01*
X156760000Y-93270000D02*
X156760000Y-90610000D01*
X65200000Y-80570000D02*
X65200000Y-79240000D01*
X66530000Y-80570000D02*
X65200000Y-80570000D01*
X67800000Y-80570000D02*
X67800000Y-77910000D01*
X67800000Y-77910000D02*
X156760000Y-77910000D01*
X67800000Y-80570000D02*
X156760000Y-80570000D01*
X156760000Y-80570000D02*
X156760000Y-77910000D01*
X65200000Y-95810000D02*
X65200000Y-94480000D01*
X66530000Y-95810000D02*
X65200000Y-95810000D01*
X67800000Y-95810000D02*
X67800000Y-93150000D01*
X67800000Y-93150000D02*
X156760000Y-93150000D01*
X67800000Y-95810000D02*
X156760000Y-95810000D01*
X156760000Y-95810000D02*
X156760000Y-93150000D01*
X65200000Y-83110000D02*
X65200000Y-81780000D01*
X66530000Y-83110000D02*
X65200000Y-83110000D01*
X67800000Y-83110000D02*
X67800000Y-80450000D01*
X67800000Y-80450000D02*
X156760000Y-80450000D01*
X67800000Y-83110000D02*
X156760000Y-83110000D01*
X156760000Y-83110000D02*
X156760000Y-80450000D01*
X65200000Y-98350000D02*
X65200000Y-97020000D01*
X66530000Y-98350000D02*
X65200000Y-98350000D01*
X67800000Y-98350000D02*
X67800000Y-95690000D01*
X67800000Y-95690000D02*
X156760000Y-95690000D01*
X67800000Y-98350000D02*
X156760000Y-98350000D01*
X156760000Y-98350000D02*
X156760000Y-95690000D01*
X65200000Y-85650000D02*
X65200000Y-84320000D01*
X66530000Y-85650000D02*
X65200000Y-85650000D01*
X67800000Y-85650000D02*
X67800000Y-82990000D01*
X67800000Y-82990000D02*
X156760000Y-82990000D01*
X67800000Y-85650000D02*
X156760000Y-85650000D01*
X156760000Y-85650000D02*
X156760000Y-82990000D01*
X65200000Y-100890000D02*
X65200000Y-99560000D01*
X66530000Y-100890000D02*
X65200000Y-100890000D01*
X67800000Y-100890000D02*
X67800000Y-98230000D01*
X67800000Y-98230000D02*
X156760000Y-98230000D01*
X67800000Y-100890000D02*
X156760000Y-100890000D01*
X156760000Y-100890000D02*
X156760000Y-98230000D01*
X65200000Y-105970000D02*
X65200000Y-104640000D01*
X66530000Y-105970000D02*
X65200000Y-105970000D01*
X67800000Y-105970000D02*
X67800000Y-103310000D01*
X67800000Y-103310000D02*
X156760000Y-103310000D01*
X67800000Y-105970000D02*
X156760000Y-105970000D01*
X156760000Y-105970000D02*
X156760000Y-103310000D01*
X65200000Y-121210000D02*
X65200000Y-119880000D01*
X66530000Y-121210000D02*
X65200000Y-121210000D01*
X67800000Y-121210000D02*
X67800000Y-118550000D01*
X67800000Y-118550000D02*
X156760000Y-118550000D01*
X67800000Y-121210000D02*
X156760000Y-121210000D01*
X156760000Y-121210000D02*
X156760000Y-118550000D01*
X65200000Y-108510000D02*
X65200000Y-107180000D01*
X66530000Y-108510000D02*
X65200000Y-108510000D01*
X67800000Y-108510000D02*
X67800000Y-105850000D01*
X67800000Y-105850000D02*
X156760000Y-105850000D01*
X67800000Y-108510000D02*
X156760000Y-108510000D01*
X156760000Y-108510000D02*
X156760000Y-105850000D01*
X65200000Y-123750000D02*
X65200000Y-122420000D01*
X66530000Y-123750000D02*
X65200000Y-123750000D01*
X67800000Y-123750000D02*
X67800000Y-121090000D01*
X67800000Y-121090000D02*
X156760000Y-121090000D01*
X67800000Y-123750000D02*
X156760000Y-123750000D01*
X156760000Y-123750000D02*
X156760000Y-121090000D01*
X65200000Y-111050000D02*
X65200000Y-109720000D01*
X66530000Y-111050000D02*
X65200000Y-111050000D01*
X67800000Y-111050000D02*
X67800000Y-108390000D01*
X67800000Y-108390000D02*
X156760000Y-108390000D01*
X67800000Y-111050000D02*
X156760000Y-111050000D01*
X156760000Y-111050000D02*
X156760000Y-108390000D01*
X65200000Y-126290000D02*
X65200000Y-124960000D01*
X66530000Y-126290000D02*
X65200000Y-126290000D01*
X67800000Y-126290000D02*
X67800000Y-123630000D01*
X67800000Y-123630000D02*
X156760000Y-123630000D01*
X67800000Y-126290000D02*
X156760000Y-126290000D01*
X156760000Y-126290000D02*
X156760000Y-123630000D01*
X65200000Y-113590000D02*
X65200000Y-112260000D01*
X66530000Y-113590000D02*
X65200000Y-113590000D01*
X67800000Y-113590000D02*
X67800000Y-110930000D01*
X67800000Y-110930000D02*
X156760000Y-110930000D01*
X67800000Y-113590000D02*
X156760000Y-113590000D01*
X156760000Y-113590000D02*
X156760000Y-110930000D01*
X65200000Y-128830000D02*
X65200000Y-127500000D01*
X66530000Y-128830000D02*
X65200000Y-128830000D01*
X67800000Y-128830000D02*
X67800000Y-126170000D01*
X67800000Y-126170000D02*
X156760000Y-126170000D01*
X67800000Y-128830000D02*
X156760000Y-128830000D01*
X156760000Y-128830000D02*
X156760000Y-126170000D01*
X65200000Y-116130000D02*
X65200000Y-114800000D01*
X66530000Y-116130000D02*
X65200000Y-116130000D01*
X67800000Y-116130000D02*
X67800000Y-113470000D01*
X67800000Y-113470000D02*
X156760000Y-113470000D01*
X67800000Y-116130000D02*
X156760000Y-116130000D01*
X156760000Y-116130000D02*
X156760000Y-113470000D01*
X65200000Y-131370000D02*
X65200000Y-130040000D01*
X66530000Y-131370000D02*
X65200000Y-131370000D01*
X67800000Y-131370000D02*
X67800000Y-128710000D01*
X67800000Y-128710000D02*
X156760000Y-128710000D01*
X67800000Y-131370000D02*
X156760000Y-131370000D01*
X156760000Y-131370000D02*
X156760000Y-128710000D01*
X127350000Y-71490000D02*
X127350000Y-70160000D01*
X128680000Y-71490000D02*
X127350000Y-71490000D01*
X127350000Y-68890000D02*
X127350000Y-66290000D01*
X129950000Y-68890000D02*
X127350000Y-68890000D01*
X129950000Y-71490000D02*
X129950000Y-68890000D01*
X127350000Y-66290000D02*
X152870000Y-66290000D01*
X129950000Y-71490000D02*
X152870000Y-71490000D01*
X152870000Y-71490000D02*
X152870000Y-66290000D01*
X127350000Y-60230000D02*
X127350000Y-58900000D01*
X128680000Y-60230000D02*
X127350000Y-60230000D01*
X127350000Y-57630000D02*
X127350000Y-55030000D01*
X129950000Y-57630000D02*
X127350000Y-57630000D01*
X129950000Y-60230000D02*
X129950000Y-57630000D01*
X127350000Y-55030000D02*
X152870000Y-55030000D01*
X129950000Y-60230000D02*
X152870000Y-60230000D01*
X152870000Y-60230000D02*
X152870000Y-55030000D01*
X67810000Y-71490000D02*
X67810000Y-70160000D01*
X69140000Y-71490000D02*
X67810000Y-71490000D01*
X67810000Y-68890000D02*
X67810000Y-66290000D01*
X70410000Y-68890000D02*
X67810000Y-68890000D01*
X70410000Y-71490000D02*
X70410000Y-68890000D01*
X67810000Y-66290000D02*
X111110000Y-66290000D01*
X70410000Y-71490000D02*
X111110000Y-71490000D01*
X111110000Y-71490000D02*
X111110000Y-66290000D01*
X100960000Y-138990000D02*
X100960000Y-137660000D01*
X102290000Y-138990000D02*
X100960000Y-138990000D01*
X100960000Y-136390000D02*
X100960000Y-133790000D01*
X103560000Y-136390000D02*
X100960000Y-136390000D01*
X103560000Y-138990000D02*
X103560000Y-136390000D01*
X100960000Y-133790000D02*
X156960000Y-133790000D01*
X103560000Y-138990000D02*
X156960000Y-138990000D01*
X156960000Y-138990000D02*
X156960000Y-133790000D01*
D13*
X82089666Y-164788380D02*
X82089666Y-165502666D01*
X82042047Y-165645523D01*
X81946809Y-165740761D01*
X81803952Y-165788380D01*
X81708714Y-165788380D01*
X83089666Y-165788380D02*
X82518238Y-165788380D01*
X82803952Y-165788380D02*
X82803952Y-164788380D01*
X82708714Y-164931238D01*
X82613476Y-165026476D01*
X82518238Y-165074095D01*
X137488809Y-164202380D02*
X137584047Y-164202380D01*
X137679285Y-164250000D01*
X137726904Y-164297619D01*
X137774523Y-164392857D01*
X137822142Y-164583333D01*
X137822142Y-164821428D01*
X137774523Y-165011904D01*
X137726904Y-165107142D01*
X137679285Y-165154761D01*
X137584047Y-165202380D01*
X137488809Y-165202380D01*
X137393571Y-165154761D01*
X137345952Y-165107142D01*
X137298333Y-165011904D01*
X137250714Y-164821428D01*
X137250714Y-164583333D01*
X137298333Y-164392857D01*
X137345952Y-164297619D01*
X137393571Y-164250000D01*
X137488809Y-164202380D01*
X138107857Y-164202380D02*
X138441190Y-165202380D01*
X138774523Y-164202380D01*
X84434523Y-164202380D02*
X83958333Y-164202380D01*
X83910714Y-164678571D01*
X83958333Y-164630952D01*
X84053571Y-164583333D01*
X84291666Y-164583333D01*
X84386904Y-164630952D01*
X84434523Y-164678571D01*
X84482142Y-164773809D01*
X84482142Y-165011904D01*
X84434523Y-165107142D01*
X84386904Y-165154761D01*
X84291666Y-165202380D01*
X84053571Y-165202380D01*
X83958333Y-165154761D01*
X83910714Y-165107142D01*
X84767857Y-164202380D02*
X85101190Y-165202380D01*
X85434523Y-164202380D01*
D16*
X100577761Y-165180047D02*
X100577761Y-159846714D01*
X100577761Y-161370523D02*
X100958714Y-160608619D01*
X101339666Y-160227666D01*
X102101571Y-159846714D01*
X102863476Y-159846714D01*
X108577761Y-164799095D02*
X107815857Y-165180047D01*
X106292047Y-165180047D01*
X105530142Y-164799095D01*
X105149190Y-164037190D01*
X105149190Y-160989571D01*
X105530142Y-160227666D01*
X106292047Y-159846714D01*
X107815857Y-159846714D01*
X108577761Y-160227666D01*
X108958714Y-160989571D01*
X108958714Y-161751476D01*
X105149190Y-162513380D01*
X115815857Y-165180047D02*
X115815857Y-160989571D01*
X115434904Y-160227666D01*
X114673000Y-159846714D01*
X113149190Y-159846714D01*
X112387285Y-160227666D01*
X115815857Y-164799095D02*
X115053952Y-165180047D01*
X113149190Y-165180047D01*
X112387285Y-164799095D01*
X112006333Y-164037190D01*
X112006333Y-163275285D01*
X112387285Y-162513380D01*
X113149190Y-162132428D01*
X115053952Y-162132428D01*
X115815857Y-161751476D01*
X119625380Y-165180047D02*
X119625380Y-159846714D01*
X119625380Y-161370523D02*
X120006333Y-160608619D01*
X120387285Y-160227666D01*
X121149190Y-159846714D01*
X121911095Y-159846714D01*
D13*
X125802380Y-69223333D02*
X126516666Y-69223333D01*
X126659523Y-69270952D01*
X126754761Y-69366190D01*
X126802380Y-69509047D01*
X126802380Y-69604285D01*
X125802380Y-68318571D02*
X125802380Y-68509047D01*
X125850000Y-68604285D01*
X125897619Y-68651904D01*
X126040476Y-68747142D01*
X126230952Y-68794761D01*
X126611904Y-68794761D01*
X126707142Y-68747142D01*
X126754761Y-68699523D01*
X126802380Y-68604285D01*
X126802380Y-68413809D01*
X126754761Y-68318571D01*
X126707142Y-68270952D01*
X126611904Y-68223333D01*
X126373809Y-68223333D01*
X126278571Y-68270952D01*
X126230952Y-68318571D01*
X126183333Y-68413809D01*
X126183333Y-68604285D01*
X126230952Y-68699523D01*
X126278571Y-68747142D01*
X126373809Y-68794761D01*
X125802380Y-57963333D02*
X126516666Y-57963333D01*
X126659523Y-58010952D01*
X126754761Y-58106190D01*
X126802380Y-58249047D01*
X126802380Y-58344285D01*
X125802380Y-57010952D02*
X125802380Y-57487142D01*
X126278571Y-57534761D01*
X126230952Y-57487142D01*
X126183333Y-57391904D01*
X126183333Y-57153809D01*
X126230952Y-57058571D01*
X126278571Y-57010952D01*
X126373809Y-56963333D01*
X126611904Y-56963333D01*
X126707142Y-57010952D01*
X126754761Y-57058571D01*
X126802380Y-57153809D01*
X126802380Y-57391904D01*
X126754761Y-57487142D01*
X126707142Y-57534761D01*
M02*
